<?xml version="1.0" encoding="UTF-8" standalone="no"?>
<!-- Generator: Adobe Illustrator 27.3.1, SVG Export Plug-In . SVG Version: 6.00 Build 0)  -->

<svg
   version="1.1"
   id="Layer_1"
   x="0px"
   y="0px"
   viewBox="0 0 31.999998 31.999998"
   xml:space="preserve"
   sodipodi:docname="logo-mark-dark.svg"
   width="31.999998"
   height="31.999998"
   inkscape:version="1.4.2 (f4327f4, 2025-05-13)"
   xmlns:inkscape="http://www.inkscape.org/namespaces/inkscape"
   xmlns:sodipodi="http://sodipodi.sourceforge.net/DTD/sodipodi-0.dtd"
   xmlns="http://www.w3.org/2000/svg"
   xmlns:svg="http://www.w3.org/2000/svg"><defs
   id="defs46" /><sodipodi:namedview
   id="namedview46"
   pagecolor="#ffffff"
   bordercolor="#000000"
   borderopacity="0.25"
   inkscape:showpageshadow="2"
   inkscape:pageopacity="0.0"
   inkscape:pagecheckerboard="0"
   inkscape:deskcolor="#d1d1d1"
   showgrid="false"
   inkscape:zoom="0.81944444"
   inkscape:cx="310.57627"
   inkscape:cy="305.69492"
   inkscape:window-width="1920"
   inkscape:window-height="1129"
   inkscape:window-x="-8"
   inkscape:window-y="-8"
   inkscape:window-maximized="1"
   inkscape:current-layer="Layer_1" />
<style
   type="text/css"
   id="style1">
	.st0{fill:#011634;}
	.st1{fill:#2076B7;}
	.st2{fill:none;stroke:#FFFFFF;stroke-width:8;stroke-miterlimit:10;}
	.st3{fill:#FFFFFF;}
	.st4{fill:#EF3823;}
	.st5{fill:#FDC91B;}
	.st6{fill:#FFB02E;}
	.st7{opacity:0;fill:#C8DEEB;}
	.st8{fill:#2078B7;}
	.st9{fill:#C8DEEB;}
	.st10{fill:none;stroke:#011634;stroke-width:8;stroke-miterlimit:10;}
</style>
<g
   id="g46"
   transform="matrix(0.05223637,0,0,0.05223637,-11.967354,-12.20764)">
	<circle
   class="st10"
   cx="535.40002"
   cy="540"
   r="302.29999"
   id="circle1" />
	<g
   id="g45">
		<g
   id="g9">
			<g
   id="g8">
				<path
   class="st0"
   d="m 355.1,635.7 c -1.3,-0.8 -2.7,-1.5 -4.2,-2.2 -1.5,-0.7 -3.1,-1.3 -4.6,-1.9 -1.5,-0.6 -3.1,-1 -4.6,-1.3 -1.5,-0.3 -2.9,-0.5 -4.1,-0.5 -0.7,0 -1.4,0.1 -2,0.2 -0.7,0.1 -1.3,0.3 -1.8,0.7 -0.5,0.4 -1,0.7 -1.3,1.2 -0.3,0.5 -0.5,1.1 -0.5,1.8 0,1.2 0.4,2.1 1.2,2.9 0.8,0.8 1.9,1.4 3.2,2 1.3,0.6 2.9,1.1 4.6,1.5 1.7,0.5 3.5,1 5.3,1.6 1.8,0.6 3.5,1.3 5.3,2.1 1.8,0.8 3.3,1.8 4.6,3 1.3,1.2 2.4,2.7 3.2,4.5 0.8,1.8 1.2,3.9 1.2,6.4 0,3 -0.6,5.5 -1.8,7.6 -1.2,2.1 -2.9,3.9 -4.9,5.3 -2,1.4 -4.4,2.4 -7,3.1 -2.6,0.7 -5.4,1 -8.2,1 -2.2,0 -4.5,-0.2 -6.8,-0.6 -2.3,-0.4 -4.5,-1 -6.7,-1.7 -2.2,-0.8 -4.3,-1.7 -6.3,-2.8 -2,-1.1 -3.9,-2.3 -5.6,-3.7 l 5.6,-11.2 c 1.3,1.2 2.9,2.3 4.5,3.3 1.7,1 3.4,1.9 5.1,2.7 1.7,0.8 3.5,1.3 5.3,1.8 1.8,0.5 3.4,0.6 4.9,0.6 0.9,0 1.7,-0.1 2.5,-0.2 0.8,-0.2 1.5,-0.4 2.1,-0.8 0.6,-0.4 1.1,-0.9 1.5,-1.4 0.4,-0.6 0.6,-1.3 0.6,-2.2 0,-1.2 -0.4,-2.2 -1.2,-2.9 -0.8,-0.8 -1.9,-1.4 -3.2,-2 -1.3,-0.6 -2.9,-1.1 -4.6,-1.5 -1.7,-0.4 -3.5,-0.9 -5.3,-1.5 -1.8,-0.6 -3.5,-1.2 -5.3,-2 -1.7,-0.8 -3.3,-1.7 -4.6,-2.9 -1.3,-1.2 -2.4,-2.6 -3.2,-4.3 -0.8,-1.7 -1.2,-3.8 -1.2,-6.2 0,-2.7 0.6,-5.2 1.7,-7.3 1.1,-2.1 2.7,-3.8 4.7,-5.3 2,-1.4 4.3,-2.5 7,-3.2 2.7,-0.7 5.5,-1.1 8.6,-1.1 1.9,0 3.9,0.1 5.9,0.4 2,0.3 3.9,0.7 5.8,1.2 1.9,0.5 3.7,1.2 5.4,1.9 1.7,0.8 3.3,1.6 4.8,2.6 z"
   id="path1" />
				<path
   class="st0"
   d="m 399.1,619.4 c 3.5,0 6.6,0.4 9.3,1.3 2.7,0.9 5,2.1 6.9,3.7 1.9,1.6 3.3,3.6 4.3,6 1,2.4 1.5,5.1 1.5,8.1 0,3.2 -0.5,6 -1.5,8.6 -1,2.5 -2.4,4.7 -4.3,6.4 -1.9,1.7 -4.2,3 -6.9,3.9 -2.7,0.9 -5.8,1.4 -9.3,1.4 h -15.9 l 6.3,-6.3 v 21.4 H 375 v -54.5 z m -0.7,28 c 1.4,0 2.7,-0.2 3.8,-0.5 1.1,-0.4 2,-0.9 2.8,-1.6 0.8,-0.7 1.3,-1.6 1.8,-2.7 0.4,-1.1 0.6,-2.3 0.6,-3.7 0,-1.3 -0.2,-2.5 -0.6,-3.6 -0.4,-1 -1,-1.9 -1.8,-2.5 -0.8,-0.7 -1.7,-1.2 -2.8,-1.5 -1.1,-0.4 -2.4,-0.5 -3.8,-0.5 h -15.2 l 6.3,-6.3 v 29.3 l -6.3,-6.3 h 15.2 z"
   id="path2" />
				<path
   class="st0"
   d="m 435.4,619.4 h 43.2 v 11.4 h -28.7 v 10.1 h 25.9 v 11.3 h -25.9 v 10.3 h 29.5 v 11.3 h -44 z"
   id="path3" />
				<path
   class="st0"
   d="m 534.7,637.8 c -0.9,-1.1 -1.8,-2.1 -2.9,-3 -1.1,-0.9 -2.2,-1.7 -3.4,-2.3 -1.2,-0.6 -2.4,-1.1 -3.6,-1.5 -1.2,-0.4 -2.4,-0.5 -3.6,-0.5 -2.1,0 -4,0.4 -5.8,1.2 -1.8,0.8 -3.3,1.9 -4.6,3.3 -1.3,1.4 -2.3,3.1 -3.1,5 -0.8,1.9 -1.1,4 -1.1,6.3 0,2.2 0.4,4.3 1.1,6.2 0.7,1.9 1.8,3.6 3.1,5 1.3,1.4 2.8,2.5 4.6,3.3 1.8,0.8 3.7,1.2 5.8,1.2 1.1,0 2.3,-0.1 3.5,-0.4 1.2,-0.3 2.4,-0.7 3.5,-1.3 1.2,-0.6 2.3,-1.2 3.4,-2 1.1,-0.8 2.1,-1.7 3.1,-2.7 l 8.4,8.9 c -1.5,1.5 -3.1,2.9 -4.9,4.2 -1.8,1.3 -3.7,2.3 -5.6,3.2 -1.9,0.9 -4,1.6 -6,2.1 -2.1,0.5 -4.1,0.7 -6.1,0.7 -4.1,0 -7.9,-0.7 -11.4,-2.2 -3.5,-1.5 -6.5,-3.4 -9.1,-6 -2.5,-2.5 -4.5,-5.5 -6,-9 -1.5,-3.5 -2.2,-7.2 -2.2,-11.3 0,-4 0.7,-7.7 2.2,-11.1 1.5,-3.4 3.5,-6.4 6.1,-8.9 2.6,-2.5 5.7,-4.4 9.2,-5.9 3.6,-1.4 7.4,-2.1 11.6,-2.1 2,0 4.1,0.2 6.1,0.7 2,0.5 4,1.1 5.9,1.9 1.9,0.8 3.7,1.8 5.4,3 1.7,1.2 3.2,2.5 4.6,3.9 z"
   id="path4" />
				<path
   class="st0"
   d="M 556.5,619.4 H 571 v 54.5 h -14.5 z"
   id="path5" />
				<path
   class="st0"
   d="m 606.6,619.4 h 14.8 l 22.8,54.5 h -15.4 l -15.2,-40 -15.5,40 h -14.9 z m -9.4,33.9 H 629 v 10.9 h -31.8 z"
   id="path6" />
				<path
   class="st0"
   d="m 656.4,619.4 h 14.5 v 42.3 h 23 v 12.1 h -37.5 z"
   id="path7" />
				<path
   class="st0"
   d="m 745.3,635.7 c -1.3,-0.8 -2.7,-1.5 -4.2,-2.2 -1.5,-0.7 -3.1,-1.3 -4.6,-1.9 -1.5,-0.6 -3.1,-1 -4.6,-1.3 -1.5,-0.3 -2.9,-0.5 -4.1,-0.5 -0.7,0 -1.4,0.1 -2,0.2 -0.7,0.1 -1.3,0.3 -1.8,0.7 -0.5,0.4 -1,0.7 -1.3,1.2 -0.3,0.5 -0.5,1.1 -0.5,1.8 0,1.2 0.4,2.1 1.2,2.9 0.8,0.8 1.9,1.4 3.2,2 1.3,0.6 2.9,1.1 4.6,1.5 1.7,0.5 3.5,1 5.3,1.6 1.8,0.6 3.5,1.3 5.3,2.1 1.8,0.8 3.3,1.8 4.6,3 1.3,1.2 2.4,2.7 3.2,4.5 0.8,1.8 1.2,3.9 1.2,6.4 0,3 -0.6,5.5 -1.8,7.6 -1.2,2.1 -2.9,3.9 -4.9,5.3 -2,1.4 -4.4,2.4 -7,3.1 -2.6,0.7 -5.4,1 -8.2,1 -2.2,0 -4.5,-0.2 -6.8,-0.6 -2.3,-0.4 -4.5,-1 -6.7,-1.7 -2.2,-0.8 -4.3,-1.7 -6.3,-2.8 -2,-1.1 -3.9,-2.3 -5.6,-3.7 l 5.6,-11.2 c 1.3,1.2 2.9,2.3 4.5,3.3 1.7,1 3.4,1.9 5.1,2.7 1.7,0.8 3.5,1.3 5.3,1.8 1.8,0.5 3.4,0.6 4.9,0.6 0.9,0 1.7,-0.1 2.5,-0.2 0.8,-0.2 1.5,-0.4 2.1,-0.8 0.6,-0.4 1.1,-0.9 1.5,-1.4 0.4,-0.6 0.6,-1.3 0.6,-2.2 0,-1.2 -0.4,-2.2 -1.2,-2.9 -0.8,-0.8 -1.9,-1.4 -3.2,-2 -1.3,-0.6 -2.9,-1.1 -4.6,-1.5 -1.7,-0.4 -3.5,-0.9 -5.3,-1.5 -1.8,-0.6 -3.5,-1.2 -5.3,-2 -1.7,-0.8 -3.3,-1.7 -4.6,-2.9 -1.3,-1.2 -2.4,-2.6 -3.2,-4.3 -0.8,-1.7 -1.2,-3.8 -1.2,-6.2 0,-2.7 0.6,-5.2 1.7,-7.3 1.1,-2.1 2.7,-3.8 4.7,-5.3 2,-1.4 4.3,-2.5 7,-3.2 2.7,-0.7 5.5,-1.1 8.6,-1.1 1.9,0 3.9,0.1 5.9,0.4 2,0.3 3.9,0.7 5.8,1.2 1.9,0.5 3.7,1.2 5.4,1.9 1.7,0.8 3.3,1.6 4.8,2.6 z"
   id="path8" />
			</g>
		</g>
		<g
   id="g32">
			<g
   id="g31">
				<g
   id="g30">
					<g
   id="g29">
						<path
   class="st4"
   d="m 375,690.6 c -0.3,-0.2 -0.5,-0.5 -0.8,-0.6 -0.3,-0.1 -0.6,-0.4 -0.9,-0.5 -0.3,-0.1 -0.7,-0.2 -1,-0.3 -0.3,-0.1 -0.7,-0.1 -1,-0.1 -0.6,0 -1.2,0.1 -1.8,0.4 -0.6,0.2 -1,0.6 -1.4,1 -0.4,0.4 -0.7,0.9 -1,1.5 -0.2,0.6 -0.3,1.2 -0.3,1.8 0,0.7 0.1,1.3 0.4,1.8 0.3,0.5 0.6,1.1 1,1.5 0.4,0.4 0.9,0.8 1.5,1 0.6,0.2 1.2,0.4 1.8,0.4 0.3,0 0.6,0 0.9,-0.1 0.3,-0.1 0.6,-0.2 1,-0.3 0.3,-0.1 0.6,-0.3 0.9,-0.4 0.3,-0.2 0.6,-0.4 0.9,-0.6 l 1.6,1.9 c -0.3,0.3 -0.7,0.5 -1.2,0.7 -0.5,0.2 -0.9,0.4 -1.4,0.6 -0.5,0.2 -0.9,0.3 -1.4,0.4 -0.5,0.1 -1,0.1 -1.4,0.1 -1,0 -2,-0.2 -2.8,-0.5 -0.9,-0.4 -1.6,-0.8 -2.3,-1.5 -0.6,-0.6 -1.1,-1.4 -1.5,-2.2 -0.4,-0.8 -0.6,-1.8 -0.6,-2.8 0,-1 0.2,-1.9 0.6,-2.7 0.4,-0.8 0.9,-1.6 1.5,-2.2 0.7,-0.6 1.4,-1.1 2.3,-1.5 0.9,-0.4 1.9,-0.5 2.9,-0.5 0.5,0 1,0 1.5,0.1 0.5,0.1 1,0.2 1.4,0.4 0.5,0.2 0.9,0.4 1.3,0.6 0.4,0.2 0.8,0.5 1.1,0.8 z m -1.1,4.3 H 370 v -2.2 h 6.3 v 6.2 h -2.5 v -4 z"
   id="path9" />
						<path
   class="st4"
   d="m 386.9,687 c 0.9,0 1.7,0.1 2.3,0.3 0.7,0.2 1.3,0.5 1.7,0.9 0.5,0.4 0.8,0.9 1.1,1.5 0.2,0.6 0.4,1.2 0.4,2 0,0.8 -0.1,1.5 -0.4,2.1 -0.2,0.6 -0.6,1.1 -1.1,1.5 -0.5,0.4 -1,0.7 -1.7,1 -0.7,0.2 -1.5,0.3 -2.3,0.3 h -3 v 4 h -2.7 V 687 Z m 0,7.3 c 0.5,0 0.9,-0.1 1.2,-0.2 0.4,-0.1 0.7,-0.3 0.9,-0.5 0.3,-0.2 0.4,-0.5 0.6,-0.8 0.2,-0.3 0.2,-0.7 0.2,-1.1 0,-0.4 -0.1,-0.8 -0.2,-1.1 -0.1,-0.3 -0.3,-0.6 -0.6,-0.8 -0.2,-0.2 -0.6,-0.4 -0.9,-0.5 -0.4,-0.1 -0.8,-0.2 -1.2,-0.2 h -3 v 5.1 h 3 z m -0.2,1.2 h 2.7 l 3.3,5 h -3.1 z"
   id="path10" />
						<path
   class="st4"
   d="m 401.3,687 h 2.8 l 5.8,13.6 H 407 l -4.4,-10.8 -4.4,10.8 h -2.8 z m -2.7,8.5 h 8 v 2.2 h -8 z"
   id="path11" />
						<path
   class="st4"
   d="m 413.4,687 h 2.5 l 7.6,10.3 -0.7,0.2 V 687 h 2.6 v 13.6 h -2.5 l -7.6,-10.3 0.7,-0.2 v 10.5 h -2.6 z"
   id="path12" />
						<path
   class="st4"
   d="m 436.2,687 c 1,0 2,0.2 2.9,0.5 0.9,0.3 1.6,0.8 2.2,1.4 0.6,0.6 1.1,1.3 1.5,2.1 0.3,0.8 0.5,1.7 0.5,2.7 0,1 -0.2,1.9 -0.5,2.7 -0.4,0.8 -0.8,1.5 -1.5,2.1 -0.6,0.6 -1.4,1.1 -2.3,1.4 -0.9,0.3 -1.8,0.5 -2.9,0.5 h -5.6 V 687 Z m 0.1,11.3 c 0.6,0 1.2,-0.1 1.7,-0.3 0.5,-0.2 1,-0.5 1.3,-0.9 0.4,-0.4 0.7,-0.9 0.9,-1.4 0.2,-0.5 0.3,-1.2 0.3,-1.8 0,-0.7 -0.1,-1.3 -0.3,-1.8 -0.2,-0.5 -0.5,-1 -0.9,-1.4 -0.4,-0.4 -0.9,-0.7 -1.4,-0.9 -0.5,-0.2 -1.1,-0.3 -1.7,-0.3 h -2.9 v 9 h 3 z"
   id="path13" />
						<path
   class="st4"
   d="m 460,687 c 0.9,0 1.7,0.1 2.3,0.3 0.7,0.2 1.3,0.5 1.7,0.9 0.5,0.4 0.8,0.9 1.1,1.5 0.2,0.6 0.4,1.2 0.4,2 0,0.8 -0.1,1.5 -0.4,2.1 -0.2,0.6 -0.6,1.1 -1.1,1.5 -0.5,0.4 -1,0.7 -1.7,1 -0.7,0.2 -1.5,0.3 -2.3,0.3 h -3 v 4 h -2.7 V 687 Z m 0,7.3 c 0.5,0 0.9,-0.1 1.2,-0.2 0.4,-0.1 0.7,-0.3 0.9,-0.5 0.3,-0.2 0.4,-0.5 0.6,-0.8 0.2,-0.3 0.2,-0.7 0.2,-1.1 0,-0.4 -0.1,-0.8 -0.2,-1.1 -0.1,-0.3 -0.3,-0.6 -0.6,-0.8 -0.2,-0.2 -0.6,-0.4 -0.9,-0.5 -0.4,-0.1 -0.8,-0.2 -1.2,-0.2 h -3 v 5.1 h 3 z m -0.2,1.2 h 2.7 l 3.3,5 h -3.1 z"
   id="path14" />
						<path
   class="st4"
   d="m 474.4,687 h 2.8 l 5.8,13.6 h -2.9 l -4.4,-10.8 -4.4,10.8 h -2.8 z m -2.7,8.5 h 8 v 2.2 h -8 z"
   id="path15" />
						<path
   class="st4"
   d="m 492.1,687 c 0.9,0 1.6,0.1 2.3,0.3 0.7,0.2 1.2,0.5 1.7,0.9 0.5,0.4 0.8,0.9 1.1,1.5 0.2,0.6 0.4,1.2 0.4,2 0,0.8 -0.1,1.5 -0.4,2.1 -0.2,0.6 -0.6,1.1 -1.1,1.5 -0.5,0.4 -1,0.7 -1.7,1 -0.7,0.2 -1.4,0.3 -2.3,0.3 H 488 l 1.2,-1.2 v 5.2 h -2.7 V 687 Z m -0.1,7.3 c 0.5,0 0.9,-0.1 1.2,-0.2 0.4,-0.1 0.7,-0.3 0.9,-0.5 0.2,-0.2 0.4,-0.5 0.6,-0.8 0.1,-0.3 0.2,-0.7 0.2,-1.1 0,-0.4 -0.1,-0.8 -0.2,-1.1 -0.1,-0.3 -0.3,-0.6 -0.6,-0.8 -0.2,-0.2 -0.6,-0.4 -0.9,-0.5 -0.4,-0.1 -0.8,-0.2 -1.2,-0.2 h -4 l 1.2,-1.2 v 7.5 l -1.2,-1.2 h 4 z"
   id="path16" />
						<path
   class="st4"
   d="m 501.4,687 h 2.7 v 13.6 h -2.7 z"
   id="path17" />
						<path
   class="st4"
   d="m 514.9,687 c 1,0 2,0.2 2.9,0.5 0.9,0.3 1.6,0.8 2.2,1.4 0.6,0.6 1.1,1.3 1.5,2.1 0.3,0.8 0.5,1.7 0.5,2.7 0,1 -0.2,1.9 -0.5,2.7 -0.4,0.8 -0.8,1.5 -1.5,2.1 -0.6,0.6 -1.4,1.1 -2.3,1.4 -0.9,0.3 -1.8,0.5 -2.9,0.5 h -5.6 V 687 Z m 0.1,11.3 c 0.6,0 1.2,-0.1 1.7,-0.3 0.5,-0.2 1,-0.5 1.3,-0.9 0.4,-0.4 0.7,-0.9 0.9,-1.4 0.2,-0.5 0.3,-1.2 0.3,-1.8 0,-0.7 -0.1,-1.3 -0.3,-1.8 -0.2,-0.5 -0.5,-1 -0.9,-1.4 -0.4,-0.4 -0.9,-0.7 -1.4,-0.9 -0.5,-0.2 -1.1,-0.3 -1.7,-0.3 H 512 v 9 h 3 z"
   id="path18" />
						<path
   class="st4"
   d="m 534.6,690.4 c -0.3,-0.2 -0.6,-0.4 -1,-0.5 -0.3,-0.2 -0.7,-0.3 -1,-0.4 -0.3,-0.1 -0.7,-0.2 -1.1,-0.3 -0.4,-0.1 -0.7,-0.1 -1,-0.1 -0.2,0 -0.4,0 -0.7,0.1 -0.2,0 -0.4,0.1 -0.6,0.2 -0.2,0.1 -0.3,0.2 -0.5,0.4 -0.2,0.2 -0.2,0.4 -0.2,0.6 0,0.4 0.1,0.6 0.3,0.9 0.2,0.2 0.5,0.4 0.8,0.6 0.3,0.2 0.7,0.3 1.2,0.4 0.4,0.1 0.9,0.3 1.3,0.4 0.5,0.1 0.9,0.3 1.3,0.5 0.4,0.2 0.8,0.4 1.2,0.7 0.4,0.3 0.6,0.7 0.8,1.1 0.2,0.4 0.3,1 0.3,1.6 0,0.7 -0.2,1.3 -0.5,1.8 -0.3,0.5 -0.7,0.9 -1.2,1.3 -0.5,0.3 -1.1,0.6 -1.7,0.7 -0.6,0.2 -1.3,0.2 -1.9,0.2 -0.5,0 -1.1,0 -1.6,-0.1 -0.5,-0.1 -1,-0.2 -1.5,-0.4 -0.5,-0.2 -1,-0.4 -1.4,-0.7 -0.5,-0.3 -0.9,-0.6 -1.3,-0.9 l 1.1,-2.2 c 0.3,0.3 0.7,0.5 1,0.8 0.4,0.2 0.8,0.5 1.2,0.6 0.4,0.2 0.8,0.3 1.3,0.4 0.4,0.1 0.8,0.2 1.2,0.2 0.3,0 0.5,0 0.8,-0.1 0.3,-0.1 0.5,-0.1 0.7,-0.3 0.2,-0.1 0.4,-0.3 0.5,-0.5 0.1,-0.2 0.2,-0.4 0.2,-0.7 0,-0.4 -0.1,-0.7 -0.3,-0.9 -0.2,-0.2 -0.5,-0.4 -0.8,-0.6 -0.3,-0.2 -0.7,-0.3 -1.2,-0.4 -0.4,-0.1 -0.9,-0.3 -1.3,-0.4 -0.4,-0.1 -0.9,-0.3 -1.3,-0.5 -0.4,-0.2 -0.8,-0.4 -1.2,-0.7 -0.4,-0.3 -0.6,-0.6 -0.8,-1.1 -0.2,-0.4 -0.3,-0.9 -0.3,-1.5 0,-0.7 0.1,-1.3 0.4,-1.8 0.3,-0.5 0.7,-0.9 1.2,-1.2 0.5,-0.3 1,-0.6 1.6,-0.7 0.6,-0.1 1.2,-0.2 1.9,-0.2 0.4,0 0.9,0 1.3,0.1 0.4,0.1 0.9,0.2 1.3,0.3 0.4,0.1 0.8,0.3 1.2,0.5 0.4,0.2 0.8,0.4 1.1,0.6 z"
   id="path19" />
						<path
   class="st4"
   d="m 547,687 h 2.7 v 11.2 h 5.8 v 2.3 H 547 Z"
   id="path20" />
						<path
   class="st4"
   d="m 568.4,687.4 c 0.9,0.4 1.6,0.8 2.3,1.5 0.6,0.6 1.2,1.3 1.5,2.2 0.4,0.8 0.6,1.8 0.6,2.7 0,1 -0.2,1.9 -0.6,2.7 -0.4,0.8 -0.9,1.6 -1.5,2.2 -0.6,0.6 -1.4,1.1 -2.3,1.5 -0.9,0.4 -1.8,0.5 -2.9,0.5 -1.1,0 -2,-0.2 -2.9,-0.5 -0.9,-0.3 -1.6,-0.8 -2.3,-1.5 -0.7,-0.7 -1.2,-1.4 -1.5,-2.2 -0.3,-0.8 -0.6,-1.8 -0.6,-2.7 0,-1 0.2,-1.9 0.6,-2.7 0.4,-0.8 0.9,-1.6 1.5,-2.2 0.6,-0.6 1.4,-1.1 2.3,-1.5 0.9,-0.4 1.8,-0.5 2.9,-0.5 1.1,0 2,0.1 2.9,0.5 z m -4.5,2.1 c -0.5,0.2 -1,0.6 -1.4,1 -0.4,0.4 -0.7,0.9 -1,1.5 -0.2,0.6 -0.4,1.2 -0.4,1.8 0,0.7 0.1,1.3 0.4,1.8 0.2,0.6 0.6,1.1 1,1.5 0.4,0.4 0.9,0.8 1.4,1 0.5,0.2 1.1,0.4 1.7,0.4 0.6,0 1.2,-0.1 1.7,-0.4 0.5,-0.2 1,-0.6 1.4,-1 0.4,-0.4 0.7,-0.9 0.9,-1.5 0.2,-0.6 0.3,-1.2 0.3,-1.8 0,-0.6 -0.1,-1.2 -0.3,-1.8 -0.2,-0.6 -0.5,-1.1 -0.9,-1.5 -0.4,-0.4 -0.9,-0.7 -1.4,-1 -0.5,-0.2 -1.1,-0.4 -1.7,-0.4 -0.6,0 -1.2,0.1 -1.7,0.4 z"
   id="path21" />
						<path
   class="st4"
   d="m 586.7,690.9 c -0.2,-0.3 -0.5,-0.5 -0.8,-0.7 -0.3,-0.2 -0.6,-0.4 -0.9,-0.6 -0.3,-0.2 -0.6,-0.3 -1,-0.4 -0.4,-0.1 -0.7,-0.1 -1,-0.1 -0.6,0 -1.2,0.1 -1.7,0.4 -0.5,0.2 -1,0.6 -1.4,1 -0.4,0.4 -0.7,0.9 -0.9,1.5 -0.2,0.6 -0.3,1.2 -0.3,1.8 0,0.6 0.1,1.2 0.3,1.8 0.2,0.6 0.5,1.1 0.9,1.5 0.4,0.4 0.9,0.7 1.4,1 0.5,0.2 1.1,0.4 1.7,0.4 0.3,0 0.6,0 1,-0.1 0.3,-0.1 0.6,-0.2 1,-0.3 0.3,-0.1 0.6,-0.3 0.9,-0.5 0.3,-0.2 0.6,-0.4 0.8,-0.7 l 1.6,1.7 c -0.3,0.4 -0.7,0.7 -1.2,1 -0.4,0.3 -0.9,0.5 -1.3,0.7 -0.4,0.2 -0.9,0.4 -1.4,0.5 -0.5,0.1 -1,0.2 -1.5,0.2 -1,0 -1.9,-0.2 -2.8,-0.5 -0.9,-0.4 -1.6,-0.8 -2.2,-1.5 -0.6,-0.6 -1.1,-1.4 -1.5,-2.2 -0.4,-0.8 -0.5,-1.8 -0.5,-2.8 0,-1 0.2,-1.9 0.6,-2.7 0.4,-0.8 0.9,-1.6 1.5,-2.2 0.6,-0.6 1.4,-1.1 2.3,-1.5 0.9,-0.4 1.8,-0.5 2.8,-0.5 0.5,0 1,0 1.5,0.1 0.5,0.1 1,0.2 1.4,0.4 0.5,0.2 0.9,0.4 1.3,0.7 0.4,0.3 0.8,0.6 1.1,0.9 z"
   id="path22" />
						<path
   class="st4"
   d="m 596.4,687 h 2.8 l 5.8,13.6 h -2.9 l -4.4,-10.8 -4.4,10.8 h -2.8 z m -2.7,8.5 h 8 v 2.2 h -8 z"
   id="path23" />
						<path
   class="st4"
   d="m 608.5,687 h 2.7 v 11.2 h 5.8 v 2.3 h -8.5 z"
   id="path24" />
						<path
   class="st4"
   d="m 633.5,687 c 1,0 2,0.2 2.9,0.5 0.9,0.3 1.6,0.8 2.2,1.4 0.6,0.6 1.1,1.3 1.5,2.1 0.3,0.8 0.5,1.7 0.5,2.7 0,1 -0.2,1.9 -0.5,2.7 -0.4,0.8 -0.8,1.5 -1.5,2.1 -0.6,0.6 -1.4,1.1 -2.3,1.4 -0.9,0.3 -1.8,0.5 -2.9,0.5 h -5.6 V 687 Z m 0.1,11.3 c 0.6,0 1.2,-0.1 1.7,-0.3 0.5,-0.2 1,-0.5 1.3,-0.9 0.4,-0.4 0.7,-0.9 0.9,-1.4 0.2,-0.5 0.3,-1.2 0.3,-1.8 0,-0.7 -0.1,-1.3 -0.3,-1.8 -0.2,-0.5 -0.5,-1 -0.9,-1.4 -0.4,-0.4 -0.9,-0.7 -1.4,-0.9 -0.5,-0.2 -1.1,-0.3 -1.7,-0.3 h -2.9 v 9 h 3 z"
   id="path25" />
						<path
   class="st4"
   d="m 644.6,687 h 10 v 2.2 h -7.3 v 3.4 h 6.6 v 2.2 h -6.6 v 3.4 h 7.5 v 2.2 H 644.5 V 687 Z"
   id="path26" />
						<path
   class="st4"
   d="m 663.5,687 h 2.8 l 5.8,13.6 h -2.9 l -4.4,-10.8 -4.4,10.8 h -2.8 z m -2.7,8.5 h 8 v 2.2 h -8 z"
   id="path27" />
						<path
   class="st4"
   d="m 675.6,687 h 2.7 v 11.2 h 5.8 v 2.3 h -8.5 z"
   id="path28" />
						<path
   class="st4"
   d="m 696.6,690.4 c -0.3,-0.2 -0.6,-0.4 -1,-0.5 -0.3,-0.2 -0.7,-0.3 -1,-0.4 -0.3,-0.1 -0.7,-0.2 -1.1,-0.3 -0.4,-0.1 -0.7,-0.1 -1,-0.1 -0.2,0 -0.4,0 -0.7,0.1 -0.2,0 -0.4,0.1 -0.6,0.2 -0.2,0.1 -0.3,0.2 -0.5,0.4 -0.2,0.2 -0.2,0.4 -0.2,0.6 0,0.4 0.1,0.6 0.3,0.9 0.2,0.2 0.5,0.4 0.8,0.6 0.3,0.2 0.7,0.3 1.2,0.4 0.4,0.1 0.9,0.3 1.3,0.4 0.5,0.1 0.9,0.3 1.3,0.5 0.4,0.2 0.8,0.4 1.2,0.7 0.4,0.3 0.6,0.7 0.8,1.1 0.2,0.4 0.3,1 0.3,1.6 0,0.7 -0.2,1.3 -0.5,1.8 -0.3,0.5 -0.7,0.9 -1.2,1.3 -0.5,0.3 -1.1,0.6 -1.7,0.7 -0.6,0.2 -1.3,0.2 -1.9,0.2 -0.5,0 -1.1,0 -1.6,-0.1 -0.5,-0.1 -1,-0.2 -1.5,-0.4 -0.5,-0.2 -1,-0.4 -1.4,-0.7 -0.5,-0.3 -0.9,-0.6 -1.3,-0.9 l 1.1,-2.2 c 0.3,0.3 0.7,0.5 1,0.8 0.4,0.2 0.8,0.5 1.2,0.6 0.4,0.2 0.8,0.3 1.3,0.4 0.4,0.1 0.8,0.2 1.2,0.2 0.3,0 0.5,0 0.8,-0.1 0.3,-0.1 0.5,-0.1 0.7,-0.3 0.2,-0.1 0.4,-0.3 0.5,-0.5 0.1,-0.2 0.2,-0.4 0.2,-0.7 0,-0.4 -0.1,-0.7 -0.3,-0.9 -0.2,-0.2 -0.5,-0.4 -0.8,-0.6 -0.3,-0.2 -0.7,-0.3 -1.2,-0.4 -0.4,-0.1 -0.9,-0.3 -1.3,-0.4 -0.4,-0.1 -0.9,-0.3 -1.3,-0.5 -0.4,-0.2 -0.8,-0.4 -1.2,-0.7 -0.4,-0.3 -0.6,-0.6 -0.8,-1.1 -0.2,-0.4 -0.3,-0.9 -0.3,-1.5 0,-0.7 0.1,-1.3 0.4,-1.8 0.3,-0.5 0.7,-0.9 1.2,-1.2 0.5,-0.3 1,-0.6 1.6,-0.7 0.6,-0.1 1.2,-0.2 1.9,-0.2 0.4,0 0.9,0 1.3,0.1 0.4,0.1 0.9,0.2 1.3,0.3 0.4,0.1 0.8,0.3 1.2,0.5 0.4,0.2 0.8,0.4 1.1,0.6 z"
   id="path29" />
					</g>
				</g>
			</g>
			<rect
   x="711"
   y="692.09998"
   class="st5"
   width="38.400002"
   height="3.5999999"
   id="rect31" />
			<rect
   x="313.29999"
   y="692.09998"
   class="st5"
   width="38.400002"
   height="3.5999999"
   id="rect32" />
		</g>
		<path
   class="st5"
   d="m 520.7,398.9 -9.3,11.8 -16.5,21.9 c 0,0 0,0 0,0 -10.2,-7.1 -20.2,-12.9 -35.8,-15 -1.3,-0.2 -10.3,-0.1 -10.4,-0.1 -26.4,2 -47.1,21.7 -47.1,48.8 0,26.9 21.3,48.1 48.7,48.4 l 0.1,33.3 h -3.6 v -12.3 l -2.2,-2.2 h -4 v -3.1 l -1,-1.9 -7.6,-5 v -2.1 l -2.2,-2.2 h -1.6 l -2.2,2.2 v 2 l -9,5.7 -1,1.9 v 8.3 c -0.1,-0.1 -0.1,-0.1 -0.2,-0.2 -0.6,-0.6 -1.7,-1.4 -3.5,-1.4 -1.1,0 -2.4,0.3 -3.4,0.8 v -35.1 l -2.2,-2.2 h -1.9 l -4.1,-5 -1.7,-0.8 h -1.7 V 494 l -2.2,-2.2 h -0.8 l -2.2,2.2 v 1.2 h -1.3 l -1.4,0.5 -7,5.9 -0.8,1.7 c 0.1,7.7 0.2,18.4 0.2,26.3 -17.3,-16.1 -28.3,-38.9 -28.3,-64.1 -0.1,-40.1 21.1,-70.7 62.8,-85.2 33,-10.5 59.1,-3.2 59.1,-3.2 28.5,6.1 45.3,21.8 45.3,21.8 z"
   id="path32" />
		<path
   class="st5"
   d="m 521.9,452.4 v 34.8 0 42.3 l -8.5,-5.2 v -0.2 l -2.2,-2.2 h -2 L 507,524 v 0.3 l -8.5,5.7 -1,1.8 v 7.4 l -5.3,-4 h -2.7 l -7.2,5.4 v -27.8 l -2,-2.2 c -0.9,-0.1 -1.1,-0.4 -1.4,-1 v -0.1 c -0.1,-0.2 -0.2,-0.4 -0.3,-0.6 0.4,-0.2 0.8,-0.5 1.2,-0.8 V 487 h -34.1 v -34.8 h 76.2 z"
   id="path33" />
		<path
   class="st4"
   d="m 640.2,538 h -4.6 c 0,0 -9.2,-15.8 -24.5,-29.9 -2.2,-2.1 -4.6,-4.1 -7.1,-6.1 0,0 -8.7,-18.4 -6.9,-27 0,0 0.8,-4.2 4.6,-5 3.7,-0.8 7,1 10.5,5.1 1.5,1.8 3.9,5 6.9,10.1 3.9,6.6 8.6,16.4 13.3,29.8 0,0 2.2,7.1 4.6,14.1 1,2.9 0.7,6 3.2,8.9 z"
   id="path34" />
		<path
   class="st4"
   d="m 526.5,526.9 v -41.4 c 0,0 13.3,4.9 26.6,3.1 -5.8,5 -10.4,10.4 -14.3,16 -3.9,5.6 -7.2,11.6 -10.3,17.8 z"
   id="path35" />
		<g
   id="g37">
			<path
   class="st4"
   d="m 647.9,488.1 v 0 c -0.4,-0.5 -0.8,-1 -1.2,-1.5 0,0 0,0 0,0 16.2,-6.5 29,-27.7 29,-50.5 0,-22.4 -10.6,-48.9 -49,-56.6 -8.8,-1.8 -39.9,-1.8 -39.9,-1.8 h -60.3 v 107.9 c 0,0 52.3,-2.8 86.5,-53.1 -0.4,0.4 -14.2,14.1 -22.7,18.9 0,0 -14.8,9 -37.2,13.4 3.4,-9.1 6.9,-24.4 7.8,-49.6 0,0 3.4,-2.8 8.2,9 4.8,11.9 6.6,21.8 7.7,22.5 0,0 -2.4,0.5 -8.3,-2.1 l -0.3,4.2 c 0,0 5.6,0 8.8,-1.6 0,0 13.4,0.7 14.4,-15.5 0,0 -0.1,-10.5 5.5,-2.4 0,0 5,8.4 9.4,-0.4 3.7,-7.4 5.8,-19.7 5.8,-19.7 1.9,-7 2.7,-8.6 2.7,-8.6 4.9,-11.6 7.3,-0.5 7.3,-0.5 l 2.5,14.1 4,26.6 8.6,52.7 6.8,44.2 3.4,11.8 c 0,0 2.9,0 7.3,0 v -1.4 l 2.2,-2.2 h 19.5 l 2.2,2.2 v 1.3 c 9.2,0 16.9,0 16.8,0.1 0.1,0 -33.6,-44.5 -47.5,-61.4 z"
   id="path36" />
			<path
   class="st4"
   d="m 574.9,463.1 c 0,0 -19.8,12.2 -29.3,14.2 0.2,-0.1 3.7,-2.8 7.4,-12.5 0.9,0.5 8.6,3.7 21.9,-1.7 z"
   id="path37" />
		</g>
		<path
   class="st4"
   d="M 624.7,449.8 608.3,460 c 0,0 -21.6,10.2 -28.2,16.1 -4,3.6 -24.6,17.9 -32,51.1 H 548 l -2.7,0.1 -5.6,4.6 c 3.6,-11.2 10.4,-28.5 20.8,-42.1 16.7,-21.9 41.2,-29.1 64.2,-40 z"
   id="path38" />
		<path
   class="st4"
   d="m 596.4,545.9 -3.2,-0.3 c 0,0 0,0 0,0 -1.3,-0.8 -2.9,-1.4 -4.4,-1.6 v -25.6 l -2.2,-2.2 h -1.2 c -1.3,-4 -4.5,-5.9 -7.1,-6.7 v -3.6 l -2.2,-2.2 h -1.6 l -2.2,2.2 v 3.7 c -4.8,1.5 -6.9,4.6 -7.8,6.6 H 563 l -1.1,1.1 c 1.4,-8.4 3.3,-17.2 5.9,-23.5 0,0 10.4,-10.5 24.9,0 0.4,0.3 0.6,0.7 0.6,1.1 0.2,5.9 2.3,46.5 3.1,51 z"
   id="path39" />
		<path
   class="st6"
   d="m 584,598.1 c -24.1,2.8 -77.6,-14 -77.6,-14 -43.6,-12.5 -98.6,0.3 -98.6,0.3 -18.2,4.9 -63.7,15.5 -63.7,15.5 114.1,-49.8 172.7,-27.7 172.7,-27.7 1.1,0.2 2.2,0.4 3.3,0.6 -1.6,-0.1 -2.9,-0.2 -3.8,-0.2 -4.3,0.2 46.5,19.5 67.7,25.5 z"
   id="path40" />
		<path
   class="st6"
   d="m 595.2,599.3 c -0.4,-0.1 -0.9,-0.1 -1.3,-0.2 0.5,0.1 0.9,0.2 1.3,0.2 z"
   id="path41" />
		<path
   class="st7"
   d="m 543,625.2 c -1.1,-1.1 -3.2,-2.1 -3.3,-2.2 0.5,0.1 1.1,0.3 1.6,0.4 0.7,0.6 1.3,1.1 1.7,1.8 z"
   id="path42" />
		<path
   class="st0"
   d="m 717.5,558.8 v 18.8 c -0.4,0 -0.3,0 -0.7,0.1 -1.6,-7.9 -5.4,-11.4 -8.4,-12.9 -2.8,-1.4 -6.1,-1.3 -8.8,0.3 -6.2,3.6 -7.5,12.2 -7.8,15.2 -1,0 -2,0 -3.1,0 -1.2,-9.4 -5.2,-13.5 -8.5,-15.3 -3,-1.6 -6.7,-1.4 -9.6,0.4 -4.5,2.9 -6.2,8.6 -6.9,12.3 -1.3,-0.2 -2.6,-0.5 -3.9,-0.8 -1.7,-7.2 -5.2,-10.5 -8,-12 -3,-1.6 -6.6,-1.4 -9.5,0.5 -1.9,1.2 -3.3,3 -4.3,4.8 -4.7,-1.8 -16,-5.8 -26.4,-6.3 0,0 -15.4,-2 -24.9,3.1 0,0 16.5,0.7 19.2,5.1 0.2,0.4 0.2,0.8 0,1.2 -0.6,0.8 -2.2,1.8 -6.9,1 0,0 -5.6,-0.7 -11,-2.6 0,0 -36.1,-14.5 -70.5,-8.5 0,0 17.4,2.1 23.7,6.6 0.2,0 0.4,0.1 0.6,0.1 -0.2,0 -0.4,-0.1 -0.6,-0.1 0.8,0.6 1.4,1.2 1.8,1.8 0.5,0.6 0.8,1.2 0.4,1.8 -0.2,0.3 -0.5,0.5 -1,0.8 -0.2,0.1 -0.4,0.2 -0.6,0.2 0,0 -0.3,-0.1 -0.8,-0.1 0,0 0,0 0,0 -3.2,-0.5 -14.3,-2.1 -20.8,-2.7 v 0 c -1,-0.2 -2.1,-0.4 -3.3,-0.6 0,0 -52.6,-19.8 -155.3,20.5 V 580 559.5 l 0.2,-30.4 6.5,-5.7 v -1.6 h 2 l 0.2,1.6 7.4,5.7 v 9.8 c 0,0 4.2,-2.1 5.9,1.8 0.2,0.4 0.3,-3.6 0.3,-9.1 0,-11.1 -0.3,-28.3 -0.3,-28.3 l 7,-5.9 h 3.5 V 494 h 0.8 v 3.4 h 3.9 l 4.8,5.8 h 3 V 542 c 0,0 8.9,-6.3 8.3,2 v 1.3 h 3.2 v -14.5 l 10,-6.3 v -3.3 h 1.6 v 3.3 l 8.6,5.7 v 5.3 h 6.3 V 550 h 8 l -0.1,-35.5 v -2.4 c 1.1,-0.2 1.9,-0.7 2.5,-1.3 0.7,-0.6 1.2,-1.5 1.6,-2.4 1,-2.1 3.6,-4.5 7.8,-4.4 v -8 l 0.9,-2 1,2 v 8 c 0,0 6.1,-1.2 10.1,5.9 0.1,0.2 0.2,0.4 0.3,0.6 0.3,0.7 1,2 3.2,2.2 v 36.4 h 3.1 v -6.5 l 7.7,-5.7 7.4,5.6 v 5.5 h 1.5 v -16.3 l 9.4,-6.4 0.1,-1.5 h 2 v 1.4 l 10.4,6.4 v 8.5 c 0,0 0.1,0 0.4,-0.1 1.9,-0.3 10.1,-1 9.1,7.8 h 1.8 v 1.7 h 4.5 v -13.3 l 1,-0.8 8.2,-6.7 0.9,0.7 9.2,6.9 v 11.4 h 3.8 l 2.4,1.8 v -31.4 h 3.1 c 0,0 0.9,-5.5 8.4,-7.1 v -5.4 h 1.6 v 5.4 c 0,0 6.5,0.4 7.5,7.1 h 3 V 546 c 0,0 7.4,-0.4 8.4,5.9 v 9.6 h 2.4 c 0,0 3.1,-7.4 7.2,-0.4 h 1.6 v -12.8 l 13.2,-7.9 11.5,7.9 0.2,10.6 h 25.8 V 548 h 19.5 v 10.7 h 41.1 z"
   id="path43" />
		<path
   class="st8"
   d="m 726.7,576.4 c -4.5,3.3 -9.1,6.1 -13.7,8.5 -8.4,1.9 -33.8,6.2 -66,-3.7 0,0 11.4,10.3 -22.4,-1.5 0,0 5.6,11.3 -11.2,5.5 0,0 12.7,15.1 -39.9,-8.5 0,0 -0.8,3.1 8.2,10.9 0,0 -16.2,0.3 -28.9,-15.3 0,0 -2.1,1 -11.8,-1.3 -6.3,-4.5 -23.7,-6.6 -23.7,-6.6 34.4,-6 70.5,8.5 70.5,8.5 5.4,2 11,2.7 11,2.7 4.7,0.8 6.4,-0.3 6.9,-1 0.2,-0.3 0.3,-0.8 0,-1.2 -2.8,-4.4 -19.2,-5.1 -19.2,-5.1 9.5,-5.1 24.9,-3.1 24.9,-3.1 13.6,0.6 28.7,7.2 28.7,7.2 6.9,2.6 16.4,5.1 16.4,5.1 42.8,9.6 69.5,-0.9 70.2,-1.1 z"
   id="path44" />
		<path
   class="st9"
   d="m 713,584.9 c -41.3,21.5 -81.8,8.3 -81.8,8.3 -8.4,6.5 -19.6,7.6 -28.6,7 -0.5,0 -0.9,-0.1 -1.4,-0.1 -1.3,-0.1 -2.6,-0.2 -3.8,-0.4 -0.3,0 -0.5,-0.1 -0.8,-0.1 -0.5,-0.1 -1,-0.1 -1.5,-0.2 -0.4,-0.1 -0.9,-0.1 -1.3,-0.2 -0.1,0 -0.2,0 -0.3,-0.1 -0.2,0 -0.4,-0.1 -0.7,-0.1 -0.5,-0.1 -0.9,-0.2 -1.3,-0.3 -0.2,0 -0.3,-0.1 -0.5,-0.1 -0.2,0 -0.3,-0.1 -0.5,-0.1 -0.1,0 -0.1,0 -0.1,0 -0.2,0 -0.3,-0.1 -0.5,-0.1 -1.8,-0.4 -2.8,-0.7 -2.8,-0.7 -1,0.2 -2.1,0.4 -3.2,0.5 -21.2,-6.1 -72.1,-25.4 -67.7,-25.5 0.9,0 2.2,0.1 3.8,0.2 v 0 c 6.5,0.6 17.7,2.2 20.8,2.7 0,0 0,0 0,0 0.5,0.1 0.9,0.1 0.9,0.1 0.2,-0.1 0.4,-0.2 0.6,-0.2 0.5,-0.2 0.8,-0.5 1,-0.8 0.4,-0.6 0.1,-1.2 -0.4,-1.8 -0.4,-0.6 -1,-1.2 -1.8,-1.8 9.7,2.3 11.8,1.3 11.8,1.3 12.7,15.5 28.9,15.3 28.9,15.3 -9,-7.8 -8.2,-10.9 -8.2,-10.9 52.6,23.6 39.9,8.5 39.9,8.5 16.8,5.8 11.2,-5.5 11.2,-5.5 33.7,11.8 22.4,1.5 22.4,1.5 32.1,9.8 57.6,5.5 65.9,3.6 z"
   id="path45" />
	</g>
</g>
</svg>
