<?xml version="1.0" encoding="UTF-8" standalone="no"?>
<!-- Generator: Adobe Illustrator 27.3.1, SVG Export Plug-In . SVG Version: 6.00 Build 0)  -->

<svg
   version="1.1"
   id="Layer_1"
   x="0px"
   y="0px"
   viewBox="0 0 310.36856 85.000015"
   xml:space="preserve"
   sodipodi:docname="logo-horizontal-light.svg"
   width="310.36856"
   height="85.000015"
   inkscape:version="1.4.2 (f4327f4, 2025-05-13)"
   xmlns:inkscape="http://www.inkscape.org/namespaces/inkscape"
   xmlns:sodipodi="http://sodipodi.sourceforge.net/DTD/sodipodi-0.dtd"
   xmlns="http://www.w3.org/2000/svg"
   xmlns:svg="http://www.w3.org/2000/svg"><defs
   id="defs47" /><sodipodi:namedview
   id="namedview47"
   pagecolor="#ffffff"
   bordercolor="#000000"
   borderopacity="0.25"
   inkscape:showpageshadow="2"
   inkscape:pageopacity="0.0"
   inkscape:pagecheckerboard="0"
   inkscape:deskcolor="#d1d1d1"
   inkscape:zoom="3.99"
   inkscape:cx="176.31579"
   inkscape:cy="102.63158"
   inkscape:window-width="1920"
   inkscape:window-height="1129"
   inkscape:window-x="-8"
   inkscape:window-y="-8"
   inkscape:window-maximized="1"
   inkscape:current-layer="g31" />
<style
   type="text/css"
   id="style1">
	.st0{fill:#011634;}
	.st1{fill:none;stroke:#FDC91B;stroke-miterlimit:10;}
	.st2{fill:#2076B7;}
	.st3{fill:#EF3823;}
	.st4{fill:#FDC91B;}
	.st5{fill:#FFB02E;}
	.st6{opacity:0;fill:#C8DEEB;}
	.st7{fill:#2078B7;}
	.st8{fill:#C8DEEB;}
	.st9{fill:#FFFFFF;}
</style>

<g
   id="g47"
   transform="translate(-156.4,-435.94544)">
	<g
   id="g33"
   transform="matrix(0.40832602,0,0,0.40832602,92.537749,257.93741)">
		<g
   id="g9">
			<g
   id="g8">
				<path
   class="st9"
   d="m 551.5,532.9 c -1.2,-0.7 -2.5,-1.4 -3.9,-2 -1.4,-0.6 -2.8,-1.2 -4.2,-1.7 -1.4,-0.5 -2.9,-0.9 -4.2,-1.2 -1.4,-0.3 -2.7,-0.4 -3.8,-0.4 -0.6,0 -1.3,0.1 -1.9,0.2 -0.6,0.1 -1.2,0.3 -1.6,0.6 -0.5,0.3 -0.9,0.7 -1.2,1.1 -0.3,0.4 -0.4,1 -0.4,1.7 0,1.1 0.4,2 1.1,2.7 0.8,0.7 1.8,1.3 3,1.8 1.2,0.5 2.7,1 4.2,1.4 1.6,0.4 3.2,0.9 4.8,1.5 1.6,0.6 3.3,1.2 4.9,1.9 1.6,0.7 3,1.7 4.2,2.8 1.2,1.1 2.2,2.5 3,4.1 0.8,1.6 1.1,3.6 1.1,5.9 0,2.7 -0.6,5.1 -1.7,7 -1.1,2 -2.6,3.6 -4.5,4.9 -1.9,1.3 -4,2.2 -6.5,2.8 -2.5,0.6 -4.9,0.9 -7.5,0.9 -2.1,0 -4.1,-0.2 -6.2,-0.5 -2.1,-0.4 -4.2,-0.9 -6.2,-1.6 -2,-0.7 -3.9,-1.5 -5.8,-2.6 -1.8,-1 -3.5,-2.2 -5.1,-3.4 l 5.2,-10.3 c 1.2,1.1 2.6,2.1 4.2,3 1.5,0.9 3.1,1.8 4.7,2.5 1.6,0.7 3.3,1.2 4.9,1.6 1.6,0.4 3.1,0.6 4.5,0.6 0.8,0 1.5,-0.1 2.3,-0.2 0.7,-0.1 1.4,-0.4 2,-0.7 0.6,-0.3 1.1,-0.8 1.4,-1.3 0.3,-0.5 0.5,-1.2 0.5,-2 0,-1.1 -0.4,-2 -1.1,-2.7 -0.7,-0.7 -1.8,-1.3 -3,-1.8 -1.2,-0.5 -2.7,-1 -4.2,-1.4 -1.5,-0.4 -3.2,-0.9 -4.9,-1.4 -1.7,-0.5 -3.3,-1.1 -4.9,-1.8 -1.6,-0.7 -3,-1.6 -4.2,-2.7 -1.2,-1.1 -2.2,-2.4 -3,-4 -0.8,-1.6 -1.1,-3.5 -1.1,-5.7 0,-2.5 0.5,-4.8 1.6,-6.7 1.1,-1.9 2.5,-3.5 4.3,-4.9 1.8,-1.3 4,-2.3 6.4,-3 2.5,-0.7 5.1,-1 7.9,-1 1.8,0 3.6,0.1 5.4,0.4 1.8,0.3 3.6,0.6 5.3,1.1 1.7,0.5 3.4,1.1 5,1.8 1.6,0.7 3.1,1.5 4.4,2.4 z"
   id="path1" />
				<path
   class="st9"
   d="m 592.1,517.8 c 3.2,0 6.1,0.4 8.6,1.2 2.5,0.8 4.6,1.9 6.4,3.4 1.7,1.5 3,3.3 3.9,5.5 0.9,2.2 1.3,4.7 1.3,7.5 0,2.9 -0.4,5.6 -1.3,7.9 -0.9,2.3 -2.2,4.3 -3.9,5.9 -1.7,1.6 -3.9,2.8 -6.4,3.6 -2.5,0.8 -5.4,1.3 -8.6,1.3 h -14.6 l 5.8,-5.8 V 568 H 570 v -50.2 z m -0.7,25.8 c 1.3,0 2.5,-0.2 3.5,-0.5 1,-0.3 1.9,-0.8 2.6,-1.5 0.7,-0.7 1.2,-1.5 1.6,-2.5 0.4,-1 0.6,-2.1 0.6,-3.4 0,-1.2 -0.2,-2.3 -0.6,-3.3 -0.4,-1 -0.9,-1.7 -1.6,-2.3 -0.7,-0.6 -1.6,-1.1 -2.6,-1.4 -1,-0.3 -2.2,-0.5 -3.5,-0.5 h -14 l 5.8,-5.8 v 27 l -5.8,-5.8 z"
   id="path2" />
				<path
   class="st9"
   d="m 625.5,517.8 h 39.8 v 10.5 h -26.5 v 9.3 h 23.9 V 548 h -23.9 v 9.5 H 666 V 568 h -40.5 z"
   id="path3"
   sodipodi:nodetypes="ccccccccccccc" />
				<path
   class="st9"
   d="m 717.1,534.8 c -0.8,-1 -1.7,-2 -2.7,-2.8 -1,-0.8 -2,-1.5 -3.1,-2.1 -1.1,-0.6 -2.2,-1 -3.3,-1.3 -1.1,-0.3 -2.2,-0.5 -3.3,-0.5 -1.9,0 -3.7,0.4 -5.3,1.1 -1.6,0.7 -3,1.8 -4.2,3 -1.2,1.3 -2.2,2.8 -2.8,4.6 -0.6,1.8 -1,3.7 -1,5.8 0,2.1 0.3,4 1,5.8 0.7,1.8 1.6,3.3 2.8,4.6 1.2,1.3 2.6,2.3 4.2,3.1 1.6,0.7 3.4,1.1 5.3,1.1 1.1,0 2.1,-0.1 3.2,-0.4 1.1,-0.3 2.2,-0.7 3.2,-1.2 1.1,-0.5 2.1,-1.1 3.1,-1.9 1,-0.7 2,-1.5 2.8,-2.5 l 7.8,8.2 c -1.3,1.4 -2.8,2.7 -4.5,3.9 -1.6,1.2 -3.4,2.2 -5.2,3 -1.8,0.8 -3.6,1.5 -5.6,1.9 -1.9,0.5 -3.8,0.7 -5.7,0.7 -3.8,0 -7.3,-0.7 -10.5,-2 -3.2,-1.3 -6,-3.2 -8.4,-5.5 -2.3,-2.3 -4.2,-5.1 -5.5,-8.3 -1.3,-3.2 -2,-6.7 -2,-10.4 0,-3.7 0.7,-7.1 2,-10.3 1.4,-3.2 3.2,-5.9 5.6,-8.2 2.4,-2.3 5.2,-4.1 8.5,-5.4 3.3,-1.3 6.8,-2 10.7,-2 1.9,0 3.7,0.2 5.6,0.6 1.9,0.4 3.7,1 5.5,1.8 1.8,0.8 3.4,1.7 5,2.7 1.6,1.1 3,2.3 4.2,3.6 z"
   id="path4" />
				<path
   class="st9"
   d="m 737.2,517.8 h 13.3 V 568 h -13.3 z"
   id="path5" />
				<path
   class="st9"
   d="M 783.4,517.8 H 797 l 21,50.2 h -14.2 l -14,-36.9 -14.3,36.9 h -13.7 z m -8.6,31.3 h 29.3 v 10 h -29.3 z"
   id="path6" />
				<path
   class="st9"
   d="m 829.3,517.8 h 13.3 v 39 h 21.2 V 568 h -34.6 v -50.2 z"
   id="path7" />
				<path
   class="st9"
   d="m 911.3,532.9 c -1.2,-0.7 -2.5,-1.4 -3.9,-2 -1.4,-0.6 -2.8,-1.2 -4.2,-1.7 -1.4,-0.5 -2.9,-0.9 -4.2,-1.2 -1.4,-0.3 -2.7,-0.4 -3.8,-0.4 -0.6,0 -1.3,0.1 -1.9,0.2 -0.6,0.1 -1.2,0.3 -1.6,0.6 -0.5,0.3 -0.9,0.7 -1.2,1.1 -0.3,0.4 -0.4,1 -0.4,1.7 0,1.1 0.4,2 1.1,2.7 0.7,0.7 1.8,1.3 3,1.8 1.2,0.5 2.7,1 4.2,1.4 1.6,0.4 3.2,0.9 4.8,1.5 1.7,0.5 3.3,1.2 4.9,1.9 1.6,0.7 3,1.7 4.2,2.8 1.2,1.1 2.2,2.5 3,4.1 0.8,1.6 1.1,3.6 1.1,5.9 0,2.7 -0.6,5.1 -1.7,7 -1.1,2 -2.6,3.6 -4.5,4.9 -1.9,1.3 -4,2.2 -6.5,2.8 -2.5,0.6 -4.9,0.9 -7.5,0.9 -2.1,0 -4.1,-0.2 -6.2,-0.5 -2.1,-0.4 -4.2,-0.9 -6.2,-1.6 -2,-0.7 -3.9,-1.5 -5.8,-2.6 -1.8,-1 -3.6,-2.2 -5.1,-3.4 l 5.2,-10.3 c 1.2,1.1 2.6,2.1 4.2,3 1.5,0.9 3.1,1.8 4.7,2.5 1.6,0.7 3.3,1.2 4.9,1.6 1.6,0.4 3.1,0.6 4.5,0.6 0.8,0 1.5,-0.1 2.3,-0.2 0.7,-0.1 1.4,-0.4 2,-0.7 0.6,-0.3 1.1,-0.8 1.4,-1.3 0.3,-0.5 0.5,-1.2 0.5,-2 0,-1.1 -0.4,-2 -1.1,-2.7 -0.7,-0.7 -1.8,-1.3 -3,-1.8 -1.2,-0.5 -2.7,-1 -4.2,-1.4 -1.6,-0.4 -3.2,-0.9 -4.9,-1.4 -1.6,-0.5 -3.3,-1.1 -4.9,-1.8 -1.6,-0.7 -3,-1.6 -4.2,-2.7 -1.2,-1.1 -2.2,-2.4 -3,-4 -0.8,-1.6 -1.1,-3.5 -1.1,-5.7 0,-2.5 0.5,-4.8 1.6,-6.7 1.1,-1.9 2.5,-3.5 4.3,-4.9 1.8,-1.3 4,-2.3 6.4,-3 2.4,-0.7 5.1,-1 7.9,-1 1.8,0 3.6,0.1 5.4,0.4 1.8,0.3 3.6,0.6 5.3,1.1 1.7,0.5 3.4,1.1 5,1.8 1.6,0.7 3.1,1.5 4.4,2.4 z"
   id="path8" />
			</g>
		</g>
		<g
   id="g32">
			<g
   id="g31">
				<g
   id="g30">
					<g
   id="g29">
						<path
   class="st3"
   d="m 569.8,583.5 c -0.2,-0.2 -0.5,-0.4 -0.8,-0.6 -0.3,-0.2 -0.6,-0.3 -0.9,-0.5 -0.3,-0.1 -0.6,-0.2 -0.9,-0.3 -0.3,-0.1 -0.6,-0.1 -0.9,-0.1 -0.6,0 -1.1,0.1 -1.7,0.3 -0.5,0.2 -1,0.5 -1.3,0.9 -0.4,0.4 -0.7,0.8 -0.9,1.4 -0.2,0.5 -0.3,1.1 -0.3,1.7 0,0.6 0.1,1.2 0.3,1.7 0.2,0.5 0.5,1 0.9,1.4 0.4,0.4 0.8,0.7 1.3,0.9 0.5,0.2 1.1,0.3 1.7,0.3 0.3,0 0.6,0 0.8,-0.1 0.3,-0.1 0.6,-0.1 0.9,-0.3 0.3,-0.1 0.6,-0.2 0.9,-0.4 0.3,-0.2 0.5,-0.3 0.8,-0.5 l 1.4,1.7 c -0.3,0.2 -0.7,0.5 -1.1,0.7 -0.4,0.2 -0.8,0.4 -1.2,0.5 -0.4,0.1 -0.9,0.3 -1.3,0.3 -0.5,0.1 -0.9,0.1 -1.3,0.1 -0.9,0 -1.8,-0.2 -2.6,-0.5 -0.8,-0.3 -1.5,-0.8 -2.1,-1.4 -0.6,-0.6 -1.1,-1.3 -1.4,-2 -0.3,-0.8 -0.5,-1.6 -0.5,-2.5 0,-0.9 0.2,-1.7 0.5,-2.5 0.3,-0.8 0.8,-1.5 1.4,-2 0.6,-0.6 1.3,-1 2.1,-1.4 0.8,-0.3 1.7,-0.5 2.7,-0.5 0.5,0 0.9,0 1.4,0.1 0.5,0.1 0.9,0.2 1.3,0.4 0.4,0.2 0.8,0.3 1.2,0.6 0.4,0.2 0.7,0.5 1,0.8 z m -0.9,3.9 h -3.6 v -2 h 5.8 v 5.7 h -2.3 v -3.7 z"
   id="path9" />
						<path
   class="st3"
   d="m 580.8,580.1 c 0.8,0 1.5,0.1 2.2,0.3 0.7,0.2 1.2,0.5 1.6,0.8 0.4,0.4 0.8,0.8 1,1.3 0.2,0.5 0.3,1.1 0.3,1.8 0,0.7 -0.1,1.4 -0.3,1.9 -0.2,0.6 -0.6,1 -1,1.4 -0.4,0.4 -1,0.7 -1.6,0.9 -0.6,0.2 -1.4,0.3 -2.2,0.3 h -2.7 v 3.7 h -2.5 V 580 h 5.2 z m 0,6.7 c 0.4,0 0.8,-0.1 1.2,-0.2 0.3,-0.1 0.6,-0.2 0.9,-0.4 0.2,-0.2 0.4,-0.4 0.5,-0.7 0.1,-0.3 0.2,-0.6 0.2,-1 0,-0.4 -0.1,-0.7 -0.2,-1 -0.1,-0.3 -0.3,-0.5 -0.5,-0.7 -0.2,-0.2 -0.5,-0.3 -0.9,-0.4 -0.3,-0.1 -0.7,-0.1 -1.2,-0.1 h -2.7 v 4.7 h 2.7 z m -0.1,1.2 h 2.5 l 3.1,4.6 h -2.8 z"
   id="path10" />
						<path
   class="st3"
   d="m 594.2,580.1 h 2.6 l 5.4,12.5 h -2.7 l -4.1,-10 -4.1,10 h -2.6 z m -2.6,7.8 h 7.4 v 2 h -7.4 z"
   id="path11" />
						<path
   class="st3"
   d="m 605.3,580.1 h 2.3 l 7,9.5 -0.7,0.2 v -9.7 h 2.4 v 12.5 H 614 l -7,-9.5 0.7,-0.2 v 9.7 h -2.4 z"
   id="path12" />
						<path
   class="st3"
   d="m 626.3,580.1 c 1,0 1.8,0.2 2.6,0.5 0.8,0.3 1.5,0.7 2.1,1.3 0.6,0.6 1,1.2 1.3,2 0.3,0.8 0.5,1.6 0.5,2.5 0,0.9 -0.2,1.7 -0.5,2.5 -0.3,0.8 -0.8,1.4 -1.4,2 -0.6,0.6 -1.3,1 -2.1,1.3 -0.8,0.3 -1.7,0.5 -2.7,0.5 H 621 v -12.5 h 5.3 z m 0.1,10.4 c 0.6,0 1.1,-0.1 1.6,-0.3 0.5,-0.2 0.9,-0.5 1.2,-0.9 0.3,-0.4 0.6,-0.8 0.8,-1.3 0.2,-0.5 0.3,-1.1 0.3,-1.7 0,-0.6 -0.1,-1.2 -0.3,-1.7 -0.2,-0.5 -0.5,-1 -0.8,-1.3 -0.4,-0.4 -0.8,-0.7 -1.3,-0.9 -0.5,-0.2 -1,-0.3 -1.6,-0.3 h -2.7 v 8.3 h 2.8 z"
   id="path13" />
						<path
   class="st3"
   d="m 648.2,580.1 c 0.8,0 1.5,0.1 2.2,0.3 0.6,0.2 1.2,0.5 1.6,0.8 0.4,0.4 0.8,0.8 1,1.3 0.2,0.5 0.3,1.1 0.3,1.8 0,0.7 -0.1,1.4 -0.3,1.9 -0.2,0.6 -0.6,1 -1,1.4 -0.4,0.4 -1,0.7 -1.6,0.9 -0.6,0.2 -1.3,0.3 -2.2,0.3 h -2.7 v 3.7 H 643 V 580 h 5.2 z m 0,6.7 c 0.4,0 0.8,-0.1 1.2,-0.2 0.3,-0.1 0.6,-0.2 0.9,-0.4 0.2,-0.2 0.4,-0.4 0.5,-0.7 0.1,-0.3 0.2,-0.6 0.2,-1 0,-0.4 -0.1,-0.7 -0.2,-1 -0.1,-0.3 -0.3,-0.5 -0.5,-0.7 -0.2,-0.2 -0.5,-0.3 -0.9,-0.4 -0.3,-0.1 -0.7,-0.1 -1.2,-0.1 h -2.7 v 4.7 h 2.7 z m -0.1,1.2 h 2.5 l 3.1,4.6 h -2.8 z"
   id="path14" />
						<path
   class="st3"
   d="m 661.5,580.1 h 2.6 l 5.4,12.5 h -2.7 l -4.1,-10 -4.1,10 H 656 Z m -2.5,7.8 h 7.4 v 2 H 659 Z"
   id="path15" />
						<path
   class="st3"
   d="m 677.8,580.1 c 0.8,0 1.5,0.1 2.1,0.3 0.6,0.2 1.1,0.5 1.6,0.8 0.4,0.4 0.7,0.8 1,1.3 0.3,0.5 0.3,1.1 0.3,1.8 0,0.7 -0.1,1.4 -0.3,1.9 -0.2,0.6 -0.5,1 -1,1.4 -0.4,0.4 -0.9,0.7 -1.6,0.9 -0.6,0.2 -1.3,0.3 -2.1,0.3 h -3.7 l 1.1,-1.1 v 4.8 h -2.5 V 580 h 5.1 z m -0.1,6.7 c 0.4,0 0.8,-0.1 1.2,-0.2 0.3,-0.1 0.6,-0.2 0.8,-0.4 0.2,-0.2 0.4,-0.4 0.5,-0.7 0.1,-0.3 0.2,-0.6 0.2,-1 0,-0.4 -0.1,-0.7 -0.2,-1 -0.1,-0.3 -0.3,-0.5 -0.5,-0.7 -0.2,-0.2 -0.5,-0.3 -0.8,-0.4 -0.3,-0.1 -0.7,-0.1 -1.2,-0.1 h -3.6 l 1.1,-1.1 v 6.9 l -1.1,-1.1 h 3.6 z"
   id="path16" />
						<path
   class="st3"
   d="m 686.4,580.1 h 2.5 v 12.5 h -2.5 z"
   id="path17" />
						<path
   class="st3"
   d="m 698.8,580.1 c 1,0 1.8,0.2 2.6,0.5 0.8,0.3 1.5,0.7 2.1,1.3 0.6,0.6 1,1.2 1.3,2 0.3,0.8 0.5,1.6 0.5,2.5 0,0.9 -0.2,1.7 -0.5,2.5 -0.3,0.8 -0.8,1.4 -1.4,2 -0.6,0.6 -1.3,1 -2.1,1.3 -0.8,0.3 -1.7,0.5 -2.7,0.5 h -5.1 v -12.5 h 5.3 z m 0.1,10.4 c 0.6,0 1.1,-0.1 1.6,-0.3 0.5,-0.2 0.9,-0.5 1.2,-0.9 0.3,-0.4 0.6,-0.8 0.8,-1.3 0.2,-0.5 0.3,-1.1 0.3,-1.7 0,-0.6 -0.1,-1.2 -0.3,-1.7 -0.2,-0.5 -0.5,-1 -0.8,-1.3 -0.4,-0.4 -0.8,-0.7 -1.3,-0.9 -0.5,-0.2 -1,-0.3 -1.6,-0.3 h -2.7 v 8.3 h 2.8 z"
   id="path18" />
						<path
   class="st3"
   d="m 717,583.3 c -0.3,-0.2 -0.6,-0.3 -0.9,-0.5 -0.3,-0.1 -0.6,-0.3 -1,-0.4 -0.3,-0.1 -0.7,-0.2 -1,-0.3 -0.3,-0.1 -0.6,-0.1 -1,-0.1 -0.2,0 -0.4,0 -0.6,0.1 -0.2,0 -0.4,0.1 -0.6,0.2 -0.2,0.1 -0.3,0.2 -0.4,0.4 -0.1,0.2 -0.2,0.4 -0.2,0.6 0,0.3 0.1,0.6 0.3,0.8 0.2,0.2 0.4,0.4 0.8,0.5 0.3,0.2 0.7,0.3 1.1,0.4 0.4,0.1 0.8,0.2 1.2,0.4 0.4,0.2 0.8,0.3 1.2,0.5 0.4,0.2 0.8,0.4 1.1,0.7 0.3,0.3 0.6,0.6 0.8,1 0.2,0.4 0.3,0.9 0.3,1.4 0,0.7 -0.1,1.2 -0.4,1.7 -0.3,0.5 -0.7,0.9 -1.1,1.2 -0.5,0.3 -1,0.5 -1.5,0.7 -0.6,0.1 -1.2,0.2 -1.7,0.2 -0.5,0 -1,0 -1.5,-0.1 -0.5,-0.1 -1,-0.2 -1.4,-0.4 -0.5,-0.2 -0.9,-0.4 -1.3,-0.6 -0.4,-0.2 -0.8,-0.5 -1.2,-0.8 l 1,-2 c 0.3,0.3 0.6,0.5 0.9,0.7 0.3,0.2 0.7,0.4 1.1,0.6 0.4,0.2 0.8,0.3 1.2,0.4 0.4,0.1 0.8,0.1 1.2,0.1 0.2,0 0.5,0 0.7,-0.1 0.2,0 0.5,-0.1 0.7,-0.2 0.2,-0.1 0.4,-0.3 0.5,-0.4 0.1,-0.2 0.2,-0.4 0.2,-0.7 0,-0.3 -0.1,-0.6 -0.3,-0.8 -0.2,-0.2 -0.4,-0.4 -0.8,-0.6 -0.3,-0.2 -0.7,-0.3 -1.1,-0.4 -0.4,-0.1 -0.8,-0.2 -1.2,-0.4 -0.4,-0.2 -0.8,-0.3 -1.2,-0.5 -0.4,-0.2 -0.8,-0.4 -1.1,-0.7 -0.3,-0.3 -0.6,-0.6 -0.8,-1 -0.2,-0.4 -0.3,-0.9 -0.3,-1.4 0,-0.6 0.1,-1.2 0.4,-1.6 0.3,-0.4 0.6,-0.8 1.1,-1.1 0.4,-0.3 0.9,-0.5 1.5,-0.6 0.6,-0.1 1.1,-0.2 1.7,-0.2 0.4,0 0.8,0 1.2,0.1 0.4,0.1 0.8,0.1 1.2,0.3 0.4,0.1 0.8,0.3 1.1,0.4 0.3,0.1 0.7,0.4 1,0.6 z"
   id="path19" />
						<path
   class="st3"
   d="m 728.4,580.1 h 2.5 v 10.4 h 5.4 v 2.1 h -7.9 z"
   id="path20" />
						<path
   class="st3"
   d="m 748.2,580.4 c 0.8,0.3 1.5,0.8 2.1,1.3 0.6,0.5 1.1,1.2 1.4,2 0.3,0.8 0.5,1.6 0.5,2.5 0,0.9 -0.2,1.7 -0.5,2.5 -0.3,0.8 -0.8,1.5 -1.4,2 -0.6,0.5 -1.3,1 -2.1,1.4 -0.8,0.3 -1.7,0.5 -2.6,0.5 -0.9,0 -1.8,-0.2 -2.6,-0.5 -0.8,-0.3 -1.5,-0.8 -2.1,-1.4 -0.6,-0.6 -1.1,-1.3 -1.4,-2 -0.3,-0.8 -0.5,-1.6 -0.5,-2.5 0,-0.9 0.2,-1.8 0.5,-2.5 0.3,-0.8 0.8,-1.5 1.4,-2 0.6,-0.6 1.3,-1 2.1,-1.3 0.8,-0.3 1.7,-0.5 2.6,-0.5 0.9,0.1 1.8,0.2 2.6,0.5 z m -4.2,2 c -0.5,0.2 -0.9,0.5 -1.3,0.9 -0.4,0.4 -0.7,0.8 -0.9,1.4 -0.2,0.5 -0.3,1.1 -0.3,1.7 0,0.6 0.1,1.2 0.3,1.7 0.2,0.5 0.5,1 0.9,1.4 0.4,0.4 0.8,0.7 1.3,0.9 0.5,0.2 1,0.3 1.6,0.3 0.6,0 1.1,-0.1 1.6,-0.3 0.5,-0.2 0.9,-0.5 1.3,-0.9 0.4,-0.4 0.7,-0.8 0.9,-1.4 0.2,-0.5 0.3,-1.1 0.3,-1.7 0,-0.6 -0.1,-1.2 -0.3,-1.7 -0.2,-0.5 -0.5,-1 -0.9,-1.4 -0.4,-0.4 -0.8,-0.7 -1.3,-0.9 -0.5,-0.2 -1,-0.3 -1.6,-0.3 -0.6,0 -1.1,0.1 -1.6,0.3 z"
   id="path21" />
						<path
   class="st3"
   d="m 765,583.7 c -0.2,-0.3 -0.5,-0.5 -0.7,-0.7 -0.3,-0.2 -0.5,-0.4 -0.8,-0.5 -0.3,-0.1 -0.6,-0.2 -0.9,-0.3 -0.3,-0.1 -0.6,-0.1 -0.9,-0.1 -0.6,0 -1.1,0.1 -1.6,0.3 -0.5,0.2 -0.9,0.5 -1.3,0.9 -0.4,0.4 -0.7,0.8 -0.9,1.3 -0.2,0.5 -0.3,1.1 -0.3,1.7 0,0.6 0.1,1.1 0.3,1.7 0.2,0.5 0.5,1 0.9,1.4 0.4,0.4 0.8,0.7 1.3,0.9 0.5,0.2 1,0.3 1.6,0.3 0.3,0 0.6,0 0.9,-0.1 0.3,-0.1 0.6,-0.2 0.9,-0.3 0.3,-0.1 0.6,-0.3 0.8,-0.5 0.2,-0.2 0.5,-0.4 0.8,-0.6 l 1.5,1.5 c -0.3,0.3 -0.7,0.6 -1.1,0.9 -0.4,0.3 -0.8,0.5 -1.2,0.7 -0.4,0.2 -0.9,0.3 -1.3,0.4 -0.5,0.1 -0.9,0.2 -1.3,0.2 -0.9,0 -1.8,-0.2 -2.6,-0.5 -0.8,-0.3 -1.5,-0.8 -2.1,-1.4 -0.6,-0.6 -1,-1.3 -1.4,-2 -0.3,-0.8 -0.5,-1.6 -0.5,-2.5 0,-0.9 0.2,-1.7 0.5,-2.5 0.3,-0.8 0.8,-1.5 1.4,-2 0.6,-0.5 1.3,-1 2.1,-1.3 0.8,-0.3 1.7,-0.5 2.6,-0.5 0.4,0 0.9,0 1.3,0.1 0.4,0.1 0.9,0.2 1.3,0.4 0.4,0.2 0.8,0.4 1.2,0.6 0.4,0.2 0.7,0.5 1,0.8 z"
   id="path22" />
						<path
   class="st3"
   d="m 774,580.1 h 2.6 l 5.4,12.5 h -2.7 l -4.1,-10 -4.1,10 h -2.6 z m -2.5,7.8 h 7.4 v 2 h -7.4 z"
   id="path23" />
						<path
   class="st3"
   d="m 785.1,580.1 h 2.5 v 10.4 h 5.4 v 2.1 h -7.9 z"
   id="path24" />
						<path
   class="st3"
   d="m 808.2,580.1 c 1,0 1.8,0.2 2.6,0.5 0.8,0.3 1.5,0.7 2.1,1.3 0.6,0.6 1,1.2 1.3,2 0.3,0.8 0.5,1.6 0.5,2.5 0,0.9 -0.2,1.7 -0.5,2.5 -0.3,0.8 -0.8,1.4 -1.4,2 -0.6,0.6 -1.3,1 -2.1,1.3 -0.8,0.3 -1.7,0.5 -2.7,0.5 h -5.1 v -12.5 h 5.3 z m 0,10.4 c 0.6,0 1.1,-0.1 1.6,-0.3 0.5,-0.2 0.9,-0.5 1.2,-0.9 0.3,-0.4 0.6,-0.8 0.8,-1.3 0.2,-0.5 0.3,-1.1 0.3,-1.7 0,-0.6 -0.1,-1.2 -0.3,-1.7 -0.2,-0.5 -0.5,-1 -0.8,-1.3 -0.4,-0.4 -0.8,-0.7 -1.3,-0.9 -0.5,-0.2 -1,-0.3 -1.6,-0.3 h -2.7 v 8.3 h 2.8 z"
   id="path25" />
						<path
   class="st3"
   d="m 818.4,580.1 h 9.3 v 2.1 H 821 v 3.1 h 6 v 2.1 h -6 v 3.2 h 6.9 v 2.1 h -9.5 z"
   id="path26" />
						<path
   class="st3"
   d="m 835.9,580.1 h 2.6 l 5.4,12.5 h -2.7 l -4.1,-10 -4.1,10 h -2.6 z m -2.6,7.8 h 7.4 v 2 h -7.4 z"
   id="path27" />
						<path
   class="st3"
   d="m 847,580.1 h 2.5 v 10.4 h 5.4 v 2.1 H 847 Z"
   id="path28" />
						<path
   class="st3"
   d="m 866.4,583.3 c -0.3,-0.2 -0.6,-0.3 -0.9,-0.5 -0.3,-0.2 -0.6,-0.3 -1,-0.4 -0.4,-0.1 -0.7,-0.2 -1,-0.3 -0.3,-0.1 -0.7,-0.1 -1,-0.1 -0.2,0 -0.4,0 -0.6,0.1 -0.2,0 -0.4,0.1 -0.6,0.2 -0.2,0.1 -0.3,0.2 -0.4,0.4 -0.1,0.2 -0.2,0.4 -0.2,0.6 0,0.3 0.1,0.6 0.3,0.8 0.2,0.2 0.4,0.4 0.8,0.5 0.3,0.2 0.7,0.3 1.1,0.4 0.4,0.1 0.8,0.2 1.2,0.4 0.4,0.1 0.8,0.3 1.2,0.5 0.4,0.2 0.8,0.4 1.1,0.7 0.3,0.3 0.6,0.6 0.8,1 0.2,0.4 0.3,0.9 0.3,1.4 0,0.7 -0.1,1.2 -0.4,1.7 -0.3,0.5 -0.7,0.9 -1.1,1.2 -0.5,0.3 -1,0.5 -1.5,0.7 -0.6,0.1 -1.2,0.2 -1.7,0.2 -0.5,0 -1,0 -1.5,-0.1 -0.5,-0.1 -1,-0.2 -1.4,-0.4 -0.5,-0.2 -0.9,-0.4 -1.3,-0.6 -0.4,-0.2 -0.8,-0.5 -1.2,-0.8 l 1,-2 c 0.3,0.3 0.6,0.5 0.9,0.7 0.3,0.2 0.7,0.4 1.1,0.6 0.4,0.2 0.8,0.3 1.2,0.4 0.4,0.1 0.8,0.1 1.2,0.1 0.2,0 0.5,0 0.7,-0.1 0.2,-0.1 0.5,-0.1 0.7,-0.2 0.2,-0.1 0.4,-0.3 0.5,-0.4 0.1,-0.2 0.2,-0.4 0.2,-0.7 0,-0.3 -0.1,-0.6 -0.3,-0.8 -0.2,-0.2 -0.4,-0.4 -0.8,-0.6 -0.3,-0.2 -0.7,-0.3 -1.1,-0.4 -0.4,-0.1 -0.8,-0.2 -1.2,-0.4 -0.4,-0.1 -0.8,-0.3 -1.2,-0.5 -0.4,-0.2 -0.8,-0.4 -1.1,-0.7 -0.3,-0.3 -0.6,-0.6 -0.8,-1 -0.2,-0.4 -0.3,-0.9 -0.3,-1.4 0,-0.6 0.1,-1.2 0.4,-1.6 0.3,-0.4 0.6,-0.8 1.1,-1.1 0.4,-0.3 0.9,-0.5 1.5,-0.6 0.6,-0.1 1.1,-0.2 1.7,-0.2 0.4,0 0.8,0 1.2,0.1 0.4,0.1 0.8,0.1 1.2,0.3 0.4,0.1 0.8,0.3 1.1,0.4 0.3,0.1 0.7,0.4 1,0.6 z"
   id="path29" />
					</g>
				</g>
			<path
   style="fill:#fdc91b;fill-opacity:1;stroke-width:0.250627"
   d="m 166.06769,63.43471 c -0.72752,-0.403232 -1.25986,-1.308743 -1.27184,-2.163405 -0.0214,-1.524001 1.84971,-2.751999 3.40905,-2.237372 0.79738,0.263161 1.09578,0.997333 0.31014,0.763053 -0.18954,-0.05652 -0.69682,-0.151772 -1.1273,-0.211672 -1.6135,-0.224513 -2.50524,1.991405 -1.26883,3.152953 0.94393,0.886773 2.42746,0.667331 2.42746,-0.359066 0,-0.499307 -0.12593,-0.599752 -0.75188,-0.599752 -0.50126,0 -0.75188,-0.125314 -0.75188,-0.37594 0,-0.278474 0.29239,-0.37594 1.12782,-0.37594 h 1.12782 v 1.08759 c 0,0.922241 -0.0971,1.13181 -0.63836,1.378446 -0.83157,0.378888 -1.84384,0.355889 -2.5922,-0.05889 z"
   id="path32"
   transform="matrix(2.4490235,0,0,2.4490235,156.40015,435.94584)" /><path
   style="fill:#fdc91b;fill-opacity:1;stroke-width:0.250627"
   d=""
   id="path47"
   transform="matrix(2.4490235,0,0,2.4490235,156.40015,435.94584)" /><path
   style="fill:#fdc91b;fill-opacity:1;stroke-width:0.250627"
   d="m 171.30326,61.403509 v -2.380953 h 1.50376 c 2.2927,0 3.14677,1.123147 1.98102,2.605156 -0.49074,0.62387 -0.49897,0.707842 -0.12532,1.278114 0.48399,0.738647 0.49642,0.878635 0.078,0.878635 -0.17704,0 -0.52177,-0.338346 -0.76605,-0.75188 -0.33347,-0.564533 -0.62796,-0.751879 -1.18185,-0.751879 -0.6526,0 -0.73771,0.08675 -0.73771,0.751879 0,0.501254 -0.12532,0.75188 -0.37594,0.75188 -0.30779,0 -0.37594,-0.431634 -0.37594,-2.380952 z m 2.77337,0.116495 c 0.72866,-0.389966 0.63289,-1.451034 -0.15811,-1.751771 -0.35358,-0.134433 -0.91749,-0.244423 -1.25313,-0.244423 -0.55618,0 -0.61025,0.09994 -0.61025,1.127819 0,1.091423 0.0248,1.12782 0.76835,1.12782 0.4226,0 0.98651,-0.116751 1.25314,-0.259445 z"
   id="path48"
   transform="matrix(2.4490235,0,0,2.4490235,156.40015,435.94584)" /><path
   style="fill:#fdc91b;fill-opacity:1;stroke-width:0.250627"
   d="m 176.81704,63.709639 c 0,-0.04115 0.44639,-1.084385 0.99198,-2.318296 1.35831,-3.07198 1.62936,-3.071899 2.94922,8.85e-4 0.73091,1.701622 0.92789,2.392233 0.68232,2.392233 -0.18988,0 -0.46595,-0.225564 -0.61349,-0.501253 -0.2174,-0.406206 -0.52477,-0.501253 -1.621,-0.501253 -1.13263,0 -1.37863,0.08156 -1.51183,0.501253 -0.0875,0.275689 -0.32067,0.501253 -0.51815,0.501253 -0.19747,0 -0.35905,-0.03367 -0.35905,-0.07482 z m 3.50877,-1.533472 c 0,-0.0575 -0.23959,-0.6496 -0.53243,-1.31579 l -0.53243,-1.211254 -0.4635,1.002506 c -0.6748,1.459525 -0.62007,1.629073 0.52586,1.629073 0.55138,0 1.0025,-0.04704 1.0025,-0.104535 z"
   id="path49"
   transform="matrix(2.4490235,0,0,2.4490235,156.40015,435.94584)" /><path
   style="fill:#fdc91b;fill-opacity:1;stroke-width:0.250627"
   d="m 183.33333,61.403509 c 0,-2.103744 0.0511,-2.379958 0.4386,-2.37241 0.24868,0.0048 1.00834,0.785185 1.75439,1.802136 l 1.31579,1.793593 v -1.802136 c 0,-1.434814 0.0766,-1.802136 0.37594,-1.802136 0.30778,0 0.37593,0.431635 0.37593,2.380953 0,2.977123 -0.22732,3.03973 -2.04756,0.56391 l -1.33589,-1.817043 -0.0736,1.817043 c -0.0563,1.390056 -0.1594,1.817042 -0.4386,1.817042 -0.29391,0 -0.36496,-0.463471 -0.36496,-2.380952 z"
   id="path50"
   transform="matrix(2.4490235,0,0,2.4490235,156.40015,435.94584)" /><path
   style="fill:#fdc91b;fill-opacity:1;stroke-width:0.250627"
   d="m 190.68374,61.403509 c 0.001,-0.964913 0.0464,-1.328938 0.10067,-0.808947 0.0543,0.519992 0.0533,1.309466 -0.002,1.754386 -0.0554,0.444921 -0.0998,0.01947 -0.0986,-0.945439 z"
   id="path51"
   transform="matrix(2.4490235,0,0,2.4490235,156.40015,435.94584)" /><path
   style="fill:#fdc91b;fill-opacity:1;stroke-width:0.250627"
   d="m 189.84962,61.374312 v -2.410149 l 1.66284,0.105881 c 1.43465,0.09135 1.74419,0.200458 2.25564,0.795053 0.85267,0.991281 0.79747,2.249495 -0.1398,3.186763 -0.64898,0.648978 -0.90645,0.732601 -2.25564,0.732601 h -1.52304 z m 3.24839,1.360384 c 0.66482,-0.713607 0.66964,-2.049755 0.01,-2.709633 -0.33417,-0.334169 -0.83542,-0.501253 -1.50376,-0.501253 h -1.00251 v 1.879699 1.879699 h 0.99275 c 0.6985,0 1.1442,-0.162572 1.50376,-0.548512 z"
   id="path52"
   transform="matrix(2.4490235,0,0,2.4490235,156.40015,435.94584)" /><path
   style="fill:#fdc91b;fill-opacity:1;stroke-width:0.250627"
   d=""
   id="path53"
   transform="matrix(2.4490235,0,0,2.4490235,156.40015,435.94584)" /><path
   style="fill:#fdc91b;fill-opacity:1;stroke-width:0.250627"
   d=""
   id="path54"
   transform="matrix(2.4490235,0,0,2.4490235,156.40015,435.94584)" /><path
   style="fill:#fdc91b;fill-opacity:1;stroke-width:0.250627"
   d="m 198.87218,61.403509 v -2.380953 h 1.35068 c 0.93011,0 1.52516,0.141284 1.91103,0.453742 0.68435,0.55415 0.73292,1.62781 0.10504,2.321613 -0.43506,0.480742 -0.43583,0.536077 -0.0172,1.244828 0.33639,0.569455 0.36009,0.741722 0.10208,0.741722 -0.18484,0 -0.53594,-0.338346 -0.78022,-0.75188 -0.33348,-0.564533 -0.62797,-0.751879 -1.18186,-0.751879 -0.65259,0 -0.73771,0.08675 -0.73771,0.751879 0,0.501254 -0.12531,0.75188 -0.37594,0.75188 -0.30779,0 -0.37594,-0.431634 -0.37594,-2.380952 z m 2.8643,-0.0179 c 0.81345,-0.813447 0.34206,-1.598582 -1.07379,-1.788488 l -1.03863,-0.139309 v 1.160819 c 0,1.15496 0.004,1.16082 0.85929,1.16082 0.47261,0 1.03652,-0.177229 1.25313,-0.393842 z"
   id="path55"
   transform="matrix(2.4490235,0,0,2.4490235,156.40015,435.94584)" /><path
   style="fill:#fdc91b;fill-opacity:1;stroke-width:0.250627"
   d=""
   id="path56"
   transform="matrix(2.4490235,0,0,2.4490235,156.40015,435.94584)" /><path
   style="fill:#fdc91b;fill-opacity:1;stroke-width:0.250627"
   d=""
   id="path57"
   transform="matrix(2.4490235,0,0,2.4490235,156.40015,435.94584)" /><path
   style="fill:#fdc91b;fill-opacity:1;stroke-width:0.250627"
   d=""
   id="path58"
   transform="matrix(2.4490235,0,0,2.4490235,156.40015,435.94584)" /><path
   style="fill:#fdc91b;fill-opacity:1;stroke-width:0.250627"
   d=""
   id="path59"
   transform="matrix(2.4490235,0,0,2.4490235,156.40015,435.94584)" /><path
   style="fill:#fdc91b;fill-opacity:1;stroke-width:0.250627"
   d="m 204.53026,63.220551 c 0.0979,-0.31015 0.55025,-1.381579 1.00514,-2.380952 1.10766,-2.433515 1.48158,-2.414578 2.53908,0.128585 1.18585,2.851858 1.17649,2.816277 0.74115,2.816277 -0.21222,0 -0.45745,-0.225564 -0.54495,-0.501253 -0.13381,-0.421591 -0.37921,-0.501253 -1.54412,-0.501253 -1.17424,0 -1.40496,0.07628 -1.5161,0.501253 -0.0721,0.275689 -0.2947,0.501253 -0.49468,0.501253 -0.26274,0 -0.3142,-0.156417 -0.18552,-0.56391 z m 3.10335,-1.378446 c -0.006,-0.241228 -0.22199,-0.833333 -0.48047,-1.315789 l -0.46997,-0.877193 -0.52203,1.211254 c -0.28713,0.66619 -0.52204,1.258295 -0.52204,1.31579 0,0.05749 0.45113,0.104535 1.0025,0.104535 0.79169,0 1.0003,-0.09223 0.99201,-0.438597 z"
   id="path60"
   transform="matrix(2.4490235,0,0,2.4490235,156.40015,435.94584)" /><path
   style="fill:#fdc91b;fill-opacity:1;stroke-width:0.250627"
   d="m 210.90226,61.403509 v -2.380953 h 1.38983 c 1.14147,0 1.49978,0.109937 2.00502,0.615175 0.77581,0.775818 0.77581,1.251979 0,2.027797 -0.4504,0.450393 -0.88676,0.615174 -1.62908,0.615174 -0.95947,0 -1.01389,0.04036 -1.01389,0.751879 0,0.501254 -0.12532,0.75188 -0.37594,0.75188 -0.30779,0 -0.37594,-0.431634 -0.37594,-2.380952 z m 2.8643,-0.0179 c 0.81345,-0.813447 0.34206,-1.598582 -1.0738,-1.788488 l -1.03862,-0.139309 v 1.160819 c 0,1.15496 0.004,1.16082 0.85929,1.16082 0.47261,0 1.03652,-0.177229 1.25313,-0.393842 z"
   id="path61"
   transform="matrix(2.4490235,0,0,2.4490235,156.40015,435.94584)" /><path
   style="fill:#fdc91b;fill-opacity:1;stroke-width:0.250627"
   d="m 216.41604,61.403509 c 0,-2.213868 0.0352,-2.380953 0.50125,-2.380953 0.46608,0 0.50126,0.167085 0.50126,2.380953 0,2.213868 -0.0352,2.380952 -0.50126,2.380952 -0.46607,0 -0.50125,-0.167084 -0.50125,-2.380952 z"
   id="path62"
   transform="matrix(2.4490235,0,0,2.4490235,156.40015,435.94584)" /><path
   style="fill:#fdc91b;fill-opacity:1;stroke-width:0.250627"
   d="m 219.26447,61.403509 c 6.5e-4,-1.378446 0.0427,-1.91038 0.0935,-1.182075 0.0508,0.728305 0.0503,1.856125 -0.001,2.506266 -0.0514,0.650141 -0.093,0.05426 -0.0923,-1.324191 z"
   id="path63"
   transform="matrix(2.4490235,0,0,2.4490235,156.40015,435.94584)" /><path
   style="fill:#fdc91b;fill-opacity:1;stroke-width:0.250627"
   d="m 219.42356,61.403509 v -2.380953 h 1.52304 c 1.34919,0 1.60666,0.08362 2.25564,0.732601 1.0111,1.011107 1.0111,2.285596 0,3.296703 -0.64898,0.648978 -0.90645,0.732601 -2.25564,0.732601 h -1.52304 z m 3.25814,1.378446 c 0.66476,-0.66476 0.66476,-2.092132 0,-2.756892 -0.33416,-0.334169 -0.83542,-0.501253 -1.50376,-0.501253 h -1.0025 v 1.879699 1.879699 h 1.0025 c 0.66834,0 1.1696,-0.167084 1.50376,-0.501253 z"
   id="path64"
   transform="matrix(2.4490235,0,0,2.4490235,156.40015,435.94584)" /><path
   style="fill:#fdc91b;fill-opacity:1;stroke-width:0.250627"
   d=""
   id="path65"
   transform="matrix(2.4490235,0,0,2.4490235,156.40015,435.94584)" /><path
   style="fill:#fdc91b;fill-opacity:1;stroke-width:0.250627"
   d=""
   id="path66"
   transform="matrix(2.4490235,0,0,2.4490235,156.40015,435.94584)" /><path
   style="fill:#fdc91b;fill-opacity:1;stroke-width:0.250627"
   d="m 226.42385,63.686467 c -0.47297,-0.15287 -0.80355,-0.390728 -0.73463,-0.528572 0.0689,-0.137845 0.2381,-0.203335 0.37594,-0.145534 0.13785,0.0578 0.67259,0.154142 1.18832,0.214089 1.58003,0.18366 1.573,-1.172683 -0.008,-1.567252 -1.44112,-0.359629 -1.97085,-1.431762 -1.09781,-2.221858 0.74943,-0.67822 2.79982,-0.49703 2.79982,0.247415 0,0.283159 -0.10732,0.30051 -0.51365,0.08305 -0.73569,-0.393731 -1.84596,-0.208613 -1.94711,0.324646 -0.0596,0.314123 0.19545,0.558786 0.87505,0.839495 1.7862,0.737782 2.30036,1.621512 1.39774,2.402388 -0.64358,0.556773 -1.36561,0.665635 -2.33555,0.352135 z"
   id="path67"
   transform="matrix(2.4490235,0,0,2.4490235,156.40015,435.94584)" /><path
   style="fill:#fdc91b;fill-opacity:1;stroke-width:0.250627"
   d="m 233.70927,61.403509 c 0,-1.949318 0.0682,-2.380953 0.37594,-2.380953 0.30469,0 0.37594,0.403788 0.37594,2.130326 v 2.130326 h 1.12782 c 0.6203,0 1.12782,0.112782 1.12782,0.250627 0,0.139237 -0.66834,0.250626 -1.50376,0.250626 h -1.50376 z"
   id="path68"
   transform="matrix(2.4490235,0,0,2.4490235,156.40015,435.94584)" /><path
   style="fill:#fdc91b;fill-opacity:1;stroke-width:0.250627"
   d=""
   id="path69"
   transform="matrix(2.4490235,0,0,2.4490235,156.40015,435.94584)" /><path
   style="fill:#fdc91b;fill-opacity:1;stroke-width:0.250627"
   d=""
   id="path70"
   transform="matrix(2.4490235,0,0,2.4490235,156.40015,435.94584)" /><path
   style="fill:#fdc91b;fill-opacity:1;stroke-width:0.250627"
   d=""
   id="path71"
   transform="matrix(2.4490235,0,0,2.4490235,156.40015,435.94584)" /><path
   style="fill:#fdc91b;fill-opacity:1;stroke-width:0.250627"
   d=""
   id="path72"
   transform="matrix(2.4490235,0,0,2.4490235,156.40015,435.94584)" /><path
   style="fill:#fdc91b;fill-opacity:1;stroke-width:0.250627"
   d="m 239.01009,63.15112 c -0.95248,-0.801455 -1.19948,-1.840361 -0.67753,-2.849708 0.4853,-0.938461 1.08719,-1.278856 2.26129,-1.278856 1.17403,0 2.04571,0.590092 2.38347,1.613501 0.75908,2.300048 -2.08214,4.101266 -3.96723,2.515063 z m 2.85583,-0.381631 c 0.67337,-0.744072 0.61401,-2.187018 -0.11424,-2.776717 -0.79262,-0.641832 -1.68041,-0.588075 -2.4147,0.146212 -0.7518,0.751802 -0.7848,1.607854 -0.0957,2.483858 0.65384,0.831221 1.9401,0.903087 2.62467,0.146647 z"
   id="path73"
   transform="matrix(2.4490235,0,0,2.4490235,156.40015,435.94584)" /><path
   style="fill:#fdc91b;fill-opacity:1;stroke-width:0.250627"
   d="m 246.57315,63.840164 c -0.72371,-0.113632 -1.82904,-1.243699 -1.86517,-1.906922 -0.0627,-1.15009 0.0842,-1.559088 0.79793,-2.221463 0.82483,-0.765538 1.95904,-0.895797 2.96153,-0.340119 0.81773,0.453263 0.28979,0.708374 -0.69595,0.336299 -0.65625,-0.247706 -0.91907,-0.233447 -1.47783,0.08017 -0.5954,0.334189 -0.67962,0.534381 -0.67962,1.615376 0,1.080995 0.0842,1.281186 0.67962,1.615375 0.55876,0.313622 0.82158,0.32788 1.47783,0.08017 0.93278,-0.352087 1.46929,-0.154566 0.80581,0.296669 -0.57741,0.392707 -1.30541,0.554146 -2.00415,0.444436 z"
   id="path74"
   transform="matrix(2.4490235,0,0,2.4490235,156.40015,435.94584)" /><path
   style="fill:#fdc91b;fill-opacity:1;stroke-width:0.250627"
   d="m 252.3183,62.107938 c 0.24122,-0.06304 0.63596,-0.06304 0.87719,0 0.24123,0.06304 0.0439,0.114618 -0.4386,0.114618 -0.48245,0 -0.67982,-0.05158 -0.43859,-0.114618 z"
   id="path75"
   transform="matrix(2.4490235,0,0,2.4490235,156.40015,435.94584)" /><path
   style="fill:#fdc91b;fill-opacity:1;stroke-width:0.250627"
   d=""
   id="path76"
   transform="matrix(2.4490235,0,0,2.4490235,156.40015,435.94584)" /><path
   style="fill:#fdc91b;fill-opacity:1;stroke-width:0.250627"
   d="m 250.25063,63.688491 c 0,-0.05278 0.4444,-1.096016 0.98755,-2.318295 1.35694,-3.053571 1.63346,-3.051508 2.95365,0.02203 0.89658,2.087335 0.97017,2.392233 0.57741,2.392233 -0.24757,0 -0.50911,-0.225564 -0.58121,-0.501253 -0.11113,-0.42497 -0.34186,-0.501253 -1.5161,-0.501253 -1.1649,0 -1.4103,0.07966 -1.54411,0.501253 -0.12904,0.406555 -0.87719,0.752221 -0.87719,0.405283 z m 3.50877,-1.512324 c 0,-0.0575 -0.23959,-0.6496 -0.53243,-1.31579 l -0.53243,-1.211254 -0.46351,1.002506 c -0.6748,1.459525 -0.62007,1.629073 0.52586,1.629073 0.55138,0 1.00251,-0.04704 1.00251,-0.104535 z"
   id="path77"
   transform="matrix(2.4490235,0,0,2.4490235,156.40015,435.94584)" /><path
   style="fill:#fdc91b;fill-opacity:1;stroke-width:0.250627"
   d="m 256.97055,58.85135 c 0.18092,-0.0724 0.39709,-0.06349 0.48037,0.01979 0.0833,0.08328 -0.0648,0.142517 -0.32895,0.131634 -0.29196,-0.01203 -0.35135,-0.07141 -0.15142,-0.15142 z"
   id="path78"
   transform="matrix(2.4490235,0,0,2.4490235,156.40015,435.94584)" /><path
   style="fill:#fdc91b;fill-opacity:1;stroke-width:0.250627"
   d="m 256.76692,61.403509 c 0,-1.949318 0.0681,-2.380953 0.37594,-2.380953 0.30468,0 0.37594,0.403788 0.37594,2.130326 v 2.130326 h 1.12782 c 0.6203,0 1.12782,0.112782 1.12782,0.250627 0,0.139237 -0.66834,0.250626 -1.50376,0.250626 h -1.50376 z"
   id="path79"
   transform="matrix(2.4490235,0,0,2.4490235,156.40015,435.94584)" /><path
   style="fill:#fdc91b;fill-opacity:1;stroke-width:0.250627"
   d="m 264.03509,61.403509 v -2.380953 h 1.48453 c 1.23144,0 1.61599,0.110619 2.25564,0.648846 0.64204,0.540245 0.77111,0.830157 0.77111,1.732107 0,0.90195 -0.12907,1.191862 -0.77111,1.732107 -0.63965,0.538226 -1.0242,0.648845 -2.25564,0.648845 h -1.48453 z m 3.25814,1.378446 c 0.66476,-0.66476 0.66476,-2.092132 0,-2.756892 -0.33417,-0.334169 -0.83542,-0.501253 -1.50376,-0.501253 h -1.0025 v 1.879699 1.879699 h 1.0025 c 0.66834,0 1.16959,-0.167084 1.50376,-0.501253 z"
   id="path80"
   transform="matrix(2.4490235,0,0,2.4490235,156.40015,435.94584)" /><path
   style="fill:#fdc91b;fill-opacity:1;stroke-width:0.250627"
   d="m 270.55138,61.403509 v -2.380953 h 1.75438 c 1.00251,0 1.75439,0.107412 1.75439,0.250627 0,0.137845 -0.6203,0.250627 -1.37845,0.250627 -1.36452,0 -1.37844,0.0076 -1.37844,0.751879 0,0.735171 0.0279,0.75188 1.25313,0.75188 0.94681,0 1.25313,0.0919 1.25313,0.37594 0,0.284043 -0.30632,0.37594 -1.25313,0.37594 -1.22528,0 -1.25313,0.01671 -1.25313,0.751879 0,0.744285 0.0139,0.75188 1.37844,0.75188 0.75815,0 1.37845,0.112782 1.37845,0.250627 0,0.143215 -0.75188,0.250626 -1.75439,0.250626 h -1.75438 z"
   id="path81"
   transform="matrix(2.4490235,0,0,2.4490235,156.40015,435.94584)" /><path
   style="fill:#fdc91b;fill-opacity:1;stroke-width:0.250627"
   d=""
   id="path82"
   transform="matrix(2.4490235,0,0,2.4490235,156.40015,435.94584)" /><path
   style="fill:#fdc91b;fill-opacity:1;stroke-width:0.250627"
   d="m 275.5793,63.596491 c 0.008,-0.103383 0.44373,-1.146616 0.96726,-2.318296 1.30806,-2.927442 1.63167,-2.935358 2.84515,-0.0696 0.51376,1.213294 0.9341,2.289211 0.9341,2.390926 0,0.417178 -0.70323,0.147383 -0.82449,-0.316316 -0.11114,-0.42497 -0.34186,-0.501253 -1.51611,-0.501253 -1.1649,0 -1.4103,0.07966 -1.54411,0.501253 -0.14723,0.463893 -0.89642,0.736239 -0.8618,0.313283 z m 3.24276,-1.661122 c 0,-0.414544 -0.70892,-2.160933 -0.8772,-2.160933 -0.16828,0 -0.87719,1.746389 -0.87719,2.160933 0,0.227582 0.2991,0.345333 0.87719,0.345333 0.57809,0 0.8772,-0.117751 0.8772,-0.345333 z"
   id="path83"
   transform="matrix(2.4490235,0,0,2.4490235,156.40015,435.94584)" /><path
   style="fill:#fdc91b;fill-opacity:1;stroke-width:0.250627"
   d=""
   id="path84"
   transform="matrix(2.4490235,0,0,2.4490235,156.40015,435.94584)" /><path
   style="fill:#fdc91b;fill-opacity:1;stroke-width:0.250627"
   d="m 282.0802,61.403509 c 0,-1.949318 0.0682,-2.380953 0.37594,-2.380953 0.30468,0 0.37594,0.403788 0.37594,2.130326 v 2.130326 h 1.12782 c 0.6203,0 1.12782,0.112782 1.12782,0.250627 0,0.139237 -0.66834,0.250626 -1.50376,0.250626 h -1.50376 z"
   id="path85"
   transform="matrix(2.4490235,0,0,2.4490235,156.40015,435.94584)" /><path
   style="fill:#fdc91b;fill-opacity:1;stroke-width:0.250627"
   d="m 287.7193,63.850573 c -0.27569,-0.0695 -0.70691,-0.270208 -0.95826,-0.446013 -0.60468,-0.422937 -0.1008,-0.737573 0.58953,-0.368117 0.80725,0.432027 1.85928,0.213955 1.9475,-0.403691 0.0599,-0.419657 -0.15763,-0.613987 -1.08311,-0.96743 -2.73076,-1.042887 -1.55417,-3.255417 1.32138,-2.484799 1.05646,0.28312 0.57832,0.613089 -0.65192,0.449892 -0.93966,-0.124651 -1.24749,-0.07875 -1.35525,0.202066 -0.20794,0.54187 0.0658,0.818698 1.3806,1.396031 1.05265,0.462226 1.19048,0.612917 1.19048,1.301512 0,0.651742 -0.14176,0.837993 -0.86914,1.141913 -0.47803,0.199733 -0.90096,0.350068 -0.93985,0.334078 -0.0389,-0.01599 -0.29627,-0.08594 -0.57196,-0.155442 z"
   id="path86"
   transform="matrix(2.4490235,0,0,2.4490235,156.40015,435.94584)" /></g>
			<rect
   x="879.70001"
   y="584.79999"
   class="st4"
   width="35.400002"
   height="3.3"
   id="rect31" />
			<rect
   x="513"
   y="584.79999"
   class="st4"
   width="35.400002"
   height="3.3"
   id="rect32" />
		</g>
	</g>
	<path
   class="st5"
   d="m 250.92756,478.4745 c -0.16333,-0.0408 -0.32666,-0.0408 -0.48999,-0.0817 0.16333,0.0408 0.32666,0.0408 0.48999,0.0817 z"
   id="path33"
   style="stroke-width:0.408326" />
	<path
   class="st6"
   d="m 231.28706,478.842 c -0.40832,-0.44916 -1.18414,-0.77582 -1.26581,-0.81666 0.20417,0.0408 0.40833,0.0817 0.57166,0.16333 0.32666,0.20417 0.53082,0.40833 0.69415,0.65333 z"
   id="path34"
   style="stroke-width:0.408326" />
	<g
   id="g46">
		<path
   class="st4"
   d="m 222.91637,445.0734 -3.5116,4.45076 -6.20656,8.24819 v 0 c -3.83827,-2.69495 -7.59488,-4.85908 -13.47478,-5.6349 -0.48999,-0.0817 -3.8791,-0.0408 -3.91993,-0.0408 -9.92233,0.77582 -17.72137,8.16653 -17.72137,18.37468 0,10.1265 8.0032,18.08887 18.33386,18.21137 l 0.0408,12.53562 h -1.34748 v -4.65493 l -0.81665,-0.81665 h -1.51081 v -1.18415 l -0.36749,-0.69415 -2.89912,-1.91914 v -0.77582 l -0.81665,-0.81665 h -0.61249 l -0.81665,0.81665 v 0.77582 l -3.38911,2.1233 -0.40833,0.69416 v 3.14411 l -0.0817,-0.0817 c -0.24499,-0.245 -0.65332,-0.53083 -1.30664,-0.53083 -0.44916,0 -0.89832,0.1225 -1.30664,0.28583 V 484.3544 l -0.81665,-0.81666 h -0.735 l -1.55163,-1.8783 -0.65333,-0.28583 h -0.65332 v -0.48999 l -0.81665,-0.81666 h -0.28583 l -0.81665,0.81666 v 0.44916 h -0.48999 l -0.53083,0.20416 -2.65412,2.24579 -0.28583,0.65333 c 0.0408,2.89912 0.0817,6.94155 0.0817,9.8815 -6.53322,-6.04323 -10.61648,-14.61809 -10.65731,-24.13209 -0.0408,-15.06725 7.96236,-26.62288 23.64209,-32.09446 12.41313,-3.96076 22.2538,-1.22498 22.2538,-1.22498 10.73898,2.28663 17.10887,8.20736 17.10887,8.20736 z"
   id="path35"
   sodipodi:nodetypes="cccsccscccccccccccccccccssccccccccccccccccccccc"
   style="stroke-width:0.408326" />
		<path
   class="st4"
   d="m 223.36553,465.20389 v 13.10728 0 15.92473 l -3.22578,-1.95997 v -0.0817 l -0.81665,-0.81665 h -0.73499 l -0.81665,0.77582 v 0.12249 l -3.18495,2.16414 -0.36749,0.69415 v 2.77662 l -2.0008,-1.51081 h -1.02082 l -2.69495,2.04164 v -10.45316 l -0.77582,-0.81666 c -0.36749,-0.0408 -0.40833,-0.16333 -0.53082,-0.36749 v -0.0408 c -0.0408,-0.0817 -0.0817,-0.16333 -0.1225,-0.20416 0.16333,-0.0817 0.32666,-0.20417 0.44916,-0.28583 v -7.96237 h -12.90312 v -13.10728 z"
   id="path36"
   style="stroke-width:0.408326" />
		<path
   class="st3"
   d="m 267.87311,497.42085 h -1.71497 c 0,0 -3.47078,-5.92074 -9.22818,-11.26981 -0.85748,-0.77582 -1.71497,-1.55164 -2.65412,-2.28663 0,0 -3.26661,-6.94155 -2.57245,-10.16733 0,0 0.32666,-1.59247 1.71497,-1.8783 1.3883,-0.28583 2.65412,0.3675 3.96076,1.91914 0.57166,0.65332 1.46998,1.8783 2.57246,3.79743 1.46997,2.49079 3.22578,6.16573 4.98158,11.22898 0,0 0.81665,2.69495 1.7558,5.30824 0.3675,1.10248 0.245,2.28663 1.18415,3.34828 z"
   id="path37"
   style="stroke-width:0.408326" />
		<path
   class="st3"
   d="m 225.03967,493.29675 v -15.55723 c 0,0 4.98158,1.83746 10.004,1.18414 -2.16413,1.91914 -3.91994,3.91994 -5.38991,6.04323 -1.46998,2.1233 -2.69496,4.3691 -3.8791,6.69656 z"
   id="path38"
   style="stroke-width:0.408326" />
		<g
   id="g40"
   transform="matrix(0.40832602,0,0,0.40832602,92.537749,257.93741)">
			<path
   class="st3"
   d="m 436.5,540.5 v 0 c -0.4,-0.5 -0.8,-0.9 -1.1,-1.3 v 0 c 14.9,-6 26.8,-25.5 26.8,-46.6 0,-20.6 -9.7,-45.1 -45.2,-52.2 -8.1,-1.6 -36.8,-1.6 -36.8,-1.6 h -55.6 v 99.5 c 0,0 48.3,-2.6 79.7,-49 -0.4,0.4 -13.1,13 -20.9,17.5 0,0 -13.6,8.3 -34.3,12.4 3.1,-8.4 6.3,-22.5 7.1,-45.8 0,0 3.2,-2.6 7.6,8.3 4.4,10.9 6.1,20.1 7.1,20.7 0,0 -2.2,0.5 -7.7,-1.9 l -0.3,3.9 c 0,0 5.2,0 8.1,-1.5 0,0 12.4,0.6 13.3,-14.3 0,0 -0.1,-9.7 5.1,-2.2 0,0 4.6,7.7 8.7,-0.4 3.4,-6.8 5.3,-18.1 5.3,-18.1 1.8,-6.5 2.5,-7.9 2.5,-7.9 4.6,-10.7 6.7,-0.5 6.7,-0.5 l 2.3,13 3.7,24.5 7.9,48.6 6.3,40.7 3.1,10.9 h 6.7 v -1.3 l 2,-2 h 18 l 2,2 v 1.2 c 8.5,0 15.6,0 15.5,0.1 0.2,0 -30.7,-41 -43.6,-56.7 z"
   id="path39"
   sodipodi:nodetypes="sssssccccccccsccccccccccccccccccccccs" />
			<path
   class="st3"
   d="m 369.2,517.6 c 0,0 -18.2,11.3 -27,13.1 0.2,-0.1 3.4,-2.5 6.8,-11.5 0.9,0.3 8,3.3 20.2,-1.6 z"
   id="path40" />
		</g>
		<path
   class="st3"
   d="m 262.03404,464.22391 -6.20656,3.83827 c 0,0 -8.12569,3.83827 -10.61649,6.04323 -1.5108,1.34748 -9.269,6.73739 -12.04563,19.23218 h -0.0408 l -1.02081,0.0408 -2.1233,1.71497 c 1.38831,-4.2466 3.91993,-10.73898 7.83987,-15.84307 6.32906,-8.20736 15.55723,-10.90231 24.21375,-15.02641 z"
   id="path41"
   style="stroke-width:0.408326" />
		<path
   class="st3"
   d="m 251.37673,500.44246 -1.22499,-0.1225 c 0,0 0,0 0,0 -0.48999,-0.32666 -1.10248,-0.48999 -1.67413,-0.61248 v -9.63651 l -0.81666,-0.81665 h -0.44915 c -0.49,-1.51081 -1.67415,-2.2458 -2.65413,-2.53162 v -1.34748 l -0.81665,-0.81665 h -0.61249 l -0.81665,0.81665 v 1.38831 c -1.79664,0.57166 -2.61329,1.71497 -2.93995,2.44996 h -0.57166 l -0.40833,0.40833 c 0.49,-3.14412 1.22498,-6.45156 2.20497,-8.86069 0,0 3.91993,-3.91993 9.35067,0 0.1225,0.0817 0.20416,0.245 0.245,0.40833 0.0817,2.28662 0.89832,17.55803 1.18415,19.273 z"
   id="path42"
   style="stroke-width:0.408326" />
		<path
   class="st5"
   d="m 246.7218,520.08296 c -9.06485,1.06165 -29.23617,-5.26741 -29.23617,-5.26741 -16.41472,-4.69575 -37.11687,0.1225 -37.11687,0.1225 -6.85988,1.83747 -23.96876,5.83907 -23.96876,5.83907 42.95594,-18.74218 65.0464,-10.41232 65.0464,-10.41232 0.44916,0.0817 0.85748,0.16333 1.22498,0.24499 -0.61249,-0.0408 -1.10249,-0.0817 -1.42915,-0.0817 -1.6333,0 17.51721,7.2682 25.47957,9.55483 z"
   id="path43"
   style="stroke-width:0.408326" />
		<path
   class="st9"
   d="m 296.98678,505.26071 v 7.10488 c -0.16333,0 -0.0817,0 -0.24499,0.0408 -0.61249,-2.98079 -2.04163,-4.28743 -3.14411,-4.85909 -1.02082,-0.53082 -2.28663,-0.48999 -3.30745,0.0817 -2.32746,1.34747 -2.81745,4.57325 -2.93995,5.71657 -0.36749,0 -0.77582,0 -1.14331,0 -0.44916,-3.55244 -1.95997,-5.06325 -3.18495,-5.7574 -1.14331,-0.61249 -2.53162,-0.53083 -3.63411,0.16333 -1.67413,1.10248 -2.32745,3.22578 -2.57245,4.61408 -0.48999,-0.0817 -0.97999,-0.16333 -1.46998,-0.28582 -0.61249,-2.69496 -1.91913,-3.96077 -3.02161,-4.53243 -1.14332,-0.61249 -2.49079,-0.53082 -3.55244,0.20417 -0.73499,0.44916 -1.22498,1.10248 -1.63331,1.79664 -1.79663,-0.69416 -6.04323,-2.16414 -9.96316,-2.3683 0,0 -5.79823,-0.77582 -9.35068,1.14331 0,0 6.20656,0.245 7.22738,1.91914 0.0817,0.1225 0.0817,0.32666 0,0.44916 -0.20416,0.28583 -0.81665,0.69415 -2.61329,0.36749 0,0 -2.1233,-0.24499 -4.16493,-0.97998 0,0 -13.59727,-5.47158 -26.54121,-3.18495 0,0 6.57405,0.77582 8.94235,2.49079 0.0817,0 0.16333,0.0408 0.20416,0.0408 -0.0817,0 -0.16333,-0.0408 -0.20416,-0.0408 0.28582,0.20417 0.53082,0.44916 0.65332,0.65333 0.20416,0.20416 0.32666,0.44915 0.16333,0.69415 -0.0817,0.0817 -0.20417,0.20416 -0.3675,0.28583 -0.0817,0.0408 -0.12249,0.0408 -0.20416,0.0817 0,0 -0.1225,0 -0.32666,-0.0408 0,0 0,0 0,0 -1.18415,-0.16333 -5.38991,-0.81665 -7.83987,-1.02081 v 0 c -0.40832,-0.0817 -0.81665,-0.16333 -1.22498,-0.245 0,0 -19.80383,-7.47237 -58.47234,7.71737 v -4.28743 -7.71737 l 0.0817,-11.43314 2.44995,-2.1233 v -0.61249 h 0.77582 l 0.0817,0.61249 2.77662,2.1233 v 3.67494 c 0,0 1.59247,-0.77582 2.20496,0.69416 0.0817,0.16333 0.0817,-1.34748 0.0817,-3.42995 0,-4.16493 -0.0817,-10.65731 -0.0817,-10.65731 l 2.65412,-2.2458 h 1.30665 v -1.26581 h 0.28583 v 1.26581 h 1.46997 l 1.79664,2.20496 h 1.10248 v 14.61809 c 0,0 3.34827,-2.3683 3.10328,0.73498 v 0.48999 h 1.22498 v -5.47157 l 3.7566,-2.36829 v -1.22498 h 0.61249 v 1.22498 l 3.26661,2.16413 v 2.0008 h 2.3683 v 5.47157 h 3.02161 l -0.0408,-13.3931 v -0.89832 c 0.40833,-0.0817 0.69415,-0.245 0.93915,-0.49 0.245,-0.24499 0.44916,-0.53082 0.61249,-0.89831 0.36749,-0.77582 1.34747,-1.71497 2.93995,-1.63331 v -3.02161 l 0.36749,-0.73499 0.3675,0.73499 v 3.02161 c 0,0 2.28663,-0.44916 3.79743,2.2458 0.0408,0.0817 0.0817,0.12249 0.1225,0.20416 0.1225,0.245 0.36749,0.77582 1.18415,0.85748 v 13.71977 h 1.14331 v -2.44996 l 2.89912,-2.16412 2.81745,2.12329 v 2.08247 h 0.53083 v -6.1249 l 3.55244,-2.40912 0.0408,-0.53083 h 0.73499 v 0.53083 l 3.8791,2.40912 V 498.36 c 0,0 0.0408,0 0.16333,-0.0408 0.73498,-0.1225 3.79743,-0.3675 3.42994,2.93995 h 0.69415 v 0.65332 h 1.71497 v -5.02242 l 0.3675,-0.32666 3.10328,-2.53162 0.32666,0.245 3.47077,2.57245 v 4.28743 h 1.42915 l 0.89832,0.69416 v -11.80064 h 1.14331 c 0,0 0.32666,-2.08247 3.14411,-2.65412 v -2.04163 h 0.61249 v 2.04163 c 0,0 2.44996,0.16333 2.81745,2.65412 h 1.14332 v 10.41232 c 0,0 2.77662,-0.1225 3.18494,2.20497 v 3.59327 h 0.89832 c 0,0 1.18415,-2.81745 2.69496,-0.16333 h 0.61248 v -4.81825 l 4.98159,-2.98079 4.32826,2.98079 0.0408,4.00159 h 9.759 v -4.12409 h 7.34988 v 4.04243 h 15.3939 z"
   id="path44"
   style="stroke-width:0.408326" />
		<path
   class="st7"
   d="m 300.41672,511.8756 c -1.71496,1.22498 -3.42994,2.28663 -5.14491,3.18495 -3.14411,0.73499 -12.73978,2.32746 -24.82624,-1.38831 0,0 4.28742,3.8791 -8.41153,-0.57166 0,0 2.1233,4.2466 -4.20576,2.08247 0,0 4.77742,5.67573 -15.02641,-3.18495 0,0 -0.28583,1.14331 3.10328,4.08327 0,0 -6.08406,0.0817 -10.86148,-5.75741 0,0 -0.77582,0.40833 -4.45076,-0.48999 -2.36829,-1.67414 -8.94235,-2.49079 -8.94235,-2.49079 12.94395,-2.28663 26.54122,3.18495 26.54122,3.18495 2.04163,0.73498 4.16493,0.97998 4.16493,0.97998 1.79663,0.28583 2.40912,-0.0817 2.61328,-0.40833 0.0817,-0.12249 0.0817,-0.32666 0,-0.44915 -1.02081,-1.67415 -7.22737,-1.91914 -7.22737,-1.91914 3.55244,-1.91913 9.35067,-1.14331 9.35067,-1.14331 5.10408,0.24499 10.82066,2.69495 10.82066,2.69495 2.61328,0.97998 6.16572,1.91913 6.16572,1.91913 16.04723,3.71578 26.09206,-0.20416 26.33705,-0.32666 z"
   id="path45"
   style="stroke-width:0.408326" />
		<path
   class="st8"
   d="m 295.27181,515.10138 c -15.55723,8.1257 -30.78781,3.14412 -30.78781,3.14412 -3.14411,2.44995 -7.39071,2.85828 -10.73898,2.65412 -0.16333,0 -0.32666,-0.0408 -0.53083,-0.0408 -0.48999,-0.0408 -0.97998,-0.0817 -1.42914,-0.16333 -0.1225,0 -0.20416,-0.0408 -0.28583,-0.0408 -0.20416,-0.0408 -0.36749,-0.0408 -0.53082,-0.0817 -0.16334,-0.0408 -0.32667,-0.0408 -0.49,-0.0817 -0.0408,0 -0.0817,0 -0.12249,-0.0408 -0.0817,0 -0.16333,-0.0408 -0.245,-0.0408 -0.16333,-0.0408 -0.32666,-0.0817 -0.48999,-0.0817 -0.0817,0 -0.1225,-0.0408 -0.20416,-0.0408 -0.0817,0 -0.1225,-0.0408 -0.20417,-0.0408 0,0 -0.0408,0 -0.0408,0 -0.0408,0 -0.1225,-0.0408 -0.16333,-0.0408 -0.65332,-0.16333 -1.06165,-0.28583 -1.06165,-0.28583 -0.36749,0.0817 -0.77582,0.16333 -1.22498,0.20417 -7.96236,-2.28663 -27.1537,-9.55484 -25.47957,-9.59567 0.32666,0 0.81666,0 1.42915,0.0817 v 0 c 2.44995,0.20417 6.65572,0.85749 7.83987,1.02082 0,0 0,0 0,0 0.20416,0.0408 0.32666,0.0408 0.32666,0.0408 0.0817,-0.0408 0.16333,-0.0408 0.20416,-0.0817 0.20416,-0.0817 0.32666,-0.20417 0.36749,-0.28583 0.16333,-0.20417 0.0408,-0.44916 -0.16333,-0.69416 -0.16333,-0.24499 -0.36749,-0.44916 -0.65332,-0.69415 3.63411,0.85748 4.45076,0.48999 4.45076,0.48999 4.77742,5.83907 10.86148,5.7574 10.86148,5.7574 -3.38911,-2.93995 -3.10328,-4.08326 -3.10328,-4.08326 19.80383,8.90151 15.02641,3.18494 15.02641,3.18494 6.32906,2.16413 4.20576,-2.08246 4.20576,-2.08246 12.69895,4.45075 8.41153,0.57166 8.41153,0.57166 12.08646,3.67493 21.68213,2.04163 24.82624,1.34747 z"
   id="path46"
   style="stroke-width:0.408326" />
	</g>
</g>
</svg>
