<?xml version="1.0" encoding="utf-8"?>
<!-- Generator: Adobe Illustrator 27.3.1, SVG Export Plug-In . SVG Version: 6.00 Build 0)  -->
<svg version="1.1" id="Layer_1" xmlns="http://www.w3.org/2000/svg" xmlns:xlink="http://www.w3.org/1999/xlink" x="0px" y="0px"
	 viewBox="0 0 1080 1080" style="enable-background:new 0 0 1080 1080;" xml:space="preserve">
<style type="text/css">
	.st0{fill:#011634;}
	.st1{fill:none;stroke:#FDC91B;stroke-miterlimit:10;}
	.st2{fill:#2076B7;}
	.st3{fill:#EF3823;}
	.st4{fill:#FDC91B;}
	.st5{fill:#FFB02E;}
	.st6{opacity:0;fill:#C8DEEB;}
	.st7{fill:#2078B7;}
	.st8{fill:#C8DEEB;}
	.st9{fill:#FFFFFF;}
</style>
<g>
	<g>
		<g>
			<path class="st0" d="M269.6,683.6c-1.9-1.2-4.1-2.3-6.3-3.3c-2.3-1.1-4.6-2-6.9-2.8c-2.3-0.8-4.6-1.5-6.9-2
				c-2.3-0.5-4.3-0.7-6.2-0.7c-1,0-2.1,0.1-3.1,0.3c-1,0.2-1.9,0.5-2.7,1c-0.8,0.5-1.4,1.1-1.9,1.8c-0.5,0.7-0.7,1.6-0.7,2.8
				c0,1.8,0.6,3.2,1.8,4.3c1.2,1.1,2.8,2.1,4.9,2.9c2,0.8,4.3,1.6,6.9,2.3s5.2,1.5,7.9,2.4c2.7,0.9,5.3,1.9,7.9,3.1
				c2.6,1.2,4.9,2.7,6.9,4.5c2,1.8,3.6,4.1,4.8,6.7c1.2,2.6,1.8,5.8,1.8,9.6c0,4.4-0.9,8.2-2.8,11.4c-1.8,3.2-4.3,5.8-7.4,7.9
				c-3.1,2.1-6.6,3.6-10.5,4.6c-4,1-8,1.5-12.2,1.5c-3.3,0-6.7-0.3-10.1-0.9c-3.4-0.6-6.8-1.4-10-2.6c-3.3-1.1-6.4-2.5-9.4-4.2
				c-3-1.7-5.8-3.5-8.3-5.6l8.4-16.7c2,1.8,4.3,3.4,6.8,4.9c2.5,1.5,5.1,2.9,7.7,4c2.6,1.1,5.3,2,7.9,2.7c2.6,0.6,5.1,1,7.4,1
				c1.3,0,2.5-0.1,3.7-0.3c1.2-0.2,2.3-0.6,3.2-1.2c1-0.6,1.7-1.3,2.3-2.2c0.6-0.9,0.8-2,0.8-3.2c0-1.8-0.6-3.3-1.8-4.4
				c-1.2-1.1-2.8-2.1-4.9-3c-2-0.8-4.3-1.6-6.9-2.2c-2.6-0.7-5.2-1.4-7.9-2.2s-5.3-1.8-7.9-3c-2.6-1.1-4.9-2.6-6.9-4.4
				c-2-1.8-3.6-3.9-4.9-6.5c-1.2-2.6-1.9-5.7-1.9-9.3c0-4.1,0.9-7.7,2.6-10.9c1.7-3.1,4-5.8,7-7.9c3-2.1,6.4-3.7,10.4-4.8
				c4-1.1,8.3-1.6,12.9-1.6c2.9,0,5.9,0.2,8.8,0.6c3,0.4,5.8,1,8.6,1.9c2.8,0.8,5.5,1.8,8.1,2.9c2.6,1.1,5,2.4,7.2,3.8L269.6,683.6z
				"/>
			<path class="st0" d="M335.6,659c5.2,0,9.9,0.6,14,1.9c4.1,1.3,7.6,3.1,10.4,5.6c2.8,2.4,5,5.4,6.4,9c1.5,3.6,2.2,7.6,2.2,12.2
				c0,4.8-0.7,9.1-2.2,12.9c-1.5,3.8-3.6,7-6.4,9.6c-2.8,2.6-6.3,4.6-10.4,5.9c-4.1,1.4-8.8,2-14,2h-23.8l9.5-9.5v32.1h-21.7V659
				H335.6z M334.5,701c2.1,0,4-0.3,5.7-0.8c1.7-0.5,3.1-1.4,4.2-2.4c1.1-1.1,2-2.4,2.6-4c0.6-1.6,0.9-3.4,0.9-5.5
				c0-2-0.3-3.8-0.9-5.3c-0.6-1.5-1.5-2.8-2.6-3.8c-1.1-1-2.5-1.8-4.2-2.3c-1.7-0.5-3.5-0.8-5.7-0.8h-22.7l9.5-9.5v44l-9.5-9.5
				H334.5z"/>
			<path class="st0" d="M390,659h64.7v17h-43v15.2h38.8v17h-38.8v15.5h44.2v17H390V659z"/>
			<path class="st0" d="M539,686.7c-1.3-1.7-2.7-3.2-4.3-4.5c-1.6-1.3-3.3-2.5-5-3.4s-3.5-1.7-5.4-2.2c-1.8-0.5-3.6-0.8-5.4-0.8
				c-3.1,0-6,0.6-8.6,1.8c-2.6,1.2-4.9,2.9-6.9,5c-2,2.1-3.5,4.6-4.6,7.5c-1.1,2.9-1.7,6-1.7,9.4c0,3.3,0.6,6.5,1.7,9.4
				c1.1,2.9,2.6,5.4,4.6,7.6c2,2.1,4.3,3.8,6.9,5c2.6,1.2,5.5,1.8,8.6,1.8c1.7,0,3.5-0.2,5.2-0.7c1.8-0.4,3.5-1.1,5.3-1.9
				s3.5-1.8,5.1-3c1.7-1.2,3.2-2.5,4.6-4l12.7,13.4c-2.2,2.3-4.6,4.4-7.3,6.3c-2.7,1.9-5.5,3.5-8.4,4.8c-2.9,1.3-5.9,2.4-9,3.1
				c-3.1,0.7-6.2,1.1-9.2,1.1c-6.1,0-11.8-1.1-17.1-3.2c-5.2-2.2-9.8-5.1-13.6-9c-3.8-3.8-6.8-8.3-9-13.5
				c-2.2-5.2-3.3-10.8-3.3-16.9c0-6,1.1-11.5,3.3-16.7c2.2-5.1,5.3-9.6,9.2-13.3s8.5-6.7,13.9-8.8c5.3-2.1,11.1-3.2,17.4-3.2
				c3,0,6.1,0.3,9.1,1c3.1,0.7,6,1.6,8.9,2.9c2.9,1.2,5.6,2.7,8.2,4.4c2.6,1.7,4.9,3.7,6.9,5.9L539,686.7z"/>
			<path class="st0" d="M571.6,659h21.7v81.7h-21.7V659z"/>
			<path class="st0" d="M646.7,659h22.2l34.2,81.7H680l-22.8-60l-23.3,60h-22.3L646.7,659z M632.7,709.9h47.7v16.3h-47.7V709.9z"/>
			<path class="st0" d="M721.4,659h21.7v63.5h34.5v18.2h-56.2V659z"/>
			<path class="st0" d="M854.8,683.6c-1.9-1.2-4.1-2.3-6.3-3.3c-2.3-1.1-4.6-2-6.9-2.8c-2.3-0.8-4.6-1.5-6.9-2
				c-2.3-0.5-4.3-0.7-6.2-0.7c-1.1,0-2.1,0.1-3.1,0.3c-1,0.2-1.9,0.5-2.7,1c-0.8,0.5-1.4,1.1-1.9,1.8s-0.7,1.6-0.7,2.8
				c0,1.8,0.6,3.2,1.8,4.3c1.2,1.1,2.8,2.1,4.9,2.9c2,0.8,4.3,1.6,6.9,2.3c2.6,0.7,5.2,1.5,7.9,2.4c2.7,0.9,5.3,1.9,7.9,3.1
				c2.6,1.2,4.9,2.7,6.9,4.5c2,1.8,3.6,4.1,4.8,6.7c1.2,2.6,1.8,5.8,1.8,9.6c0,4.4-0.9,8.2-2.8,11.4s-4.3,5.8-7.3,7.9
				c-3.1,2.1-6.6,3.6-10.5,4.6c-4,1-8,1.5-12.2,1.5c-3.3,0-6.7-0.3-10.2-0.9c-3.4-0.6-6.8-1.4-10-2.6c-3.3-1.1-6.4-2.5-9.4-4.2
				c-3-1.7-5.8-3.5-8.3-5.6l8.4-16.7c2,1.8,4.3,3.4,6.8,4.9c2.5,1.5,5.1,2.9,7.7,4c2.6,1.1,5.3,2,7.9,2.7c2.6,0.6,5.1,1,7.3,1
				c1.3,0,2.5-0.1,3.7-0.3c1.2-0.2,2.3-0.6,3.2-1.2c1-0.6,1.7-1.3,2.3-2.2c0.6-0.9,0.8-2,0.8-3.2c0-1.8-0.6-3.3-1.8-4.4
				c-1.2-1.1-2.8-2.1-4.9-3c-2-0.8-4.3-1.6-6.9-2.2c-2.6-0.7-5.2-1.4-7.9-2.2c-2.7-0.8-5.3-1.8-7.9-3c-2.6-1.1-4.9-2.6-6.9-4.4
				c-2-1.8-3.6-3.9-4.9-6.5c-1.2-2.6-1.9-5.7-1.9-9.3c0-4.1,0.9-7.7,2.6-10.9c1.7-3.1,4-5.8,7-7.9c3-2.1,6.4-3.7,10.4-4.8
				c4-1.1,8.3-1.6,12.9-1.6c2.9,0,5.9,0.2,8.8,0.6c3,0.4,5.8,1,8.6,1.9c2.8,0.8,5.5,1.8,8.1,2.9c2.6,1.1,5,2.4,7.2,3.8L854.8,683.6z
				"/>
		</g>
	</g>
	<g>
		<g>
			<g>
				<g>
					<path class="st3" d="M299.4,765.9c-0.4-0.4-0.8-0.7-1.2-1c-0.4-0.3-0.9-0.5-1.4-0.7c-0.5-0.2-1-0.4-1.5-0.5
						c-0.5-0.1-1-0.2-1.5-0.2c-1,0-1.9,0.2-2.7,0.5c-0.8,0.4-1.6,0.9-2.2,1.5c-0.6,0.6-1.1,1.4-1.4,2.2c-0.3,0.9-0.5,1.8-0.5,2.7
						c0,1,0.2,1.9,0.5,2.8c0.4,0.9,0.8,1.6,1.5,2.2s1.3,1.1,2.2,1.5c0.8,0.4,1.7,0.5,2.7,0.5c0.4,0,0.9,0,1.4-0.1s1-0.2,1.4-0.4
						s0.9-0.4,1.4-0.7c0.5-0.3,0.9-0.5,1.3-0.8l2.3,2.8c-0.5,0.4-1.1,0.8-1.8,1.1s-1.3,0.6-2,0.8c-0.7,0.2-1.4,0.4-2.2,0.5
						c-0.7,0.1-1.5,0.2-2.2,0.2c-1.5,0-2.9-0.3-4.2-0.8c-1.3-0.5-2.4-1.3-3.4-2.2c-1-0.9-1.7-2-2.3-3.3c-0.6-1.3-0.8-2.6-0.8-4.1
						c0-1.5,0.3-2.8,0.8-4.1c0.6-1.3,1.3-2.4,2.3-3.3c1-0.9,2.2-1.7,3.5-2.2c1.3-0.5,2.8-0.8,4.3-0.8c0.7,0,1.5,0.1,2.2,0.2
						c0.7,0.1,1.4,0.3,2.1,0.6c0.7,0.3,1.3,0.6,2,0.9c0.6,0.4,1.2,0.8,1.7,1.2L299.4,765.9z M297.8,772.3H292V769h9.5v9.3h-3.7
						V772.3z"/>
					<path class="st3" d="M317.2,760.4c1.3,0,2.5,0.2,3.5,0.5s1.9,0.8,2.6,1.4c0.7,0.6,1.2,1.3,1.6,2.2s0.6,1.9,0.6,3
						c0,1.2-0.2,2.2-0.6,3.1c-0.4,0.9-0.9,1.7-1.6,2.3c-0.7,0.6-1.6,1.1-2.6,1.4s-2.2,0.5-3.5,0.5h-4.5v6h-4.1v-20.3H317.2z
						 M317.2,771.4c0.7,0,1.3-0.1,1.9-0.2c0.6-0.2,1-0.4,1.4-0.7s0.7-0.7,0.9-1.2c0.2-0.5,0.3-1,0.3-1.7c0-0.6-0.1-1.2-0.3-1.6
						c-0.2-0.5-0.5-0.9-0.9-1.2s-0.8-0.5-1.4-0.7c-0.6-0.2-1.2-0.2-1.9-0.2h-4.5v7.6H317.2z M317,773.2h4l5,7.5h-4.6L317,773.2z"/>
					<path class="st3" d="M338.9,760.4h4.2l8.8,20.3h-4.4l-6.6-16.2l-6.6,16.2h-4.2L338.9,760.4z M334.8,773.1h12.1v3.3h-12.1V773.1
						z"/>
					<path class="st3" d="M357,760.4h3.8l11.4,15.4l-1.1,0.3v-15.8h3.9v20.3h-3.8l-11.3-15.4l1.1-0.4v15.8h-4V760.4z"/>
					<path class="st3" d="M391.2,760.4c1.6,0,3,0.3,4.3,0.8c1.3,0.5,2.4,1.2,3.4,2.1c0.9,0.9,1.7,2,2.2,3.2c0.5,1.2,0.8,2.6,0.8,4.1
						c0,1.5-0.3,2.8-0.8,4.1s-1.3,2.3-2.2,3.2c-0.9,0.9-2.1,1.6-3.4,2.1c-1.3,0.5-2.8,0.8-4.3,0.8h-8.4v-20.3H391.2z M391.3,777.4
						c0.9,0,1.8-0.2,2.5-0.5c0.8-0.3,1.5-0.8,2-1.4c0.6-0.6,1-1.3,1.3-2.1c0.3-0.8,0.5-1.7,0.5-2.7s-0.2-1.9-0.5-2.7
						c-0.3-0.8-0.8-1.5-1.4-2.1c-0.6-0.6-1.3-1.1-2.1-1.4c-0.8-0.3-1.7-0.5-2.6-0.5h-4.3v13.5H391.3z"/>
					<path class="st3" d="M426.9,760.4c1.3,0,2.5,0.2,3.5,0.5s1.9,0.8,2.6,1.4c0.7,0.6,1.2,1.3,1.6,2.2s0.6,1.9,0.6,3
						c0,1.2-0.2,2.2-0.6,3.1c-0.4,0.9-0.9,1.7-1.6,2.3c-0.7,0.6-1.6,1.1-2.6,1.4s-2.2,0.5-3.5,0.5h-4.5v6h-4.1v-20.3H426.9z
						 M426.9,771.4c0.7,0,1.3-0.1,1.9-0.2c0.6-0.2,1-0.4,1.4-0.7s0.7-0.7,0.9-1.2c0.2-0.5,0.3-1,0.3-1.7c0-0.6-0.1-1.2-0.3-1.6
						c-0.2-0.5-0.5-0.9-0.9-1.2s-0.8-0.5-1.4-0.7c-0.6-0.2-1.2-0.2-1.9-0.2h-4.5v7.6H426.9z M426.6,773.2h4l5,7.5H431L426.6,773.2z"
						/>
					<path class="st3" d="M448.6,760.4h4.2l8.8,20.3h-4.4l-6.6-16.2l-6.6,16.2h-4.2L448.6,760.4z M444.4,773.1h12.1v3.3h-12.1V773.1
						z"/>
					<path class="st3" d="M475.1,760.4c1.3,0,2.4,0.2,3.4,0.5s1.8,0.8,2.5,1.4c0.7,0.6,1.2,1.3,1.6,2.2s0.5,1.9,0.5,3
						c0,1.2-0.2,2.2-0.5,3.1c-0.4,0.9-0.9,1.7-1.6,2.3s-1.5,1.1-2.5,1.4s-2.1,0.5-3.4,0.5H469l1.8-1.8v7.8h-4.1v-20.3H475.1z
						 M474.9,771.4c0.7,0,1.3-0.1,1.9-0.2c0.5-0.2,1-0.4,1.4-0.7s0.7-0.7,0.8-1.2c0.2-0.5,0.3-1,0.3-1.7c0-0.6-0.1-1.2-0.3-1.6
						c-0.2-0.5-0.5-0.9-0.8-1.2s-0.8-0.5-1.4-0.7c-0.5-0.2-1.2-0.2-1.9-0.2H469l1.8-1.8v11.2l-1.8-1.8H474.9z"/>
					<path class="st3" d="M489,760.4h4.1v20.3H489V760.4z"/>
					<path class="st3" d="M509.2,760.4c1.6,0,3,0.3,4.3,0.8c1.3,0.5,2.4,1.2,3.4,2.1c0.9,0.9,1.7,2,2.2,3.2c0.5,1.2,0.8,2.6,0.8,4.1
						c0,1.5-0.3,2.8-0.8,4.1s-1.3,2.3-2.2,3.2c-0.9,0.9-2.1,1.6-3.4,2.1c-1.3,0.5-2.8,0.8-4.3,0.8h-8.4v-20.3H509.2z M509.3,777.4
						c0.9,0,1.8-0.2,2.5-0.5c0.8-0.3,1.5-0.8,2-1.4c0.6-0.6,1-1.3,1.3-2.1c0.3-0.8,0.5-1.7,0.5-2.7s-0.2-1.9-0.5-2.7
						c-0.3-0.8-0.8-1.5-1.4-2.1c-0.6-0.6-1.3-1.1-2.1-1.4c-0.8-0.3-1.7-0.5-2.6-0.5h-4.3v13.5H509.3z"/>
					<path class="st3" d="M538.8,765.6c-0.4-0.3-0.9-0.5-1.4-0.8c-0.5-0.2-1-0.5-1.6-0.6s-1.1-0.3-1.6-0.4s-1.1-0.2-1.6-0.2
						c-0.3,0-0.7,0-1,0.1c-0.3,0.1-0.7,0.2-0.9,0.3c-0.3,0.2-0.5,0.4-0.7,0.6c-0.2,0.3-0.3,0.6-0.3,1c0,0.5,0.2,1,0.5,1.3
						c0.3,0.3,0.7,0.6,1.2,0.9c0.5,0.2,1.1,0.5,1.7,0.7s1.3,0.4,2,0.6s1.3,0.5,2,0.8c0.6,0.3,1.2,0.7,1.7,1.1c0.5,0.4,0.9,1,1.2,1.6
						s0.5,1.4,0.5,2.3c0,1.1-0.2,2-0.7,2.7s-1.1,1.4-1.8,1.9c-0.7,0.5-1.6,0.8-2.5,1.1c-0.9,0.2-1.9,0.3-2.8,0.3
						c-0.8,0-1.6-0.1-2.4-0.2c-0.8-0.1-1.5-0.4-2.3-0.6c-0.7-0.3-1.5-0.6-2.1-1c-0.7-0.4-1.3-0.9-1.9-1.4l1.7-3.3
						c0.5,0.4,1,0.8,1.5,1.2c0.6,0.4,1.1,0.7,1.8,1c0.6,0.3,1.2,0.5,1.9,0.6c0.6,0.2,1.3,0.2,1.9,0.2c0.4,0,0.8,0,1.2-0.1
						c0.4-0.1,0.8-0.2,1.1-0.4c0.3-0.2,0.6-0.4,0.8-0.7c0.2-0.3,0.3-0.7,0.3-1.1c0-0.5-0.2-1-0.5-1.3c-0.3-0.4-0.7-0.7-1.2-0.9
						c-0.5-0.2-1.1-0.5-1.7-0.6c-0.7-0.2-1.3-0.4-2-0.6s-1.4-0.5-2-0.7c-0.7-0.3-1.2-0.6-1.7-1.1c-0.5-0.4-0.9-1-1.2-1.6
						c-0.3-0.6-0.5-1.4-0.5-2.3c0-1,0.2-1.9,0.7-2.6s1-1.3,1.7-1.8c0.7-0.5,1.5-0.8,2.5-1.1s1.9-0.3,2.8-0.3c0.6,0,1.3,0,2,0.1
						c0.7,0.1,1.3,0.2,1.9,0.4s1.3,0.4,1.9,0.7c0.6,0.3,1.2,0.6,1.7,0.9L538.8,765.6z"/>
					<path class="st3" d="M557.4,760.4h4.1v16.9h8.7v3.5h-12.8V760.4z"/>
					<path class="st3" d="M589.5,761c1.3,0.5,2.5,1.3,3.4,2.2c1,0.9,1.7,2,2.3,3.3c0.6,1.3,0.8,2.6,0.8,4.1c0,1.5-0.3,2.8-0.8,4.1
						s-1.3,2.4-2.3,3.3s-2.1,1.7-3.4,2.2c-1.3,0.5-2.8,0.8-4.3,0.8c-1.5,0-3-0.3-4.3-0.8c-1.3-0.5-2.5-1.3-3.4-2.2s-1.7-2-2.3-3.3
						c-0.6-1.3-0.8-2.7-0.8-4.1c0-1.5,0.3-2.9,0.8-4.1c0.6-1.3,1.3-2.4,2.3-3.3s2.1-1.7,3.4-2.2c1.3-0.5,2.8-0.8,4.3-0.8
						C586.8,760.2,588.2,760.4,589.5,761z M582.7,764.2c-0.8,0.4-1.5,0.8-2.1,1.5s-1.1,1.4-1.5,2.2c-0.4,0.8-0.5,1.8-0.5,2.7
						c0,1,0.2,1.9,0.5,2.8c0.4,0.9,0.8,1.6,1.5,2.2c0.6,0.6,1.3,1.1,2.1,1.5c0.8,0.4,1.7,0.5,2.6,0.5c0.9,0,1.8-0.2,2.6-0.5
						c0.8-0.4,1.5-0.9,2.1-1.5c0.6-0.6,1.1-1.4,1.4-2.2c0.3-0.9,0.5-1.8,0.5-2.8c0-1-0.2-1.9-0.5-2.7c-0.3-0.8-0.8-1.6-1.4-2.2
						c-0.6-0.6-1.3-1.1-2.1-1.5c-0.8-0.4-1.7-0.5-2.6-0.5C584.3,763.6,583.5,763.8,582.7,764.2z"/>
					<path class="st3" d="M616.8,766.2c-0.4-0.4-0.8-0.8-1.2-1.1s-0.9-0.6-1.3-0.8c-0.5-0.2-0.9-0.4-1.4-0.5s-1-0.2-1.5-0.2
						c-0.9,0-1.8,0.2-2.6,0.5c-0.8,0.4-1.5,0.8-2.1,1.5c-0.6,0.6-1.1,1.3-1.4,2.2c-0.3,0.8-0.5,1.8-0.5,2.7c0,1,0.2,1.9,0.5,2.7
						c0.3,0.8,0.8,1.6,1.4,2.2c0.6,0.6,1.3,1.1,2.1,1.5c0.8,0.4,1.7,0.5,2.6,0.5c0.5,0,1-0.1,1.5-0.2c0.5-0.1,1-0.3,1.4-0.5
						c0.5-0.2,0.9-0.5,1.4-0.8c0.4-0.3,0.8-0.6,1.2-1l2.4,2.5c-0.5,0.5-1.1,1-1.7,1.4s-1.3,0.8-2,1.1c-0.7,0.3-1.4,0.5-2.1,0.7
						c-0.7,0.2-1.5,0.2-2.2,0.2c-1.5,0-2.9-0.3-4.2-0.8c-1.3-0.5-2.4-1.3-3.4-2.2s-1.7-2-2.2-3.3s-0.8-2.7-0.8-4.1
						c0-1.5,0.3-2.8,0.8-4.1c0.6-1.3,1.3-2.4,2.3-3.3c1-0.9,2.1-1.7,3.4-2.2s2.7-0.8,4.2-0.8c0.7,0,1.5,0.1,2.2,0.2
						c0.7,0.2,1.4,0.4,2.1,0.7c0.7,0.3,1.3,0.6,1.9,1c0.6,0.4,1.2,0.9,1.7,1.4L616.8,766.2z"/>
					<path class="st3" d="M631.5,760.4h4.2l8.8,20.3h-4.4l-6.6-16.2l-6.6,16.2h-4.2L631.5,760.4z M627.3,773.1h12.1v3.3h-12.1V773.1
						z"/>
					<path class="st3" d="M649.6,760.4h4.1v16.9h8.7v3.5h-12.8V760.4z"/>
					<path class="st3" d="M687,760.4c1.6,0,3,0.3,4.3,0.8c1.3,0.5,2.4,1.2,3.4,2.1c0.9,0.9,1.7,2,2.2,3.2c0.5,1.2,0.8,2.6,0.8,4.1
						c0,1.5-0.3,2.8-0.8,4.1s-1.3,2.3-2.2,3.2c-0.9,0.9-2.1,1.6-3.4,2.1c-1.3,0.5-2.8,0.8-4.3,0.8h-8.4v-20.3H687z M687.2,777.4
						c0.9,0,1.8-0.2,2.5-0.5c0.8-0.3,1.5-0.8,2-1.4c0.6-0.6,1-1.3,1.3-2.1c0.3-0.8,0.5-1.7,0.5-2.7s-0.2-1.9-0.5-2.7
						s-0.8-1.5-1.4-2.1c-0.6-0.6-1.3-1.1-2.1-1.4c-0.8-0.3-1.7-0.5-2.6-0.5h-4.3v13.5H687.2z"/>
					<path class="st3" d="M703.7,760.4h15.1v3.4h-11v5.1h9.8v3.4h-9.8v5.2h11.3v3.4h-15.4V760.4z"/>
					<path class="st3" d="M732.1,760.4h4.2l8.8,20.3h-4.4l-6.6-16.2l-6.6,16.2h-4.2L732.1,760.4z M728,773.1h12.1v3.3H728V773.1z"/>
					<path class="st3" d="M750.2,760.4h4.1v16.9h8.7v3.5h-12.8V760.4z"/>
					<path class="st3" d="M781.7,765.6c-0.4-0.3-0.9-0.5-1.4-0.8c-0.5-0.2-1-0.5-1.6-0.6s-1.1-0.3-1.6-0.4s-1.1-0.2-1.6-0.2
						c-0.3,0-0.7,0-1,0.1c-0.3,0.1-0.7,0.2-0.9,0.3c-0.3,0.2-0.5,0.4-0.7,0.6c-0.2,0.3-0.3,0.6-0.3,1c0,0.5,0.2,1,0.5,1.3
						s0.7,0.6,1.2,0.9c0.5,0.2,1.1,0.5,1.7,0.7c0.6,0.2,1.3,0.4,2,0.6c0.7,0.2,1.3,0.5,2,0.8s1.2,0.7,1.7,1.1c0.5,0.4,0.9,1,1.2,1.6
						s0.5,1.4,0.5,2.3c0,1.1-0.2,2-0.7,2.7s-1.1,1.4-1.8,1.9c-0.7,0.5-1.6,0.8-2.5,1.1c-0.9,0.2-1.9,0.3-2.8,0.3
						c-0.8,0-1.6-0.1-2.4-0.2c-0.8-0.1-1.5-0.4-2.3-0.6c-0.7-0.3-1.5-0.6-2.1-1c-0.7-0.4-1.3-0.9-1.9-1.4l1.7-3.3
						c0.5,0.4,1,0.8,1.5,1.2c0.6,0.4,1.1,0.7,1.8,1c0.6,0.3,1.2,0.5,1.9,0.6c0.6,0.2,1.3,0.2,1.9,0.2c0.4,0,0.8,0,1.2-0.1
						c0.4-0.1,0.8-0.2,1.1-0.4c0.3-0.2,0.6-0.4,0.8-0.7s0.3-0.7,0.3-1.1c0-0.5-0.2-1-0.5-1.3c-0.3-0.4-0.7-0.7-1.2-0.9
						s-1.1-0.5-1.7-0.6c-0.7-0.2-1.3-0.4-2-0.6s-1.3-0.5-2-0.7s-1.2-0.6-1.7-1.1c-0.5-0.4-0.9-1-1.2-1.6c-0.3-0.6-0.5-1.4-0.5-2.3
						c0-1,0.2-1.9,0.7-2.6s1-1.3,1.7-1.8c0.7-0.5,1.5-0.8,2.5-1.1s1.9-0.3,2.8-0.3c0.6,0,1.3,0,2,0.1c0.7,0.1,1.3,0.2,1.9,0.4
						s1.3,0.4,1.9,0.7c0.6,0.3,1.2,0.6,1.7,0.9L781.7,765.6z"/>
				</g>
			</g>
		</g>
		<rect x="803.3" y="768.1" class="st4" width="57.6" height="5.4"/>
		<rect x="207" y="768.1" class="st4" width="57.6" height="5.4"/>
	</g>
	<path class="st4" d="M518,328.4l-14,17.7l-24.8,32.8c0,0,0,0,0,0c-15.3-10.7-30.2-19.4-53.7-22.5c-2-0.3-15.4-0.2-15.6-0.2
		c-39.6,3-70.6,32.6-70.6,73.1c0,40.3,31.9,72.1,73,72.5l0.2,50h-5.3v-18.5l-3.3-3.3h-6.1v-4.6l-1.5-2.8l-11.5-7.6v-3.1l-3.3-3.3
		h-2.4l-3.3,3.3v3.1l-13.5,8.5l-1.5,2.8v12.5c-0.1-0.1-0.2-0.2-0.3-0.3c-0.9-1-2.5-2.1-5.2-2.1c-1.7,0-3.5,0.5-5.2,1.2v-52.7
		l-3.3-3.3H344l-6.2-7.5l-2.6-1.2h-2.6V471l-3.3-3.3h-1.2l-3.3,3.3v1.8h-1.9l-2.1,0.8l-10.6,8.9l-1.2,2.6
		c0.2,11.6,0.3,27.6,0.4,39.4c-26-24.1-42.4-58.3-42.5-96.1c-0.2-60.1,31.7-106,94.2-127.8c49.5-15.7,88.7-4.8,88.7-4.8
		C492.7,304.8,518,328.4,518,328.4z"/>
	<path class="st4" d="M519.8,408.6v52.2h-0.1v63.5l-12.8-7.9v-0.3l-3.3-3.3h-3l-3.3,3.2l0,0.5l-12.8,8.6l-1.5,2.8v11.1l-8-6h-4
		l-10.8,8.1v-41.6l-3-3.3c-1.4-0.1-1.7-0.6-2.1-1.5l0-0.1c-0.1-0.3-0.3-0.6-0.5-0.8c0.6-0.4,1.2-0.8,1.8-1.2v-31.6h-51.2v-52.2
		H519.8z"/>
	<path class="st3" d="M697.1,537h-6.8c0,0-13.8-23.7-36.7-44.9c-3.3-3.1-6.9-6.2-10.6-9.1c0,0-13.1-27.6-10.3-40.5
		c0,0,1.3-6.3,6.8-7.5c5.6-1.2,10.6,1.5,15.7,7.6c2.2,2.6,5.9,7.6,10.3,15.2c5.8,10,12.9,24.6,19.9,44.7c0,0,3.3,10.7,6.9,21.2
		C693.9,528,693.5,532.7,697.1,537z"/>
	<path class="st3" d="M526.6,520.4v-62c0,0,19.9,7.3,39.8,4.7c-8.7,7.6-15.5,15.6-21.4,24c-5.9,8.4-10.7,17.3-15.4,26.7L526.6,520.4
		z"/>
	<g>
		<path class="st3" d="M708.6,462.1L708.6,462.1c-0.7-0.8-1.3-1.5-1.8-2.2c0,0,0,0,0,0c24.3-9.8,43.6-41.5,43.6-75.8
			c0-33.5-15.8-73.3-73.5-84.9c-13.1-2.6-59.8-2.7-59.8-2.7h-90.5v161.8c0,0,78.5-4.2,129.7-79.7c-0.6,0.6-21.3,21.1-34,28.4
			c0,0-22.2,13.5-55.7,20.1c5.1-13.6,10.3-36.5,11.6-74.4c0,0,5.1-4.2,12.4,13.6c7.2,17.8,10,32.8,11.6,33.7c0,0-3.5,0.7-12.5-3.1
			l-0.4,6.3c0,0,8.4,0,13.3-2.4c0,0,20.1,1,21.7-23.3c0,0-0.1-15.7,8.3-3.6c0,0,7.5,12.5,14.1-0.6c5.6-11,8.6-29.5,8.6-29.5
			c2.9-10.5,4.1-12.8,4.1-12.8c7.4-17.4,11-0.8,11-0.8l3.8,21.1l6,39.9l12.9,79.1l10.3,66.2l5.1,17.7c0,0,4.4,0,10.9,0v-2.1l3.3-3.3
			h29.2l3.3,3.3v2c13.8,0,25.3,0,25.2,0.2C780,554.3,729.6,487.6,708.6,462.1z"/>
		<path class="st3" d="M599.2,424.8c0,0-29.6,18.3-43.9,21.2c0.3-0.2,5.6-4.1,11-18.7C567.8,428,579.3,432.8,599.2,424.8z"/>
	</g>
	<path class="st3" d="M673.9,404.7l-24.7,15.4c0,0-32.4,15.2-42.3,24.1c-6.1,5.4-36.9,26.9-48,76.7l-0.1-0.1l-4.1,0.1l-8.5,6.9
		c5.5-16.9,15.6-42.8,31.2-63.1C602.6,431.9,639.4,421.1,673.9,404.7z"/>
	<path class="st3" d="M631.5,548.9l-4.8-0.5c0,0,0,0,0,0c-2-1.3-4.3-2-6.6-2.4v-38.4l-3.3-3.3h-1.9c-2-6-6.7-8.9-10.6-10v-5.4
		l-3.3-3.3h-2.4l-3.3,3.3v5.6c-7.2,2.3-10.3,6.9-11.6,9.8h-2.2l-1.7,1.7c2-12.5,4.9-25.7,8.8-35.2c0,0,15.7-15.7,37.3,0
		c0.5,0.4,0.9,1,0.9,1.7C627.1,481.3,630.2,542.1,631.5,548.9z"/>
	<path class="st5" d="M612.9,627.2c-36.1,4.2-116.4-21.1-116.4-21.1c-65.4-18.7-147.8,0.5-147.8,0.5c-27.3,7.3-95.5,23.2-95.5,23.2
		c171.2-74.6,259-41.5,259-41.5c1.7,0.3,3.4,0.6,4.9,0.9c-2.4-0.2-4.4-0.3-5.7-0.3C504.8,589.1,581.1,618.1,612.9,627.2z"/>
	<path class="st5" d="M629.7,629c-0.7-0.1-1.3-0.2-1.9-0.3C628.4,628.8,629,628.9,629.7,629L629.7,629z"/>
	<path class="st6" d="M551.4,667.7c-1.6-1.7-4.7-3.2-5-3.3c0.8,0.2,1.6,0.4,2.3,0.6C549.9,665.9,550.8,666.8,551.4,667.7z"/>
	<path class="st0" d="M813.1,568.2v28.3c-0.6,0.1-0.4,0-1,0.1c-2.4-11.9-8.1-17.1-12.6-19.4c-4.1-2.1-9.1-1.9-13.1,0.4
		c-9.3,5.3-11.3,18.3-11.7,22.8c-1.5,0-3.1,0-4.6,0c-1.9-14.1-7.9-20.2-12.8-22.9c-4.5-2.5-10.1-2.2-14.4,0.7
		c-6.7,4.4-9.3,12.8-10.3,18.4c-1.9-0.4-3.9-0.7-5.8-1.1c-2.5-10.8-7.7-15.8-12-18.1c-4.5-2.4-10-2-14.2,0.7c-2.8,1.9-5,4.4-6.5,7.2
		c-7.1-2.7-24.1-8.7-39.7-9.4c0,0-23.1-3.1-37.3,4.6c0,0,24.7,1,28.9,7.7c0.3,0.5,0.3,1.2,0,1.8c-0.8,1.1-3.2,2.8-10.4,1.5
		c0,0-8.5-1-16.5-4c0,0-54.2-21.8-105.7-12.8c0,0,26.1,3.1,35.6,9.9c0.3,0.1,0.6,0.1,0.9,0.2c-0.3-0.1-0.6-0.1-0.9-0.2
		c1.2,0.8,2.1,1.7,2.6,2.7c0.8,0.9,1.2,1.8,0.6,2.7c-0.3,0.4-0.8,0.8-1.5,1.2c-0.2,0.1-0.5,0.2-0.9,0.4c0,0-0.5-0.1-1.3-0.2
		c0,0,0,0,0,0c-4.7-0.7-21.4-3.2-31.2-4.1h0c-1.6-0.3-3.2-0.6-4.9-0.9c0,0-78.9-29.7-232.9,30.7v-17l-0.1-30.8l0.3-45.6l9.8-8.5
		v-2.4h3.1l0.3,2.4l11.1,8.5v14.6c0,0,6.3-3.1,8.8,2.8c0.3,0.7,0.4-5.3,0.4-13.6c0-16.6-0.4-42.5-0.4-42.5l10.6-8.9h5.2v-5.1h1.2
		v5.1h5.9l7.2,8.8h4.4V543c0,0,13.3-9.4,12.4,2.9v2h4.8v-21.7l15-9.5v-4.9h2.4v4.9l13,8.6v8h9.4v21.8h12l-0.2-53.3l0-3.6
		c1.6-0.4,2.8-1,3.8-2c1-1,1.8-2.2,2.4-3.6c1.5-3.1,5.4-6.8,11.8-6.5l0.1-12l1.4-3l1.5,3v12c0,0,9.1-1.8,15.1,8.9
		c0.2,0.3,0.3,0.6,0.5,0.9c0.5,1,1.4,3,4.8,3.4v54.6h4.6v-9.8l11.5-8.6l11.2,8.4v8.3h2.2v-24.4l14.1-9.5l0.1-2.2h3v2.2l15.5,9.5
		v12.8c0,0,0.2,0,0.6-0.1c2.9-0.4,15.2-1.5,13.7,11.7h2.8l0,2.5h6.8v-20l1.5-1.3l12.4-10l1.3,1l13.8,10.3l0,17.1h5.8l3.6,2.8v-47
		h4.6c0,0,1.3-8.3,12.6-10.6v-8.1h2.4v8.1c0,0,9.8,0.6,11.3,10.6h4.5V549c0,0,11-0.6,12.6,8.8v14.4h3.6c0,0,4.7-11.2,10.8-0.6h2.4
		v-19.2l19.8-11.8l17.3,11.9l0.2,16h38.7v-16.4h29.2v16.1H813.1z"/>
	<path class="st7" d="M826.9,594.5c-6.8,5-13.7,9.2-20.5,12.7c-12.5,2.9-50.7,9.3-99-5.5c0,0,17.1,15.4-33.5-2.3
		c0,0,8.5,16.9-16.7,8.3c0,0,19,22.7-59.8-12.7c0,0-1.2,4.6,12.3,16.3c0,0-24.2,0.4-43.3-22.9c0,0-3.1,1.6-17.7-1.9
		c-9.4-6.7-35.6-9.9-35.6-9.9c51.5-9,105.7,12.8,105.7,12.8c8.1,3,16.5,4,16.5,4c7.1,1.2,9.5-0.4,10.4-1.5c0.4-0.5,0.4-1.2,0.1-1.8
		c-4.1-6.6-28.9-7.7-28.9-7.7c14.2-7.7,37.3-4.6,37.3-4.6c20.4,1,43.1,10.8,43.1,10.8c10.4,3.8,24.6,7.7,24.6,7.7
		C785.7,610.6,825.8,594.9,826.9,594.5z"/>
	<path class="st8" d="M806.3,607.3c-62,32.3-122.7,12.5-122.7,12.5c-12.6,9.8-29.4,11.3-42.8,10.5c-0.7-0.1-1.4-0.1-2-0.2
		c-2-0.2-3.9-0.4-5.7-0.6c-0.4-0.1-0.8-0.1-1.2-0.2c-0.8-0.1-1.5-0.2-2.2-0.3c-0.6-0.1-1.3-0.2-1.9-0.3c-0.2,0-0.3-0.1-0.5-0.1
		c-0.3-0.1-0.7-0.1-1-0.2c-0.7-0.1-1.3-0.3-2-0.4c-0.3-0.1-0.5-0.1-0.7-0.2c-0.3-0.1-0.5-0.1-0.8-0.2c-0.1,0-0.1,0-0.2,0
		c-0.2-0.1-0.5-0.1-0.7-0.2c-2.7-0.6-4.2-1.1-4.2-1.1c-1.5,0.3-3.1,0.6-4.9,0.8c-31.8-9.1-108.1-38.1-101.5-38.2
		c1.3,0,3.3,0.1,5.7,0.3h0c9.8,0.9,26.5,3.4,31.2,4.1c0,0,0,0,0,0c0.8,0.1,1.3,0.2,1.3,0.2c0.3-0.1,0.6-0.2,0.9-0.4
		c0.8-0.4,1.2-0.8,1.5-1.2c0.6-0.9,0.2-1.8-0.6-2.7c-0.6-1-1.5-1.8-2.7-2.7c14.5,3.5,17.7,1.9,17.7,1.9c19,23.3,43.3,22.9,43.3,22.9
		c-13.5-11.7-12.3-16.3-12.3-16.3c78.8,35.4,59.8,12.7,59.8,12.7c25.2,8.6,16.7-8.3,16.7-8.3c50.6,17.7,33.5,2.3,33.5,2.3
		C755.6,616.6,793.8,610.2,806.3,607.3z"/>
</g>
</svg>
