<?xml version="1.0" encoding="utf-8"?>
<!-- Generator: Adobe Illustrator 27.3.1, SVG Export Plug-In . SVG Version: 6.00 Build 0)  -->
<svg version="1.1" id="Layer_1" xmlns="http://www.w3.org/2000/svg" xmlns:xlink="http://www.w3.org/1999/xlink" x="0px" y="0px"
	 viewBox="0 0 1080 1080" style="enable-background:new 0 0 1080 1080;" xml:space="preserve">
<style type="text/css">
	.st0{fill:#011634;}
	.st1{fill:none;stroke:#FDC91B;stroke-miterlimit:10;}
	.st2{fill:#2076B7;}
	.st3{fill:#EF3823;}
	.st4{fill:#FDC91B;}
	.st5{fill:#FFB02E;}
	.st6{opacity:0;fill:#C8DEEB;}
	.st7{fill:#2078B7;}
	.st8{fill:#C8DEEB;}
	.st9{fill:#FFFFFF;}
</style>
<g>
	<g>
		<g>
			<g>
				<path class="st0" d="M551.5,532.9c-1.2-0.7-2.5-1.4-3.9-2s-2.8-1.2-4.2-1.7s-2.9-0.9-4.2-1.2c-1.4-0.3-2.7-0.4-3.8-0.4
					c-0.6,0-1.3,0.1-1.9,0.2c-0.6,0.1-1.2,0.3-1.6,0.6c-0.5,0.3-0.9,0.7-1.2,1.1c-0.3,0.4-0.4,1-0.4,1.7c0,1.1,0.4,2,1.1,2.7
					s1.8,1.3,3,1.8c1.2,0.5,2.7,1,4.2,1.4c1.6,0.4,3.2,0.9,4.8,1.5s3.3,1.2,4.9,1.9s3,1.7,4.2,2.8s2.2,2.5,3,4.1
					c0.8,1.6,1.1,3.6,1.1,5.9c0,2.7-0.6,5.1-1.7,7c-1.1,2-2.6,3.6-4.5,4.9c-1.9,1.3-4,2.2-6.5,2.8s-4.9,0.9-7.5,0.9
					c-2.1,0-4.1-0.2-6.2-0.5c-2.1-0.4-4.2-0.9-6.2-1.6c-2-0.7-3.9-1.5-5.8-2.6c-1.8-1-3.5-2.2-5.1-3.4l5.2-10.3
					c1.2,1.1,2.6,2.1,4.2,3c1.5,0.9,3.1,1.8,4.7,2.5c1.6,0.7,3.3,1.2,4.9,1.6c1.6,0.4,3.1,0.6,4.5,0.6c0.8,0,1.5-0.1,2.3-0.2
					c0.7-0.1,1.4-0.4,2-0.7c0.6-0.3,1.1-0.8,1.4-1.3c0.3-0.5,0.5-1.2,0.5-2c0-1.1-0.4-2-1.1-2.7c-0.8-0.7-1.8-1.3-3-1.8
					c-1.2-0.5-2.7-1-4.2-1.4s-3.2-0.9-4.9-1.4c-1.6-0.5-3.3-1.1-4.9-1.8c-1.6-0.7-3-1.6-4.2-2.7c-1.2-1.1-2.2-2.4-3-4
					c-0.8-1.6-1.1-3.5-1.1-5.7c0-2.5,0.5-4.8,1.6-6.7c1.1-1.9,2.5-3.5,4.3-4.9c1.8-1.3,4-2.3,6.4-3c2.5-0.7,5.1-1,7.9-1
					c1.8,0,3.6,0.1,5.4,0.4c1.8,0.3,3.6,0.6,5.3,1.1c1.7,0.5,3.4,1.1,5,1.8c1.6,0.7,3.1,1.5,4.4,2.4L551.5,532.9z"/>
				<path class="st0" d="M592.1,517.8c3.2,0,6.1,0.4,8.6,1.2c2.5,0.8,4.6,1.9,6.4,3.4c1.7,1.5,3,3.3,3.9,5.5s1.3,4.7,1.3,7.5
					c0,2.9-0.4,5.6-1.3,7.9s-2.2,4.3-3.9,5.9c-1.7,1.6-3.9,2.8-6.4,3.6s-5.4,1.3-8.6,1.3h-14.6l5.8-5.8V568H570v-50.2H592.1z
					 M591.4,543.6c1.3,0,2.5-0.2,3.5-0.5c1-0.3,1.9-0.8,2.6-1.5c0.7-0.7,1.2-1.5,1.6-2.5c0.4-1,0.6-2.1,0.6-3.4
					c0-1.2-0.2-2.3-0.6-3.3c-0.4-0.9-0.9-1.7-1.6-2.3c-0.7-0.6-1.6-1.1-2.6-1.4c-1-0.3-2.2-0.5-3.5-0.5h-14l5.8-5.8v27l-5.8-5.8
					H591.4z"/>
				<path class="st0" d="M625.5,517.8h39.8v10.5h-26.5v9.3h23.9V548h-23.9v9.5h27.2V568h-40.5V517.8z"/>
				<path class="st0" d="M717.1,534.8c-0.8-1-1.7-2-2.7-2.8c-1-0.8-2-1.5-3.1-2.1c-1.1-0.6-2.2-1-3.3-1.3c-1.1-0.3-2.2-0.5-3.3-0.5
					c-1.9,0-3.7,0.4-5.3,1.1c-1.6,0.7-3,1.8-4.2,3c-1.2,1.3-2.2,2.8-2.8,4.6s-1,3.7-1,5.8c0,2.1,0.3,4,1,5.8
					c0.7,1.8,1.6,3.3,2.8,4.6c1.2,1.3,2.6,2.3,4.2,3.1s3.4,1.1,5.3,1.1c1.1,0,2.1-0.1,3.2-0.4s2.2-0.7,3.2-1.2
					c1.1-0.5,2.1-1.1,3.1-1.9c1-0.7,2-1.5,2.8-2.5l7.8,8.2c-1.3,1.4-2.8,2.7-4.5,3.9c-1.6,1.2-3.4,2.2-5.2,3
					c-1.8,0.8-3.6,1.5-5.6,1.9c-1.9,0.5-3.8,0.7-5.7,0.7c-3.8,0-7.3-0.7-10.5-2c-3.2-1.3-6-3.2-8.4-5.5c-2.3-2.3-4.2-5.1-5.5-8.3
					s-2-6.7-2-10.4c0-3.7,0.7-7.1,2-10.3c1.4-3.2,3.2-5.9,5.6-8.2c2.4-2.3,5.2-4.1,8.5-5.4c3.3-1.3,6.8-2,10.7-2
					c1.9,0,3.7,0.2,5.6,0.6c1.9,0.4,3.7,1,5.5,1.8c1.8,0.8,3.4,1.7,5,2.7c1.6,1.1,3,2.3,4.2,3.6L717.1,534.8z"/>
				<path class="st0" d="M737.2,517.8h13.3V568h-13.3V517.8z"/>
				<path class="st0" d="M783.4,517.8H797l21,50.2h-14.2l-14-36.9L775.5,568h-13.7L783.4,517.8z M774.8,549.1h29.3v10h-29.3V549.1z"
					/>
				<path class="st0" d="M829.3,517.8h13.3v39h21.2V568h-34.6V517.8z"/>
				<path class="st0" d="M911.3,532.9c-1.2-0.7-2.5-1.4-3.9-2s-2.8-1.2-4.2-1.7c-1.4-0.5-2.9-0.9-4.2-1.2c-1.4-0.3-2.7-0.4-3.8-0.4
					c-0.6,0-1.3,0.1-1.9,0.2c-0.6,0.1-1.2,0.3-1.6,0.6c-0.5,0.3-0.9,0.7-1.2,1.1c-0.3,0.4-0.4,1-0.4,1.7c0,1.1,0.4,2,1.1,2.7
					s1.8,1.3,3,1.8c1.2,0.5,2.7,1,4.2,1.4c1.6,0.4,3.2,0.9,4.8,1.5c1.7,0.5,3.3,1.2,4.9,1.9s3,1.7,4.2,2.8s2.2,2.5,3,4.1
					c0.8,1.6,1.1,3.6,1.1,5.9c0,2.7-0.6,5.1-1.7,7c-1.1,2-2.6,3.6-4.5,4.9c-1.9,1.3-4,2.2-6.5,2.8s-4.9,0.9-7.5,0.9
					c-2.1,0-4.1-0.2-6.2-0.5c-2.1-0.4-4.2-0.9-6.2-1.6c-2-0.7-3.9-1.5-5.8-2.6c-1.8-1-3.6-2.2-5.1-3.4l5.2-10.3
					c1.2,1.1,2.6,2.1,4.2,3c1.5,0.9,3.1,1.8,4.7,2.5s3.3,1.2,4.9,1.6c1.6,0.4,3.1,0.6,4.5,0.6c0.8,0,1.5-0.1,2.3-0.2
					c0.7-0.1,1.4-0.4,2-0.7c0.6-0.3,1.1-0.8,1.4-1.3c0.3-0.5,0.5-1.2,0.5-2c0-1.1-0.4-2-1.1-2.7s-1.8-1.3-3-1.8
					c-1.2-0.5-2.7-1-4.2-1.4c-1.6-0.4-3.2-0.9-4.9-1.4c-1.6-0.5-3.3-1.1-4.9-1.8s-3-1.6-4.2-2.7s-2.2-2.4-3-4
					c-0.8-1.6-1.1-3.5-1.1-5.7c0-2.5,0.5-4.8,1.6-6.7c1.1-1.9,2.5-3.5,4.3-4.9c1.8-1.3,4-2.3,6.4-3s5.1-1,7.9-1
					c1.8,0,3.6,0.1,5.4,0.4c1.8,0.3,3.6,0.6,5.3,1.1c1.7,0.5,3.4,1.1,5,1.8s3.1,1.5,4.4,2.4L911.3,532.9z"/>
			</g>
		</g>
		<g>
			<g>
				<g>
					<g>
						<path class="st3" d="M569.8,583.5c-0.2-0.2-0.5-0.4-0.8-0.6c-0.3-0.2-0.6-0.3-0.9-0.5c-0.3-0.1-0.6-0.2-0.9-0.3
							s-0.6-0.1-0.9-0.1c-0.6,0-1.1,0.1-1.7,0.3c-0.5,0.2-1,0.5-1.3,0.9s-0.7,0.8-0.9,1.4c-0.2,0.5-0.3,1.1-0.3,1.7
							c0,0.6,0.1,1.2,0.3,1.7c0.2,0.5,0.5,1,0.9,1.4c0.4,0.4,0.8,0.7,1.3,0.9s1.1,0.3,1.7,0.3c0.3,0,0.6,0,0.8-0.1
							c0.3-0.1,0.6-0.1,0.9-0.3c0.3-0.1,0.6-0.2,0.9-0.4c0.3-0.2,0.5-0.3,0.8-0.5l1.4,1.7c-0.3,0.2-0.7,0.5-1.1,0.7
							s-0.8,0.4-1.2,0.5c-0.4,0.1-0.9,0.3-1.3,0.3s-0.9,0.1-1.3,0.1c-0.9,0-1.8-0.2-2.6-0.5c-0.8-0.3-1.5-0.8-2.1-1.4
							c-0.6-0.6-1.1-1.3-1.4-2c-0.3-0.8-0.5-1.6-0.5-2.5c0-0.9,0.2-1.7,0.5-2.5c0.3-0.8,0.8-1.5,1.4-2c0.6-0.6,1.3-1,2.1-1.4
							s1.7-0.5,2.7-0.5c0.5,0,0.9,0,1.4,0.1c0.5,0.1,0.9,0.2,1.3,0.4c0.4,0.2,0.8,0.3,1.2,0.6c0.4,0.2,0.7,0.5,1,0.8L569.8,583.5z
							 M568.9,587.4h-3.6v-2h5.8v5.7h-2.3V587.4z"/>
						<path class="st3" d="M580.8,580.1c0.8,0,1.5,0.1,2.2,0.3s1.2,0.5,1.6,0.8c0.4,0.4,0.8,0.8,1,1.3c0.2,0.5,0.3,1.1,0.3,1.8
							c0,0.7-0.1,1.4-0.3,1.9c-0.2,0.6-0.6,1-1,1.4c-0.4,0.4-1,0.7-1.6,0.9c-0.6,0.2-1.4,0.3-2.2,0.3h-2.7v3.7h-2.5v-12.5H580.8z
							 M580.8,586.8c0.4,0,0.8-0.1,1.2-0.2c0.3-0.1,0.6-0.2,0.9-0.4c0.2-0.2,0.4-0.4,0.5-0.7c0.1-0.3,0.2-0.6,0.2-1
							c0-0.4-0.1-0.7-0.2-1c-0.1-0.3-0.3-0.5-0.5-0.7c-0.2-0.2-0.5-0.3-0.9-0.4c-0.3-0.1-0.7-0.1-1.2-0.1h-2.7v4.7H580.8z
							 M580.7,588h2.5l3.1,4.6h-2.8L580.7,588z"/>
						<path class="st3" d="M594.2,580.1h2.6l5.4,12.5h-2.7l-4.1-10l-4.1,10h-2.6L594.2,580.1z M591.6,587.9h7.4v2h-7.4V587.9z"/>
						<path class="st3" d="M605.3,580.1h2.3l7,9.5l-0.7,0.2v-9.7h2.4v12.5H614l-7-9.5l0.7-0.2v9.7h-2.4V580.1z"/>
						<path class="st3" d="M626.3,580.1c1,0,1.8,0.2,2.6,0.5c0.8,0.3,1.5,0.7,2.1,1.3c0.6,0.6,1,1.2,1.3,2s0.5,1.6,0.5,2.5
							c0,0.9-0.2,1.7-0.5,2.5s-0.8,1.4-1.4,2c-0.6,0.6-1.3,1-2.1,1.3c-0.8,0.3-1.7,0.5-2.7,0.5h-5.1v-12.5H626.3z M626.4,590.5
							c0.6,0,1.1-0.1,1.6-0.3c0.5-0.2,0.9-0.5,1.2-0.9s0.6-0.8,0.8-1.3c0.2-0.5,0.3-1.1,0.3-1.7c0-0.6-0.1-1.2-0.3-1.7
							c-0.2-0.5-0.5-1-0.8-1.3c-0.4-0.4-0.8-0.7-1.3-0.9c-0.5-0.2-1-0.3-1.6-0.3h-2.7v8.3H626.4z"/>
						<path class="st3" d="M648.2,580.1c0.8,0,1.5,0.1,2.2,0.3c0.6,0.2,1.2,0.5,1.6,0.8s0.8,0.8,1,1.3c0.2,0.5,0.3,1.1,0.3,1.8
							c0,0.7-0.1,1.4-0.3,1.9c-0.2,0.6-0.6,1-1,1.4s-1,0.7-1.6,0.9c-0.6,0.2-1.4,0.3-2.2,0.3h-2.7v3.7h-2.5v-12.5H648.2z
							 M648.2,586.8c0.4,0,0.8-0.1,1.2-0.2c0.3-0.1,0.6-0.2,0.9-0.4s0.4-0.4,0.5-0.7c0.1-0.3,0.2-0.6,0.2-1c0-0.4-0.1-0.7-0.2-1
							c-0.1-0.3-0.3-0.5-0.5-0.7c-0.2-0.2-0.5-0.3-0.9-0.4c-0.3-0.1-0.7-0.1-1.2-0.1h-2.7v4.7H648.2z M648.1,588h2.5l3.1,4.6h-2.8
							L648.1,588z"/>
						<path class="st3" d="M661.5,580.1h2.6l5.4,12.5h-2.7l-4.1-10l-4.1,10h-2.6L661.5,580.1z M659,587.9h7.4v2H659V587.9z"/>
						<path class="st3" d="M677.8,580.1c0.8,0,1.5,0.1,2.1,0.3c0.6,0.2,1.1,0.5,1.6,0.8c0.4,0.4,0.7,0.8,1,1.3
							c0.2,0.5,0.3,1.1,0.3,1.8c0,0.7-0.1,1.4-0.3,1.9c-0.2,0.6-0.5,1-1,1.4c-0.4,0.4-0.9,0.7-1.6,0.9c-0.6,0.2-1.3,0.3-2.1,0.3
							h-3.7l1.1-1.1v4.8h-2.5v-12.5H677.8z M677.7,586.8c0.4,0,0.8-0.1,1.2-0.2c0.3-0.1,0.6-0.2,0.8-0.4c0.2-0.2,0.4-0.4,0.5-0.7
							c0.1-0.3,0.2-0.6,0.2-1c0-0.4-0.1-0.7-0.2-1c-0.1-0.3-0.3-0.5-0.5-0.7c-0.2-0.2-0.5-0.3-0.8-0.4c-0.3-0.1-0.7-0.1-1.2-0.1
							h-3.6l1.1-1.1v6.9l-1.1-1.1H677.7z"/>
						<path class="st3" d="M686.4,580.1h2.5v12.5h-2.5V580.1z"/>
						<path class="st3" d="M698.8,580.1c1,0,1.8,0.2,2.6,0.5c0.8,0.3,1.5,0.7,2.1,1.3c0.6,0.6,1,1.2,1.3,2s0.5,1.6,0.5,2.5
							c0,0.9-0.2,1.7-0.5,2.5s-0.8,1.4-1.4,2c-0.6,0.6-1.3,1-2.1,1.3c-0.8,0.3-1.7,0.5-2.7,0.5h-5.1v-12.5H698.8z M698.9,590.5
							c0.6,0,1.1-0.1,1.6-0.3c0.5-0.2,0.9-0.5,1.2-0.9s0.6-0.8,0.8-1.3c0.2-0.5,0.3-1.1,0.3-1.7c0-0.6-0.1-1.2-0.3-1.7
							c-0.2-0.5-0.5-1-0.8-1.3c-0.4-0.4-0.8-0.7-1.3-0.9c-0.5-0.2-1-0.3-1.6-0.3h-2.7v8.3H698.9z"/>
						<path class="st3" d="M717,583.3c-0.3-0.2-0.6-0.3-0.9-0.5c-0.3-0.1-0.6-0.3-1-0.4s-0.7-0.2-1-0.3c-0.3-0.1-0.6-0.1-1-0.1
							c-0.2,0-0.4,0-0.6,0.1c-0.2,0-0.4,0.1-0.6,0.2c-0.2,0.1-0.3,0.2-0.4,0.4c-0.1,0.2-0.2,0.4-0.2,0.6c0,0.3,0.1,0.6,0.3,0.8
							c0.2,0.2,0.4,0.4,0.8,0.5c0.3,0.2,0.7,0.3,1.1,0.4s0.8,0.2,1.2,0.4c0.4,0.1,0.8,0.3,1.2,0.5c0.4,0.2,0.8,0.4,1.1,0.7
							s0.6,0.6,0.8,1s0.3,0.9,0.3,1.4c0,0.7-0.1,1.2-0.4,1.7s-0.7,0.9-1.1,1.2c-0.5,0.3-1,0.5-1.5,0.7c-0.6,0.1-1.2,0.2-1.7,0.2
							c-0.5,0-1,0-1.5-0.1c-0.5-0.1-1-0.2-1.4-0.4c-0.5-0.2-0.9-0.4-1.3-0.6c-0.4-0.2-0.8-0.5-1.2-0.8l1-2c0.3,0.3,0.6,0.5,0.9,0.7
							c0.3,0.2,0.7,0.4,1.1,0.6c0.4,0.2,0.8,0.3,1.2,0.4c0.4,0.1,0.8,0.1,1.2,0.1c0.2,0,0.5,0,0.7-0.1s0.5-0.1,0.7-0.2
							s0.4-0.3,0.5-0.4c0.1-0.2,0.2-0.4,0.2-0.7c0-0.3-0.1-0.6-0.3-0.8c-0.2-0.2-0.4-0.4-0.8-0.6c-0.3-0.2-0.7-0.3-1.1-0.4
							c-0.4-0.1-0.8-0.2-1.2-0.4c-0.4-0.1-0.8-0.3-1.2-0.5c-0.4-0.2-0.8-0.4-1.1-0.7s-0.6-0.6-0.8-1s-0.3-0.9-0.3-1.4
							c0-0.6,0.1-1.2,0.4-1.6s0.6-0.8,1.1-1.1c0.4-0.3,0.9-0.5,1.5-0.6c0.6-0.1,1.1-0.2,1.7-0.2c0.4,0,0.8,0,1.2,0.1
							c0.4,0.1,0.8,0.1,1.2,0.3c0.4,0.1,0.8,0.3,1.1,0.4s0.7,0.4,1,0.6L717,583.3z"/>
						<path class="st3" d="M728.4,580.1h2.5v10.4h5.4v2.1h-7.9V580.1z"/>
						<path class="st3" d="M748.2,580.4c0.8,0.3,1.5,0.8,2.1,1.3s1.1,1.2,1.4,2c0.3,0.8,0.5,1.6,0.5,2.5s-0.2,1.7-0.5,2.5
							c-0.3,0.8-0.8,1.5-1.4,2s-1.3,1-2.1,1.4c-0.8,0.3-1.7,0.5-2.6,0.5c-0.9,0-1.8-0.2-2.6-0.5c-0.8-0.3-1.5-0.8-2.1-1.4
							c-0.6-0.6-1.1-1.3-1.4-2c-0.3-0.8-0.5-1.6-0.5-2.5c0-0.9,0.2-1.8,0.5-2.5c0.3-0.8,0.8-1.5,1.4-2c0.6-0.6,1.3-1,2.1-1.3
							c0.8-0.3,1.7-0.5,2.6-0.5C746.5,580,747.4,580.1,748.2,580.4z M744,582.4c-0.5,0.2-0.9,0.5-1.3,0.9c-0.4,0.4-0.7,0.8-0.9,1.4
							c-0.2,0.5-0.3,1.1-0.3,1.7c0,0.6,0.1,1.2,0.3,1.7c0.2,0.5,0.5,1,0.9,1.4s0.8,0.7,1.3,0.9c0.5,0.2,1,0.3,1.6,0.3
							c0.6,0,1.1-0.1,1.6-0.3c0.5-0.2,0.9-0.5,1.3-0.9c0.4-0.4,0.7-0.8,0.9-1.4c0.2-0.5,0.3-1.1,0.3-1.7c0-0.6-0.1-1.2-0.3-1.7
							c-0.2-0.5-0.5-1-0.9-1.4c-0.4-0.4-0.8-0.7-1.3-0.9c-0.5-0.2-1-0.3-1.6-0.3C745,582.1,744.5,582.2,744,582.4z"/>
						<path class="st3" d="M765,583.7c-0.2-0.3-0.5-0.5-0.7-0.7c-0.3-0.2-0.5-0.4-0.8-0.5c-0.3-0.1-0.6-0.2-0.9-0.3
							c-0.3-0.1-0.6-0.1-0.9-0.1c-0.6,0-1.1,0.1-1.6,0.3c-0.5,0.2-0.9,0.5-1.3,0.9s-0.7,0.8-0.9,1.3s-0.3,1.1-0.3,1.7
							c0,0.6,0.1,1.1,0.3,1.7c0.2,0.5,0.5,1,0.9,1.4c0.4,0.4,0.8,0.7,1.3,0.9c0.5,0.2,1,0.3,1.6,0.3c0.3,0,0.6,0,0.9-0.1
							c0.3-0.1,0.6-0.2,0.9-0.3c0.3-0.1,0.6-0.3,0.8-0.5s0.5-0.4,0.8-0.6l1.5,1.5c-0.3,0.3-0.7,0.6-1.1,0.9s-0.8,0.5-1.2,0.7
							c-0.4,0.2-0.9,0.3-1.3,0.4c-0.5,0.1-0.9,0.2-1.3,0.2c-0.9,0-1.8-0.2-2.6-0.5c-0.8-0.3-1.5-0.8-2.1-1.4s-1-1.3-1.4-2
							c-0.3-0.8-0.5-1.6-0.5-2.5c0-0.9,0.2-1.7,0.5-2.5s0.8-1.5,1.4-2s1.3-1,2.1-1.3c0.8-0.3,1.7-0.5,2.6-0.5c0.4,0,0.9,0,1.3,0.1
							c0.4,0.1,0.9,0.2,1.3,0.4c0.4,0.2,0.8,0.4,1.2,0.6c0.4,0.2,0.7,0.5,1,0.8L765,583.7z"/>
						<path class="st3" d="M774,580.1h2.6l5.4,12.5h-2.7l-4.1-10l-4.1,10h-2.6L774,580.1z M771.5,587.9h7.4v2h-7.4V587.9z"/>
						<path class="st3" d="M785.1,580.1h2.5v10.4h5.4v2.1h-7.9V580.1z"/>
						<path class="st3" d="M808.2,580.1c1,0,1.8,0.2,2.6,0.5c0.8,0.3,1.5,0.7,2.1,1.3c0.6,0.6,1,1.2,1.3,2s0.5,1.6,0.5,2.5
							c0,0.9-0.2,1.7-0.5,2.5s-0.8,1.4-1.4,2c-0.6,0.6-1.3,1-2.1,1.3c-0.8,0.3-1.7,0.5-2.7,0.5h-5.1v-12.5H808.2z M808.2,590.5
							c0.6,0,1.1-0.1,1.6-0.3s0.9-0.5,1.2-0.9c0.3-0.4,0.6-0.8,0.8-1.3s0.3-1.1,0.3-1.7c0-0.6-0.1-1.2-0.3-1.7s-0.5-1-0.8-1.3
							c-0.4-0.4-0.8-0.7-1.3-0.9c-0.5-0.2-1-0.3-1.6-0.3h-2.7v8.3H808.2z"/>
						<path class="st3" d="M818.4,580.1h9.3v2.1h-6.7v3.1h6v2.1h-6v3.2h6.9v2.1h-9.5V580.1z"/>
						<path class="st3" d="M835.9,580.1h2.6l5.4,12.5h-2.7l-4.1-10l-4.1,10h-2.6L835.9,580.1z M833.3,587.9h7.4v2h-7.4V587.9z"/>
						<path class="st3" d="M847,580.1h2.5v10.4h5.4v2.1H847V580.1z"/>
						<path class="st3" d="M866.4,583.3c-0.3-0.2-0.6-0.3-0.9-0.5s-0.6-0.3-1-0.4s-0.7-0.2-1-0.3c-0.3-0.1-0.7-0.1-1-0.1
							c-0.2,0-0.4,0-0.6,0.1c-0.2,0-0.4,0.1-0.6,0.2c-0.2,0.1-0.3,0.2-0.4,0.4c-0.1,0.2-0.2,0.4-0.2,0.6c0,0.3,0.1,0.6,0.3,0.8
							c0.2,0.2,0.4,0.4,0.8,0.5c0.3,0.2,0.7,0.3,1.1,0.4s0.8,0.2,1.2,0.4c0.4,0.1,0.8,0.3,1.2,0.5c0.4,0.2,0.8,0.4,1.1,0.7
							s0.6,0.6,0.8,1s0.3,0.9,0.3,1.4c0,0.7-0.1,1.2-0.4,1.7s-0.7,0.9-1.1,1.2c-0.5,0.3-1,0.5-1.5,0.7c-0.6,0.1-1.2,0.2-1.7,0.2
							c-0.5,0-1,0-1.5-0.1c-0.5-0.1-1-0.2-1.4-0.4c-0.5-0.2-0.9-0.4-1.3-0.6c-0.4-0.2-0.8-0.5-1.2-0.8l1-2c0.3,0.3,0.6,0.5,0.9,0.7
							c0.3,0.2,0.7,0.4,1.1,0.6c0.4,0.2,0.8,0.3,1.2,0.4c0.4,0.1,0.8,0.1,1.2,0.1c0.2,0,0.5,0,0.7-0.1s0.5-0.1,0.7-0.2
							s0.4-0.3,0.5-0.4c0.1-0.2,0.2-0.4,0.2-0.7c0-0.3-0.1-0.6-0.3-0.8c-0.2-0.2-0.4-0.4-0.8-0.6c-0.3-0.2-0.7-0.3-1.1-0.4
							c-0.4-0.1-0.8-0.2-1.2-0.4c-0.4-0.1-0.8-0.3-1.2-0.5s-0.8-0.4-1.1-0.7s-0.6-0.6-0.8-1s-0.3-0.9-0.3-1.4c0-0.6,0.1-1.2,0.4-1.6
							s0.6-0.8,1.1-1.1c0.4-0.3,0.9-0.5,1.5-0.6c0.6-0.1,1.1-0.2,1.7-0.2c0.4,0,0.8,0,1.2,0.1c0.4,0.1,0.8,0.1,1.2,0.3
							c0.4,0.1,0.8,0.3,1.1,0.4s0.7,0.4,1,0.6L866.4,583.3z"/>
					</g>
				</g>
			</g>
			<rect x="879.7" y="584.8" class="st4" width="35.4" height="3.3"/>
			<rect x="513" y="584.8" class="st4" width="35.4" height="3.3"/>
		</g>
	</g>
	<path class="st5" d="M387.9,540.1c-0.4-0.1-0.8-0.1-1.2-0.2C387.1,540,387.5,540,387.9,540.1L387.9,540.1z"/>
	<path class="st6" d="M339.8,541c-1-1.1-2.9-1.9-3.1-2c0.5,0.1,1,0.2,1.4,0.4C338.9,539.9,339.4,540.4,339.8,541z"/>
	<g>
		<path class="st4" d="M319.3,458.3l-8.6,10.9l-15.2,20.2c0,0,0,0,0,0c-9.4-6.6-18.6-11.9-33-13.8c-1.2-0.2-9.5-0.1-9.6-0.1
			c-24.3,1.9-43.4,20-43.4,45c0,24.8,19.6,44.3,44.9,44.6l0.1,30.7h-3.3v-11.4l-2-2h-3.7v-2.9l-0.9-1.7l-7.1-4.7v-1.9l-2-2h-1.5
			l-2,2v1.9l-8.3,5.2l-1,1.7v7.7c-0.1-0.1-0.1-0.1-0.2-0.2c-0.6-0.6-1.6-1.3-3.2-1.3c-1.1,0-2.2,0.3-3.2,0.7v-32.4l-2-2h-1.8
			l-3.8-4.6l-1.6-0.7h-1.6V546l-2-2h-0.7l-2,2v1.1h-1.2l-1.3,0.5l-6.5,5.5l-0.7,1.6c0.1,7.1,0.2,17,0.2,24.2
			c-16-14.8-26-35.8-26.1-59.1c-0.1-36.9,19.5-65.2,57.9-78.6c30.4-9.7,54.5-3,54.5-3C303.7,443.8,319.3,458.3,319.3,458.3z"/>
		<path class="st4" d="M320.4,507.6v32.1h0v39l-7.9-4.8v-0.2l-2-2h-1.8l-2,1.9l0,0.3l-7.8,5.3l-0.9,1.7v6.8l-4.9-3.7h-2.5l-6.6,5
			v-25.6l-1.9-2c-0.9-0.1-1-0.4-1.3-0.9l0-0.1c-0.1-0.2-0.2-0.4-0.3-0.5c0.4-0.2,0.8-0.5,1.1-0.7v-19.5H250v-32.1H320.4z"/>
		<path class="st3" d="M429.4,586.5h-4.2c0,0-8.5-14.5-22.6-27.6c-2.1-1.9-4.2-3.8-6.5-5.6c0,0-8-17-6.3-24.9c0,0,0.8-3.9,4.2-4.6
			c3.4-0.7,6.5,0.9,9.7,4.7c1.4,1.6,3.6,4.6,6.3,9.3c3.6,6.1,7.9,15.1,12.2,27.5c0,0,2,6.6,4.3,13
			C427.4,581,427.1,583.9,429.4,586.5z"/>
		<path class="st3" d="M324.5,576.4v-38.1c0,0,12.2,4.5,24.5,2.9c-5.3,4.7-9.6,9.6-13.2,14.8c-3.6,5.2-6.6,10.7-9.5,16.4
			L324.5,576.4z"/>
		<g>
			<path class="st3" d="M436.5,540.5L436.5,540.5c-0.4-0.5-0.8-0.9-1.1-1.3c0,0,0,0,0,0c14.9-6,26.8-25.5,26.8-46.6
				c0-20.6-9.7-45.1-45.2-52.2c-8.1-1.6-36.8-1.6-36.8-1.6h-55.6v99.5c0,0,48.3-2.6,79.7-49c-0.4,0.4-13.1,13-20.9,17.5
				c0,0-13.6,8.3-34.3,12.4c3.1-8.4,6.3-22.5,7.1-45.8c0,0,3.2-2.6,7.6,8.3c4.4,10.9,6.1,20.1,7.1,20.7c0,0-2.2,0.5-7.7-1.9
				l-0.3,3.9c0,0,5.2,0,8.1-1.5c0,0,12.4,0.6,13.3-14.3c0,0-0.1-9.7,5.1-2.2c0,0,4.6,7.7,8.7-0.4c3.4-6.8,5.3-18.1,5.3-18.1
				c1.8-6.5,2.5-7.9,2.5-7.9c4.6-10.7,6.7-0.5,6.7-0.5l2.3,13l3.7,24.5l7.9,48.6l6.3,40.7l3.1,10.9c0,0,2.7,0,6.7,0v-1.3l2-2h18l2,2
				v1.2c8.5,0,15.6,0,15.5,0.1C480.3,597.2,449.4,556.2,436.5,540.5z"/>
			<path class="st3" d="M369.2,517.6c0,0-18.2,11.3-27,13.1c0.2-0.1,3.4-2.5,6.8-11.5C349.9,519.5,357,522.5,369.2,517.6z"/>
		</g>
		<path class="st3" d="M415.1,505.2l-15.2,9.4c0,0-19.9,9.4-26,14.8c-3.7,3.3-22.7,16.5-29.5,47.1l-0.1,0l-2.5,0.1l-5.2,4.2
			c3.4-10.4,9.6-26.3,19.2-38.8C371.3,521.9,393.9,515.3,415.1,505.2z"/>
		<path class="st3" d="M389,593.9l-3-0.3c0,0,0,0,0,0c-1.2-0.8-2.7-1.2-4.1-1.5v-23.6l-2-2h-1.1c-1.2-3.7-4.1-5.5-6.5-6.2V557l-2-2
			h-1.5l-2,2v3.4c-4.4,1.4-6.4,4.2-7.2,6h-1.4l-1,1c1.2-7.7,3-15.8,5.4-21.7c0,0,9.6-9.6,22.9,0c0.3,0.2,0.5,0.6,0.6,1
			C386.3,552.3,388.3,589.7,389,593.9z"/>
		<path class="st5" d="M377.6,642c-22.2,2.6-71.6-12.9-71.6-12.9c-40.2-11.5-90.9,0.3-90.9,0.3c-16.8,4.5-58.7,14.3-58.7,14.3
			c105.2-45.9,159.3-25.5,159.3-25.5c1.1,0.2,2.1,0.4,3,0.6c-1.5-0.1-2.7-0.2-3.5-0.2C311.2,618.6,358.1,636.4,377.6,642z"/>
		<path class="st0" d="M500.7,605.7l0,17.4c-0.4,0-0.2,0-0.6,0.1c-1.5-7.3-5-10.5-7.7-11.9c-2.5-1.3-5.6-1.2-8.1,0.2
			c-5.7,3.3-6.9,11.2-7.2,14c-0.9,0-1.9,0-2.8,0c-1.1-8.7-4.8-12.4-7.8-14.1c-2.8-1.5-6.2-1.3-8.9,0.4c-4.1,2.7-5.7,7.9-6.3,11.3
			c-1.2-0.2-2.4-0.4-3.6-0.7c-1.5-6.6-4.7-9.7-7.4-11.1c-2.8-1.5-6.1-1.3-8.7,0.5c-1.8,1.1-3,2.7-4,4.4c-4.4-1.7-14.8-5.3-24.4-5.8
			c0,0-14.2-1.9-22.9,2.8c0,0,15.2,0.6,17.7,4.7c0.2,0.3,0.2,0.8,0,1.1c-0.5,0.7-2,1.7-6.4,0.9c0,0-5.2-0.6-10.2-2.4
			c0,0-33.3-13.4-65-7.8c0,0,16.1,1.9,21.9,6.1c0.2,0,0.4,0.1,0.5,0.1c-0.2,0-0.4-0.1-0.5-0.1c0.7,0.5,1.3,1.1,1.6,1.6
			c0.5,0.5,0.8,1.1,0.4,1.7c-0.2,0.2-0.5,0.5-0.9,0.7c-0.2,0.1-0.3,0.1-0.5,0.2c0,0-0.3,0-0.8-0.1c0,0,0,0,0,0
			c-2.9-0.4-13.2-2-19.2-2.5h0c-1-0.2-2-0.4-3-0.6c0,0-48.5-18.3-143.2,18.9v-10.5l0-18.9l0.2-28l6-5.2v-1.5h1.9l0.2,1.5l6.8,5.2v9
			c0,0,3.9-1.9,5.4,1.7c0.2,0.4,0.2-3.3,0.2-8.4c0-10.2-0.2-26.1-0.2-26.1l6.5-5.5h3.2v-3.1h0.7v3.1h3.6l4.4,5.4h2.7v35.8
			c0,0,8.2-5.8,7.6,1.8v1.2h3v-13.4l9.2-5.8v-3h1.5v3l8,5.3v4.9h5.8v13.4h7.4l-0.1-32.8l0-2.2c1-0.2,1.7-0.6,2.3-1.2
			c0.6-0.6,1.1-1.3,1.5-2.2c0.9-1.9,3.3-4.2,7.2-4l0-7.4l0.9-1.8l0.9,1.8v7.4c0,0,5.6-1.1,9.3,5.5c0.1,0.2,0.2,0.3,0.3,0.5
			c0.3,0.6,0.9,1.9,2.9,2.1v33.6h2.8v-6l7.1-5.3l6.9,5.2v5.1h1.3v-15l8.7-5.9l0.1-1.3h1.8v1.3l9.5,5.9v7.9c0,0,0.1,0,0.4-0.1
			c1.8-0.3,9.3-0.9,8.4,7.2h1.7l0,1.6h4.2v-12.3l0.9-0.8l7.6-6.2l0.8,0.6l8.5,6.3l0,10.5h3.5l2.2,1.7v-28.9h2.8c0,0,0.8-5.1,7.7-6.5
			v-5h1.5v5c0,0,6,0.4,6.9,6.5h2.8v25.5c0,0,6.8-0.3,7.8,5.4v8.8h2.2c0,0,2.9-6.9,6.6-0.4h1.5v-11.8l12.2-7.3l10.6,7.3l0.1,9.8H445
			v-10.1h18v9.9H500.7z"/>
		<path class="st7" d="M509.1,621.9c-4.2,3-8.4,5.6-12.6,7.8c-7.7,1.8-31.2,5.7-60.8-3.4c0,0,10.5,9.5-20.6-1.4
			c0,0,5.2,10.4-10.3,5.1c0,0,11.7,13.9-36.8-7.8c0,0-0.7,2.8,7.6,10c0,0-14.9,0.2-26.6-14.1c0,0-1.9,1-10.9-1.2
			c-5.8-4.1-21.9-6.1-21.9-6.1c31.7-5.6,65,7.8,65,7.8c5,1.8,10.2,2.4,10.2,2.4c4.4,0.7,5.9-0.2,6.4-1c0.2-0.3,0.2-0.8,0-1.1
			c-2.5-4.1-17.7-4.7-17.7-4.7c8.7-4.7,22.9-2.8,22.9-2.8c12.5,0.6,26.5,6.6,26.5,6.6c6.4,2.4,15.1,4.7,15.1,4.7
			C483.9,631.8,508.5,622.2,509.1,621.9z"/>
		<path class="st8" d="M496.5,629.8c-38.1,19.9-75.4,7.7-75.4,7.7c-7.7,6-18.1,7-26.3,6.5c-0.4,0-0.8-0.1-1.3-0.1
			c-1.2-0.1-2.4-0.2-3.5-0.4c-0.3,0-0.5-0.1-0.7-0.1c-0.5-0.1-0.9-0.1-1.3-0.2c-0.4-0.1-0.8-0.1-1.2-0.2c-0.1,0-0.2,0-0.3-0.1
			c-0.2,0-0.4-0.1-0.6-0.1c-0.4-0.1-0.8-0.2-1.2-0.2c-0.2,0-0.3-0.1-0.5-0.1c-0.2,0-0.3-0.1-0.5-0.1c0,0-0.1,0-0.1,0
			c-0.1,0-0.3-0.1-0.4-0.1c-1.6-0.4-2.6-0.7-2.6-0.7c-0.9,0.2-1.9,0.4-3,0.5c-19.5-5.6-66.5-23.4-62.4-23.5c0.8,0,2,0,3.5,0.2h0
			c6,0.5,16.3,2.1,19.2,2.5c0,0,0,0,0,0c0.5,0.1,0.8,0.1,0.8,0.1c0.2-0.1,0.4-0.1,0.5-0.2c0.5-0.2,0.8-0.5,0.9-0.7
			c0.4-0.5,0.1-1.1-0.4-1.7c-0.4-0.6-0.9-1.1-1.6-1.7c8.9,2.1,10.9,1.2,10.9,1.2c11.7,14.3,26.6,14.1,26.6,14.1
			c-8.3-7.2-7.6-10-7.6-10c48.5,21.8,36.8,7.8,36.8,7.8c15.5,5.3,10.3-5.1,10.3-5.1c31.1,10.9,20.6,1.4,20.6,1.4
			C465.3,635.5,488.8,631.5,496.5,629.8z"/>
	</g>
</g>
</svg>
