<?xml version="1.0" encoding="UTF-8" standalone="no"?>
<!-- Generator: Adobe Illustrator 27.3.1, SVG Export Plug-In . SVG Version: 6.00 Build 0)  -->

<svg
   version="1.1"
   id="Layer_1"
   x="0px"
   y="0px"
   viewBox="0 0 307.32752 83.012872"
   xml:space="preserve"
   sodipodi:docname="logo-horizontal-light.svg"
   width="307.32751"
   height="83.012871"
   inkscape:version="1.4.2 (f4327f4, 2025-05-13)"
   xmlns:inkscape="http://www.inkscape.org/namespaces/inkscape"
   xmlns:sodipodi="http://sodipodi.sourceforge.net/DTD/sodipodi-0.dtd"
   xmlns="http://www.w3.org/2000/svg"
   xmlns:svg="http://www.w3.org/2000/svg"><defs
   id="defs47" /><sodipodi:namedview
   id="namedview47"
   pagecolor="#ffffff"
   bordercolor="#000000"
   borderopacity="0.25"
   inkscape:showpageshadow="2"
   inkscape:pageopacity="0.0"
   inkscape:pagecheckerboard="0"
   inkscape:deskcolor="#d1d1d1"
   inkscape:zoom="1.63"
   inkscape:cx="381.59509"
   inkscape:cy="104.60123"
   inkscape:window-width="1920"
   inkscape:window-height="1129"
   inkscape:window-x="-8"
   inkscape:window-y="-8"
   inkscape:window-maximized="1"
   inkscape:current-layer="g46" />
<style
   type="text/css"
   id="style1">
	.st0{fill:#011634;}
	.st1{fill:none;stroke:#FDC91B;stroke-miterlimit:10;}
	.st2{fill:#2076B7;}
	.st3{fill:#EF3823;}
	.st4{fill:#FDC91B;}
	.st5{fill:#FFB02E;}
	.st6{opacity:0;fill:#C8DEEB;}
	.st7{fill:#2078B7;}
	.st8{fill:#C8DEEB;}
	.st9{fill:#FFFFFF;}
</style>

<g
   id="g47"
   transform="translate(-156.4,-437.0996)">
	<g
   id="g33"
   transform="matrix(0.40432508,0,0,0.40432508,93.163569,259.68175)">
		<g
   id="g9">
			<g
   id="g8">
				<path
   class="st9"
   d="m 551.5,532.9 c -1.2,-0.7 -2.5,-1.4 -3.9,-2 -1.4,-0.6 -2.8,-1.2 -4.2,-1.7 -1.4,-0.5 -2.9,-0.9 -4.2,-1.2 -1.4,-0.3 -2.7,-0.4 -3.8,-0.4 -0.6,0 -1.3,0.1 -1.9,0.2 -0.6,0.1 -1.2,0.3 -1.6,0.6 -0.5,0.3 -0.9,0.7 -1.2,1.1 -0.3,0.4 -0.4,1 -0.4,1.7 0,1.1 0.4,2 1.1,2.7 0.8,0.7 1.8,1.3 3,1.8 1.2,0.5 2.7,1 4.2,1.4 1.6,0.4 3.2,0.9 4.8,1.5 1.6,0.6 3.3,1.2 4.9,1.9 1.6,0.7 3,1.7 4.2,2.8 1.2,1.1 2.2,2.5 3,4.1 0.8,1.6 1.1,3.6 1.1,5.9 0,2.7 -0.6,5.1 -1.7,7 -1.1,2 -2.6,3.6 -4.5,4.9 -1.9,1.3 -4,2.2 -6.5,2.8 -2.5,0.6 -4.9,0.9 -7.5,0.9 -2.1,0 -4.1,-0.2 -6.2,-0.5 -2.1,-0.4 -4.2,-0.9 -6.2,-1.6 -2,-0.7 -3.9,-1.5 -5.8,-2.6 -1.8,-1 -3.5,-2.2 -5.1,-3.4 l 5.2,-10.3 c 1.2,1.1 2.6,2.1 4.2,3 1.5,0.9 3.1,1.8 4.7,2.5 1.6,0.7 3.3,1.2 4.9,1.6 1.6,0.4 3.1,0.6 4.5,0.6 0.8,0 1.5,-0.1 2.3,-0.2 0.7,-0.1 1.4,-0.4 2,-0.7 0.6,-0.3 1.1,-0.8 1.4,-1.3 0.3,-0.5 0.5,-1.2 0.5,-2 0,-1.1 -0.4,-2 -1.1,-2.7 -0.7,-0.7 -1.8,-1.3 -3,-1.8 -1.2,-0.5 -2.7,-1 -4.2,-1.4 -1.5,-0.4 -3.2,-0.9 -4.9,-1.4 -1.7,-0.5 -3.3,-1.1 -4.9,-1.8 -1.6,-0.7 -3,-1.6 -4.2,-2.7 -1.2,-1.1 -2.2,-2.4 -3,-4 -0.8,-1.6 -1.1,-3.5 -1.1,-5.7 0,-2.5 0.5,-4.8 1.6,-6.7 1.1,-1.9 2.5,-3.5 4.3,-4.9 1.8,-1.3 4,-2.3 6.4,-3 2.5,-0.7 5.1,-1 7.9,-1 1.8,0 3.6,0.1 5.4,0.4 1.8,0.3 3.6,0.6 5.3,1.1 1.7,0.5 3.4,1.1 5,1.8 1.6,0.7 3.1,1.5 4.4,2.4 z"
   id="path1" />
				<path
   class="st9"
   d="m 592.1,517.8 c 3.2,0 6.1,0.4 8.6,1.2 2.5,0.8 4.6,1.9 6.4,3.4 1.7,1.5 3,3.3 3.9,5.5 0.9,2.2 1.3,4.7 1.3,7.5 0,2.9 -0.4,5.6 -1.3,7.9 -0.9,2.3 -2.2,4.3 -3.9,5.9 -1.7,1.6 -3.9,2.8 -6.4,3.6 -2.5,0.8 -5.4,1.3 -8.6,1.3 h -14.6 l 5.8,-5.8 V 568 H 570 v -50.2 z m -0.7,25.8 c 1.3,0 2.5,-0.2 3.5,-0.5 1,-0.3 1.9,-0.8 2.6,-1.5 0.7,-0.7 1.2,-1.5 1.6,-2.5 0.4,-1 0.6,-2.1 0.6,-3.4 0,-1.2 -0.2,-2.3 -0.6,-3.3 -0.4,-1 -0.9,-1.7 -1.6,-2.3 -0.7,-0.6 -1.6,-1.1 -2.6,-1.4 -1,-0.3 -2.2,-0.5 -3.5,-0.5 h -14 l 5.8,-5.8 v 27 l -5.8,-5.8 z"
   id="path2" />
				<path
   class="st9"
   d="m 625.5,517.8 h 39.8 v 10.5 h -26.5 v 9.3 h 23.9 V 548 h -23.9 v 9.5 H 666 V 568 h -40.5 z"
   id="path3"
   sodipodi:nodetypes="ccccccccccccc" />
				<path
   class="st9"
   d="m 717.1,534.8 c -0.8,-1 -1.7,-2 -2.7,-2.8 -1,-0.8 -2,-1.5 -3.1,-2.1 -1.1,-0.6 -2.2,-1 -3.3,-1.3 -1.1,-0.3 -2.2,-0.5 -3.3,-0.5 -1.9,0 -3.7,0.4 -5.3,1.1 -1.6,0.7 -3,1.8 -4.2,3 -1.2,1.3 -2.2,2.8 -2.8,4.6 -0.6,1.8 -1,3.7 -1,5.8 0,2.1 0.3,4 1,5.8 0.7,1.8 1.6,3.3 2.8,4.6 1.2,1.3 2.6,2.3 4.2,3.1 1.6,0.7 3.4,1.1 5.3,1.1 1.1,0 2.1,-0.1 3.2,-0.4 1.1,-0.3 2.2,-0.7 3.2,-1.2 1.1,-0.5 2.1,-1.1 3.1,-1.9 1,-0.7 2,-1.5 2.8,-2.5 l 7.8,8.2 c -1.3,1.4 -2.8,2.7 -4.5,3.9 -1.6,1.2 -3.4,2.2 -5.2,3 -1.8,0.8 -3.6,1.5 -5.6,1.9 -1.9,0.5 -3.8,0.7 -5.7,0.7 -3.8,0 -7.3,-0.7 -10.5,-2 -3.2,-1.3 -6,-3.2 -8.4,-5.5 -2.3,-2.3 -4.2,-5.1 -5.5,-8.3 -1.3,-3.2 -2,-6.7 -2,-10.4 0,-3.7 0.7,-7.1 2,-10.3 1.4,-3.2 3.2,-5.9 5.6,-8.2 2.4,-2.3 5.2,-4.1 8.5,-5.4 3.3,-1.3 6.8,-2 10.7,-2 1.9,0 3.7,0.2 5.6,0.6 1.9,0.4 3.7,1 5.5,1.8 1.8,0.8 3.4,1.7 5,2.7 1.6,1.1 3,2.3 4.2,3.6 z"
   id="path4" />
				<path
   class="st9"
   d="m 737.2,517.8 h 13.3 V 568 h -13.3 z"
   id="path5" />
				<path
   class="st9"
   d="M 783.4,517.8 H 797 l 21,50.2 h -14.2 l -14,-36.9 -14.3,36.9 h -13.7 z m -8.6,31.3 h 29.3 v 10 h -29.3 z"
   id="path6" />
				<path
   class="st9"
   d="m 829.3,517.8 h 13.3 v 39 h 21.2 V 568 h -34.6 v -50.2 z"
   id="path7" />
				<path
   class="st9"
   d="m 911.3,532.9 c -1.2,-0.7 -2.5,-1.4 -3.9,-2 -1.4,-0.6 -2.8,-1.2 -4.2,-1.7 -1.4,-0.5 -2.9,-0.9 -4.2,-1.2 -1.4,-0.3 -2.7,-0.4 -3.8,-0.4 -0.6,0 -1.3,0.1 -1.9,0.2 -0.6,0.1 -1.2,0.3 -1.6,0.6 -0.5,0.3 -0.9,0.7 -1.2,1.1 -0.3,0.4 -0.4,1 -0.4,1.7 0,1.1 0.4,2 1.1,2.7 0.7,0.7 1.8,1.3 3,1.8 1.2,0.5 2.7,1 4.2,1.4 1.6,0.4 3.2,0.9 4.8,1.5 1.7,0.5 3.3,1.2 4.9,1.9 1.6,0.7 3,1.7 4.2,2.8 1.2,1.1 2.2,2.5 3,4.1 0.8,1.6 1.1,3.6 1.1,5.9 0,2.7 -0.6,5.1 -1.7,7 -1.1,2 -2.6,3.6 -4.5,4.9 -1.9,1.3 -4,2.2 -6.5,2.8 -2.5,0.6 -4.9,0.9 -7.5,0.9 -2.1,0 -4.1,-0.2 -6.2,-0.5 -2.1,-0.4 -4.2,-0.9 -6.2,-1.6 -2,-0.7 -3.9,-1.5 -5.8,-2.6 -1.8,-1 -3.6,-2.2 -5.1,-3.4 l 5.2,-10.3 c 1.2,1.1 2.6,2.1 4.2,3 1.5,0.9 3.1,1.8 4.7,2.5 1.6,0.7 3.3,1.2 4.9,1.6 1.6,0.4 3.1,0.6 4.5,0.6 0.8,0 1.5,-0.1 2.3,-0.2 0.7,-0.1 1.4,-0.4 2,-0.7 0.6,-0.3 1.1,-0.8 1.4,-1.3 0.3,-0.5 0.5,-1.2 0.5,-2 0,-1.1 -0.4,-2 -1.1,-2.7 -0.7,-0.7 -1.8,-1.3 -3,-1.8 -1.2,-0.5 -2.7,-1 -4.2,-1.4 -1.6,-0.4 -3.2,-0.9 -4.9,-1.4 -1.6,-0.5 -3.3,-1.1 -4.9,-1.8 -1.6,-0.7 -3,-1.6 -4.2,-2.7 -1.2,-1.1 -2.2,-2.4 -3,-4 -0.8,-1.6 -1.1,-3.5 -1.1,-5.7 0,-2.5 0.5,-4.8 1.6,-6.7 1.1,-1.9 2.5,-3.5 4.3,-4.9 1.8,-1.3 4,-2.3 6.4,-3 2.4,-0.7 5.1,-1 7.9,-1 1.8,0 3.6,0.1 5.4,0.4 1.8,0.3 3.6,0.6 5.3,1.1 1.7,0.5 3.4,1.1 5,1.8 1.6,0.7 3.1,1.5 4.4,2.4 z"
   id="path8" />
			</g>
		</g>
		<g
   id="g32">
			<g
   id="g31">
				<g
   id="g30">
					<g
   id="g29">
						<path
   class="st3"
   d="m 569.8,583.5 c -0.2,-0.2 -0.5,-0.4 -0.8,-0.6 -0.3,-0.2 -0.6,-0.3 -0.9,-0.5 -0.3,-0.1 -0.6,-0.2 -0.9,-0.3 -0.3,-0.1 -0.6,-0.1 -0.9,-0.1 -0.6,0 -1.1,0.1 -1.7,0.3 -0.5,0.2 -1,0.5 -1.3,0.9 -0.4,0.4 -0.7,0.8 -0.9,1.4 -0.2,0.5 -0.3,1.1 -0.3,1.7 0,0.6 0.1,1.2 0.3,1.7 0.2,0.5 0.5,1 0.9,1.4 0.4,0.4 0.8,0.7 1.3,0.9 0.5,0.2 1.1,0.3 1.7,0.3 0.3,0 0.6,0 0.8,-0.1 0.3,-0.1 0.6,-0.1 0.9,-0.3 0.3,-0.1 0.6,-0.2 0.9,-0.4 0.3,-0.2 0.5,-0.3 0.8,-0.5 l 1.4,1.7 c -0.3,0.2 -0.7,0.5 -1.1,0.7 -0.4,0.2 -0.8,0.4 -1.2,0.5 -0.4,0.1 -0.9,0.3 -1.3,0.3 -0.5,0.1 -0.9,0.1 -1.3,0.1 -0.9,0 -1.8,-0.2 -2.6,-0.5 -0.8,-0.3 -1.5,-0.8 -2.1,-1.4 -0.6,-0.6 -1.1,-1.3 -1.4,-2 -0.3,-0.8 -0.5,-1.6 -0.5,-2.5 0,-0.9 0.2,-1.7 0.5,-2.5 0.3,-0.8 0.8,-1.5 1.4,-2 0.6,-0.6 1.3,-1 2.1,-1.4 0.8,-0.3 1.7,-0.5 2.7,-0.5 0.5,0 0.9,0 1.4,0.1 0.5,0.1 0.9,0.2 1.3,0.4 0.4,0.2 0.8,0.3 1.2,0.6 0.4,0.2 0.7,0.5 1,0.8 z m -0.9,3.9 h -3.6 v -2 h 5.8 v 5.7 h -2.3 v -3.7 z"
   id="path9" />
						<path
   class="st3"
   d="m 580.8,580.1 c 0.8,0 1.5,0.1 2.2,0.3 0.7,0.2 1.2,0.5 1.6,0.8 0.4,0.4 0.8,0.8 1,1.3 0.2,0.5 0.3,1.1 0.3,1.8 0,0.7 -0.1,1.4 -0.3,1.9 -0.2,0.6 -0.6,1 -1,1.4 -0.4,0.4 -1,0.7 -1.6,0.9 -0.6,0.2 -1.4,0.3 -2.2,0.3 h -2.7 v 3.7 h -2.5 V 580 h 5.2 z m 0,6.7 c 0.4,0 0.8,-0.1 1.2,-0.2 0.3,-0.1 0.6,-0.2 0.9,-0.4 0.2,-0.2 0.4,-0.4 0.5,-0.7 0.1,-0.3 0.2,-0.6 0.2,-1 0,-0.4 -0.1,-0.7 -0.2,-1 -0.1,-0.3 -0.3,-0.5 -0.5,-0.7 -0.2,-0.2 -0.5,-0.3 -0.9,-0.4 -0.3,-0.1 -0.7,-0.1 -1.2,-0.1 h -2.7 v 4.7 h 2.7 z m -0.1,1.2 h 2.5 l 3.1,4.6 h -2.8 z"
   id="path10" />
						<path
   class="st3"
   d="m 594.2,580.1 h 2.6 l 5.4,12.5 h -2.7 l -4.1,-10 -4.1,10 h -2.6 z m -2.6,7.8 h 7.4 v 2 h -7.4 z"
   id="path11" />
						<path
   class="st3"
   d="m 605.3,580.1 h 2.3 l 7,9.5 -0.7,0.2 v -9.7 h 2.4 v 12.5 H 614 l -7,-9.5 0.7,-0.2 v 9.7 h -2.4 z"
   id="path12" />
						<path
   class="st3"
   d="m 626.3,580.1 c 1,0 1.8,0.2 2.6,0.5 0.8,0.3 1.5,0.7 2.1,1.3 0.6,0.6 1,1.2 1.3,2 0.3,0.8 0.5,1.6 0.5,2.5 0,0.9 -0.2,1.7 -0.5,2.5 -0.3,0.8 -0.8,1.4 -1.4,2 -0.6,0.6 -1.3,1 -2.1,1.3 -0.8,0.3 -1.7,0.5 -2.7,0.5 H 621 v -12.5 h 5.3 z m 0.1,10.4 c 0.6,0 1.1,-0.1 1.6,-0.3 0.5,-0.2 0.9,-0.5 1.2,-0.9 0.3,-0.4 0.6,-0.8 0.8,-1.3 0.2,-0.5 0.3,-1.1 0.3,-1.7 0,-0.6 -0.1,-1.2 -0.3,-1.7 -0.2,-0.5 -0.5,-1 -0.8,-1.3 -0.4,-0.4 -0.8,-0.7 -1.3,-0.9 -0.5,-0.2 -1,-0.3 -1.6,-0.3 h -2.7 v 8.3 h 2.8 z"
   id="path13" />
						<path
   class="st3"
   d="m 648.2,580.1 c 0.8,0 1.5,0.1 2.2,0.3 0.6,0.2 1.2,0.5 1.6,0.8 0.4,0.4 0.8,0.8 1,1.3 0.2,0.5 0.3,1.1 0.3,1.8 0,0.7 -0.1,1.4 -0.3,1.9 -0.2,0.6 -0.6,1 -1,1.4 -0.4,0.4 -1,0.7 -1.6,0.9 -0.6,0.2 -1.3,0.3 -2.2,0.3 h -2.7 v 3.7 H 643 V 580 h 5.2 z m 0,6.7 c 0.4,0 0.8,-0.1 1.2,-0.2 0.3,-0.1 0.6,-0.2 0.9,-0.4 0.2,-0.2 0.4,-0.4 0.5,-0.7 0.1,-0.3 0.2,-0.6 0.2,-1 0,-0.4 -0.1,-0.7 -0.2,-1 -0.1,-0.3 -0.3,-0.5 -0.5,-0.7 -0.2,-0.2 -0.5,-0.3 -0.9,-0.4 -0.3,-0.1 -0.7,-0.1 -1.2,-0.1 h -2.7 v 4.7 h 2.7 z m -0.1,1.2 h 2.5 l 3.1,4.6 h -2.8 z"
   id="path14" />
						<path
   class="st3"
   d="m 661.5,580.1 h 2.6 l 5.4,12.5 h -2.7 l -4.1,-10 -4.1,10 H 656 Z m -2.5,7.8 h 7.4 v 2 H 659 Z"
   id="path15" />
						<path
   class="st3"
   d="m 677.8,580.1 c 0.8,0 1.5,0.1 2.1,0.3 0.6,0.2 1.1,0.5 1.6,0.8 0.4,0.4 0.7,0.8 1,1.3 0.3,0.5 0.3,1.1 0.3,1.8 0,0.7 -0.1,1.4 -0.3,1.9 -0.2,0.6 -0.5,1 -1,1.4 -0.4,0.4 -0.9,0.7 -1.6,0.9 -0.6,0.2 -1.3,0.3 -2.1,0.3 h -3.7 l 1.1,-1.1 v 4.8 h -2.5 V 580 h 5.1 z m -0.1,6.7 c 0.4,0 0.8,-0.1 1.2,-0.2 0.3,-0.1 0.6,-0.2 0.8,-0.4 0.2,-0.2 0.4,-0.4 0.5,-0.7 0.1,-0.3 0.2,-0.6 0.2,-1 0,-0.4 -0.1,-0.7 -0.2,-1 -0.1,-0.3 -0.3,-0.5 -0.5,-0.7 -0.2,-0.2 -0.5,-0.3 -0.8,-0.4 -0.3,-0.1 -0.7,-0.1 -1.2,-0.1 h -3.6 l 1.1,-1.1 v 6.9 l -1.1,-1.1 h 3.6 z"
   id="path16" />
						<path
   class="st3"
   d="m 686.4,580.1 h 2.5 v 12.5 h -2.5 z"
   id="path17" />
						<path
   class="st3"
   d="m 698.8,580.1 c 1,0 1.8,0.2 2.6,0.5 0.8,0.3 1.5,0.7 2.1,1.3 0.6,0.6 1,1.2 1.3,2 0.3,0.8 0.5,1.6 0.5,2.5 0,0.9 -0.2,1.7 -0.5,2.5 -0.3,0.8 -0.8,1.4 -1.4,2 -0.6,0.6 -1.3,1 -2.1,1.3 -0.8,0.3 -1.7,0.5 -2.7,0.5 h -5.1 v -12.5 h 5.3 z m 0.1,10.4 c 0.6,0 1.1,-0.1 1.6,-0.3 0.5,-0.2 0.9,-0.5 1.2,-0.9 0.3,-0.4 0.6,-0.8 0.8,-1.3 0.2,-0.5 0.3,-1.1 0.3,-1.7 0,-0.6 -0.1,-1.2 -0.3,-1.7 -0.2,-0.5 -0.5,-1 -0.8,-1.3 -0.4,-0.4 -0.8,-0.7 -1.3,-0.9 -0.5,-0.2 -1,-0.3 -1.6,-0.3 h -2.7 v 8.3 h 2.8 z"
   id="path18" />
						<path
   class="st3"
   d="m 717,583.3 c -0.3,-0.2 -0.6,-0.3 -0.9,-0.5 -0.3,-0.1 -0.6,-0.3 -1,-0.4 -0.3,-0.1 -0.7,-0.2 -1,-0.3 -0.3,-0.1 -0.6,-0.1 -1,-0.1 -0.2,0 -0.4,0 -0.6,0.1 -0.2,0 -0.4,0.1 -0.6,0.2 -0.2,0.1 -0.3,0.2 -0.4,0.4 -0.1,0.2 -0.2,0.4 -0.2,0.6 0,0.3 0.1,0.6 0.3,0.8 0.2,0.2 0.4,0.4 0.8,0.5 0.3,0.2 0.7,0.3 1.1,0.4 0.4,0.1 0.8,0.2 1.2,0.4 0.4,0.2 0.8,0.3 1.2,0.5 0.4,0.2 0.8,0.4 1.1,0.7 0.3,0.3 0.6,0.6 0.8,1 0.2,0.4 0.3,0.9 0.3,1.4 0,0.7 -0.1,1.2 -0.4,1.7 -0.3,0.5 -0.7,0.9 -1.1,1.2 -0.5,0.3 -1,0.5 -1.5,0.7 -0.6,0.1 -1.2,0.2 -1.7,0.2 -0.5,0 -1,0 -1.5,-0.1 -0.5,-0.1 -1,-0.2 -1.4,-0.4 -0.5,-0.2 -0.9,-0.4 -1.3,-0.6 -0.4,-0.2 -0.8,-0.5 -1.2,-0.8 l 1,-2 c 0.3,0.3 0.6,0.5 0.9,0.7 0.3,0.2 0.7,0.4 1.1,0.6 0.4,0.2 0.8,0.3 1.2,0.4 0.4,0.1 0.8,0.1 1.2,0.1 0.2,0 0.5,0 0.7,-0.1 0.2,0 0.5,-0.1 0.7,-0.2 0.2,-0.1 0.4,-0.3 0.5,-0.4 0.1,-0.2 0.2,-0.4 0.2,-0.7 0,-0.3 -0.1,-0.6 -0.3,-0.8 -0.2,-0.2 -0.4,-0.4 -0.8,-0.6 -0.3,-0.2 -0.7,-0.3 -1.1,-0.4 -0.4,-0.1 -0.8,-0.2 -1.2,-0.4 -0.4,-0.2 -0.8,-0.3 -1.2,-0.5 -0.4,-0.2 -0.8,-0.4 -1.1,-0.7 -0.3,-0.3 -0.6,-0.6 -0.8,-1 -0.2,-0.4 -0.3,-0.9 -0.3,-1.4 0,-0.6 0.1,-1.2 0.4,-1.6 0.3,-0.4 0.6,-0.8 1.1,-1.1 0.4,-0.3 0.9,-0.5 1.5,-0.6 0.6,-0.1 1.1,-0.2 1.7,-0.2 0.4,0 0.8,0 1.2,0.1 0.4,0.1 0.8,0.1 1.2,0.3 0.4,0.1 0.8,0.3 1.1,0.4 0.3,0.1 0.7,0.4 1,0.6 z"
   id="path19" />
						<path
   class="st3"
   d="m 728.4,580.1 h 2.5 v 10.4 h 5.4 v 2.1 h -7.9 z"
   id="path20" />
						<path
   class="st3"
   d="m 748.2,580.4 c 0.8,0.3 1.5,0.8 2.1,1.3 0.6,0.5 1.1,1.2 1.4,2 0.3,0.8 0.5,1.6 0.5,2.5 0,0.9 -0.2,1.7 -0.5,2.5 -0.3,0.8 -0.8,1.5 -1.4,2 -0.6,0.5 -1.3,1 -2.1,1.4 -0.8,0.3 -1.7,0.5 -2.6,0.5 -0.9,0 -1.8,-0.2 -2.6,-0.5 -0.8,-0.3 -1.5,-0.8 -2.1,-1.4 -0.6,-0.6 -1.1,-1.3 -1.4,-2 -0.3,-0.8 -0.5,-1.6 -0.5,-2.5 0,-0.9 0.2,-1.8 0.5,-2.5 0.3,-0.8 0.8,-1.5 1.4,-2 0.6,-0.6 1.3,-1 2.1,-1.3 0.8,-0.3 1.7,-0.5 2.6,-0.5 0.9,0.1 1.8,0.2 2.6,0.5 z m -4.2,2 c -0.5,0.2 -0.9,0.5 -1.3,0.9 -0.4,0.4 -0.7,0.8 -0.9,1.4 -0.2,0.5 -0.3,1.1 -0.3,1.7 0,0.6 0.1,1.2 0.3,1.7 0.2,0.5 0.5,1 0.9,1.4 0.4,0.4 0.8,0.7 1.3,0.9 0.5,0.2 1,0.3 1.6,0.3 0.6,0 1.1,-0.1 1.6,-0.3 0.5,-0.2 0.9,-0.5 1.3,-0.9 0.4,-0.4 0.7,-0.8 0.9,-1.4 0.2,-0.5 0.3,-1.1 0.3,-1.7 0,-0.6 -0.1,-1.2 -0.3,-1.7 -0.2,-0.5 -0.5,-1 -0.9,-1.4 -0.4,-0.4 -0.8,-0.7 -1.3,-0.9 -0.5,-0.2 -1,-0.3 -1.6,-0.3 -0.6,0 -1.1,0.1 -1.6,0.3 z"
   id="path21" />
						<path
   class="st3"
   d="m 765,583.7 c -0.2,-0.3 -0.5,-0.5 -0.7,-0.7 -0.3,-0.2 -0.5,-0.4 -0.8,-0.5 -0.3,-0.1 -0.6,-0.2 -0.9,-0.3 -0.3,-0.1 -0.6,-0.1 -0.9,-0.1 -0.6,0 -1.1,0.1 -1.6,0.3 -0.5,0.2 -0.9,0.5 -1.3,0.9 -0.4,0.4 -0.7,0.8 -0.9,1.3 -0.2,0.5 -0.3,1.1 -0.3,1.7 0,0.6 0.1,1.1 0.3,1.7 0.2,0.5 0.5,1 0.9,1.4 0.4,0.4 0.8,0.7 1.3,0.9 0.5,0.2 1,0.3 1.6,0.3 0.3,0 0.6,0 0.9,-0.1 0.3,-0.1 0.6,-0.2 0.9,-0.3 0.3,-0.1 0.6,-0.3 0.8,-0.5 0.2,-0.2 0.5,-0.4 0.8,-0.6 l 1.5,1.5 c -0.3,0.3 -0.7,0.6 -1.1,0.9 -0.4,0.3 -0.8,0.5 -1.2,0.7 -0.4,0.2 -0.9,0.3 -1.3,0.4 -0.5,0.1 -0.9,0.2 -1.3,0.2 -0.9,0 -1.8,-0.2 -2.6,-0.5 -0.8,-0.3 -1.5,-0.8 -2.1,-1.4 -0.6,-0.6 -1,-1.3 -1.4,-2 -0.3,-0.8 -0.5,-1.6 -0.5,-2.5 0,-0.9 0.2,-1.7 0.5,-2.5 0.3,-0.8 0.8,-1.5 1.4,-2 0.6,-0.5 1.3,-1 2.1,-1.3 0.8,-0.3 1.7,-0.5 2.6,-0.5 0.4,0 0.9,0 1.3,0.1 0.4,0.1 0.9,0.2 1.3,0.4 0.4,0.2 0.8,0.4 1.2,0.6 0.4,0.2 0.7,0.5 1,0.8 z"
   id="path22" />
						<path
   class="st3"
   d="m 774,580.1 h 2.6 l 5.4,12.5 h -2.7 l -4.1,-10 -4.1,10 h -2.6 z m -2.5,7.8 h 7.4 v 2 h -7.4 z"
   id="path23" />
						<path
   class="st3"
   d="m 785.1,580.1 h 2.5 v 10.4 h 5.4 v 2.1 h -7.9 z"
   id="path24" />
						<path
   class="st3"
   d="m 808.2,580.1 c 1,0 1.8,0.2 2.6,0.5 0.8,0.3 1.5,0.7 2.1,1.3 0.6,0.6 1,1.2 1.3,2 0.3,0.8 0.5,1.6 0.5,2.5 0,0.9 -0.2,1.7 -0.5,2.5 -0.3,0.8 -0.8,1.4 -1.4,2 -0.6,0.6 -1.3,1 -2.1,1.3 -0.8,0.3 -1.7,0.5 -2.7,0.5 h -5.1 v -12.5 h 5.3 z m 0,10.4 c 0.6,0 1.1,-0.1 1.6,-0.3 0.5,-0.2 0.9,-0.5 1.2,-0.9 0.3,-0.4 0.6,-0.8 0.8,-1.3 0.2,-0.5 0.3,-1.1 0.3,-1.7 0,-0.6 -0.1,-1.2 -0.3,-1.7 -0.2,-0.5 -0.5,-1 -0.8,-1.3 -0.4,-0.4 -0.8,-0.7 -1.3,-0.9 -0.5,-0.2 -1,-0.3 -1.6,-0.3 h -2.7 v 8.3 h 2.8 z"
   id="path25" />
						<path
   class="st3"
   d="m 818.4,580.1 h 9.3 v 2.1 H 821 v 3.1 h 6 v 2.1 h -6 v 3.2 h 6.9 v 2.1 h -9.5 z"
   id="path26" />
						<path
   class="st3"
   d="m 835.9,580.1 h 2.6 l 5.4,12.5 h -2.7 l -4.1,-10 -4.1,10 h -2.6 z m -2.6,7.8 h 7.4 v 2 h -7.4 z"
   id="path27" />
						<path
   class="st3"
   d="m 847,580.1 h 2.5 v 10.4 h 5.4 v 2.1 H 847 Z"
   id="path28" />
						<path
   class="st3"
   d="m 866.4,583.3 c -0.3,-0.2 -0.6,-0.3 -0.9,-0.5 -0.3,-0.2 -0.6,-0.3 -1,-0.4 -0.4,-0.1 -0.7,-0.2 -1,-0.3 -0.3,-0.1 -0.7,-0.1 -1,-0.1 -0.2,0 -0.4,0 -0.6,0.1 -0.2,0 -0.4,0.1 -0.6,0.2 -0.2,0.1 -0.3,0.2 -0.4,0.4 -0.1,0.2 -0.2,0.4 -0.2,0.6 0,0.3 0.1,0.6 0.3,0.8 0.2,0.2 0.4,0.4 0.8,0.5 0.3,0.2 0.7,0.3 1.1,0.4 0.4,0.1 0.8,0.2 1.2,0.4 0.4,0.1 0.8,0.3 1.2,0.5 0.4,0.2 0.8,0.4 1.1,0.7 0.3,0.3 0.6,0.6 0.8,1 0.2,0.4 0.3,0.9 0.3,1.4 0,0.7 -0.1,1.2 -0.4,1.7 -0.3,0.5 -0.7,0.9 -1.1,1.2 -0.5,0.3 -1,0.5 -1.5,0.7 -0.6,0.1 -1.2,0.2 -1.7,0.2 -0.5,0 -1,0 -1.5,-0.1 -0.5,-0.1 -1,-0.2 -1.4,-0.4 -0.5,-0.2 -0.9,-0.4 -1.3,-0.6 -0.4,-0.2 -0.8,-0.5 -1.2,-0.8 l 1,-2 c 0.3,0.3 0.6,0.5 0.9,0.7 0.3,0.2 0.7,0.4 1.1,0.6 0.4,0.2 0.8,0.3 1.2,0.4 0.4,0.1 0.8,0.1 1.2,0.1 0.2,0 0.5,0 0.7,-0.1 0.2,-0.1 0.5,-0.1 0.7,-0.2 0.2,-0.1 0.4,-0.3 0.5,-0.4 0.1,-0.2 0.2,-0.4 0.2,-0.7 0,-0.3 -0.1,-0.6 -0.3,-0.8 -0.2,-0.2 -0.4,-0.4 -0.8,-0.6 -0.3,-0.2 -0.7,-0.3 -1.1,-0.4 -0.4,-0.1 -0.8,-0.2 -1.2,-0.4 -0.4,-0.1 -0.8,-0.3 -1.2,-0.5 -0.4,-0.2 -0.8,-0.4 -1.1,-0.7 -0.3,-0.3 -0.6,-0.6 -0.8,-1 -0.2,-0.4 -0.3,-0.9 -0.3,-1.4 0,-0.6 0.1,-1.2 0.4,-1.6 0.3,-0.4 0.6,-0.8 1.1,-1.1 0.4,-0.3 0.9,-0.5 1.5,-0.6 0.6,-0.1 1.1,-0.2 1.7,-0.2 0.4,0 0.8,0 1.2,0.1 0.4,0.1 0.8,0.1 1.2,0.3 0.4,0.1 0.8,0.3 1.1,0.4 0.3,0.1 0.7,0.4 1,0.6 z"
   id="path29" />
					</g>
				</g>
			</g>
			<rect
   x="879.70001"
   y="584.79999"
   class="st4"
   width="35.400002"
   height="3.3"
   id="rect31" />
			<rect
   x="513"
   y="584.79999"
   class="st4"
   width="35.400002"
   height="3.3"
   id="rect32" />
		</g>
	</g>
	<path
   class="st5"
   d="m 250.00127,478.05769 c -0.16175,-0.0402 -0.3235,-0.0402 -0.48521,-0.0809 0.16175,0.0403 0.3235,0.0403 0.48521,0.0809 z"
   id="path33"
   style="stroke-width:0.404326" />
	<path
   class="st6"
   d="m 230.5532,478.42159 c -0.4043,-0.44473 -1.17253,-0.7682 -1.25337,-0.80863 0.202,0.0402 0.4043,0.0809 0.56605,0.16175 0.3235,0.20199 0.52561,0.40433 0.68732,0.64692 z"
   id="path34"
   style="stroke-width:0.404326" />
	<g
   id="g46"
   transform="matrix(3.7969531,0,0,3.7969531,-437.44346,-1219.319)">
		<path
   class="st4"
   d="m 173.74669,438.32591 -0.91579,1.16071 -1.6186,2.15103 v 0 c -1.00097,-0.70282 -1.98065,-1.26719 -3.51406,-1.46952 -0.12778,-0.0213 -1.01162,-0.0106 -1.02227,-0.0106 -2.58763,0.20233 -4.62153,2.12974 -4.62153,4.7919 0,2.64087 2.08714,4.71737 4.78126,4.74931 l 0.0106,3.26914 h -0.35141 v -1.21394 l -0.21297,-0.21298 h -0.394 v -0.30881 l -0.0958,-0.18103 -0.75606,-0.50048 v -0.20233 l -0.21297,-0.21297 h -0.15973 l -0.21297,0.21297 v 0.20233 l -0.88384,0.55373 -0.10649,0.18102 v 0.81995 l -0.0213,-0.0213 c -0.0639,-0.0639 -0.17038,-0.13843 -0.34076,-0.13843 -0.11713,0 -0.23427,0.0319 -0.34075,0.0745 v -3.45017 l -0.21298,-0.21297 h -0.19167 l -0.40465,-0.48984 -0.17038,-0.0745 h -0.17038 v -0.12778 l -0.21297,-0.21298 h -0.0745 l -0.21298,0.21298 v 0.11713 h -0.12778 l -0.13843,0.0532 -0.69217,0.58568 -0.0745,0.17038 c 0.0106,0.75606 0.0213,1.81027 0.0213,2.57698 -1.70379,-1.576 -2.76866,-3.81223 -2.7793,-6.29337 -0.0106,-3.92936 2.07649,-6.94293 6.16558,-8.36985 3.23719,-1.03292 5.80352,-0.31946 5.80352,-0.31946 2.8006,0.59632 4.4618,2.14038 4.4618,2.14038 z"
   id="path35"
   sodipodi:nodetypes="cccsccscccccccccccccccccssccccccccccccccccccccc"
   style="stroke-width:0.106487" />
		<path
   class="st4"
   d="m 173.86382,443.57571 v 3.41822 0 4.15298 l -0.84124,-0.51113 v -0.0213 l -0.21298,-0.21298 h -0.19167 l -0.21298,0.20233 v 0.0319 l -0.83059,0.56437 -0.0958,0.18103 v 0.72411 l -0.52179,-0.394 h -0.26621 l -0.70281,0.53243 v -2.72606 l -0.20233,-0.21297 c -0.0958,-0.0106 -0.10649,-0.0426 -0.13843,-0.0958 v -0.0106 c -0.0106,-0.0213 -0.0213,-0.0426 -0.0319,-0.0532 0.0426,-0.0213 0.0852,-0.0532 0.11714,-0.0745 v -2.07649 h -3.36498 v -3.41822 z"
   id="path36"
   style="stroke-width:0.106487" />
		<path
   class="st3"
   d="m 185.47088,451.97751 h -0.44725 c 0,0 -0.90514,-1.54406 -2.4066,-2.93904 -0.22362,-0.20232 -0.44724,-0.40465 -0.69216,-0.59632 0,0 -0.8519,-1.81028 -0.67087,-2.65152 0,0 0.0852,-0.4153 0.44725,-0.48984 0.36205,-0.0745 0.69216,0.0958 1.03292,0.50049 0.14908,0.17038 0.38335,0.48984 0.67086,0.99032 0.38335,0.64957 0.84125,1.60795 1.29914,2.92839 0,0 0.21297,0.70281 0.45789,1.38433 0.0958,0.28751 0.0639,0.59632 0.30882,0.87319 z"
   id="path37"
   style="stroke-width:0.106487" />
		<path
   class="st3"
   d="m 174.30042,450.90199 v -4.05714 c 0,0 1.29914,0.47919 2.60892,0.30881 -0.56438,0.50049 -1.02227,1.02227 -1.40562,1.576 -0.38335,0.55373 -0.70281,1.13941 -1.01163,1.74639 z"
   id="path38"
   style="stroke-width:0.106487" />
		<g
   id="g40"
   transform="matrix(0.10648672,0,0,0.10648672,139.74548,389.52305)">
			<path
   class="st3"
   d="m 436.5,540.5 v 0 c -0.4,-0.5 -0.8,-0.9 -1.1,-1.3 v 0 c 14.9,-6 26.8,-25.5 26.8,-46.6 0,-20.6 -9.7,-45.1 -45.2,-52.2 -8.1,-1.6 -36.8,-1.6 -36.8,-1.6 h -55.6 v 99.5 c 0,0 48.3,-2.6 79.7,-49 -0.4,0.4 -13.1,13 -20.9,17.5 0,0 -13.6,8.3 -34.3,12.4 3.1,-8.4 6.3,-22.5 7.1,-45.8 0,0 3.2,-2.6 7.6,8.3 4.4,10.9 6.1,20.1 7.1,20.7 0,0 -2.2,0.5 -7.7,-1.9 l -0.3,3.9 c 0,0 5.2,0 8.1,-1.5 0,0 12.4,0.6 13.3,-14.3 0,0 -0.1,-9.7 5.1,-2.2 0,0 4.6,7.7 8.7,-0.4 3.4,-6.8 5.3,-18.1 5.3,-18.1 1.8,-6.5 2.5,-7.9 2.5,-7.9 4.6,-10.7 6.7,-0.5 6.7,-0.5 l 2.3,13 3.7,24.5 7.9,48.6 6.3,40.7 3.1,10.9 h 6.7 v -1.3 l 2,-2 h 18 l 2,2 v 1.2 c 8.5,0 15.6,0 15.5,0.1 0.2,0 -30.7,-41 -43.6,-56.7 z"
   id="path39"
   sodipodi:nodetypes="sssssccccccccsccccccccccccccccccccccs" />
			<path
   class="st3"
   d="m 369.2,517.6 c 0,0 -18.2,11.3 -27,13.1 0.2,-0.1 3.4,-2.5 6.8,-11.5 0.9,0.3 8,3.3 20.2,-1.6 z"
   id="path40" />
		</g>
		<path
   class="st3"
   d="m 183.94812,443.32014 -1.6186,1.00097 c 0,0 -2.11909,1.00098 -2.76866,1.57601 -0.394,0.3514 -2.41725,1.75703 -3.14136,5.01552 h -0.0106 l -0.26622,0.0106 -0.55373,0.44724 c 0.36205,-1.10746 1.02227,-2.8006 2.04454,-4.13168 1.65055,-2.14038 4.05715,-2.8432 6.31467,-3.91871 z"
   id="path41"
   style="stroke-width:0.106487" />
		<path
   class="st3"
   d="m 181.16881,452.76551 -0.31946,-0.0319 c 0,0 0,0 0,0 -0.12778,-0.0852 -0.28751,-0.12778 -0.43659,-0.15973 v -2.51308 l -0.21298,-0.21298 h -0.11713 c -0.12779,-0.394 -0.4366,-0.58567 -0.69217,-0.66021 v -0.35141 l -0.21297,-0.21297 h -0.15973 l -0.21297,0.21297 v 0.36205 c -0.46855,0.14909 -0.68152,0.44725 -0.76671,0.63892 h -0.14908 l -0.10649,0.10649 c 0.12779,-0.81995 0.31946,-1.68249 0.57503,-2.31076 0,0 1.02227,-1.02227 2.43855,0 0.0319,0.0213 0.0532,0.0639 0.0639,0.10649 0.0213,0.59632 0.23427,4.57893 0.30881,5.02617 z"
   id="path42"
   style="stroke-width:0.106487" />
		<path
   class="st5"
   d="m 179.95486,457.88752 c -2.364,0.27687 -7.62445,-1.37368 -7.62445,-1.37368 -4.28076,-1.2246 -9.67964,0.0319 -9.67964,0.0319 -1.78898,0.47919 -6.25077,1.52276 -6.25077,1.52276 11.2024,-4.88774 16.96333,-2.71541 16.96333,-2.71541 0.11714,0.0213 0.22363,0.0426 0.31947,0.0639 -0.15974,-0.0106 -0.28752,-0.0213 -0.37271,-0.0213 -0.42595,0 4.56828,1.89547 6.64477,2.49179 z"
   id="path43"
   style="stroke-width:0.106487" />
		<path
   class="st9"
   d="m 193.06338,454.02205 v 1.85287 c -0.0426,0 -0.0213,0 -0.0639,0.0106 -0.15973,-0.77735 -0.53244,-1.11811 -0.81995,-1.26719 -0.26622,-0.13843 -0.59633,-0.12779 -0.86254,0.0213 -0.60698,0.3514 -0.73476,1.19265 -0.76671,1.49081 -0.0958,0 -0.20232,0 -0.29816,0 -0.11714,-0.92643 -0.51114,-1.32044 -0.8306,-1.50146 -0.29816,-0.15973 -0.66022,-0.13844 -0.94773,0.0426 -0.43659,0.28752 -0.60697,0.84125 -0.67087,1.2033 -0.12778,-0.0213 -0.25556,-0.0426 -0.38335,-0.0745 -0.15973,-0.70281 -0.50049,-1.03292 -0.788,-1.182 -0.29816,-0.15973 -0.64957,-0.13843 -0.92643,0.0532 -0.19168,0.11714 -0.31946,0.28752 -0.42595,0.46854 -0.46854,-0.18102 -1.576,-0.56438 -2.59828,-0.61762 0,0 -1.51211,-0.20232 -2.43854,0.29816 0,0 1.6186,0.0639 1.88481,0.50049 0.0213,0.0319 0.0213,0.0852 0,0.11714 -0.0532,0.0745 -0.21297,0.18102 -0.68151,0.0958 0,0 -0.55373,-0.0639 -1.08617,-0.25556 0,0 -3.54601,-1.42693 -6.92163,-0.8306 0,0 1.71443,0.20232 2.33205,0.64957 0.0213,0 0.0426,0.0106 0.0533,0.0106 -0.0213,0 -0.0426,-0.0106 -0.0533,-0.0106 0.0746,0.0532 0.13844,0.11713 0.17038,0.17038 0.0532,0.0532 0.0852,0.11713 0.0426,0.18103 -0.0213,0.0213 -0.0532,0.0532 -0.0958,0.0745 -0.0213,0.0106 -0.0319,0.0106 -0.0532,0.0213 0,0 -0.0319,0 -0.0852,-0.0106 0,0 0,0 0,0 -0.30881,-0.0426 -1.40563,-0.21297 -2.04455,-0.26621 v 0 c -0.10648,-0.0213 -0.21297,-0.0426 -0.31946,-0.0639 0,0 -5.1646,-1.94871 -15.2489,2.01259 v -1.11811 -2.01259 l 0.0213,-2.98163 0.63892,-0.55373 v -0.15973 h 0.20233 l 0.0213,0.15973 0.72411,0.55373 v 0.95838 c 0,0 0.4153,-0.20233 0.57503,0.18102 0.0213,0.0426 0.0213,-0.3514 0.0213,-0.89448 0,-1.08617 -0.0213,-2.77931 -0.0213,-2.77931 l 0.69217,-0.58567 h 0.34075 v -0.33011 h 0.0745 v 0.33011 h 0.38336 l 0.46854,0.57502 h 0.28751 v 3.81223 c 0,0 0.87319,-0.61762 0.8093,0.19167 v 0.12779 h 0.31946 v -1.42692 l 0.97968,-0.61763 v -0.31946 h 0.15973 v 0.31946 l 0.85189,0.56438 v 0.52179 h 0.61763 v 1.42692 h 0.788 l -0.0106,-3.49276 v -0.23427 c 0.10648,-0.0213 0.18103,-0.0639 0.24492,-0.12779 0.0639,-0.0639 0.11713,-0.13843 0.15973,-0.23427 0.0958,-0.20232 0.3514,-0.44724 0.7667,-0.42595 v -0.788 l 0.0958,-0.19167 0.0958,0.19167 v 0.788 c 0,0 0.59632,-0.11713 0.99032,0.58568 0.0106,0.0213 0.0213,0.0319 0.032,0.0532 0.0319,0.0639 0.0958,0.20233 0.30881,0.22363 v 3.57795 h 0.29817 v -0.63892 l 0.75605,-0.56438 0.73476,0.55373 v 0.54308 h 0.13843 v -1.5973 l 0.92644,-0.62827 0.0106,-0.13843 h 0.19167 v 0.13843 l 1.01163,0.62827 v 0.84125 c 0,0 0.0106,0 0.0426,-0.0106 0.19168,-0.0319 0.99033,-0.0958 0.89449,0.7667 h 0.18103 v 0.17038 h 0.44724 v -1.30978 l 0.0958,-0.0852 0.8093,-0.66022 0.0852,0.0639 0.90513,0.67087 v 1.11811 h 0.37271 l 0.23427,0.18102 v -3.07746 h 0.29816 c 0,0 0.0852,-0.54308 0.81995,-0.69217 v -0.53243 h 0.15973 v 0.53243 c 0,0 0.63892,0.0426 0.73476,0.69217 h 0.29816 v 2.71541 c 0,0 0.72411,-0.0319 0.8306,0.57503 v 0.93708 h 0.23427 c 0,0 0.30881,-0.73476 0.70281,-0.0426 h 0.15973 v -1.25655 l 1.29914,-0.77735 1.12876,0.77735 0.0106,1.04357 h 2.54503 v -1.07551 h 1.91676 v 1.05422 h 4.01455 z"
   id="path44"
   style="stroke-width:0.106487" />
		<path
   class="st7"
   d="m 193.95787,455.74714 c -0.44725,0.31946 -0.89449,0.59632 -1.34174,0.83059 -0.81994,0.19168 -3.32238,0.60698 -6.47439,-0.36205 0,0 1.11811,1.01162 -2.19362,-0.14908 0,0 0.55373,1.10746 -1.09682,0.54308 0,0 1.2459,1.48017 -3.91871,-0.8306 0,0 -0.0745,0.29817 0.8093,1.06487 0,0 -1.58665,0.0213 -2.83255,-1.50146 0,0 -0.20232,0.10649 -1.1607,-0.12779 -0.61763,-0.43659 -2.33206,-0.64956 -2.33206,-0.64956 3.37563,-0.59633 6.92164,0.83059 6.92164,0.83059 0.53243,0.19168 1.08616,0.25557 1.08616,0.25557 0.46854,0.0745 0.62827,-0.0213 0.68151,-0.10649 0.0213,-0.0319 0.0213,-0.0852 0,-0.11713 -0.26621,-0.4366 -1.88481,-0.50049 -1.88481,-0.50049 0.92643,-0.50049 2.43855,-0.29816 2.43855,-0.29816 1.33108,0.0639 2.82189,0.70281 2.82189,0.70281 0.68152,0.25557 1.60795,0.50049 1.60795,0.50049 4.18493,0.96903 6.8045,-0.0532 6.8684,-0.0852 z"
   id="path45"
   style="stroke-width:0.106487" />
		<path
   class="st8"
   d="m 192.61613,456.58838 c -4.05714,2.11909 -8.02909,0.81995 -8.02909,0.81995 -0.81995,0.63892 -1.92741,0.74541 -2.80061,0.69216 -0.0426,0 -0.0852,-0.0106 -0.13843,-0.0106 -0.12778,-0.0106 -0.25557,-0.0213 -0.3727,-0.0426 -0.0319,0 -0.0532,-0.0106 -0.0745,-0.0106 -0.0532,-0.0106 -0.0958,-0.0106 -0.13844,-0.0213 -0.0426,-0.0106 -0.0852,-0.0106 -0.12778,-0.0213 -0.0106,0 -0.0213,0 -0.0319,-0.0106 -0.0213,0 -0.0426,-0.0106 -0.0639,-0.0106 -0.0426,-0.0106 -0.0852,-0.0213 -0.12778,-0.0213 -0.0213,0 -0.0319,-0.0106 -0.0532,-0.0106 -0.0213,0 -0.0319,-0.0106 -0.0532,-0.0106 0,0 -0.0106,0 -0.0106,0 -0.0106,0 -0.0319,-0.0106 -0.0426,-0.0106 -0.17038,-0.0426 -0.27687,-0.0745 -0.27687,-0.0745 -0.0958,0.0213 -0.20232,0.0426 -0.31946,0.0532 -2.07649,-0.59633 -7.08136,-2.49179 -6.64477,-2.50244 0.0852,0 0.21297,0 0.37271,0.0213 v 0 c 0.63892,0.0532 1.73573,0.22362 2.04454,0.26622 0,0 0,0 0,0 0.0532,0.0106 0.0852,0.0106 0.0852,0.0106 0.0213,-0.0106 0.0426,-0.0106 0.0532,-0.0213 0.0532,-0.0213 0.0852,-0.0532 0.0958,-0.0745 0.0426,-0.0532 0.0106,-0.11714 -0.0426,-0.18103 -0.0426,-0.0639 -0.0958,-0.11714 -0.17038,-0.18103 0.94773,0.22362 1.1607,0.12779 1.1607,0.12779 1.2459,1.52276 2.83255,1.50146 2.83255,1.50146 -0.88384,-0.76671 -0.8093,-1.06487 -0.8093,-1.06487 5.16461,2.32141 3.91871,0.8306 3.91871,0.8306 1.65055,0.56438 1.09682,-0.54308 1.09682,-0.54308 3.31173,1.1607 2.19362,0.14908 2.19362,0.14908 3.15201,0.95838 5.65445,0.53243 6.47439,0.3514 z"
   id="path46"
   style="stroke-width:0.106487" />
	</g>
</g>
</svg>
