<?xml version="1.0" encoding="UTF-8" standalone="no"?>
<!-- Generator: Adobe Illustrator 27.3.1, SVG Export Plug-In . SVG Version: 6.00 Build 0)  -->

<svg
   version="1.1"
   id="Layer_1"
   x="0px"
   y="0px"
   viewBox="0 0 310.36856 85.000015"
   xml:space="preserve"
   sodipodi:docname="logo-horizontal-light.svg"
   width="310.36856"
   height="85.000015"
   inkscape:version="1.4.2 (f4327f4, 2025-05-13)"
   xmlns:inkscape="http://www.inkscape.org/namespaces/inkscape"
   xmlns:sodipodi="http://sodipodi.sourceforge.net/DTD/sodipodi-0.dtd"
   xmlns="http://www.w3.org/2000/svg"
   xmlns:svg="http://www.w3.org/2000/svg"><defs
   id="defs47" /><sodipodi:namedview
   id="namedview47"
   pagecolor="#ffffff"
   bordercolor="#000000"
   borderopacity="0.25"
   inkscape:showpageshadow="2"
   inkscape:pageopacity="0.0"
   inkscape:pagecheckerboard="0"
   inkscape:deskcolor="#d1d1d1"
   inkscape:zoom="1.63"
   inkscape:cx="381.59509"
   inkscape:cy="102.14724"
   inkscape:window-width="1920"
   inkscape:window-height="1129"
   inkscape:window-x="-8"
   inkscape:window-y="-8"
   inkscape:window-maximized="1"
   inkscape:current-layer="g46" />
<style
   type="text/css"
   id="style1">
	.st0{fill:#011634;}
	.st1{fill:none;stroke:#FDC91B;stroke-miterlimit:10;}
	.st2{fill:#2076B7;}
	.st3{fill:#EF3823;}
	.st4{fill:#FDC91B;}
	.st5{fill:#FFB02E;}
	.st6{opacity:0;fill:#C8DEEB;}
	.st7{fill:#2078B7;}
	.st8{fill:#C8DEEB;}
	.st9{fill:#FFFFFF;}
</style>

<g
   id="g47"
   transform="translate(-156.4,-435.94544)">
	<g
   id="g33"
   transform="matrix(0.40832602,0,0,0.40832602,92.537749,257.93741)">
		<g
   id="g9">
			<g
   id="g8">
				<path
   class="st9"
   d="m 551.5,532.9 c -1.2,-0.7 -2.5,-1.4 -3.9,-2 -1.4,-0.6 -2.8,-1.2 -4.2,-1.7 -1.4,-0.5 -2.9,-0.9 -4.2,-1.2 -1.4,-0.3 -2.7,-0.4 -3.8,-0.4 -0.6,0 -1.3,0.1 -1.9,0.2 -0.6,0.1 -1.2,0.3 -1.6,0.6 -0.5,0.3 -0.9,0.7 -1.2,1.1 -0.3,0.4 -0.4,1 -0.4,1.7 0,1.1 0.4,2 1.1,2.7 0.8,0.7 1.8,1.3 3,1.8 1.2,0.5 2.7,1 4.2,1.4 1.6,0.4 3.2,0.9 4.8,1.5 1.6,0.6 3.3,1.2 4.9,1.9 1.6,0.7 3,1.7 4.2,2.8 1.2,1.1 2.2,2.5 3,4.1 0.8,1.6 1.1,3.6 1.1,5.9 0,2.7 -0.6,5.1 -1.7,7 -1.1,2 -2.6,3.6 -4.5,4.9 -1.9,1.3 -4,2.2 -6.5,2.8 -2.5,0.6 -4.9,0.9 -7.5,0.9 -2.1,0 -4.1,-0.2 -6.2,-0.5 -2.1,-0.4 -4.2,-0.9 -6.2,-1.6 -2,-0.7 -3.9,-1.5 -5.8,-2.6 -1.8,-1 -3.5,-2.2 -5.1,-3.4 l 5.2,-10.3 c 1.2,1.1 2.6,2.1 4.2,3 1.5,0.9 3.1,1.8 4.7,2.5 1.6,0.7 3.3,1.2 4.9,1.6 1.6,0.4 3.1,0.6 4.5,0.6 0.8,0 1.5,-0.1 2.3,-0.2 0.7,-0.1 1.4,-0.4 2,-0.7 0.6,-0.3 1.1,-0.8 1.4,-1.3 0.3,-0.5 0.5,-1.2 0.5,-2 0,-1.1 -0.4,-2 -1.1,-2.7 -0.7,-0.7 -1.8,-1.3 -3,-1.8 -1.2,-0.5 -2.7,-1 -4.2,-1.4 -1.5,-0.4 -3.2,-0.9 -4.9,-1.4 -1.7,-0.5 -3.3,-1.1 -4.9,-1.8 -1.6,-0.7 -3,-1.6 -4.2,-2.7 -1.2,-1.1 -2.2,-2.4 -3,-4 -0.8,-1.6 -1.1,-3.5 -1.1,-5.7 0,-2.5 0.5,-4.8 1.6,-6.7 1.1,-1.9 2.5,-3.5 4.3,-4.9 1.8,-1.3 4,-2.3 6.4,-3 2.5,-0.7 5.1,-1 7.9,-1 1.8,0 3.6,0.1 5.4,0.4 1.8,0.3 3.6,0.6 5.3,1.1 1.7,0.5 3.4,1.1 5,1.8 1.6,0.7 3.1,1.5 4.4,2.4 z"
   id="path1" />
				<path
   class="st9"
   d="m 592.1,517.8 c 3.2,0 6.1,0.4 8.6,1.2 2.5,0.8 4.6,1.9 6.4,3.4 1.7,1.5 3,3.3 3.9,5.5 0.9,2.2 1.3,4.7 1.3,7.5 0,2.9 -0.4,5.6 -1.3,7.9 -0.9,2.3 -2.2,4.3 -3.9,5.9 -1.7,1.6 -3.9,2.8 -6.4,3.6 -2.5,0.8 -5.4,1.3 -8.6,1.3 h -14.6 l 5.8,-5.8 V 568 H 570 v -50.2 z m -0.7,25.8 c 1.3,0 2.5,-0.2 3.5,-0.5 1,-0.3 1.9,-0.8 2.6,-1.5 0.7,-0.7 1.2,-1.5 1.6,-2.5 0.4,-1 0.6,-2.1 0.6,-3.4 0,-1.2 -0.2,-2.3 -0.6,-3.3 -0.4,-1 -0.9,-1.7 -1.6,-2.3 -0.7,-0.6 -1.6,-1.1 -2.6,-1.4 -1,-0.3 -2.2,-0.5 -3.5,-0.5 h -14 l 5.8,-5.8 v 27 l -5.8,-5.8 z"
   id="path2" />
				<path
   class="st9"
   d="m 625.5,517.8 h 39.8 v 10.5 h -26.5 v 9.3 h 23.9 V 548 h -23.9 v 9.5 H 666 V 568 h -40.5 z"
   id="path3"
   sodipodi:nodetypes="ccccccccccccc" />
				<path
   class="st9"
   d="m 717.1,534.8 c -0.8,-1 -1.7,-2 -2.7,-2.8 -1,-0.8 -2,-1.5 -3.1,-2.1 -1.1,-0.6 -2.2,-1 -3.3,-1.3 -1.1,-0.3 -2.2,-0.5 -3.3,-0.5 -1.9,0 -3.7,0.4 -5.3,1.1 -1.6,0.7 -3,1.8 -4.2,3 -1.2,1.3 -2.2,2.8 -2.8,4.6 -0.6,1.8 -1,3.7 -1,5.8 0,2.1 0.3,4 1,5.8 0.7,1.8 1.6,3.3 2.8,4.6 1.2,1.3 2.6,2.3 4.2,3.1 1.6,0.7 3.4,1.1 5.3,1.1 1.1,0 2.1,-0.1 3.2,-0.4 1.1,-0.3 2.2,-0.7 3.2,-1.2 1.1,-0.5 2.1,-1.1 3.1,-1.9 1,-0.7 2,-1.5 2.8,-2.5 l 7.8,8.2 c -1.3,1.4 -2.8,2.7 -4.5,3.9 -1.6,1.2 -3.4,2.2 -5.2,3 -1.8,0.8 -3.6,1.5 -5.6,1.9 -1.9,0.5 -3.8,0.7 -5.7,0.7 -3.8,0 -7.3,-0.7 -10.5,-2 -3.2,-1.3 -6,-3.2 -8.4,-5.5 -2.3,-2.3 -4.2,-5.1 -5.5,-8.3 -1.3,-3.2 -2,-6.7 -2,-10.4 0,-3.7 0.7,-7.1 2,-10.3 1.4,-3.2 3.2,-5.9 5.6,-8.2 2.4,-2.3 5.2,-4.1 8.5,-5.4 3.3,-1.3 6.8,-2 10.7,-2 1.9,0 3.7,0.2 5.6,0.6 1.9,0.4 3.7,1 5.5,1.8 1.8,0.8 3.4,1.7 5,2.7 1.6,1.1 3,2.3 4.2,3.6 z"
   id="path4" />
				<path
   class="st9"
   d="m 737.2,517.8 h 13.3 V 568 h -13.3 z"
   id="path5" />
				<path
   class="st9"
   d="M 783.4,517.8 H 797 l 21,50.2 h -14.2 l -14,-36.9 -14.3,36.9 h -13.7 z m -8.6,31.3 h 29.3 v 10 h -29.3 z"
   id="path6" />
				<path
   class="st9"
   d="m 829.3,517.8 h 13.3 v 39 h 21.2 V 568 h -34.6 v -50.2 z"
   id="path7" />
				<path
   class="st9"
   d="m 911.3,532.9 c -1.2,-0.7 -2.5,-1.4 -3.9,-2 -1.4,-0.6 -2.8,-1.2 -4.2,-1.7 -1.4,-0.5 -2.9,-0.9 -4.2,-1.2 -1.4,-0.3 -2.7,-0.4 -3.8,-0.4 -0.6,0 -1.3,0.1 -1.9,0.2 -0.6,0.1 -1.2,0.3 -1.6,0.6 -0.5,0.3 -0.9,0.7 -1.2,1.1 -0.3,0.4 -0.4,1 -0.4,1.7 0,1.1 0.4,2 1.1,2.7 0.7,0.7 1.8,1.3 3,1.8 1.2,0.5 2.7,1 4.2,1.4 1.6,0.4 3.2,0.9 4.8,1.5 1.7,0.5 3.3,1.2 4.9,1.9 1.6,0.7 3,1.7 4.2,2.8 1.2,1.1 2.2,2.5 3,4.1 0.8,1.6 1.1,3.6 1.1,5.9 0,2.7 -0.6,5.1 -1.7,7 -1.1,2 -2.6,3.6 -4.5,4.9 -1.9,1.3 -4,2.2 -6.5,2.8 -2.5,0.6 -4.9,0.9 -7.5,0.9 -2.1,0 -4.1,-0.2 -6.2,-0.5 -2.1,-0.4 -4.2,-0.9 -6.2,-1.6 -2,-0.7 -3.9,-1.5 -5.8,-2.6 -1.8,-1 -3.6,-2.2 -5.1,-3.4 l 5.2,-10.3 c 1.2,1.1 2.6,2.1 4.2,3 1.5,0.9 3.1,1.8 4.7,2.5 1.6,0.7 3.3,1.2 4.9,1.6 1.6,0.4 3.1,0.6 4.5,0.6 0.8,0 1.5,-0.1 2.3,-0.2 0.7,-0.1 1.4,-0.4 2,-0.7 0.6,-0.3 1.1,-0.8 1.4,-1.3 0.3,-0.5 0.5,-1.2 0.5,-2 0,-1.1 -0.4,-2 -1.1,-2.7 -0.7,-0.7 -1.8,-1.3 -3,-1.8 -1.2,-0.5 -2.7,-1 -4.2,-1.4 -1.6,-0.4 -3.2,-0.9 -4.9,-1.4 -1.6,-0.5 -3.3,-1.1 -4.9,-1.8 -1.6,-0.7 -3,-1.6 -4.2,-2.7 -1.2,-1.1 -2.2,-2.4 -3,-4 -0.8,-1.6 -1.1,-3.5 -1.1,-5.7 0,-2.5 0.5,-4.8 1.6,-6.7 1.1,-1.9 2.5,-3.5 4.3,-4.9 1.8,-1.3 4,-2.3 6.4,-3 2.4,-0.7 5.1,-1 7.9,-1 1.8,0 3.6,0.1 5.4,0.4 1.8,0.3 3.6,0.6 5.3,1.1 1.7,0.5 3.4,1.1 5,1.8 1.6,0.7 3.1,1.5 4.4,2.4 z"
   id="path8" />
			</g>
		</g>
		<g
   id="g32">
			<g
   id="g31">
				<g
   id="g30">
					<g
   id="g29">
						<path
   class="st3"
   d="m 569.8,583.5 c -0.2,-0.2 -0.5,-0.4 -0.8,-0.6 -0.3,-0.2 -0.6,-0.3 -0.9,-0.5 -0.3,-0.1 -0.6,-0.2 -0.9,-0.3 -0.3,-0.1 -0.6,-0.1 -0.9,-0.1 -0.6,0 -1.1,0.1 -1.7,0.3 -0.5,0.2 -1,0.5 -1.3,0.9 -0.4,0.4 -0.7,0.8 -0.9,1.4 -0.2,0.5 -0.3,1.1 -0.3,1.7 0,0.6 0.1,1.2 0.3,1.7 0.2,0.5 0.5,1 0.9,1.4 0.4,0.4 0.8,0.7 1.3,0.9 0.5,0.2 1.1,0.3 1.7,0.3 0.3,0 0.6,0 0.8,-0.1 0.3,-0.1 0.6,-0.1 0.9,-0.3 0.3,-0.1 0.6,-0.2 0.9,-0.4 0.3,-0.2 0.5,-0.3 0.8,-0.5 l 1.4,1.7 c -0.3,0.2 -0.7,0.5 -1.1,0.7 -0.4,0.2 -0.8,0.4 -1.2,0.5 -0.4,0.1 -0.9,0.3 -1.3,0.3 -0.5,0.1 -0.9,0.1 -1.3,0.1 -0.9,0 -1.8,-0.2 -2.6,-0.5 -0.8,-0.3 -1.5,-0.8 -2.1,-1.4 -0.6,-0.6 -1.1,-1.3 -1.4,-2 -0.3,-0.8 -0.5,-1.6 -0.5,-2.5 0,-0.9 0.2,-1.7 0.5,-2.5 0.3,-0.8 0.8,-1.5 1.4,-2 0.6,-0.6 1.3,-1 2.1,-1.4 0.8,-0.3 1.7,-0.5 2.7,-0.5 0.5,0 0.9,0 1.4,0.1 0.5,0.1 0.9,0.2 1.3,0.4 0.4,0.2 0.8,0.3 1.2,0.6 0.4,0.2 0.7,0.5 1,0.8 z m -0.9,3.9 h -3.6 v -2 h 5.8 v 5.7 h -2.3 v -3.7 z"
   id="path9" />
						<path
   class="st3"
   d="m 580.8,580.1 c 0.8,0 1.5,0.1 2.2,0.3 0.7,0.2 1.2,0.5 1.6,0.8 0.4,0.4 0.8,0.8 1,1.3 0.2,0.5 0.3,1.1 0.3,1.8 0,0.7 -0.1,1.4 -0.3,1.9 -0.2,0.6 -0.6,1 -1,1.4 -0.4,0.4 -1,0.7 -1.6,0.9 -0.6,0.2 -1.4,0.3 -2.2,0.3 h -2.7 v 3.7 h -2.5 V 580 h 5.2 z m 0,6.7 c 0.4,0 0.8,-0.1 1.2,-0.2 0.3,-0.1 0.6,-0.2 0.9,-0.4 0.2,-0.2 0.4,-0.4 0.5,-0.7 0.1,-0.3 0.2,-0.6 0.2,-1 0,-0.4 -0.1,-0.7 -0.2,-1 -0.1,-0.3 -0.3,-0.5 -0.5,-0.7 -0.2,-0.2 -0.5,-0.3 -0.9,-0.4 -0.3,-0.1 -0.7,-0.1 -1.2,-0.1 h -2.7 v 4.7 h 2.7 z m -0.1,1.2 h 2.5 l 3.1,4.6 h -2.8 z"
   id="path10" />
						<path
   class="st3"
   d="m 594.2,580.1 h 2.6 l 5.4,12.5 h -2.7 l -4.1,-10 -4.1,10 h -2.6 z m -2.6,7.8 h 7.4 v 2 h -7.4 z"
   id="path11" />
						<path
   class="st3"
   d="m 605.3,580.1 h 2.3 l 7,9.5 -0.7,0.2 v -9.7 h 2.4 v 12.5 H 614 l -7,-9.5 0.7,-0.2 v 9.7 h -2.4 z"
   id="path12" />
						<path
   class="st3"
   d="m 626.3,580.1 c 1,0 1.8,0.2 2.6,0.5 0.8,0.3 1.5,0.7 2.1,1.3 0.6,0.6 1,1.2 1.3,2 0.3,0.8 0.5,1.6 0.5,2.5 0,0.9 -0.2,1.7 -0.5,2.5 -0.3,0.8 -0.8,1.4 -1.4,2 -0.6,0.6 -1.3,1 -2.1,1.3 -0.8,0.3 -1.7,0.5 -2.7,0.5 H 621 v -12.5 h 5.3 z m 0.1,10.4 c 0.6,0 1.1,-0.1 1.6,-0.3 0.5,-0.2 0.9,-0.5 1.2,-0.9 0.3,-0.4 0.6,-0.8 0.8,-1.3 0.2,-0.5 0.3,-1.1 0.3,-1.7 0,-0.6 -0.1,-1.2 -0.3,-1.7 -0.2,-0.5 -0.5,-1 -0.8,-1.3 -0.4,-0.4 -0.8,-0.7 -1.3,-0.9 -0.5,-0.2 -1,-0.3 -1.6,-0.3 h -2.7 v 8.3 h 2.8 z"
   id="path13" />
						<path
   class="st3"
   d="m 648.2,580.1 c 0.8,0 1.5,0.1 2.2,0.3 0.6,0.2 1.2,0.5 1.6,0.8 0.4,0.4 0.8,0.8 1,1.3 0.2,0.5 0.3,1.1 0.3,1.8 0,0.7 -0.1,1.4 -0.3,1.9 -0.2,0.6 -0.6,1 -1,1.4 -0.4,0.4 -1,0.7 -1.6,0.9 -0.6,0.2 -1.3,0.3 -2.2,0.3 h -2.7 v 3.7 H 643 V 580 h 5.2 z m 0,6.7 c 0.4,0 0.8,-0.1 1.2,-0.2 0.3,-0.1 0.6,-0.2 0.9,-0.4 0.2,-0.2 0.4,-0.4 0.5,-0.7 0.1,-0.3 0.2,-0.6 0.2,-1 0,-0.4 -0.1,-0.7 -0.2,-1 -0.1,-0.3 -0.3,-0.5 -0.5,-0.7 -0.2,-0.2 -0.5,-0.3 -0.9,-0.4 -0.3,-0.1 -0.7,-0.1 -1.2,-0.1 h -2.7 v 4.7 h 2.7 z m -0.1,1.2 h 2.5 l 3.1,4.6 h -2.8 z"
   id="path14" />
						<path
   class="st3"
   d="m 661.5,580.1 h 2.6 l 5.4,12.5 h -2.7 l -4.1,-10 -4.1,10 H 656 Z m -2.5,7.8 h 7.4 v 2 H 659 Z"
   id="path15" />
						<path
   class="st3"
   d="m 677.8,580.1 c 0.8,0 1.5,0.1 2.1,0.3 0.6,0.2 1.1,0.5 1.6,0.8 0.4,0.4 0.7,0.8 1,1.3 0.3,0.5 0.3,1.1 0.3,1.8 0,0.7 -0.1,1.4 -0.3,1.9 -0.2,0.6 -0.5,1 -1,1.4 -0.4,0.4 -0.9,0.7 -1.6,0.9 -0.6,0.2 -1.3,0.3 -2.1,0.3 h -3.7 l 1.1,-1.1 v 4.8 h -2.5 V 580 h 5.1 z m -0.1,6.7 c 0.4,0 0.8,-0.1 1.2,-0.2 0.3,-0.1 0.6,-0.2 0.8,-0.4 0.2,-0.2 0.4,-0.4 0.5,-0.7 0.1,-0.3 0.2,-0.6 0.2,-1 0,-0.4 -0.1,-0.7 -0.2,-1 -0.1,-0.3 -0.3,-0.5 -0.5,-0.7 -0.2,-0.2 -0.5,-0.3 -0.8,-0.4 -0.3,-0.1 -0.7,-0.1 -1.2,-0.1 h -3.6 l 1.1,-1.1 v 6.9 l -1.1,-1.1 h 3.6 z"
   id="path16" />
						<path
   class="st3"
   d="m 686.4,580.1 h 2.5 v 12.5 h -2.5 z"
   id="path17" />
						<path
   class="st3"
   d="m 698.8,580.1 c 1,0 1.8,0.2 2.6,0.5 0.8,0.3 1.5,0.7 2.1,1.3 0.6,0.6 1,1.2 1.3,2 0.3,0.8 0.5,1.6 0.5,2.5 0,0.9 -0.2,1.7 -0.5,2.5 -0.3,0.8 -0.8,1.4 -1.4,2 -0.6,0.6 -1.3,1 -2.1,1.3 -0.8,0.3 -1.7,0.5 -2.7,0.5 h -5.1 v -12.5 h 5.3 z m 0.1,10.4 c 0.6,0 1.1,-0.1 1.6,-0.3 0.5,-0.2 0.9,-0.5 1.2,-0.9 0.3,-0.4 0.6,-0.8 0.8,-1.3 0.2,-0.5 0.3,-1.1 0.3,-1.7 0,-0.6 -0.1,-1.2 -0.3,-1.7 -0.2,-0.5 -0.5,-1 -0.8,-1.3 -0.4,-0.4 -0.8,-0.7 -1.3,-0.9 -0.5,-0.2 -1,-0.3 -1.6,-0.3 h -2.7 v 8.3 h 2.8 z"
   id="path18" />
						<path
   class="st3"
   d="m 717,583.3 c -0.3,-0.2 -0.6,-0.3 -0.9,-0.5 -0.3,-0.1 -0.6,-0.3 -1,-0.4 -0.3,-0.1 -0.7,-0.2 -1,-0.3 -0.3,-0.1 -0.6,-0.1 -1,-0.1 -0.2,0 -0.4,0 -0.6,0.1 -0.2,0 -0.4,0.1 -0.6,0.2 -0.2,0.1 -0.3,0.2 -0.4,0.4 -0.1,0.2 -0.2,0.4 -0.2,0.6 0,0.3 0.1,0.6 0.3,0.8 0.2,0.2 0.4,0.4 0.8,0.5 0.3,0.2 0.7,0.3 1.1,0.4 0.4,0.1 0.8,0.2 1.2,0.4 0.4,0.2 0.8,0.3 1.2,0.5 0.4,0.2 0.8,0.4 1.1,0.7 0.3,0.3 0.6,0.6 0.8,1 0.2,0.4 0.3,0.9 0.3,1.4 0,0.7 -0.1,1.2 -0.4,1.7 -0.3,0.5 -0.7,0.9 -1.1,1.2 -0.5,0.3 -1,0.5 -1.5,0.7 -0.6,0.1 -1.2,0.2 -1.7,0.2 -0.5,0 -1,0 -1.5,-0.1 -0.5,-0.1 -1,-0.2 -1.4,-0.4 -0.5,-0.2 -0.9,-0.4 -1.3,-0.6 -0.4,-0.2 -0.8,-0.5 -1.2,-0.8 l 1,-2 c 0.3,0.3 0.6,0.5 0.9,0.7 0.3,0.2 0.7,0.4 1.1,0.6 0.4,0.2 0.8,0.3 1.2,0.4 0.4,0.1 0.8,0.1 1.2,0.1 0.2,0 0.5,0 0.7,-0.1 0.2,0 0.5,-0.1 0.7,-0.2 0.2,-0.1 0.4,-0.3 0.5,-0.4 0.1,-0.2 0.2,-0.4 0.2,-0.7 0,-0.3 -0.1,-0.6 -0.3,-0.8 -0.2,-0.2 -0.4,-0.4 -0.8,-0.6 -0.3,-0.2 -0.7,-0.3 -1.1,-0.4 -0.4,-0.1 -0.8,-0.2 -1.2,-0.4 -0.4,-0.2 -0.8,-0.3 -1.2,-0.5 -0.4,-0.2 -0.8,-0.4 -1.1,-0.7 -0.3,-0.3 -0.6,-0.6 -0.8,-1 -0.2,-0.4 -0.3,-0.9 -0.3,-1.4 0,-0.6 0.1,-1.2 0.4,-1.6 0.3,-0.4 0.6,-0.8 1.1,-1.1 0.4,-0.3 0.9,-0.5 1.5,-0.6 0.6,-0.1 1.1,-0.2 1.7,-0.2 0.4,0 0.8,0 1.2,0.1 0.4,0.1 0.8,0.1 1.2,0.3 0.4,0.1 0.8,0.3 1.1,0.4 0.3,0.1 0.7,0.4 1,0.6 z"
   id="path19" />
						<path
   class="st3"
   d="m 728.4,580.1 h 2.5 v 10.4 h 5.4 v 2.1 h -7.9 z"
   id="path20" />
						<path
   class="st3"
   d="m 748.2,580.4 c 0.8,0.3 1.5,0.8 2.1,1.3 0.6,0.5 1.1,1.2 1.4,2 0.3,0.8 0.5,1.6 0.5,2.5 0,0.9 -0.2,1.7 -0.5,2.5 -0.3,0.8 -0.8,1.5 -1.4,2 -0.6,0.5 -1.3,1 -2.1,1.4 -0.8,0.3 -1.7,0.5 -2.6,0.5 -0.9,0 -1.8,-0.2 -2.6,-0.5 -0.8,-0.3 -1.5,-0.8 -2.1,-1.4 -0.6,-0.6 -1.1,-1.3 -1.4,-2 -0.3,-0.8 -0.5,-1.6 -0.5,-2.5 0,-0.9 0.2,-1.8 0.5,-2.5 0.3,-0.8 0.8,-1.5 1.4,-2 0.6,-0.6 1.3,-1 2.1,-1.3 0.8,-0.3 1.7,-0.5 2.6,-0.5 0.9,0.1 1.8,0.2 2.6,0.5 z m -4.2,2 c -0.5,0.2 -0.9,0.5 -1.3,0.9 -0.4,0.4 -0.7,0.8 -0.9,1.4 -0.2,0.5 -0.3,1.1 -0.3,1.7 0,0.6 0.1,1.2 0.3,1.7 0.2,0.5 0.5,1 0.9,1.4 0.4,0.4 0.8,0.7 1.3,0.9 0.5,0.2 1,0.3 1.6,0.3 0.6,0 1.1,-0.1 1.6,-0.3 0.5,-0.2 0.9,-0.5 1.3,-0.9 0.4,-0.4 0.7,-0.8 0.9,-1.4 0.2,-0.5 0.3,-1.1 0.3,-1.7 0,-0.6 -0.1,-1.2 -0.3,-1.7 -0.2,-0.5 -0.5,-1 -0.9,-1.4 -0.4,-0.4 -0.8,-0.7 -1.3,-0.9 -0.5,-0.2 -1,-0.3 -1.6,-0.3 -0.6,0 -1.1,0.1 -1.6,0.3 z"
   id="path21" />
						<path
   class="st3"
   d="m 765,583.7 c -0.2,-0.3 -0.5,-0.5 -0.7,-0.7 -0.3,-0.2 -0.5,-0.4 -0.8,-0.5 -0.3,-0.1 -0.6,-0.2 -0.9,-0.3 -0.3,-0.1 -0.6,-0.1 -0.9,-0.1 -0.6,0 -1.1,0.1 -1.6,0.3 -0.5,0.2 -0.9,0.5 -1.3,0.9 -0.4,0.4 -0.7,0.8 -0.9,1.3 -0.2,0.5 -0.3,1.1 -0.3,1.7 0,0.6 0.1,1.1 0.3,1.7 0.2,0.5 0.5,1 0.9,1.4 0.4,0.4 0.8,0.7 1.3,0.9 0.5,0.2 1,0.3 1.6,0.3 0.3,0 0.6,0 0.9,-0.1 0.3,-0.1 0.6,-0.2 0.9,-0.3 0.3,-0.1 0.6,-0.3 0.8,-0.5 0.2,-0.2 0.5,-0.4 0.8,-0.6 l 1.5,1.5 c -0.3,0.3 -0.7,0.6 -1.1,0.9 -0.4,0.3 -0.8,0.5 -1.2,0.7 -0.4,0.2 -0.9,0.3 -1.3,0.4 -0.5,0.1 -0.9,0.2 -1.3,0.2 -0.9,0 -1.8,-0.2 -2.6,-0.5 -0.8,-0.3 -1.5,-0.8 -2.1,-1.4 -0.6,-0.6 -1,-1.3 -1.4,-2 -0.3,-0.8 -0.5,-1.6 -0.5,-2.5 0,-0.9 0.2,-1.7 0.5,-2.5 0.3,-0.8 0.8,-1.5 1.4,-2 0.6,-0.5 1.3,-1 2.1,-1.3 0.8,-0.3 1.7,-0.5 2.6,-0.5 0.4,0 0.9,0 1.3,0.1 0.4,0.1 0.9,0.2 1.3,0.4 0.4,0.2 0.8,0.4 1.2,0.6 0.4,0.2 0.7,0.5 1,0.8 z"
   id="path22" />
						<path
   class="st3"
   d="m 774,580.1 h 2.6 l 5.4,12.5 h -2.7 l -4.1,-10 -4.1,10 h -2.6 z m -2.5,7.8 h 7.4 v 2 h -7.4 z"
   id="path23" />
						<path
   class="st3"
   d="m 785.1,580.1 h 2.5 v 10.4 h 5.4 v 2.1 h -7.9 z"
   id="path24" />
						<path
   class="st3"
   d="m 808.2,580.1 c 1,0 1.8,0.2 2.6,0.5 0.8,0.3 1.5,0.7 2.1,1.3 0.6,0.6 1,1.2 1.3,2 0.3,0.8 0.5,1.6 0.5,2.5 0,0.9 -0.2,1.7 -0.5,2.5 -0.3,0.8 -0.8,1.4 -1.4,2 -0.6,0.6 -1.3,1 -2.1,1.3 -0.8,0.3 -1.7,0.5 -2.7,0.5 h -5.1 v -12.5 h 5.3 z m 0,10.4 c 0.6,0 1.1,-0.1 1.6,-0.3 0.5,-0.2 0.9,-0.5 1.2,-0.9 0.3,-0.4 0.6,-0.8 0.8,-1.3 0.2,-0.5 0.3,-1.1 0.3,-1.7 0,-0.6 -0.1,-1.2 -0.3,-1.7 -0.2,-0.5 -0.5,-1 -0.8,-1.3 -0.4,-0.4 -0.8,-0.7 -1.3,-0.9 -0.5,-0.2 -1,-0.3 -1.6,-0.3 h -2.7 v 8.3 h 2.8 z"
   id="path25" />
						<path
   class="st3"
   d="m 818.4,580.1 h 9.3 v 2.1 H 821 v 3.1 h 6 v 2.1 h -6 v 3.2 h 6.9 v 2.1 h -9.5 z"
   id="path26" />
						<path
   class="st3"
   d="m 835.9,580.1 h 2.6 l 5.4,12.5 h -2.7 l -4.1,-10 -4.1,10 h -2.6 z m -2.6,7.8 h 7.4 v 2 h -7.4 z"
   id="path27" />
						<path
   class="st3"
   d="m 847,580.1 h 2.5 v 10.4 h 5.4 v 2.1 H 847 Z"
   id="path28" />
						<path
   class="st3"
   d="m 866.4,583.3 c -0.3,-0.2 -0.6,-0.3 -0.9,-0.5 -0.3,-0.2 -0.6,-0.3 -1,-0.4 -0.4,-0.1 -0.7,-0.2 -1,-0.3 -0.3,-0.1 -0.7,-0.1 -1,-0.1 -0.2,0 -0.4,0 -0.6,0.1 -0.2,0 -0.4,0.1 -0.6,0.2 -0.2,0.1 -0.3,0.2 -0.4,0.4 -0.1,0.2 -0.2,0.4 -0.2,0.6 0,0.3 0.1,0.6 0.3,0.8 0.2,0.2 0.4,0.4 0.8,0.5 0.3,0.2 0.7,0.3 1.1,0.4 0.4,0.1 0.8,0.2 1.2,0.4 0.4,0.1 0.8,0.3 1.2,0.5 0.4,0.2 0.8,0.4 1.1,0.7 0.3,0.3 0.6,0.6 0.8,1 0.2,0.4 0.3,0.9 0.3,1.4 0,0.7 -0.1,1.2 -0.4,1.7 -0.3,0.5 -0.7,0.9 -1.1,1.2 -0.5,0.3 -1,0.5 -1.5,0.7 -0.6,0.1 -1.2,0.2 -1.7,0.2 -0.5,0 -1,0 -1.5,-0.1 -0.5,-0.1 -1,-0.2 -1.4,-0.4 -0.5,-0.2 -0.9,-0.4 -1.3,-0.6 -0.4,-0.2 -0.8,-0.5 -1.2,-0.8 l 1,-2 c 0.3,0.3 0.6,0.5 0.9,0.7 0.3,0.2 0.7,0.4 1.1,0.6 0.4,0.2 0.8,0.3 1.2,0.4 0.4,0.1 0.8,0.1 1.2,0.1 0.2,0 0.5,0 0.7,-0.1 0.2,-0.1 0.5,-0.1 0.7,-0.2 0.2,-0.1 0.4,-0.3 0.5,-0.4 0.1,-0.2 0.2,-0.4 0.2,-0.7 0,-0.3 -0.1,-0.6 -0.3,-0.8 -0.2,-0.2 -0.4,-0.4 -0.8,-0.6 -0.3,-0.2 -0.7,-0.3 -1.1,-0.4 -0.4,-0.1 -0.8,-0.2 -1.2,-0.4 -0.4,-0.1 -0.8,-0.3 -1.2,-0.5 -0.4,-0.2 -0.8,-0.4 -1.1,-0.7 -0.3,-0.3 -0.6,-0.6 -0.8,-1 -0.2,-0.4 -0.3,-0.9 -0.3,-1.4 0,-0.6 0.1,-1.2 0.4,-1.6 0.3,-0.4 0.6,-0.8 1.1,-1.1 0.4,-0.3 0.9,-0.5 1.5,-0.6 0.6,-0.1 1.1,-0.2 1.7,-0.2 0.4,0 0.8,0 1.2,0.1 0.4,0.1 0.8,0.1 1.2,0.3 0.4,0.1 0.8,0.3 1.1,0.4 0.3,0.1 0.7,0.4 1,0.6 z"
   id="path29" />
					</g>
				</g>
			</g>
			<rect
   x="879.70001"
   y="584.79999"
   class="st4"
   width="35.400002"
   height="3.3"
   id="rect31" />
			<rect
   x="513"
   y="584.79999"
   class="st4"
   width="35.400002"
   height="3.3"
   id="rect32" />
		</g>
	</g>
	<path
   class="st5"
   d="m 250.92756,478.4745 c -0.16333,-0.0408 -0.32666,-0.0408 -0.48999,-0.0817 0.16333,0.0408 0.32666,0.0408 0.48999,0.0817 z"
   id="path33"
   style="stroke-width:0.408326" />
	<path
   class="st6"
   d="m 231.28706,478.842 c -0.40832,-0.44916 -1.18414,-0.77582 -1.26581,-0.81666 0.20417,0.0408 0.40833,0.0817 0.57166,0.16333 0.32666,0.20417 0.53082,0.40833 0.69415,0.65333 z"
   id="path34"
   style="stroke-width:0.408326" />
	<g
   id="g46">
		<path
   class="st4"
   d="m 222.91637,445.0734 -3.5116,4.45076 -6.20656,8.24819 v 0 c -3.83827,-2.69495 -7.59488,-4.85908 -13.47478,-5.6349 -0.48999,-0.0817 -3.8791,-0.0408 -3.91993,-0.0408 -9.92233,0.77582 -17.72137,8.16653 -17.72137,18.37468 0,10.1265 8.0032,18.08887 18.33386,18.21137 l 0.0408,12.53562 h -1.34748 v -4.65493 l -0.81665,-0.81665 h -1.51081 v -1.18415 l -0.36749,-0.69415 -2.89912,-1.91914 v -0.77582 l -0.81665,-0.81665 h -0.61249 l -0.81665,0.81665 v 0.77582 l -3.38911,2.1233 -0.40833,0.69416 v 3.14411 l -0.0817,-0.0817 c -0.24499,-0.245 -0.65332,-0.53083 -1.30664,-0.53083 -0.44916,0 -0.89832,0.1225 -1.30664,0.28583 V 484.3544 l -0.81665,-0.81666 h -0.735 l -1.55163,-1.8783 -0.65333,-0.28583 h -0.65332 v -0.48999 l -0.81665,-0.81666 h -0.28583 l -0.81665,0.81666 v 0.44916 h -0.48999 l -0.53083,0.20416 -2.65412,2.24579 -0.28583,0.65333 c 0.0408,2.89912 0.0817,6.94155 0.0817,9.8815 -6.53322,-6.04323 -10.61648,-14.61809 -10.65731,-24.13209 -0.0408,-15.06725 7.96236,-26.62288 23.64209,-32.09446 12.41313,-3.96076 22.2538,-1.22498 22.2538,-1.22498 10.73898,2.28663 17.10887,8.20736 17.10887,8.20736 z"
   id="path35"
   sodipodi:nodetypes="cccsccscccccccccccccccccssccccccccccccccccccccc"
   style="stroke-width:0.408326" />
		<path
   class="st4"
   d="m 223.36553,465.20389 v 13.10728 0 15.92473 l -3.22578,-1.95997 v -0.0817 l -0.81665,-0.81665 h -0.73499 l -0.81665,0.77582 v 0.12249 l -3.18495,2.16414 -0.36749,0.69415 v 2.77662 l -2.0008,-1.51081 h -1.02082 l -2.69495,2.04164 v -10.45316 l -0.77582,-0.81666 c -0.36749,-0.0408 -0.40833,-0.16333 -0.53082,-0.36749 v -0.0408 c -0.0408,-0.0817 -0.0817,-0.16333 -0.1225,-0.20416 0.16333,-0.0817 0.32666,-0.20417 0.44916,-0.28583 v -7.96237 h -12.90312 v -13.10728 z"
   id="path36"
   style="stroke-width:0.408326" />
		<path
   class="st3"
   d="m 267.87311,497.42085 h -1.71497 c 0,0 -3.47078,-5.92074 -9.22818,-11.26981 -0.85748,-0.77582 -1.71497,-1.55164 -2.65412,-2.28663 0,0 -3.26661,-6.94155 -2.57245,-10.16733 0,0 0.32666,-1.59247 1.71497,-1.8783 1.3883,-0.28583 2.65412,0.3675 3.96076,1.91914 0.57166,0.65332 1.46998,1.8783 2.57246,3.79743 1.46997,2.49079 3.22578,6.16573 4.98158,11.22898 0,0 0.81665,2.69495 1.7558,5.30824 0.3675,1.10248 0.245,2.28663 1.18415,3.34828 z"
   id="path37"
   style="stroke-width:0.408326" />
		<path
   class="st3"
   d="m 225.03967,493.29675 v -15.55723 c 0,0 4.98158,1.83746 10.004,1.18414 -2.16413,1.91914 -3.91994,3.91994 -5.38991,6.04323 -1.46998,2.1233 -2.69496,4.3691 -3.8791,6.69656 z"
   id="path38"
   style="stroke-width:0.408326" />
		<g
   id="g40"
   transform="matrix(0.40832602,0,0,0.40832602,92.537749,257.93741)">
			<path
   class="st3"
   d="m 436.5,540.5 v 0 c -0.4,-0.5 -0.8,-0.9 -1.1,-1.3 v 0 c 14.9,-6 26.8,-25.5 26.8,-46.6 0,-20.6 -9.7,-45.1 -45.2,-52.2 -8.1,-1.6 -36.8,-1.6 -36.8,-1.6 h -55.6 v 99.5 c 0,0 48.3,-2.6 79.7,-49 -0.4,0.4 -13.1,13 -20.9,17.5 0,0 -13.6,8.3 -34.3,12.4 3.1,-8.4 6.3,-22.5 7.1,-45.8 0,0 3.2,-2.6 7.6,8.3 4.4,10.9 6.1,20.1 7.1,20.7 0,0 -2.2,0.5 -7.7,-1.9 l -0.3,3.9 c 0,0 5.2,0 8.1,-1.5 0,0 12.4,0.6 13.3,-14.3 0,0 -0.1,-9.7 5.1,-2.2 0,0 4.6,7.7 8.7,-0.4 3.4,-6.8 5.3,-18.1 5.3,-18.1 1.8,-6.5 2.5,-7.9 2.5,-7.9 4.6,-10.7 6.7,-0.5 6.7,-0.5 l 2.3,13 3.7,24.5 7.9,48.6 6.3,40.7 3.1,10.9 h 6.7 v -1.3 l 2,-2 h 18 l 2,2 v 1.2 c 8.5,0 15.6,0 15.5,0.1 0.2,0 -30.7,-41 -43.6,-56.7 z"
   id="path39"
   sodipodi:nodetypes="sssssccccccccsccccccccccccccccccccccs" />
			<path
   class="st3"
   d="m 369.2,517.6 c 0,0 -18.2,11.3 -27,13.1 0.2,-0.1 3.4,-2.5 6.8,-11.5 0.9,0.3 8,3.3 20.2,-1.6 z"
   id="path40" />
		</g>
		<path
   class="st3"
   d="m 262.03404,464.22391 -6.20656,3.83827 c 0,0 -8.12569,3.83827 -10.61649,6.04323 -1.5108,1.34748 -9.269,6.73739 -12.04563,19.23218 h -0.0408 l -1.02081,0.0408 -2.1233,1.71497 c 1.38831,-4.2466 3.91993,-10.73898 7.83987,-15.84307 6.32906,-8.20736 15.55723,-10.90231 24.21375,-15.02641 z"
   id="path41"
   style="stroke-width:0.408326" />
		<path
   class="st3"
   d="m 251.37673,500.44246 -1.22499,-0.1225 c 0,0 0,0 0,0 -0.48999,-0.32666 -1.10248,-0.48999 -1.67413,-0.61248 v -9.63651 l -0.81666,-0.81665 h -0.44915 c -0.49,-1.51081 -1.67415,-2.2458 -2.65413,-2.53162 v -1.34748 l -0.81665,-0.81665 h -0.61249 l -0.81665,0.81665 v 1.38831 c -1.79664,0.57166 -2.61329,1.71497 -2.93995,2.44996 h -0.57166 l -0.40833,0.40833 c 0.49,-3.14412 1.22498,-6.45156 2.20497,-8.86069 0,0 3.91993,-3.91993 9.35067,0 0.1225,0.0817 0.20416,0.245 0.245,0.40833 0.0817,2.28662 0.89832,17.55803 1.18415,19.273 z"
   id="path42"
   style="stroke-width:0.408326" />
		<path
   class="st5"
   d="m 246.7218,520.08296 c -9.06485,1.06165 -29.23617,-5.26741 -29.23617,-5.26741 -16.41472,-4.69575 -37.11687,0.1225 -37.11687,0.1225 -6.85988,1.83747 -23.96876,5.83907 -23.96876,5.83907 42.95594,-18.74218 65.0464,-10.41232 65.0464,-10.41232 0.44916,0.0817 0.85748,0.16333 1.22498,0.24499 -0.61249,-0.0408 -1.10249,-0.0817 -1.42915,-0.0817 -1.6333,0 17.51721,7.2682 25.47957,9.55483 z"
   id="path43"
   style="stroke-width:0.408326" />
		<path
   class="st9"
   d="m 296.98678,505.26071 v 7.10488 c -0.16333,0 -0.0817,0 -0.24499,0.0408 -0.61249,-2.98079 -2.04163,-4.28743 -3.14411,-4.85909 -1.02082,-0.53082 -2.28663,-0.48999 -3.30745,0.0817 -2.32746,1.34747 -2.81745,4.57325 -2.93995,5.71657 -0.36749,0 -0.77582,0 -1.14331,0 -0.44916,-3.55244 -1.95997,-5.06325 -3.18495,-5.7574 -1.14331,-0.61249 -2.53162,-0.53083 -3.63411,0.16333 -1.67413,1.10248 -2.32745,3.22578 -2.57245,4.61408 -0.48999,-0.0817 -0.97999,-0.16333 -1.46998,-0.28582 -0.61249,-2.69496 -1.91913,-3.96077 -3.02161,-4.53243 -1.14332,-0.61249 -2.49079,-0.53082 -3.55244,0.20417 -0.73499,0.44916 -1.22498,1.10248 -1.63331,1.79664 -1.79663,-0.69416 -6.04323,-2.16414 -9.96316,-2.3683 0,0 -5.79823,-0.77582 -9.35068,1.14331 0,0 6.20656,0.245 7.22738,1.91914 0.0817,0.1225 0.0817,0.32666 0,0.44916 -0.20416,0.28583 -0.81665,0.69415 -2.61329,0.36749 0,0 -2.1233,-0.24499 -4.16493,-0.97998 0,0 -13.59727,-5.47158 -26.54121,-3.18495 0,0 6.57405,0.77582 8.94235,2.49079 0.0817,0 0.16333,0.0408 0.20416,0.0408 -0.0817,0 -0.16333,-0.0408 -0.20416,-0.0408 0.28582,0.20417 0.53082,0.44916 0.65332,0.65333 0.20416,0.20416 0.32666,0.44915 0.16333,0.69415 -0.0817,0.0817 -0.20417,0.20416 -0.3675,0.28583 -0.0817,0.0408 -0.12249,0.0408 -0.20416,0.0817 0,0 -0.1225,0 -0.32666,-0.0408 0,0 0,0 0,0 -1.18415,-0.16333 -5.38991,-0.81665 -7.83987,-1.02081 v 0 c -0.40832,-0.0817 -0.81665,-0.16333 -1.22498,-0.245 0,0 -19.80383,-7.47237 -58.47234,7.71737 v -4.28743 -7.71737 l 0.0817,-11.43314 2.44995,-2.1233 v -0.61249 h 0.77582 l 0.0817,0.61249 2.77662,2.1233 v 3.67494 c 0,0 1.59247,-0.77582 2.20496,0.69416 0.0817,0.16333 0.0817,-1.34748 0.0817,-3.42995 0,-4.16493 -0.0817,-10.65731 -0.0817,-10.65731 l 2.65412,-2.2458 h 1.30665 v -1.26581 h 0.28583 v 1.26581 h 1.46997 l 1.79664,2.20496 h 1.10248 v 14.61809 c 0,0 3.34827,-2.3683 3.10328,0.73498 v 0.48999 h 1.22498 v -5.47157 l 3.7566,-2.36829 v -1.22498 h 0.61249 v 1.22498 l 3.26661,2.16413 v 2.0008 h 2.3683 v 5.47157 h 3.02161 l -0.0408,-13.3931 v -0.89832 c 0.40833,-0.0817 0.69415,-0.245 0.93915,-0.49 0.245,-0.24499 0.44916,-0.53082 0.61249,-0.89831 0.36749,-0.77582 1.34747,-1.71497 2.93995,-1.63331 v -3.02161 l 0.36749,-0.73499 0.3675,0.73499 v 3.02161 c 0,0 2.28663,-0.44916 3.79743,2.2458 0.0408,0.0817 0.0817,0.12249 0.1225,0.20416 0.1225,0.245 0.36749,0.77582 1.18415,0.85748 v 13.71977 h 1.14331 v -2.44996 l 2.89912,-2.16412 2.81745,2.12329 v 2.08247 h 0.53083 v -6.1249 l 3.55244,-2.40912 0.0408,-0.53083 h 0.73499 v 0.53083 l 3.8791,2.40912 V 498.36 c 0,0 0.0408,0 0.16333,-0.0408 0.73498,-0.1225 3.79743,-0.3675 3.42994,2.93995 h 0.69415 v 0.65332 h 1.71497 v -5.02242 l 0.3675,-0.32666 3.10328,-2.53162 0.32666,0.245 3.47077,2.57245 v 4.28743 h 1.42915 l 0.89832,0.69416 v -11.80064 h 1.14331 c 0,0 0.32666,-2.08247 3.14411,-2.65412 v -2.04163 h 0.61249 v 2.04163 c 0,0 2.44996,0.16333 2.81745,2.65412 h 1.14332 v 10.41232 c 0,0 2.77662,-0.1225 3.18494,2.20497 v 3.59327 h 0.89832 c 0,0 1.18415,-2.81745 2.69496,-0.16333 h 0.61248 v -4.81825 l 4.98159,-2.98079 4.32826,2.98079 0.0408,4.00159 h 9.759 v -4.12409 h 7.34988 v 4.04243 h 15.3939 z"
   id="path44"
   style="stroke-width:0.408326" />
		<path
   class="st7"
   d="m 300.41672,511.8756 c -1.71496,1.22498 -3.42994,2.28663 -5.14491,3.18495 -3.14411,0.73499 -12.73978,2.32746 -24.82624,-1.38831 0,0 4.28742,3.8791 -8.41153,-0.57166 0,0 2.1233,4.2466 -4.20576,2.08247 0,0 4.77742,5.67573 -15.02641,-3.18495 0,0 -0.28583,1.14331 3.10328,4.08327 0,0 -6.08406,0.0817 -10.86148,-5.75741 0,0 -0.77582,0.40833 -4.45076,-0.48999 -2.36829,-1.67414 -8.94235,-2.49079 -8.94235,-2.49079 12.94395,-2.28663 26.54122,3.18495 26.54122,3.18495 2.04163,0.73498 4.16493,0.97998 4.16493,0.97998 1.79663,0.28583 2.40912,-0.0817 2.61328,-0.40833 0.0817,-0.12249 0.0817,-0.32666 0,-0.44915 -1.02081,-1.67415 -7.22737,-1.91914 -7.22737,-1.91914 3.55244,-1.91913 9.35067,-1.14331 9.35067,-1.14331 5.10408,0.24499 10.82066,2.69495 10.82066,2.69495 2.61328,0.97998 6.16572,1.91913 6.16572,1.91913 16.04723,3.71578 26.09206,-0.20416 26.33705,-0.32666 z"
   id="path45"
   style="stroke-width:0.408326" />
		<path
   class="st8"
   d="m 295.27181,515.10138 c -15.55723,8.1257 -30.78781,3.14412 -30.78781,3.14412 -3.14411,2.44995 -7.39071,2.85828 -10.73898,2.65412 -0.16333,0 -0.32666,-0.0408 -0.53083,-0.0408 -0.48999,-0.0408 -0.97998,-0.0817 -1.42914,-0.16333 -0.1225,0 -0.20416,-0.0408 -0.28583,-0.0408 -0.20416,-0.0408 -0.36749,-0.0408 -0.53082,-0.0817 -0.16334,-0.0408 -0.32667,-0.0408 -0.49,-0.0817 -0.0408,0 -0.0817,0 -0.12249,-0.0408 -0.0817,0 -0.16333,-0.0408 -0.245,-0.0408 -0.16333,-0.0408 -0.32666,-0.0817 -0.48999,-0.0817 -0.0817,0 -0.1225,-0.0408 -0.20416,-0.0408 -0.0817,0 -0.1225,-0.0408 -0.20417,-0.0408 0,0 -0.0408,0 -0.0408,0 -0.0408,0 -0.1225,-0.0408 -0.16333,-0.0408 -0.65332,-0.16333 -1.06165,-0.28583 -1.06165,-0.28583 -0.36749,0.0817 -0.77582,0.16333 -1.22498,0.20417 -7.96236,-2.28663 -27.1537,-9.55484 -25.47957,-9.59567 0.32666,0 0.81666,0 1.42915,0.0817 v 0 c 2.44995,0.20417 6.65572,0.85749 7.83987,1.02082 0,0 0,0 0,0 0.20416,0.0408 0.32666,0.0408 0.32666,0.0408 0.0817,-0.0408 0.16333,-0.0408 0.20416,-0.0817 0.20416,-0.0817 0.32666,-0.20417 0.36749,-0.28583 0.16333,-0.20417 0.0408,-0.44916 -0.16333,-0.69416 -0.16333,-0.24499 -0.36749,-0.44916 -0.65332,-0.69415 3.63411,0.85748 4.45076,0.48999 4.45076,0.48999 4.77742,5.83907 10.86148,5.7574 10.86148,5.7574 -3.38911,-2.93995 -3.10328,-4.08326 -3.10328,-4.08326 19.80383,8.90151 15.02641,3.18494 15.02641,3.18494 6.32906,2.16413 4.20576,-2.08246 4.20576,-2.08246 12.69895,4.45075 8.41153,0.57166 8.41153,0.57166 12.08646,3.67493 21.68213,2.04163 24.82624,1.34747 z"
   id="path46"
   style="stroke-width:0.408326" />
	</g>
</g>
</svg>
