<?xml version="1.0" encoding="utf-8"?>
<!-- Generator: Adobe Illustrator 27.3.1, SVG Export Plug-In . SVG Version: 6.00 Build 0)  -->
<svg version="1.1" id="Layer_1" xmlns="http://www.w3.org/2000/svg" xmlns:xlink="http://www.w3.org/1999/xlink" x="0px" y="0px"
	 viewBox="0 0 1080 1080" style="enable-background:new 0 0 1080 1080;" xml:space="preserve">
<style type="text/css">
	.st0{fill:#011634;}
	.st1{fill:#2076B7;}
	.st2{fill:none;stroke:#FFFFFF;stroke-width:8;stroke-miterlimit:10;}
	.st3{fill:#FFFFFF;}
	.st4{fill:#EF3823;}
	.st5{fill:#FDC91B;}
	.st6{fill:#FFB02E;}
	.st7{opacity:0;fill:#C8DEEB;}
	.st8{fill:#2078B7;}
	.st9{fill:#C8DEEB;}
	.st10{fill:none;stroke:#011634;stroke-width:8;stroke-miterlimit:10;}
</style>
<rect x="0" class="st0" width="1080" height="1080"/>
<g>
	<circle class="st2" cx="535.4" cy="540" r="302.3"/>
	<g>
		<g>
			<g>
				<path class="st3" d="M355.1,635.7c-1.3-0.8-2.7-1.5-4.2-2.2s-3.1-1.3-4.6-1.9s-3.1-1-4.6-1.3c-1.5-0.3-2.9-0.5-4.1-0.5
					c-0.7,0-1.4,0.1-2,0.2c-0.7,0.1-1.3,0.3-1.8,0.7s-1,0.7-1.3,1.2c-0.3,0.5-0.5,1.1-0.5,1.8c0,1.2,0.4,2.1,1.2,2.9
					c0.8,0.8,1.9,1.4,3.2,2s2.9,1.1,4.6,1.5c1.7,0.5,3.5,1,5.3,1.6c1.8,0.6,3.5,1.3,5.3,2.1s3.3,1.8,4.6,3s2.4,2.7,3.2,4.5
					c0.8,1.8,1.2,3.9,1.2,6.4c0,3-0.6,5.5-1.8,7.6s-2.9,3.9-4.9,5.3c-2,1.4-4.4,2.4-7,3.1c-2.6,0.7-5.4,1-8.2,1
					c-2.2,0-4.5-0.2-6.8-0.6c-2.3-0.4-4.5-1-6.7-1.7c-2.2-0.8-4.3-1.7-6.3-2.8c-2-1.1-3.9-2.3-5.6-3.7l5.6-11.2
					c1.3,1.2,2.9,2.3,4.5,3.3c1.7,1,3.4,1.9,5.1,2.7s3.5,1.3,5.3,1.8s3.4,0.6,4.9,0.6c0.9,0,1.7-0.1,2.5-0.2
					c0.8-0.2,1.5-0.4,2.1-0.8s1.1-0.9,1.5-1.4c0.4-0.6,0.6-1.3,0.6-2.2c0-1.2-0.4-2.2-1.2-2.9c-0.8-0.8-1.9-1.4-3.2-2
					c-1.3-0.6-2.9-1.1-4.6-1.5c-1.7-0.4-3.5-0.9-5.3-1.5c-1.8-0.6-3.5-1.2-5.3-2c-1.7-0.8-3.3-1.7-4.6-2.9c-1.3-1.2-2.4-2.6-3.2-4.3
					c-0.8-1.7-1.2-3.8-1.2-6.2c0-2.7,0.6-5.2,1.7-7.3c1.1-2.1,2.7-3.8,4.7-5.3c2-1.4,4.3-2.5,7-3.2c2.7-0.7,5.5-1.1,8.6-1.1
					c1.9,0,3.9,0.1,5.9,0.4c2,0.3,3.9,0.7,5.8,1.2c1.9,0.5,3.7,1.2,5.4,1.9c1.7,0.8,3.3,1.6,4.8,2.6L355.1,635.7z"/>
				<path class="st3" d="M399.1,619.4c3.5,0,6.6,0.4,9.3,1.3c2.7,0.9,5,2.1,6.9,3.7c1.9,1.6,3.3,3.6,4.3,6c1,2.4,1.5,5.1,1.5,8.1
					c0,3.2-0.5,6-1.5,8.6c-1,2.5-2.4,4.7-4.3,6.4c-1.9,1.7-4.2,3-6.9,3.9c-2.7,0.9-5.8,1.4-9.3,1.4h-15.9l6.3-6.3v21.4h-14.5v-54.5
					H399.1z M398.4,647.4c1.4,0,2.7-0.2,3.8-0.5c1.1-0.4,2-0.9,2.8-1.6c0.8-0.7,1.3-1.6,1.8-2.7c0.4-1.1,0.6-2.3,0.6-3.7
					c0-1.3-0.2-2.5-0.6-3.6c-0.4-1-1-1.9-1.8-2.5c-0.8-0.7-1.7-1.2-2.8-1.5c-1.1-0.4-2.4-0.5-3.8-0.5h-15.2l6.3-6.3v29.3l-6.3-6.3
					H398.4z"/>
				<path class="st3" d="M435.4,619.4h43.2v11.4h-28.7v10.1h25.9v11.3h-25.9v10.3h29.5v11.3h-44V619.4z"/>
				<path class="st3" d="M534.7,637.8c-0.9-1.1-1.8-2.1-2.9-3c-1.1-0.9-2.2-1.7-3.4-2.3c-1.2-0.6-2.4-1.1-3.6-1.5s-2.4-0.5-3.6-0.5
					c-2.1,0-4,0.4-5.8,1.2s-3.3,1.9-4.6,3.3c-1.3,1.4-2.3,3.1-3.1,5c-0.7,1.9-1.1,4-1.1,6.3c0,2.2,0.4,4.3,1.1,6.2
					c0.7,1.9,1.8,3.6,3.1,5c1.3,1.4,2.8,2.5,4.6,3.3s3.7,1.2,5.8,1.2c1.1,0,2.3-0.1,3.5-0.4c1.2-0.3,2.4-0.7,3.5-1.3
					c1.2-0.6,2.3-1.2,3.4-2s2.1-1.7,3.1-2.7l8.4,8.9c-1.5,1.5-3.1,2.9-4.9,4.2s-3.7,2.3-5.6,3.2s-4,1.6-6,2.1s-4.1,0.7-6.1,0.7
					c-4.1,0-7.9-0.7-11.4-2.2c-3.5-1.4-6.5-3.4-9.1-6c-2.5-2.5-4.5-5.5-6-9c-1.5-3.5-2.2-7.2-2.2-11.3c0-4,0.7-7.7,2.2-11.1
					s3.5-6.4,6.1-8.9c2.6-2.5,5.7-4.4,9.2-5.9c3.6-1.4,7.4-2.1,11.6-2.1c2,0,4.1,0.2,6.1,0.7c2,0.5,4,1.1,5.9,1.9
					c1.9,0.8,3.7,1.8,5.4,3c1.7,1.2,3.2,2.5,4.6,3.9L534.7,637.8z"/>
				<path class="st3" d="M556.5,619.4H571v54.5h-14.5V619.4z"/>
				<path class="st3" d="M606.6,619.4h14.8l22.8,54.5h-15.4l-15.2-40l-15.5,40h-14.9L606.6,619.4z M597.2,653.3H629v10.9h-31.8
					V653.3z"/>
				<path class="st3" d="M656.4,619.4h14.5v42.3h23v12.1h-37.5V619.4z"/>
				<path class="st3" d="M745.3,635.7c-1.3-0.8-2.7-1.5-4.2-2.2c-1.5-0.7-3.1-1.3-4.6-1.9c-1.6-0.5-3.1-1-4.6-1.3s-2.9-0.5-4.1-0.5
					c-0.7,0-1.4,0.1-2,0.2c-0.7,0.1-1.3,0.3-1.8,0.7s-1,0.7-1.3,1.2c-0.3,0.5-0.5,1.1-0.5,1.8c0,1.2,0.4,2.1,1.2,2.9
					c0.8,0.8,1.9,1.4,3.2,2c1.3,0.6,2.9,1.1,4.6,1.5c1.7,0.5,3.5,1,5.2,1.6c1.8,0.6,3.5,1.3,5.3,2.1s3.3,1.8,4.6,3s2.4,2.7,3.2,4.5
					c0.8,1.8,1.2,3.9,1.2,6.4c0,3-0.6,5.5-1.8,7.6c-1.2,2.1-2.9,3.9-4.9,5.3c-2,1.4-4.4,2.4-7,3.1s-5.4,1-8.2,1
					c-2.2,0-4.5-0.2-6.8-0.6s-4.5-1-6.7-1.7c-2.2-0.8-4.3-1.7-6.3-2.8c-2-1.1-3.8-2.3-5.6-3.7l5.6-11.2c1.3,1.2,2.9,2.3,4.5,3.3
					c1.7,1,3.4,1.9,5.1,2.7s3.5,1.3,5.3,1.8s3.4,0.6,4.9,0.6c0.9,0,1.7-0.1,2.5-0.2c0.8-0.2,1.5-0.4,2.1-0.8
					c0.6-0.4,1.1-0.9,1.5-1.4c0.4-0.6,0.6-1.3,0.6-2.2c0-1.2-0.4-2.2-1.2-2.9c-0.8-0.8-1.9-1.4-3.2-2c-1.3-0.6-2.9-1.1-4.6-1.5
					c-1.7-0.4-3.5-0.9-5.3-1.5s-3.5-1.2-5.3-2c-1.7-0.8-3.3-1.7-4.6-2.9s-2.4-2.6-3.2-4.3c-0.8-1.7-1.2-3.8-1.2-6.2
					c0-2.7,0.6-5.2,1.7-7.3s2.7-3.8,4.7-5.3c2-1.4,4.3-2.5,7-3.2c2.7-0.7,5.5-1.1,8.6-1.1c1.9,0,3.9,0.1,5.9,0.4
					c2,0.3,3.9,0.7,5.8,1.2c1.9,0.5,3.7,1.2,5.4,1.9c1.7,0.8,3.3,1.6,4.8,2.6L745.3,635.7z"/>
			</g>
		</g>
		<g>
			<g>
				<g>
					<g>
						<path class="st4" d="M375,690.6c-0.3-0.2-0.5-0.5-0.8-0.6s-0.6-0.4-0.9-0.5c-0.3-0.1-0.7-0.2-1-0.3s-0.7-0.1-1-0.1
							c-0.6,0-1.2,0.1-1.8,0.4c-0.6,0.2-1,0.6-1.4,1c-0.4,0.4-0.7,0.9-1,1.5c-0.2,0.6-0.3,1.2-0.3,1.8c0,0.7,0.1,1.3,0.4,1.8
							s0.6,1.1,1,1.5c0.4,0.4,0.9,0.8,1.5,1c0.6,0.2,1.2,0.4,1.8,0.4c0.3,0,0.6,0,0.9-0.1c0.3-0.1,0.6-0.2,1-0.3
							c0.3-0.1,0.6-0.3,0.9-0.4c0.3-0.2,0.6-0.4,0.9-0.6l1.6,1.9c-0.3,0.3-0.7,0.5-1.2,0.7s-0.9,0.4-1.4,0.6
							c-0.5,0.2-0.9,0.3-1.4,0.4c-0.5,0.1-1,0.1-1.4,0.1c-1,0-2-0.2-2.8-0.5c-0.9-0.4-1.6-0.8-2.3-1.5c-0.6-0.6-1.1-1.4-1.5-2.2
							c-0.4-0.8-0.6-1.8-0.6-2.8c0-1,0.2-1.9,0.6-2.7c0.4-0.8,0.9-1.6,1.5-2.2c0.7-0.6,1.4-1.1,2.3-1.5c0.9-0.4,1.9-0.5,2.9-0.5
							c0.5,0,1,0,1.5,0.1c0.5,0.1,1,0.2,1.4,0.4c0.5,0.2,0.9,0.4,1.3,0.6c0.4,0.2,0.8,0.5,1.1,0.8L375,690.6z M373.9,694.9h-3.9
							v-2.2h6.3v6.2h-2.5V694.9z"/>
						<path class="st4" d="M386.9,687c0.9,0,1.7,0.1,2.3,0.3c0.7,0.2,1.3,0.5,1.7,0.9c0.5,0.4,0.8,0.9,1.1,1.5
							c0.2,0.6,0.4,1.2,0.4,2c0,0.8-0.1,1.5-0.4,2.1c-0.2,0.6-0.6,1.1-1.1,1.5c-0.5,0.4-1,0.7-1.7,1c-0.7,0.2-1.5,0.3-2.3,0.3h-3v4
							h-2.7V687H386.9z M386.9,694.3c0.5,0,0.9-0.1,1.2-0.2c0.4-0.1,0.7-0.3,0.9-0.5c0.3-0.2,0.4-0.5,0.6-0.8s0.2-0.7,0.2-1.1
							c0-0.4-0.1-0.8-0.2-1.1c-0.1-0.3-0.3-0.6-0.6-0.8c-0.2-0.2-0.6-0.4-0.9-0.5c-0.4-0.1-0.8-0.2-1.2-0.2h-3v5.1H386.9z
							 M386.7,695.5h2.7l3.3,5h-3.1L386.7,695.5z"/>
						<path class="st4" d="M401.3,687h2.8l5.8,13.6h-2.9l-4.4-10.8l-4.4,10.8h-2.8L401.3,687z M398.6,695.5h8v2.2h-8V695.5z"/>
						<path class="st4" d="M413.4,687h2.5l7.6,10.3l-0.7,0.2V687h2.6v13.6h-2.5l-7.6-10.3l0.7-0.2v10.5h-2.6V687z"/>
						<path class="st4" d="M436.2,687c1,0,2,0.2,2.9,0.5c0.9,0.3,1.6,0.8,2.2,1.4c0.6,0.6,1.1,1.3,1.5,2.1c0.3,0.8,0.5,1.7,0.5,2.7
							c0,1-0.2,1.9-0.5,2.7c-0.4,0.8-0.8,1.5-1.5,2.1c-0.6,0.6-1.4,1.1-2.3,1.4c-0.9,0.3-1.8,0.5-2.9,0.5h-5.6V687H436.2z
							 M436.3,698.3c0.6,0,1.2-0.1,1.7-0.3c0.5-0.2,1-0.5,1.3-0.9c0.4-0.4,0.7-0.9,0.9-1.4c0.2-0.5,0.3-1.2,0.3-1.8
							c0-0.7-0.1-1.3-0.3-1.8s-0.5-1-0.9-1.4s-0.9-0.7-1.4-0.9c-0.5-0.2-1.1-0.3-1.7-0.3h-2.9v9H436.3z"/>
						<path class="st4" d="M460,687c0.9,0,1.7,0.1,2.3,0.3c0.7,0.2,1.3,0.5,1.7,0.9c0.5,0.4,0.8,0.9,1.1,1.5c0.2,0.6,0.4,1.2,0.4,2
							c0,0.8-0.1,1.5-0.4,2.1s-0.6,1.1-1.1,1.5c-0.5,0.4-1,0.7-1.7,1c-0.7,0.2-1.5,0.3-2.3,0.3h-3v4h-2.7V687H460z M460,694.3
							c0.5,0,0.9-0.1,1.2-0.2c0.4-0.1,0.7-0.3,0.9-0.5s0.4-0.5,0.6-0.8s0.2-0.7,0.2-1.1c0-0.4-0.1-0.8-0.2-1.1
							c-0.1-0.3-0.3-0.6-0.6-0.8c-0.2-0.2-0.6-0.4-0.9-0.5c-0.4-0.1-0.8-0.2-1.2-0.2h-3v5.1H460z M459.8,695.5h2.7l3.3,5h-3.1
							L459.8,695.5z"/>
						<path class="st4" d="M474.4,687h2.8l5.8,13.6h-2.9l-4.4-10.8l-4.4,10.8h-2.8L474.4,687z M471.7,695.5h8v2.2h-8V695.5z"/>
						<path class="st4" d="M492.1,687c0.9,0,1.6,0.1,2.3,0.3c0.7,0.2,1.2,0.5,1.7,0.9c0.5,0.4,0.8,0.9,1.1,1.5
							c0.2,0.6,0.4,1.2,0.4,2c0,0.8-0.1,1.5-0.4,2.1c-0.2,0.6-0.6,1.1-1.1,1.5c-0.5,0.4-1,0.7-1.7,1c-0.7,0.2-1.4,0.3-2.3,0.3H488
							l1.2-1.2v5.2h-2.7V687H492.1z M492,694.3c0.5,0,0.9-0.1,1.2-0.2c0.4-0.1,0.7-0.3,0.9-0.5s0.4-0.5,0.6-0.8s0.2-0.7,0.2-1.1
							c0-0.4-0.1-0.8-0.2-1.1c-0.1-0.3-0.3-0.6-0.6-0.8s-0.6-0.4-0.9-0.5c-0.4-0.1-0.8-0.2-1.2-0.2H488l1.2-1.2v7.5l-1.2-1.2H492z"
							/>
						<path class="st4" d="M501.4,687h2.7v13.6h-2.7V687z"/>
						<path class="st4" d="M514.9,687c1,0,2,0.2,2.9,0.5c0.9,0.3,1.6,0.8,2.2,1.4c0.6,0.6,1.1,1.3,1.5,2.1c0.3,0.8,0.5,1.7,0.5,2.7
							c0,1-0.2,1.9-0.5,2.7c-0.4,0.8-0.8,1.5-1.5,2.1c-0.6,0.6-1.4,1.1-2.3,1.4c-0.9,0.3-1.8,0.5-2.9,0.5h-5.6V687H514.9z
							 M515,698.3c0.6,0,1.2-0.1,1.7-0.3c0.5-0.2,1-0.5,1.3-0.9c0.4-0.4,0.7-0.9,0.9-1.4c0.2-0.5,0.3-1.2,0.3-1.8
							c0-0.7-0.1-1.3-0.3-1.8s-0.5-1-0.9-1.4s-0.9-0.7-1.4-0.9s-1.1-0.3-1.7-0.3H512v9H515z"/>
						<path class="st4" d="M534.6,690.4c-0.3-0.2-0.6-0.4-1-0.5c-0.3-0.2-0.7-0.3-1-0.4c-0.4-0.1-0.7-0.2-1.1-0.3
							c-0.4-0.1-0.7-0.1-1-0.1c-0.2,0-0.4,0-0.7,0.1c-0.2,0-0.4,0.1-0.6,0.2c-0.2,0.1-0.3,0.2-0.5,0.4c-0.1,0.2-0.2,0.4-0.2,0.6
							c0,0.4,0.1,0.6,0.3,0.9c0.2,0.2,0.5,0.4,0.8,0.6c0.3,0.2,0.7,0.3,1.2,0.4c0.4,0.1,0.9,0.3,1.3,0.4c0.5,0.1,0.9,0.3,1.3,0.5
							c0.4,0.2,0.8,0.4,1.2,0.7c0.3,0.3,0.6,0.7,0.8,1.1c0.2,0.4,0.3,1,0.3,1.6c0,0.7-0.2,1.3-0.5,1.8s-0.7,0.9-1.2,1.3
							c-0.5,0.3-1.1,0.6-1.7,0.7c-0.6,0.2-1.3,0.2-1.9,0.2c-0.5,0-1.1,0-1.6-0.1c-0.5-0.1-1-0.2-1.5-0.4c-0.5-0.2-1-0.4-1.4-0.7
							c-0.5-0.3-0.9-0.6-1.3-0.9l1.1-2.2c0.3,0.3,0.7,0.5,1,0.8c0.4,0.2,0.8,0.5,1.2,0.6c0.4,0.2,0.8,0.3,1.3,0.4
							c0.4,0.1,0.8,0.2,1.2,0.2c0.3,0,0.5,0,0.8-0.1c0.3-0.1,0.5-0.1,0.7-0.3c0.2-0.1,0.4-0.3,0.5-0.5s0.2-0.4,0.2-0.7
							c0-0.4-0.1-0.7-0.3-0.9c-0.2-0.2-0.5-0.4-0.8-0.6c-0.3-0.2-0.7-0.3-1.2-0.4c-0.4-0.1-0.9-0.3-1.3-0.4s-0.9-0.3-1.3-0.5
							c-0.4-0.2-0.8-0.4-1.2-0.7c-0.3-0.3-0.6-0.6-0.8-1.1s-0.3-0.9-0.3-1.5c0-0.7,0.1-1.3,0.4-1.8c0.3-0.5,0.7-0.9,1.2-1.2
							c0.5-0.3,1-0.6,1.6-0.7s1.2-0.2,1.9-0.2c0.4,0,0.9,0,1.3,0.1s0.9,0.2,1.3,0.3c0.4,0.1,0.8,0.3,1.2,0.5s0.8,0.4,1.1,0.6
							L534.6,690.4z"/>
						<path class="st4" d="M547,687h2.7v11.2h5.8v2.3H547V687z"/>
						<path class="st4" d="M568.4,687.4c0.9,0.4,1.6,0.8,2.3,1.5c0.6,0.6,1.2,1.3,1.5,2.2c0.4,0.8,0.6,1.8,0.6,2.7
							c0,1-0.2,1.9-0.6,2.7c-0.4,0.9-0.9,1.6-1.5,2.2s-1.4,1.1-2.3,1.5s-1.8,0.5-2.9,0.5c-1,0-2-0.2-2.9-0.5s-1.6-0.8-2.3-1.5
							s-1.2-1.4-1.5-2.2s-0.6-1.8-0.6-2.7c0-1,0.2-1.9,0.6-2.7c0.4-0.8,0.9-1.6,1.5-2.2c0.6-0.6,1.4-1.1,2.3-1.5s1.8-0.5,2.9-0.5
							C566.6,686.8,567.5,687,568.4,687.4z M563.9,689.5c-0.5,0.2-1,0.6-1.4,1c-0.4,0.4-0.7,0.9-1,1.5c-0.2,0.6-0.4,1.2-0.4,1.8
							c0,0.7,0.1,1.3,0.4,1.8c0.2,0.6,0.6,1.1,1,1.5c0.4,0.4,0.9,0.8,1.4,1c0.5,0.2,1.1,0.4,1.7,0.4c0.6,0,1.2-0.1,1.7-0.4
							c0.5-0.2,1-0.6,1.4-1c0.4-0.4,0.7-0.9,0.9-1.5c0.2-0.6,0.3-1.2,0.3-1.8c0-0.6-0.1-1.2-0.3-1.8c-0.2-0.6-0.5-1.1-0.9-1.5
							c-0.4-0.4-0.9-0.7-1.4-1c-0.5-0.2-1.1-0.4-1.7-0.4C565,689.1,564.4,689.2,563.9,689.5z"/>
						<path class="st4" d="M586.7,690.9c-0.2-0.3-0.5-0.5-0.8-0.7c-0.3-0.2-0.6-0.4-0.9-0.6c-0.3-0.2-0.6-0.3-1-0.4s-0.7-0.1-1-0.1
							c-0.6,0-1.2,0.1-1.7,0.4c-0.5,0.2-1,0.6-1.4,1c-0.4,0.4-0.7,0.9-0.9,1.5c-0.2,0.6-0.3,1.2-0.3,1.8c0,0.6,0.1,1.2,0.3,1.8
							c0.2,0.6,0.5,1.1,0.9,1.5c0.4,0.4,0.9,0.7,1.4,1c0.5,0.2,1.1,0.4,1.7,0.4c0.3,0,0.6,0,1-0.1c0.3-0.1,0.6-0.2,1-0.3
							c0.3-0.1,0.6-0.3,0.9-0.5c0.3-0.2,0.6-0.4,0.8-0.7l1.6,1.7c-0.3,0.4-0.7,0.7-1.2,1c-0.4,0.3-0.9,0.5-1.3,0.7s-0.9,0.4-1.4,0.5
							s-1,0.2-1.5,0.2c-1,0-1.9-0.2-2.8-0.5c-0.9-0.4-1.6-0.8-2.2-1.5s-1.1-1.4-1.5-2.2s-0.5-1.8-0.5-2.8c0-1,0.2-1.9,0.6-2.7
							c0.4-0.8,0.9-1.6,1.5-2.2c0.6-0.6,1.4-1.1,2.3-1.5s1.8-0.5,2.8-0.5c0.5,0,1,0,1.5,0.1c0.5,0.1,1,0.2,1.4,0.4
							c0.5,0.2,0.9,0.4,1.3,0.7c0.4,0.3,0.8,0.6,1.1,0.9L586.7,690.9z"/>
						<path class="st4" d="M596.4,687h2.8l5.8,13.6h-2.9l-4.4-10.8l-4.4,10.8h-2.8L596.4,687z M593.7,695.5h8v2.2h-8V695.5z"/>
						<path class="st4" d="M608.5,687h2.7v11.2h5.8v2.3h-8.5V687z"/>
						<path class="st4" d="M633.5,687c1,0,2,0.2,2.9,0.5c0.9,0.3,1.6,0.8,2.2,1.4c0.6,0.6,1.1,1.3,1.5,2.1c0.3,0.8,0.5,1.7,0.5,2.7
							c0,1-0.2,1.9-0.5,2.7c-0.4,0.8-0.8,1.5-1.5,2.1c-0.6,0.6-1.4,1.1-2.3,1.4c-0.9,0.3-1.8,0.5-2.9,0.5h-5.6V687H633.5z
							 M633.6,698.3c0.6,0,1.2-0.1,1.7-0.3c0.5-0.2,1-0.5,1.3-0.9c0.4-0.4,0.7-0.9,0.9-1.4c0.2-0.5,0.3-1.2,0.3-1.8
							c0-0.7-0.1-1.3-0.3-1.8s-0.5-1-0.9-1.4s-0.9-0.7-1.4-0.9s-1.1-0.3-1.7-0.3h-2.9v9H633.6z"/>
						<path class="st4" d="M644.6,687h10v2.2h-7.3v3.4h6.6v2.2h-6.6v3.4h7.5v2.2h-10.3V687z"/>
						<path class="st4" d="M663.5,687h2.8l5.8,13.6h-2.9l-4.4-10.8l-4.4,10.8h-2.8L663.5,687z M660.8,695.5h8v2.2h-8V695.5z"/>
						<path class="st4" d="M675.6,687h2.7v11.2h5.8v2.3h-8.5V687z"/>
						<path class="st4" d="M696.6,690.4c-0.3-0.2-0.6-0.4-1-0.5c-0.3-0.2-0.7-0.3-1-0.4c-0.4-0.1-0.7-0.2-1.1-0.3
							c-0.4-0.1-0.7-0.1-1-0.1c-0.2,0-0.4,0-0.7,0.1c-0.2,0-0.4,0.1-0.6,0.2c-0.2,0.1-0.3,0.2-0.5,0.4c-0.1,0.2-0.2,0.4-0.2,0.6
							c0,0.4,0.1,0.6,0.3,0.9c0.2,0.2,0.5,0.4,0.8,0.6c0.3,0.2,0.7,0.3,1.2,0.4c0.4,0.1,0.9,0.3,1.3,0.4c0.5,0.1,0.9,0.3,1.3,0.5
							s0.8,0.4,1.2,0.7c0.3,0.3,0.6,0.7,0.8,1.1c0.2,0.4,0.3,1,0.3,1.6c0,0.7-0.2,1.3-0.5,1.8s-0.7,0.9-1.2,1.3
							c-0.5,0.3-1.1,0.6-1.7,0.7c-0.6,0.2-1.3,0.2-1.9,0.2c-0.5,0-1.1,0-1.6-0.1c-0.5-0.1-1-0.2-1.5-0.4c-0.5-0.2-1-0.4-1.4-0.7
							c-0.5-0.3-0.9-0.6-1.3-0.9l1.1-2.2c0.3,0.3,0.7,0.5,1,0.8s0.8,0.5,1.2,0.6s0.8,0.3,1.3,0.4s0.8,0.2,1.2,0.2
							c0.3,0,0.5,0,0.8-0.1c0.3-0.1,0.5-0.1,0.7-0.3s0.4-0.3,0.5-0.5c0.1-0.2,0.2-0.4,0.2-0.7c0-0.4-0.1-0.7-0.3-0.9
							s-0.5-0.4-0.8-0.6c-0.3-0.2-0.7-0.3-1.2-0.4c-0.4-0.1-0.9-0.3-1.3-0.4s-0.9-0.3-1.3-0.5c-0.4-0.2-0.8-0.4-1.2-0.7
							c-0.3-0.3-0.6-0.6-0.8-1.1c-0.2-0.4-0.3-0.9-0.3-1.5c0-0.7,0.1-1.3,0.4-1.8c0.3-0.5,0.7-0.9,1.2-1.2c0.5-0.3,1-0.6,1.6-0.7
							s1.2-0.2,1.9-0.2c0.4,0,0.9,0,1.3,0.1c0.4,0.1,0.9,0.2,1.3,0.3c0.4,0.1,0.8,0.3,1.2,0.5s0.8,0.4,1.1,0.6L696.6,690.4z"/>
					</g>
				</g>
			</g>
			<rect x="711" y="692.1" class="st5" width="38.4" height="3.6"/>
			<rect x="313.3" y="692.1" class="st5" width="38.4" height="3.6"/>
		</g>
		<path class="st5" d="M520.7,398.9l-9.3,11.8l-16.5,21.9c0,0,0,0,0,0c-10.2-7.1-20.2-12.9-35.8-15c-1.3-0.2-10.3-0.1-10.4-0.1
			c-26.4,2-47.1,21.7-47.1,48.8c0,26.9,21.3,48.1,48.7,48.4l0.1,33.3h-3.6v-12.3l-2.2-2.2h-4v-3.1l-1-1.9l-7.6-5v-2.1l-2.2-2.2h-1.6
			l-2.2,2.2v2l-9,5.7l-1,1.9v8.3c-0.1-0.1-0.1-0.1-0.2-0.2c-0.6-0.6-1.7-1.4-3.5-1.4c-1.1,0-2.4,0.3-3.4,0.8v-35.1l-2.2-2.2h-1.9
			l-4.1-5l-1.7-0.8h-1.7V494l-2.2-2.2h-0.8l-2.2,2.2v1.2h-1.3l-1.4,0.5l-7,5.9l-0.8,1.7c0.1,7.7,0.2,18.4,0.2,26.3
			c-17.3-16.1-28.3-38.9-28.3-64.1c-0.1-40.1,21.1-70.7,62.8-85.2c33-10.5,59.1-3.2,59.1-3.2C503.9,383.2,520.7,398.9,520.7,398.9z"
			/>
		<path class="st5" d="M521.9,452.4v34.8h0v42.3l-8.5-5.2v-0.2l-2.2-2.2h-2l-2.2,2.1l0,0.3l-8.5,5.7l-1,1.8v7.4l-5.3-4h-2.7
			l-7.2,5.4v-27.8l-2-2.2c-0.9-0.1-1.1-0.4-1.4-1l0-0.1c-0.1-0.2-0.2-0.4-0.3-0.6c0.4-0.2,0.8-0.5,1.2-0.8v-21.1h-34.1v-34.8H521.9z
			"/>
		<path class="st4" d="M640.2,538h-4.6c0,0-9.2-15.8-24.5-29.9c-2.2-2.1-4.6-4.1-7.1-6.1c0,0-8.7-18.4-6.9-27c0,0,0.8-4.2,4.6-5
			c3.7-0.8,7,1,10.5,5.1c1.5,1.8,3.9,5,6.9,10.1c3.9,6.6,8.6,16.4,13.3,29.8c0,0,2.2,7.1,4.6,14.1C638,532,637.7,535.1,640.2,538z"
			/>
		<path class="st4" d="M526.5,526.9v-41.4c0,0,13.3,4.9,26.6,3.1c-5.8,5-10.4,10.4-14.3,16c-3.9,5.6-7.2,11.6-10.3,17.8L526.5,526.9
			z"/>
		<g>
			<path class="st4" d="M647.9,488.1L647.9,488.1c-0.4-0.5-0.8-1-1.2-1.5c0,0,0,0,0,0c16.2-6.5,29-27.7,29-50.5
				c0-22.4-10.6-48.9-49-56.6c-8.8-1.8-39.9-1.8-39.9-1.8h-60.3v107.9c0,0,52.3-2.8,86.5-53.1c-0.4,0.4-14.2,14.1-22.7,18.9
				c0,0-14.8,9-37.2,13.4c3.4-9.1,6.9-24.4,7.8-49.6c0,0,3.4-2.8,8.2,9c4.8,11.9,6.6,21.8,7.7,22.5c0,0-2.4,0.5-8.3-2.1l-0.3,4.2
				c0,0,5.6,0,8.8-1.6c0,0,13.4,0.7,14.4-15.5c0,0-0.1-10.5,5.5-2.4c0,0,5,8.4,9.4-0.4c3.7-7.4,5.8-19.7,5.8-19.7
				c1.9-7,2.7-8.6,2.7-8.6c4.9-11.6,7.3-0.5,7.3-0.5l2.5,14.1l4,26.6l8.6,52.7l6.8,44.2l3.4,11.8c0,0,2.9,0,7.3,0v-1.4l2.2-2.2h19.5
				l2.2,2.2v1.3c9.2,0,16.9,0,16.8,0.1C695.5,549.5,661.8,505,647.9,488.1z"/>
			<path class="st4" d="M574.9,463.1c0,0-19.8,12.2-29.3,14.2c0.2-0.1,3.7-2.8,7.4-12.5C553.9,465.3,561.6,468.5,574.9,463.1z"/>
		</g>
		<path class="st4" d="M624.7,449.8L608.3,460c0,0-21.6,10.2-28.2,16.1c-4,3.6-24.6,17.9-32,51.1l-0.1,0l-2.7,0.1l-5.6,4.6
			c3.6-11.2,10.4-28.5,20.8-42.1C577.2,467.9,601.7,460.7,624.7,449.8z"/>
		<path class="st4" d="M596.4,545.9l-3.2-0.3c0,0,0,0,0,0c-1.3-0.8-2.9-1.4-4.4-1.6v-25.6l-2.2-2.2h-1.2c-1.3-4-4.5-5.9-7.1-6.7
			v-3.6l-2.2-2.2h-1.6l-2.2,2.2v3.7c-4.8,1.5-6.9,4.6-7.8,6.6H563l-1.1,1.1c1.4-8.4,3.3-17.2,5.9-23.5c0,0,10.4-10.5,24.9,0
			c0.4,0.3,0.6,0.7,0.6,1.1C593.5,500.8,595.6,541.4,596.4,545.9z"/>
		<path class="st6" d="M584,598.1c-24.1,2.8-77.6-14-77.6-14c-43.6-12.5-98.6,0.3-98.6,0.3c-18.2,4.9-63.7,15.5-63.7,15.5
			c114.1-49.8,172.7-27.7,172.7-27.7c1.1,0.2,2.2,0.4,3.3,0.6c-1.6-0.1-2.9-0.2-3.8-0.2C512,572.8,562.8,592.1,584,598.1z"/>
		<path class="st6" d="M595.2,599.3c-0.4-0.1-0.9-0.1-1.3-0.2C594.4,599.2,594.8,599.3,595.2,599.3L595.2,599.3z"/>
		<path class="st7" d="M543,625.2c-1.1-1.1-3.2-2.1-3.3-2.2c0.5,0.1,1.1,0.3,1.6,0.4C542,624,542.6,624.5,543,625.2z"/>
		<path class="st3" d="M717.5,558.8v18.8c-0.4,0-0.3,0-0.7,0.1c-1.6-7.9-5.4-11.4-8.4-12.9c-2.8-1.4-6.1-1.3-8.8,0.3
			c-6.2,3.6-7.5,12.2-7.8,15.2c-1,0-2,0-3.1,0c-1.2-9.4-5.2-13.5-8.5-15.3c-3-1.6-6.7-1.4-9.6,0.4c-4.5,2.9-6.2,8.6-6.9,12.3
			c-1.3-0.2-2.6-0.5-3.9-0.8c-1.7-7.2-5.2-10.5-8-12c-3-1.6-6.6-1.4-9.5,0.5c-1.9,1.2-3.3,3-4.3,4.8c-4.7-1.8-16-5.8-26.4-6.3
			c0,0-15.4-2-24.9,3.1c0,0,16.5,0.7,19.2,5.1c0.2,0.4,0.2,0.8,0,1.2c-0.6,0.8-2.2,1.8-6.9,1c0,0-5.6-0.7-11-2.6
			c0,0-36.1-14.5-70.5-8.5c0,0,17.4,2.1,23.7,6.6c0.2,0,0.4,0.1,0.6,0.1c-0.2,0-0.4-0.1-0.6-0.1c0.8,0.6,1.4,1.2,1.8,1.8
			c0.5,0.6,0.8,1.2,0.4,1.8c-0.2,0.3-0.5,0.5-1,0.8c-0.2,0.1-0.4,0.2-0.6,0.2c0,0-0.3-0.1-0.8-0.1c0,0,0,0,0,0
			c-3.2-0.5-14.3-2.1-20.8-2.7h0c-1-0.2-2.1-0.4-3.3-0.6c0,0-52.6-19.8-155.3,20.5V580l0-20.5l0.2-30.4l6.5-5.7v-1.6h2l0.2,1.6
			l7.4,5.7v9.8c0,0,4.2-2.1,5.9,1.8c0.2,0.4,0.3-3.6,0.3-9.1c0-11.1-0.3-28.3-0.3-28.3l7-5.9h3.5v-3.4h0.8v3.4h3.9l4.8,5.8h3V542
			c0,0,8.9-6.3,8.3,2v1.3h3.2v-14.5l10-6.3v-3.3h1.6v3.3l8.6,5.7v5.3h6.3v14.5h8l-0.1-35.5l0-2.4c1.1-0.2,1.9-0.7,2.5-1.3
			c0.7-0.6,1.2-1.5,1.6-2.4c1-2.1,3.6-4.5,7.8-4.4l0-8l0.9-2l1,2v8c0,0,6.1-1.2,10.1,5.9c0.1,0.2,0.2,0.4,0.3,0.6
			c0.3,0.7,1,2,3.2,2.2v36.4h3.1v-6.5l7.7-5.7l7.4,5.6v5.5h1.5v-16.3l9.4-6.4l0.1-1.5h2v1.4l10.4,6.4v8.5c0,0,0.1,0,0.4-0.1
			c1.9-0.3,10.1-1,9.1,7.8h1.8l0,1.7h4.5v-13.3l1-0.8l8.2-6.7l0.9,0.7l9.2,6.9l0,11.4h3.8l2.4,1.8v-31.4h3.1c0,0,0.9-5.5,8.4-7.1
			v-5.4h1.6v5.4c0,0,6.5,0.4,7.5,7.1h3V546c0,0,7.4-0.4,8.4,5.9v9.6h2.4c0,0,3.1-7.4,7.2-0.4h1.6v-12.8l13.2-7.9l11.5,7.9l0.2,10.6
			h25.8v-10.9h19.5v10.7H717.5z"/>
		<path class="st8" d="M726.7,576.4c-4.5,3.3-9.1,6.1-13.7,8.5c-8.4,1.9-33.8,6.2-66-3.7c0,0,11.4,10.3-22.4-1.5
			c0,0,5.6,11.3-11.2,5.5c0,0,12.7,15.1-39.9-8.5c0,0-0.8,3.1,8.2,10.9c0,0-16.2,0.3-28.9-15.3c0,0-2.1,1-11.8-1.3
			c-6.3-4.5-23.7-6.6-23.7-6.6c34.4-6,70.5,8.5,70.5,8.5c5.4,2,11,2.7,11,2.7c4.7,0.8,6.4-0.3,6.9-1c0.2-0.3,0.3-0.8,0-1.2
			c-2.8-4.4-19.2-5.1-19.2-5.1c9.5-5.1,24.9-3.1,24.9-3.1c13.6,0.6,28.7,7.2,28.7,7.2c6.9,2.6,16.4,5.1,16.4,5.1
			C699.3,587.1,726,576.6,726.7,576.4z"/>
		<path class="st9" d="M713,584.9c-41.3,21.5-81.8,8.3-81.8,8.3c-8.4,6.5-19.6,7.6-28.6,7c-0.5,0-0.9-0.1-1.4-0.1
			c-1.3-0.1-2.6-0.2-3.8-0.4c-0.3,0-0.5-0.1-0.8-0.1c-0.5-0.1-1-0.1-1.5-0.2c-0.4-0.1-0.9-0.1-1.3-0.2c-0.1,0-0.2,0-0.3-0.1
			c-0.2,0-0.4-0.1-0.7-0.1c-0.5-0.1-0.9-0.2-1.3-0.3c-0.2,0-0.3-0.1-0.5-0.1c-0.2,0-0.3-0.1-0.5-0.1c-0.1,0-0.1,0-0.1,0
			c-0.2,0-0.3-0.1-0.5-0.1c-1.8-0.4-2.8-0.7-2.8-0.7c-1,0.2-2.1,0.4-3.2,0.5c-21.2-6.1-72.1-25.4-67.7-25.5c0.9,0,2.2,0.1,3.8,0.2h0
			c6.5,0.6,17.7,2.2,20.8,2.7c0,0,0,0,0,0c0.5,0.1,0.9,0.1,0.9,0.1c0.2-0.1,0.4-0.2,0.6-0.2c0.5-0.2,0.8-0.5,1-0.8
			c0.4-0.6,0.1-1.2-0.4-1.8c-0.4-0.6-1-1.2-1.8-1.8c9.7,2.3,11.8,1.3,11.8,1.3c12.7,15.5,28.9,15.3,28.9,15.3
			c-9-7.8-8.2-10.9-8.2-10.9c52.6,23.6,39.9,8.5,39.9,8.5c16.8,5.8,11.2-5.5,11.2-5.5c33.7,11.8,22.4,1.5,22.4,1.5
			C679.2,591.1,704.7,586.8,713,584.9z"/>
	</g>
</g>
</svg>
