<?xml version="1.0" encoding="UTF-8" standalone="no"?>
<!-- Generator: Adobe Illustrator 27.3.1, SVG Export Plug-In . SVG Version: 6.00 Build 0)  -->

<svg
   version="1.1"
   id="Layer_1"
   x="0px"
   y="0px"
   viewBox="0 0 760.09998 208.16679"
   xml:space="preserve"
   sodipodi:docname="logo-horizontal-dark.svg"
   width="760.09998"
   height="208.16679"
   inkscape:version="1.4.2 (f4327f4, 2025-05-13)"
   xmlns:inkscape="http://www.inkscape.org/namespaces/inkscape"
   xmlns:sodipodi="http://sodipodi.sourceforge.net/DTD/sodipodi-0.dtd"
   xmlns="http://www.w3.org/2000/svg"
   xmlns:svg="http://www.w3.org/2000/svg"><defs
   id="defs47" /><sodipodi:namedview
   id="namedview47"
   pagecolor="#ffffff"
   bordercolor="#000000"
   borderopacity="0.25"
   inkscape:showpageshadow="2"
   inkscape:pageopacity="0.0"
   inkscape:pagecheckerboard="0"
   inkscape:deskcolor="#d1d1d1"
   showgrid="false"
   inkscape:zoom="0.81944444"
   inkscape:cx="383.79661"
   inkscape:cy="104.33898"
   inkscape:window-width="1920"
   inkscape:window-height="1129"
   inkscape:window-x="-8"
   inkscape:window-y="-8"
   inkscape:window-maximized="1"
   inkscape:current-layer="Layer_1" />
<style
   type="text/css"
   id="style1">
	.st0{fill:#011634;}
	.st1{fill:none;stroke:#FDC91B;stroke-miterlimit:10;}
	.st2{fill:#2076B7;}
	.st3{fill:#EF3823;}
	.st4{fill:#FDC91B;}
	.st5{fill:#FFB02E;}
	.st6{opacity:0;fill:#C8DEEB;}
	.st7{fill:#2078B7;}
	.st8{fill:#C8DEEB;}
	.st9{fill:#FFFFFF;}
</style>
<g
   id="g47"
   transform="translate(-156.4,-435.94545)">
	<g
   id="g33">
		<g
   id="g9">
			<g
   id="g8">
				<path
   class="st0"
   d="m 551.5,532.9 c -1.2,-0.7 -2.5,-1.4 -3.9,-2 -1.4,-0.6 -2.8,-1.2 -4.2,-1.7 -1.4,-0.5 -2.9,-0.9 -4.2,-1.2 -1.4,-0.3 -2.7,-0.4 -3.8,-0.4 -0.6,0 -1.3,0.1 -1.9,0.2 -0.6,0.1 -1.2,0.3 -1.6,0.6 -0.5,0.3 -0.9,0.7 -1.2,1.1 -0.3,0.4 -0.4,1 -0.4,1.7 0,1.1 0.4,2 1.1,2.7 0.7,0.7 1.8,1.3 3,1.8 1.2,0.5 2.7,1 4.2,1.4 1.6,0.4 3.2,0.9 4.8,1.5 1.6,0.6 3.3,1.2 4.9,1.9 1.6,0.7 3,1.7 4.2,2.8 1.2,1.1 2.2,2.5 3,4.1 0.8,1.6 1.1,3.6 1.1,5.9 0,2.7 -0.6,5.1 -1.7,7 -1.1,2 -2.6,3.6 -4.5,4.9 -1.9,1.3 -4,2.2 -6.5,2.8 -2.5,0.6 -4.9,0.9 -7.5,0.9 -2.1,0 -4.1,-0.2 -6.2,-0.5 -2.1,-0.4 -4.2,-0.9 -6.2,-1.6 -2,-0.7 -3.9,-1.5 -5.8,-2.6 -1.8,-1 -3.5,-2.2 -5.1,-3.4 l 5.2,-10.3 c 1.2,1.1 2.6,2.1 4.2,3 1.5,0.9 3.1,1.8 4.7,2.5 1.6,0.7 3.3,1.2 4.9,1.6 1.6,0.4 3.1,0.6 4.5,0.6 0.8,0 1.5,-0.1 2.3,-0.2 0.7,-0.1 1.4,-0.4 2,-0.7 0.6,-0.3 1.1,-0.8 1.4,-1.3 0.3,-0.5 0.5,-1.2 0.5,-2 0,-1.1 -0.4,-2 -1.1,-2.7 -0.8,-0.7 -1.8,-1.3 -3,-1.8 -1.2,-0.5 -2.7,-1 -4.2,-1.4 -1.5,-0.4 -3.2,-0.9 -4.9,-1.4 -1.6,-0.5 -3.3,-1.1 -4.9,-1.8 -1.6,-0.7 -3,-1.6 -4.2,-2.7 -1.2,-1.1 -2.2,-2.4 -3,-4 -0.8,-1.6 -1.1,-3.5 -1.1,-5.7 0,-2.5 0.5,-4.8 1.6,-6.7 1.1,-1.9 2.5,-3.5 4.3,-4.9 1.8,-1.3 4,-2.3 6.4,-3 2.5,-0.7 5.1,-1 7.9,-1 1.8,0 3.6,0.1 5.4,0.4 1.8,0.3 3.6,0.6 5.3,1.1 1.7,0.5 3.4,1.1 5,1.8 1.6,0.7 3.1,1.5 4.4,2.4 z"
   id="path1" />
				<path
   class="st0"
   d="m 592.1,517.8 c 3.2,0 6.1,0.4 8.6,1.2 2.5,0.8 4.6,1.9 6.4,3.4 1.7,1.5 3,3.3 3.9,5.5 0.9,2.2 1.3,4.7 1.3,7.5 0,2.9 -0.4,5.6 -1.3,7.9 -0.9,2.3 -2.2,4.3 -3.9,5.9 -1.7,1.6 -3.9,2.8 -6.4,3.6 -2.5,0.8 -5.4,1.3 -8.6,1.3 h -14.6 l 5.8,-5.8 V 568 H 570 v -50.2 z m -0.7,25.8 c 1.3,0 2.5,-0.2 3.5,-0.5 1,-0.3 1.9,-0.8 2.6,-1.5 0.7,-0.7 1.2,-1.5 1.6,-2.5 0.4,-1 0.6,-2.1 0.6,-3.4 0,-1.2 -0.2,-2.3 -0.6,-3.3 -0.4,-0.9 -0.9,-1.7 -1.6,-2.3 -0.7,-0.6 -1.6,-1.1 -2.6,-1.4 -1,-0.3 -2.2,-0.5 -3.5,-0.5 h -14 l 5.8,-5.8 v 27 l -5.8,-5.8 z"
   id="path2" />
				<path
   class="st0"
   d="m 625.5,517.8 h 39.8 v 10.5 h -26.5 v 9.3 h 23.9 V 548 h -23.9 v 9.5 H 666 V 568 h -40.5 z"
   id="path3" />
				<path
   class="st0"
   d="m 717.1,534.8 c -0.8,-1 -1.7,-2 -2.7,-2.8 -1,-0.8 -2,-1.5 -3.1,-2.1 -1.1,-0.6 -2.2,-1 -3.3,-1.3 -1.1,-0.3 -2.2,-0.5 -3.3,-0.5 -1.9,0 -3.7,0.4 -5.3,1.1 -1.6,0.7 -3,1.8 -4.2,3 -1.2,1.3 -2.2,2.8 -2.8,4.6 -0.6,1.8 -1,3.7 -1,5.8 0,2.1 0.3,4 1,5.8 0.7,1.8 1.6,3.3 2.8,4.6 1.2,1.3 2.6,2.3 4.2,3.1 1.6,0.8 3.4,1.1 5.3,1.1 1.1,0 2.1,-0.1 3.2,-0.4 1.1,-0.3 2.2,-0.7 3.2,-1.2 1.1,-0.5 2.1,-1.1 3.1,-1.9 1,-0.7 2,-1.5 2.8,-2.5 l 7.8,8.2 c -1.3,1.4 -2.8,2.7 -4.5,3.9 -1.6,1.2 -3.4,2.2 -5.2,3 -1.8,0.8 -3.6,1.5 -5.6,1.9 -1.9,0.5 -3.8,0.7 -5.7,0.7 -3.8,0 -7.3,-0.7 -10.5,-2 -3.2,-1.3 -6,-3.2 -8.4,-5.5 -2.3,-2.3 -4.2,-5.1 -5.5,-8.3 -1.3,-3.2 -2,-6.7 -2,-10.4 0,-3.7 0.7,-7.1 2,-10.3 1.4,-3.2 3.2,-5.9 5.6,-8.2 2.4,-2.3 5.2,-4.1 8.5,-5.4 3.3,-1.3 6.8,-2 10.7,-2 1.9,0 3.7,0.2 5.6,0.6 1.9,0.4 3.7,1 5.5,1.8 1.8,0.8 3.4,1.7 5,2.7 1.6,1.1 3,2.3 4.2,3.6 z"
   id="path4" />
				<path
   class="st0"
   d="m 737.2,517.8 h 13.3 V 568 h -13.3 z"
   id="path5" />
				<path
   class="st0"
   d="M 783.4,517.8 H 797 l 21,50.2 h -14.2 l -14,-36.9 -14.3,36.9 h -13.7 z m -8.6,31.3 h 29.3 v 10 h -29.3 z"
   id="path6" />
				<path
   class="st0"
   d="m 829.3,517.8 h 13.3 v 39 h 21.2 V 568 h -34.6 v -50.2 z"
   id="path7" />
				<path
   class="st0"
   d="m 911.3,532.9 c -1.2,-0.7 -2.5,-1.4 -3.9,-2 -1.4,-0.6 -2.8,-1.2 -4.2,-1.7 -1.4,-0.5 -2.9,-0.9 -4.2,-1.2 -1.4,-0.3 -2.7,-0.4 -3.8,-0.4 -0.6,0 -1.3,0.1 -1.9,0.2 -0.6,0.1 -1.2,0.3 -1.6,0.6 -0.5,0.3 -0.9,0.7 -1.2,1.1 -0.3,0.4 -0.4,1 -0.4,1.7 0,1.1 0.4,2 1.1,2.7 0.7,0.7 1.8,1.3 3,1.8 1.2,0.5 2.7,1 4.2,1.4 1.6,0.4 3.2,0.9 4.8,1.5 1.7,0.5 3.3,1.2 4.9,1.9 1.6,0.7 3,1.7 4.2,2.8 1.2,1.1 2.2,2.5 3,4.1 0.8,1.6 1.1,3.6 1.1,5.9 0,2.7 -0.6,5.1 -1.7,7 -1.1,2 -2.6,3.6 -4.5,4.9 -1.9,1.3 -4,2.2 -6.5,2.8 -2.5,0.6 -4.9,0.9 -7.5,0.9 -2.1,0 -4.1,-0.2 -6.2,-0.5 -2.1,-0.4 -4.2,-0.9 -6.2,-1.6 -2,-0.7 -3.9,-1.5 -5.8,-2.6 -1.8,-1 -3.6,-2.2 -5.1,-3.4 l 5.2,-10.3 c 1.2,1.1 2.6,2.1 4.2,3 1.5,0.9 3.1,1.8 4.7,2.5 1.6,0.7 3.3,1.2 4.9,1.6 1.6,0.4 3.1,0.6 4.5,0.6 0.8,0 1.5,-0.1 2.3,-0.2 0.7,-0.1 1.4,-0.4 2,-0.7 0.6,-0.3 1.1,-0.8 1.4,-1.3 0.3,-0.5 0.5,-1.2 0.5,-2 0,-1.1 -0.4,-2 -1.1,-2.7 -0.7,-0.7 -1.8,-1.3 -3,-1.8 -1.2,-0.5 -2.7,-1 -4.2,-1.4 -1.6,-0.4 -3.2,-0.9 -4.9,-1.4 -1.6,-0.5 -3.3,-1.1 -4.9,-1.8 -1.6,-0.7 -3,-1.6 -4.2,-2.7 -1.2,-1.1 -2.2,-2.4 -3,-4 -0.8,-1.6 -1.1,-3.5 -1.1,-5.7 0,-2.5 0.5,-4.8 1.6,-6.7 1.1,-1.9 2.5,-3.5 4.3,-4.9 1.8,-1.3 4,-2.3 6.4,-3 2.4,-0.7 5.1,-1 7.9,-1 1.8,0 3.6,0.1 5.4,0.4 1.8,0.3 3.6,0.6 5.3,1.1 1.7,0.5 3.4,1.1 5,1.8 1.6,0.7 3.1,1.5 4.4,2.4 z"
   id="path8" />
			</g>
		</g>
		<g
   id="g32">
			<g
   id="g31">
				<g
   id="g30">
					<g
   id="g29">
						<path
   class="st3"
   d="m 569.8,583.5 c -0.2,-0.2 -0.5,-0.4 -0.8,-0.6 -0.3,-0.2 -0.6,-0.3 -0.9,-0.5 -0.3,-0.1 -0.6,-0.2 -0.9,-0.3 -0.3,-0.1 -0.6,-0.1 -0.9,-0.1 -0.6,0 -1.1,0.1 -1.7,0.3 -0.5,0.2 -1,0.5 -1.3,0.9 -0.3,0.4 -0.7,0.8 -0.9,1.4 -0.2,0.5 -0.3,1.1 -0.3,1.7 0,0.6 0.1,1.2 0.3,1.7 0.2,0.5 0.5,1 0.9,1.4 0.4,0.4 0.8,0.7 1.3,0.9 0.5,0.2 1.1,0.3 1.7,0.3 0.3,0 0.6,0 0.8,-0.1 0.3,-0.1 0.6,-0.1 0.9,-0.3 0.3,-0.1 0.6,-0.2 0.9,-0.4 0.3,-0.2 0.5,-0.3 0.8,-0.5 l 1.4,1.7 c -0.3,0.2 -0.7,0.5 -1.1,0.7 -0.4,0.2 -0.8,0.4 -1.2,0.5 -0.4,0.1 -0.9,0.3 -1.3,0.3 -0.4,0 -0.9,0.1 -1.3,0.1 -0.9,0 -1.8,-0.2 -2.6,-0.5 -0.8,-0.3 -1.5,-0.8 -2.1,-1.4 -0.6,-0.6 -1.1,-1.3 -1.4,-2 -0.3,-0.8 -0.5,-1.6 -0.5,-2.5 0,-0.9 0.2,-1.7 0.5,-2.5 0.3,-0.8 0.8,-1.5 1.4,-2 0.6,-0.6 1.3,-1 2.1,-1.4 0.8,-0.4 1.7,-0.5 2.7,-0.5 0.5,0 0.9,0 1.4,0.1 0.5,0.1 0.9,0.2 1.3,0.4 0.4,0.2 0.8,0.3 1.2,0.6 0.4,0.2 0.7,0.5 1,0.8 z m -0.9,3.9 h -3.6 v -2 h 5.8 v 5.7 h -2.3 v -3.7 z"
   id="path9" />
						<path
   class="st3"
   d="m 580.8,580.1 c 0.8,0 1.5,0.1 2.2,0.3 0.7,0.2 1.2,0.5 1.6,0.8 0.4,0.4 0.8,0.8 1,1.3 0.2,0.5 0.3,1.1 0.3,1.8 0,0.7 -0.1,1.4 -0.3,1.9 -0.2,0.6 -0.6,1 -1,1.4 -0.4,0.4 -1,0.7 -1.6,0.9 -0.6,0.2 -1.4,0.3 -2.2,0.3 h -2.7 v 3.7 h -2.5 V 580 h 5.2 z m 0,6.7 c 0.4,0 0.8,-0.1 1.2,-0.2 0.3,-0.1 0.6,-0.2 0.9,-0.4 0.2,-0.2 0.4,-0.4 0.5,-0.7 0.1,-0.3 0.2,-0.6 0.2,-1 0,-0.4 -0.1,-0.7 -0.2,-1 -0.1,-0.3 -0.3,-0.5 -0.5,-0.7 -0.2,-0.2 -0.5,-0.3 -0.9,-0.4 -0.3,-0.1 -0.7,-0.1 -1.2,-0.1 h -2.7 v 4.7 h 2.7 z m -0.1,1.2 h 2.5 l 3.1,4.6 h -2.8 z"
   id="path10" />
						<path
   class="st3"
   d="m 594.2,580.1 h 2.6 l 5.4,12.5 h -2.7 l -4.1,-10 -4.1,10 h -2.6 z m -2.6,7.8 h 7.4 v 2 h -7.4 z"
   id="path11" />
						<path
   class="st3"
   d="m 605.3,580.1 h 2.3 l 7,9.5 -0.7,0.2 v -9.7 h 2.4 v 12.5 H 614 l -7,-9.5 0.7,-0.2 v 9.7 h -2.4 z"
   id="path12" />
						<path
   class="st3"
   d="m 626.3,580.1 c 1,0 1.8,0.2 2.6,0.5 0.8,0.3 1.5,0.7 2.1,1.3 0.6,0.6 1,1.2 1.3,2 0.3,0.8 0.5,1.6 0.5,2.5 0,0.9 -0.2,1.7 -0.5,2.5 -0.3,0.8 -0.8,1.4 -1.4,2 -0.6,0.6 -1.3,1 -2.1,1.3 -0.8,0.3 -1.7,0.5 -2.7,0.5 H 621 v -12.5 h 5.3 z m 0.1,10.4 c 0.6,0 1.1,-0.1 1.6,-0.3 0.5,-0.2 0.9,-0.5 1.2,-0.9 0.3,-0.4 0.6,-0.8 0.8,-1.3 0.2,-0.5 0.3,-1.1 0.3,-1.7 0,-0.6 -0.1,-1.2 -0.3,-1.7 -0.2,-0.5 -0.5,-1 -0.8,-1.3 -0.4,-0.4 -0.8,-0.7 -1.3,-0.9 -0.5,-0.2 -1,-0.3 -1.6,-0.3 h -2.7 v 8.3 h 2.8 z"
   id="path13" />
						<path
   class="st3"
   d="m 648.2,580.1 c 0.8,0 1.5,0.1 2.2,0.3 0.6,0.2 1.2,0.5 1.6,0.8 0.4,0.3 0.8,0.8 1,1.3 0.2,0.5 0.3,1.1 0.3,1.8 0,0.7 -0.1,1.4 -0.3,1.9 -0.2,0.6 -0.6,1 -1,1.4 -0.4,0.4 -1,0.7 -1.6,0.9 -0.6,0.2 -1.4,0.3 -2.2,0.3 h -2.7 v 3.7 H 643 V 580 h 5.2 z m 0,6.7 c 0.4,0 0.8,-0.1 1.2,-0.2 0.3,-0.1 0.6,-0.2 0.9,-0.4 0.3,-0.2 0.4,-0.4 0.5,-0.7 0.1,-0.3 0.2,-0.6 0.2,-1 0,-0.4 -0.1,-0.7 -0.2,-1 -0.1,-0.3 -0.3,-0.5 -0.5,-0.7 -0.2,-0.2 -0.5,-0.3 -0.9,-0.4 -0.3,-0.1 -0.7,-0.1 -1.2,-0.1 h -2.7 v 4.7 h 2.7 z m -0.1,1.2 h 2.5 l 3.1,4.6 h -2.8 z"
   id="path14" />
						<path
   class="st3"
   d="m 661.5,580.1 h 2.6 l 5.4,12.5 h -2.7 l -4.1,-10 -4.1,10 H 656 Z m -2.5,7.8 h 7.4 v 2 H 659 Z"
   id="path15" />
						<path
   class="st3"
   d="m 677.8,580.1 c 0.8,0 1.5,0.1 2.1,0.3 0.6,0.2 1.1,0.5 1.6,0.8 0.4,0.4 0.7,0.8 1,1.3 0.2,0.5 0.3,1.1 0.3,1.8 0,0.7 -0.1,1.4 -0.3,1.9 -0.2,0.6 -0.5,1 -1,1.4 -0.4,0.4 -0.9,0.7 -1.6,0.9 -0.6,0.2 -1.3,0.3 -2.1,0.3 h -3.7 l 1.1,-1.1 v 4.8 h -2.5 V 580 h 5.1 z m -0.1,6.7 c 0.4,0 0.8,-0.1 1.2,-0.2 0.3,-0.1 0.6,-0.2 0.8,-0.4 0.2,-0.2 0.4,-0.4 0.5,-0.7 0.1,-0.3 0.2,-0.6 0.2,-1 0,-0.4 -0.1,-0.7 -0.2,-1 -0.1,-0.3 -0.3,-0.5 -0.5,-0.7 -0.2,-0.2 -0.5,-0.3 -0.8,-0.4 -0.3,-0.1 -0.7,-0.1 -1.2,-0.1 h -3.6 l 1.1,-1.1 v 6.9 l -1.1,-1.1 h 3.6 z"
   id="path16" />
						<path
   class="st3"
   d="m 686.4,580.1 h 2.5 v 12.5 h -2.5 z"
   id="path17" />
						<path
   class="st3"
   d="m 698.8,580.1 c 1,0 1.8,0.2 2.6,0.5 0.8,0.3 1.5,0.7 2.1,1.3 0.6,0.6 1,1.2 1.3,2 0.3,0.8 0.5,1.6 0.5,2.5 0,0.9 -0.2,1.7 -0.5,2.5 -0.3,0.8 -0.8,1.4 -1.4,2 -0.6,0.6 -1.3,1 -2.1,1.3 -0.8,0.3 -1.7,0.5 -2.7,0.5 h -5.1 v -12.5 h 5.3 z m 0.1,10.4 c 0.6,0 1.1,-0.1 1.6,-0.3 0.5,-0.2 0.9,-0.5 1.2,-0.9 0.3,-0.4 0.6,-0.8 0.8,-1.3 0.2,-0.5 0.3,-1.1 0.3,-1.7 0,-0.6 -0.1,-1.2 -0.3,-1.7 -0.2,-0.5 -0.5,-1 -0.8,-1.3 -0.4,-0.4 -0.8,-0.7 -1.3,-0.9 -0.5,-0.2 -1,-0.3 -1.6,-0.3 h -2.7 v 8.3 h 2.8 z"
   id="path18" />
						<path
   class="st3"
   d="m 717,583.3 c -0.3,-0.2 -0.6,-0.3 -0.9,-0.5 -0.3,-0.1 -0.6,-0.3 -1,-0.4 -0.4,-0.1 -0.7,-0.2 -1,-0.3 -0.3,-0.1 -0.6,-0.1 -1,-0.1 -0.2,0 -0.4,0 -0.6,0.1 -0.2,0 -0.4,0.1 -0.6,0.2 -0.2,0.1 -0.3,0.2 -0.4,0.4 -0.1,0.2 -0.2,0.4 -0.2,0.6 0,0.3 0.1,0.6 0.3,0.8 0.2,0.2 0.4,0.4 0.8,0.5 0.3,0.2 0.7,0.3 1.1,0.4 0.4,0.1 0.8,0.2 1.2,0.4 0.4,0.1 0.8,0.3 1.2,0.5 0.4,0.2 0.8,0.4 1.1,0.7 0.3,0.3 0.6,0.6 0.8,1 0.2,0.4 0.3,0.9 0.3,1.4 0,0.7 -0.1,1.2 -0.4,1.7 -0.3,0.5 -0.7,0.9 -1.1,1.2 -0.5,0.3 -1,0.5 -1.5,0.7 -0.6,0.1 -1.2,0.2 -1.7,0.2 -0.5,0 -1,0 -1.5,-0.1 -0.5,-0.1 -1,-0.2 -1.4,-0.4 -0.5,-0.2 -0.9,-0.4 -1.3,-0.6 -0.4,-0.2 -0.8,-0.5 -1.2,-0.8 l 1,-2 c 0.3,0.3 0.6,0.5 0.9,0.7 0.3,0.2 0.7,0.4 1.1,0.6 0.4,0.2 0.8,0.3 1.2,0.4 0.4,0.1 0.8,0.1 1.2,0.1 0.2,0 0.5,0 0.7,-0.1 0.2,-0.1 0.5,-0.1 0.7,-0.2 0.2,-0.1 0.4,-0.3 0.5,-0.4 0.1,-0.2 0.2,-0.4 0.2,-0.7 0,-0.3 -0.1,-0.6 -0.3,-0.8 -0.2,-0.2 -0.4,-0.4 -0.8,-0.6 -0.3,-0.2 -0.7,-0.3 -1.1,-0.4 -0.4,-0.1 -0.8,-0.2 -1.2,-0.4 -0.4,-0.1 -0.8,-0.3 -1.2,-0.5 -0.4,-0.2 -0.8,-0.4 -1.1,-0.7 -0.3,-0.3 -0.6,-0.6 -0.8,-1 -0.2,-0.4 -0.3,-0.9 -0.3,-1.4 0,-0.6 0.1,-1.2 0.4,-1.6 0.3,-0.4 0.6,-0.8 1.1,-1.1 0.4,-0.3 0.9,-0.5 1.5,-0.6 0.6,-0.1 1.1,-0.2 1.7,-0.2 0.4,0 0.8,0 1.2,0.1 0.4,0.1 0.8,0.1 1.2,0.3 0.4,0.1 0.8,0.3 1.1,0.4 0.3,0.1 0.7,0.4 1,0.6 z"
   id="path19" />
						<path
   class="st3"
   d="m 728.4,580.1 h 2.5 v 10.4 h 5.4 v 2.1 h -7.9 z"
   id="path20" />
						<path
   class="st3"
   d="m 748.2,580.4 c 0.8,0.3 1.5,0.8 2.1,1.3 0.6,0.5 1.1,1.2 1.4,2 0.3,0.8 0.5,1.6 0.5,2.5 0,0.9 -0.2,1.7 -0.5,2.5 -0.3,0.8 -0.8,1.5 -1.4,2 -0.6,0.5 -1.3,1 -2.1,1.4 -0.8,0.3 -1.7,0.5 -2.6,0.5 -0.9,0 -1.8,-0.2 -2.6,-0.5 -0.8,-0.3 -1.5,-0.8 -2.1,-1.4 -0.6,-0.6 -1.1,-1.3 -1.4,-2 -0.3,-0.8 -0.5,-1.6 -0.5,-2.5 0,-0.9 0.2,-1.8 0.5,-2.5 0.3,-0.8 0.8,-1.5 1.4,-2 0.6,-0.6 1.3,-1 2.1,-1.3 0.8,-0.3 1.7,-0.5 2.6,-0.5 0.9,0.1 1.8,0.2 2.6,0.5 z m -4.2,2 c -0.5,0.2 -0.9,0.5 -1.3,0.9 -0.4,0.4 -0.7,0.8 -0.9,1.4 -0.2,0.5 -0.3,1.1 -0.3,1.7 0,0.6 0.1,1.2 0.3,1.7 0.2,0.5 0.5,1 0.9,1.4 0.4,0.4 0.8,0.7 1.3,0.9 0.5,0.2 1,0.3 1.6,0.3 0.6,0 1.1,-0.1 1.6,-0.3 0.5,-0.2 0.9,-0.5 1.3,-0.9 0.4,-0.4 0.7,-0.8 0.9,-1.4 0.2,-0.5 0.3,-1.1 0.3,-1.7 0,-0.6 -0.1,-1.2 -0.3,-1.7 -0.2,-0.5 -0.5,-1 -0.9,-1.4 -0.4,-0.4 -0.8,-0.7 -1.3,-0.9 -0.5,-0.2 -1,-0.3 -1.6,-0.3 -0.6,0 -1.1,0.1 -1.6,0.3 z"
   id="path21" />
						<path
   class="st3"
   d="m 765,583.7 c -0.2,-0.3 -0.5,-0.5 -0.7,-0.7 -0.3,-0.2 -0.5,-0.4 -0.8,-0.5 -0.3,-0.1 -0.6,-0.2 -0.9,-0.3 -0.3,-0.1 -0.6,-0.1 -0.9,-0.1 -0.6,0 -1.1,0.1 -1.6,0.3 -0.5,0.2 -0.9,0.5 -1.3,0.9 -0.4,0.4 -0.7,0.8 -0.9,1.3 -0.2,0.5 -0.3,1.1 -0.3,1.7 0,0.6 0.1,1.1 0.3,1.7 0.2,0.5 0.5,1 0.9,1.4 0.4,0.4 0.8,0.7 1.3,0.9 0.5,0.2 1,0.3 1.6,0.3 0.3,0 0.6,0 0.9,-0.1 0.3,-0.1 0.6,-0.2 0.9,-0.3 0.3,-0.1 0.6,-0.3 0.8,-0.5 0.2,-0.2 0.5,-0.4 0.8,-0.6 l 1.5,1.5 c -0.3,0.3 -0.7,0.6 -1.1,0.9 -0.4,0.3 -0.8,0.5 -1.2,0.7 -0.4,0.2 -0.9,0.3 -1.3,0.4 -0.5,0.1 -0.9,0.2 -1.3,0.2 -0.9,0 -1.8,-0.2 -2.6,-0.5 -0.8,-0.3 -1.5,-0.8 -2.1,-1.4 -0.6,-0.6 -1,-1.3 -1.4,-2 -0.3,-0.8 -0.5,-1.6 -0.5,-2.5 0,-0.9 0.2,-1.7 0.5,-2.5 0.3,-0.8 0.8,-1.5 1.4,-2 0.6,-0.5 1.3,-1 2.1,-1.3 0.8,-0.3 1.7,-0.5 2.6,-0.5 0.4,0 0.9,0 1.3,0.1 0.4,0.1 0.9,0.2 1.3,0.4 0.4,0.2 0.8,0.4 1.2,0.6 0.4,0.2 0.7,0.5 1,0.8 z"
   id="path22" />
						<path
   class="st3"
   d="m 774,580.1 h 2.6 l 5.4,12.5 h -2.7 l -4.1,-10 -4.1,10 h -2.6 z m -2.5,7.8 h 7.4 v 2 h -7.4 z"
   id="path23" />
						<path
   class="st3"
   d="m 785.1,580.1 h 2.5 v 10.4 h 5.4 v 2.1 h -7.9 z"
   id="path24" />
						<path
   class="st3"
   d="m 808.2,580.1 c 1,0 1.8,0.2 2.6,0.5 0.8,0.3 1.5,0.7 2.1,1.3 0.6,0.6 1,1.2 1.3,2 0.3,0.8 0.5,1.6 0.5,2.5 0,0.9 -0.2,1.7 -0.5,2.5 -0.3,0.8 -0.8,1.4 -1.4,2 -0.6,0.6 -1.3,1 -2.1,1.3 -0.8,0.3 -1.7,0.5 -2.7,0.5 h -5.1 v -12.5 h 5.3 z m 0,10.4 c 0.6,0 1.1,-0.1 1.6,-0.3 0.5,-0.2 0.9,-0.5 1.2,-0.9 0.3,-0.4 0.6,-0.8 0.8,-1.3 0.2,-0.5 0.3,-1.1 0.3,-1.7 0,-0.6 -0.1,-1.2 -0.3,-1.7 -0.2,-0.5 -0.5,-1 -0.8,-1.3 -0.4,-0.4 -0.8,-0.7 -1.3,-0.9 -0.5,-0.2 -1,-0.3 -1.6,-0.3 h -2.7 v 8.3 h 2.8 z"
   id="path25" />
						<path
   class="st3"
   d="m 818.4,580.1 h 9.3 v 2.1 H 821 v 3.1 h 6 v 2.1 h -6 v 3.2 h 6.9 v 2.1 h -9.5 z"
   id="path26" />
						<path
   class="st3"
   d="m 835.9,580.1 h 2.6 l 5.4,12.5 h -2.7 l -4.1,-10 -4.1,10 h -2.6 z m -2.6,7.8 h 7.4 v 2 h -7.4 z"
   id="path27" />
						<path
   class="st3"
   d="m 847,580.1 h 2.5 v 10.4 h 5.4 v 2.1 H 847 Z"
   id="path28" />
						<path
   class="st3"
   d="m 866.4,583.3 c -0.3,-0.2 -0.6,-0.3 -0.9,-0.5 -0.3,-0.2 -0.6,-0.3 -1,-0.4 -0.4,-0.1 -0.7,-0.2 -1,-0.3 -0.3,-0.1 -0.7,-0.1 -1,-0.1 -0.2,0 -0.4,0 -0.6,0.1 -0.2,0 -0.4,0.1 -0.6,0.2 -0.2,0.1 -0.3,0.2 -0.4,0.4 -0.1,0.2 -0.2,0.4 -0.2,0.6 0,0.3 0.1,0.6 0.3,0.8 0.2,0.2 0.4,0.4 0.8,0.5 0.3,0.2 0.7,0.3 1.1,0.4 0.4,0.1 0.8,0.2 1.2,0.4 0.4,0.1 0.8,0.3 1.2,0.5 0.4,0.2 0.8,0.4 1.1,0.7 0.3,0.3 0.6,0.6 0.8,1 0.2,0.4 0.3,0.9 0.3,1.4 0,0.7 -0.1,1.2 -0.4,1.7 -0.3,0.5 -0.7,0.9 -1.1,1.2 -0.5,0.3 -1,0.5 -1.5,0.7 -0.6,0.1 -1.2,0.2 -1.7,0.2 -0.5,0 -1,0 -1.5,-0.1 -0.5,-0.1 -1,-0.2 -1.4,-0.4 -0.5,-0.2 -0.9,-0.4 -1.3,-0.6 -0.4,-0.2 -0.8,-0.5 -1.2,-0.8 l 1,-2 c 0.3,0.3 0.6,0.5 0.9,0.7 0.3,0.2 0.7,0.4 1.1,0.6 0.4,0.2 0.8,0.3 1.2,0.4 0.4,0.1 0.8,0.1 1.2,0.1 0.2,0 0.5,0 0.7,-0.1 0.2,-0.1 0.5,-0.1 0.7,-0.2 0.2,-0.1 0.4,-0.3 0.5,-0.4 0.1,-0.2 0.2,-0.4 0.2,-0.7 0,-0.3 -0.1,-0.6 -0.3,-0.8 -0.2,-0.2 -0.4,-0.4 -0.8,-0.6 -0.3,-0.2 -0.7,-0.3 -1.1,-0.4 -0.4,-0.1 -0.8,-0.2 -1.2,-0.4 -0.4,-0.1 -0.8,-0.3 -1.2,-0.5 -0.4,-0.2 -0.8,-0.4 -1.1,-0.7 -0.3,-0.3 -0.6,-0.6 -0.8,-1 -0.2,-0.4 -0.3,-0.9 -0.3,-1.4 0,-0.6 0.1,-1.2 0.4,-1.6 0.3,-0.4 0.6,-0.8 1.1,-1.1 0.4,-0.3 0.9,-0.5 1.5,-0.6 0.6,-0.1 1.1,-0.2 1.7,-0.2 0.4,0 0.8,0 1.2,0.1 0.4,0.1 0.8,0.1 1.2,0.3 0.4,0.1 0.8,0.3 1.1,0.4 0.3,0.1 0.7,0.4 1,0.6 z"
   id="path29" />
					</g>
				</g>
			</g>
			<rect
   x="879.70001"
   y="584.79999"
   class="st4"
   width="35.400002"
   height="3.3"
   id="rect31" />
			<rect
   x="513"
   y="584.79999"
   class="st4"
   width="35.400002"
   height="3.3"
   id="rect32" />
		</g>
	</g>
	<path
   class="st5"
   d="m 387.9,540.1 c -0.4,-0.1 -0.8,-0.1 -1.2,-0.2 0.4,0.1 0.8,0.1 1.2,0.2 z"
   id="path33" />
	<path
   class="st6"
   d="m 339.8,541 c -1,-1.1 -2.9,-1.9 -3.1,-2 0.5,0.1 1,0.2 1.4,0.4 0.8,0.5 1.3,1 1.7,1.6 z"
   id="path34" />
	<g
   id="g46">
		<path
   class="st4"
   d="m 319.3,458.3 -8.6,10.9 -15.2,20.2 c 0,0 0,0 0,0 -9.4,-6.6 -18.6,-11.9 -33,-13.8 -1.2,-0.2 -9.5,-0.1 -9.6,-0.1 -24.3,1.9 -43.4,20 -43.4,45 0,24.8 19.6,44.3 44.9,44.6 l 0.1,30.7 h -3.3 v -11.4 l -2,-2 h -3.7 v -2.9 l -0.9,-1.7 -7.1,-4.7 v -1.9 l -2,-2 H 234 l -2,2 v 1.9 l -8.3,5.2 -1,1.7 v 7.7 c -0.1,-0.1 -0.1,-0.1 -0.2,-0.2 -0.6,-0.6 -1.6,-1.3 -3.2,-1.3 -1.1,0 -2.2,0.3 -3.2,0.7 v -32.4 l -2,-2 h -1.8 l -3.8,-4.6 -1.6,-0.7 h -1.6 V 546 l -2,-2 h -0.7 l -2,2 v 1.1 h -1.2 l -1.3,0.5 -6.5,5.5 -0.7,1.6 c 0.1,7.1 0.2,17 0.2,24.2 -16,-14.8 -26,-35.8 -26.1,-59.1 -0.1,-36.9 19.5,-65.2 57.9,-78.6 30.4,-9.7 54.5,-3 54.5,-3 26.3,5.6 41.9,20.1 41.9,20.1 z"
   id="path35" />
		<path
   class="st4"
   d="m 320.4,507.6 v 32.1 0 39 l -7.9,-4.8 v -0.2 l -2,-2 h -1.8 l -2,1.9 v 0.3 l -7.8,5.3 -0.9,1.7 v 6.8 l -4.9,-3.7 h -2.5 l -6.6,5 v -25.6 l -1.9,-2 c -0.9,-0.1 -1,-0.4 -1.3,-0.9 v -0.1 c -0.1,-0.2 -0.2,-0.4 -0.3,-0.5 0.4,-0.2 0.8,-0.5 1.1,-0.7 V 539.7 H 250 v -32.1 z"
   id="path36" />
		<path
   class="st3"
   d="m 429.4,586.5 h -4.2 c 0,0 -8.5,-14.5 -22.6,-27.6 -2.1,-1.9 -4.2,-3.8 -6.5,-5.6 0,0 -8,-17 -6.3,-24.9 0,0 0.8,-3.9 4.2,-4.6 3.4,-0.7 6.5,0.9 9.7,4.7 1.4,1.6 3.6,4.6 6.3,9.3 3.6,6.1 7.9,15.1 12.2,27.5 0,0 2,6.6 4.3,13 0.9,2.7 0.6,5.6 2.9,8.2 z"
   id="path37" />
		<path
   class="st3"
   d="m 324.5,576.4 v -38.1 c 0,0 12.2,4.5 24.5,2.9 -5.3,4.7 -9.6,9.6 -13.2,14.8 -3.6,5.2 -6.6,10.7 -9.5,16.4 z"
   id="path38" />
		<g
   id="g40">
			<path
   class="st3"
   d="m 436.5,540.5 v 0 c -0.4,-0.5 -0.8,-0.9 -1.1,-1.3 0,0 0,0 0,0 14.9,-6 26.8,-25.5 26.8,-46.6 0,-20.6 -9.7,-45.1 -45.2,-52.2 -8.1,-1.6 -36.8,-1.6 -36.8,-1.6 h -55.6 v 99.5 c 0,0 48.3,-2.6 79.7,-49 -0.4,0.4 -13.1,13 -20.9,17.5 0,0 -13.6,8.3 -34.3,12.4 3.1,-8.4 6.3,-22.5 7.1,-45.8 0,0 3.2,-2.6 7.6,8.3 4.4,10.9 6.1,20.1 7.1,20.7 0,0 -2.2,0.5 -7.7,-1.9 l -0.3,3.9 c 0,0 5.2,0 8.1,-1.5 0,0 12.4,0.6 13.3,-14.3 0,0 -0.1,-9.7 5.1,-2.2 0,0 4.6,7.7 8.7,-0.4 3.4,-6.8 5.3,-18.1 5.3,-18.1 1.8,-6.5 2.5,-7.9 2.5,-7.9 4.6,-10.7 6.7,-0.5 6.7,-0.5 l 2.3,13 3.7,24.5 7.9,48.6 6.3,40.7 3.1,10.9 c 0,0 2.7,0 6.7,0 v -1.3 l 2,-2 h 18 l 2,2 v 1.2 c 8.5,0 15.6,0 15.5,0.1 0.2,0 -30.7,-41 -43.6,-56.7 z"
   id="path39" />
			<path
   class="st3"
   d="m 369.2,517.6 c 0,0 -18.2,11.3 -27,13.1 0.2,-0.1 3.4,-2.5 6.8,-11.5 0.9,0.3 8,3.3 20.2,-1.6 z"
   id="path40" />
		</g>
		<path
   class="st3"
   d="m 415.1,505.2 -15.2,9.4 c 0,0 -19.9,9.4 -26,14.8 -3.7,3.3 -22.7,16.5 -29.5,47.1 h -0.1 l -2.5,0.1 -5.2,4.2 c 3.4,-10.4 9.6,-26.3 19.2,-38.8 15.5,-20.1 38.1,-26.7 59.3,-36.8 z"
   id="path41" />
		<path
   class="st3"
   d="m 389,593.9 -3,-0.3 c 0,0 0,0 0,0 -1.2,-0.8 -2.7,-1.2 -4.1,-1.5 v -23.6 l -2,-2 h -1.1 c -1.2,-3.7 -4.1,-5.5 -6.5,-6.2 V 557 l -2,-2 h -1.5 l -2,2 v 3.4 c -4.4,1.4 -6.4,4.2 -7.2,6 h -1.4 l -1,1 c 1.2,-7.7 3,-15.8 5.4,-21.7 0,0 9.6,-9.6 22.9,0 0.3,0.2 0.5,0.6 0.6,1 0.2,5.6 2.2,43 2.9,47.2 z"
   id="path42" />
		<path
   class="st5"
   d="m 377.6,642 c -22.2,2.6 -71.6,-12.9 -71.6,-12.9 -40.2,-11.5 -90.9,0.3 -90.9,0.3 -16.8,4.5 -58.7,14.3 -58.7,14.3 105.2,-45.9 159.3,-25.5 159.3,-25.5 1.1,0.2 2.1,0.4 3,0.6 -1.5,-0.1 -2.7,-0.2 -3.5,-0.2 -4,0 42.9,17.8 62.4,23.4 z"
   id="path43" />
		<path
   class="st0"
   d="m 500.7,605.7 v 17.4 c -0.4,0 -0.2,0 -0.6,0.1 -1.5,-7.3 -5,-10.5 -7.7,-11.9 -2.5,-1.3 -5.6,-1.2 -8.1,0.2 -5.7,3.3 -6.9,11.2 -7.2,14 -0.9,0 -1.9,0 -2.8,0 -1.1,-8.7 -4.8,-12.4 -7.8,-14.1 -2.8,-1.5 -6.2,-1.3 -8.9,0.4 -4.1,2.7 -5.7,7.9 -6.3,11.3 -1.2,-0.2 -2.4,-0.4 -3.6,-0.7 -1.5,-6.6 -4.7,-9.7 -7.4,-11.1 -2.8,-1.5 -6.1,-1.3 -8.7,0.5 -1.8,1.1 -3,2.7 -4,4.4 -4.4,-1.7 -14.8,-5.3 -24.4,-5.8 0,0 -14.2,-1.9 -22.9,2.8 0,0 15.2,0.6 17.7,4.7 0.2,0.3 0.2,0.8 0,1.1 -0.5,0.7 -2,1.7 -6.4,0.9 0,0 -5.2,-0.6 -10.2,-2.4 0,0 -33.3,-13.4 -65,-7.8 0,0 16.1,1.9 21.9,6.1 0.2,0 0.4,0.1 0.5,0.1 -0.2,0 -0.4,-0.1 -0.5,-0.1 0.7,0.5 1.3,1.1 1.6,1.6 0.5,0.5 0.8,1.1 0.4,1.7 -0.2,0.2 -0.5,0.5 -0.9,0.7 -0.2,0.1 -0.3,0.1 -0.5,0.2 0,0 -0.3,0 -0.8,-0.1 0,0 0,0 0,0 -2.9,-0.4 -13.2,-2 -19.2,-2.5 v 0 c -1,-0.2 -2,-0.4 -3,-0.6 0,0 -48.5,-18.3 -143.2,18.9 v -10.5 -18.9 l 0.2,-28 6,-5.2 v -1.5 h 1.9 l 0.2,1.5 6.8,5.2 v 9 c 0,0 3.9,-1.9 5.4,1.7 0.2,0.4 0.2,-3.3 0.2,-8.4 0,-10.2 -0.2,-26.1 -0.2,-26.1 l 6.5,-5.5 h 3.2 v -3.1 h 0.7 v 3.1 h 3.6 l 4.4,5.4 h 2.7 v 35.8 c 0,0 8.2,-5.8 7.6,1.8 v 1.2 h 3 v -13.4 l 9.2,-5.8 v -3 h 1.5 v 3 l 8,5.3 v 4.9 h 5.8 v 13.4 h 7.4 l -0.1,-32.8 v -2.2 c 1,-0.2 1.7,-0.6 2.3,-1.2 0.6,-0.6 1.1,-1.3 1.5,-2.2 0.9,-1.9 3.3,-4.2 7.2,-4 v -7.4 l 0.9,-1.8 0.9,1.8 v 7.4 c 0,0 5.6,-1.1 9.3,5.5 0.1,0.2 0.2,0.3 0.3,0.5 0.3,0.6 0.9,1.9 2.9,2.1 v 33.6 h 2.8 v -6 l 7.1,-5.3 6.9,5.2 v 5.1 h 1.3 v -15 l 8.7,-5.9 0.1,-1.3 h 1.8 v 1.3 l 9.5,5.9 v 7.9 c 0,0 0.1,0 0.4,-0.1 1.8,-0.3 9.3,-0.9 8.4,7.2 h 1.7 v 1.6 h 4.2 v -12.3 l 0.9,-0.8 7.6,-6.2 0.8,0.6 8.5,6.3 v 10.5 h 3.5 l 2.2,1.7 v -28.9 h 2.8 c 0,0 0.8,-5.1 7.7,-6.5 v -5 h 1.5 v 5 c 0,0 6,0.4 6.9,6.5 h 2.8 v 25.5 c 0,0 6.8,-0.3 7.8,5.4 v 8.8 h 2.2 c 0,0 2.9,-6.9 6.6,-0.4 h 1.5 v -11.8 l 12.2,-7.3 10.6,7.3 0.1,9.8 H 445 v -10.1 h 18 v 9.9 h 37.7 z"
   id="path44" />
		<path
   class="st7"
   d="m 509.1,621.9 c -4.2,3 -8.4,5.6 -12.6,7.8 -7.7,1.8 -31.2,5.7 -60.8,-3.4 0,0 10.5,9.5 -20.6,-1.4 0,0 5.2,10.4 -10.3,5.1 0,0 11.7,13.9 -36.8,-7.8 0,0 -0.7,2.8 7.6,10 0,0 -14.9,0.2 -26.6,-14.1 0,0 -1.9,1 -10.9,-1.2 -5.8,-4.1 -21.9,-6.1 -21.9,-6.1 31.7,-5.6 65,7.8 65,7.8 5,1.8 10.2,2.4 10.2,2.4 4.4,0.7 5.9,-0.2 6.4,-1 0.2,-0.3 0.2,-0.8 0,-1.1 -2.5,-4.1 -17.7,-4.7 -17.7,-4.7 8.7,-4.7 22.9,-2.8 22.9,-2.8 12.5,0.6 26.5,6.6 26.5,6.6 6.4,2.4 15.1,4.7 15.1,4.7 39.3,9.1 63.9,-0.5 64.5,-0.8 z"
   id="path45" />
		<path
   class="st8"
   d="m 496.5,629.8 c -38.1,19.9 -75.4,7.7 -75.4,7.7 -7.7,6 -18.1,7 -26.3,6.5 -0.4,0 -0.8,-0.1 -1.3,-0.1 -1.2,-0.1 -2.4,-0.2 -3.5,-0.4 -0.3,0 -0.5,-0.1 -0.7,-0.1 -0.5,-0.1 -0.9,-0.1 -1.3,-0.2 -0.4,-0.1 -0.8,-0.1 -1.2,-0.2 -0.1,0 -0.2,0 -0.3,-0.1 -0.2,0 -0.4,-0.1 -0.6,-0.1 -0.4,-0.1 -0.8,-0.2 -1.2,-0.2 -0.2,0 -0.3,-0.1 -0.5,-0.1 -0.2,0 -0.3,-0.1 -0.5,-0.1 0,0 -0.1,0 -0.1,0 -0.1,0 -0.3,-0.1 -0.4,-0.1 -1.6,-0.4 -2.6,-0.7 -2.6,-0.7 -0.9,0.2 -1.9,0.4 -3,0.5 -19.5,-5.6 -66.5,-23.4 -62.4,-23.5 0.8,0 2,0 3.5,0.2 v 0 c 6,0.5 16.3,2.1 19.2,2.5 0,0 0,0 0,0 0.5,0.1 0.8,0.1 0.8,0.1 0.2,-0.1 0.4,-0.1 0.5,-0.2 0.5,-0.2 0.8,-0.5 0.9,-0.7 0.4,-0.5 0.1,-1.1 -0.4,-1.7 -0.4,-0.6 -0.9,-1.1 -1.6,-1.7 8.9,2.1 10.9,1.2 10.9,1.2 11.7,14.3 26.6,14.1 26.6,14.1 -8.3,-7.2 -7.6,-10 -7.6,-10 48.5,21.8 36.8,7.8 36.8,7.8 15.5,5.3 10.3,-5.1 10.3,-5.1 31.1,10.9 20.6,1.4 20.6,1.4 29.6,9 53.1,5 60.8,3.3 z"
   id="path46" />
	</g>
</g>
</svg>
